M48
; DRILL file {KiCad (6.0.0)} date Sun Jan 23 21:03:47 2022
; FORMAT={-:-/ absolute / inch / decimal}
; #@! TF.CreationDate,2022-01-23T21:03:47+07:00
; #@! TF.GenerationSoftware,Kicad,Pcbnew,(6.0.0)
; #@! TF.FileFunction,Plated,1,2,PTH
FMAT,2
INCH
; #@! TA.AperFunction,Plated,PTH,ViaDrill
T1C0.0118
; #@! TA.AperFunction,Plated,PTH,ComponentDrill
T2C0.0197
; #@! TA.AperFunction,Plated,PTH,ComponentDrill
T3C0.0866
%
G90
G05
T1
X3.2362Y-2.2598
X3.27Y-2.5276
X3.2823Y-2.8433
X3.2823Y-2.9833
X3.2823Y-3.1233
X3.2823Y-3.2633
X3.2823Y-3.4033
X3.2823Y-3.5433
X3.2823Y-3.6833
X3.2823Y-3.8233
X3.2825Y-2.705
X3.2913Y-1.8976
X3.2913Y-1.9291
X3.2913Y-1.9606
X3.2913Y-1.9921
X3.2913Y-2.0236
X3.2913Y-2.0551
X3.2913Y-2.0866
X3.2913Y-2.1181
X3.2913Y-2.1496
X3.2913Y-2.1811
X3.2913Y-2.2126
X3.2913Y-2.2441
X3.2913Y-2.2756
X3.3Y-2.38
X3.3175Y-2.6375
X3.3175Y-2.705
X3.3177Y-2.7767
X3.3177Y-2.8433
X3.3177Y-2.9167
X3.3177Y-2.9833
X3.3177Y-3.0567
X3.3177Y-3.1233
X3.3177Y-3.1967
X3.3177Y-3.2633
X3.3177Y-3.3367
X3.3177Y-3.4033
X3.3177Y-3.4767
X3.3177Y-3.5433
X3.3177Y-3.6167
X3.3177Y-3.6833
X3.3177Y-3.7567
X3.3177Y-3.8233
X3.33Y-2.5276
X3.3543Y-2.5906
X3.3555Y-3.5894
X3.3701Y-2.0472
X3.3823Y-3.8233
X3.3825Y-2.705
X3.3825Y-2.8425
X3.3825Y-2.9825
X3.3825Y-3.1225
X3.3825Y-3.2625
X3.3825Y-3.4025
X3.3825Y-3.5425
X3.3825Y-3.6825
X3.3858Y-2.2283
X3.4016Y-2.4331
X3.4016Y-2.4961
X3.4094Y-2.315
X3.4173Y-2.5669
X3.4175Y-2.6375
X3.4175Y-2.705
X3.4175Y-2.8425
X3.4175Y-2.9825
X3.4175Y-3.1225
X3.4175Y-3.2625
X3.4175Y-3.4025
X3.4175Y-3.5425
X3.4175Y-3.6825
X3.4177Y-2.7767
X3.4177Y-2.9167
X3.4177Y-3.0567
X3.4177Y-3.1967
X3.4177Y-3.3367
X3.4177Y-3.4767
X3.4177Y-3.6167
X3.4177Y-3.7567
X3.4177Y-3.8233
X3.4331Y-2.4331
X3.4331Y-2.4961
X3.4409Y-2.2756
X3.4488Y-1.685
X3.4567Y-2.5669
X3.4617Y-3.7294
X3.4646Y-2.4331
X3.4646Y-2.4961
X3.4823Y-3.8233
X3.4825Y-2.705
X3.4825Y-2.8425
X3.4825Y-2.9825
X3.4825Y-3.1225
X3.4825Y-3.2625
X3.4825Y-3.4025
X3.4825Y-3.5425
X3.4825Y-3.685
X3.49Y-2.381
X3.4961Y-2.4331
X3.4972Y-2.4961
X3.5175Y-2.6375
X3.5175Y-2.705
X3.5175Y-2.8425
X3.5175Y-2.9825
X3.5175Y-3.1225
X3.5175Y-3.2625
X3.5175Y-3.4025
X3.5175Y-3.5425
X3.5175Y-3.685
X3.5177Y-2.7767
X3.5177Y-2.9167
X3.5177Y-3.0567
X3.5177Y-3.1967
X3.5177Y-3.3367
X3.5177Y-3.4767
X3.5177Y-3.6167
X3.5177Y-3.7567
X3.5177Y-3.8233
X3.5197Y-1.9921
X3.5197Y-2.0236
X3.5197Y-2.0551
X3.5197Y-2.0866
X3.5276Y-2.1496
X3.5512Y-2.5906
X3.5585Y-3.4494
X3.5591Y-2.1575
X3.5823Y-3.8233
X3.5825Y-2.705
X3.5825Y-2.8425
X3.5825Y-2.9825
X3.5825Y-3.1225
X3.5825Y-3.2625
X3.5825Y-3.4025
X3.5825Y-3.5425
X3.5825Y-3.685
X3.5984Y-2.4331
X3.6028Y-2.4961
X3.611Y-2.2724
X3.6142Y-2.5669
X3.6175Y-2.6375
X3.6175Y-2.705
X3.6175Y-2.8425
X3.6175Y-2.9825
X3.6175Y-3.1225
X3.6175Y-3.2625
X3.6175Y-3.4025
X3.6175Y-3.5425
X3.6175Y-3.685
X3.6177Y-2.7767
X3.6177Y-2.9167
X3.6177Y-3.0567
X3.6177Y-3.1967
X3.6177Y-3.3367
X3.6177Y-3.4767
X3.6177Y-3.6167
X3.6177Y-3.7567
X3.6177Y-3.8233
X3.6299Y-2.4331
X3.6343Y-2.4961
X3.6457Y-2.5906
X3.6558Y-3.3094
X3.6614Y-2.4331
X3.6657Y-2.4961
X3.6823Y-3.8233
X3.6825Y-2.705
X3.6825Y-2.8425
X3.6825Y-2.9825
X3.6825Y-3.1225
X3.6825Y-3.2625
X3.6825Y-3.4025
X3.6825Y-3.5425
X3.6825Y-3.685
X3.685Y-2.315
X3.69Y-2.381
X3.6929Y-2.4331
X3.6972Y-2.4961
X3.7175Y-2.6375
X3.7175Y-2.705
X3.7175Y-2.8425
X3.7175Y-2.9825
X3.7175Y-3.1225
X3.7175Y-3.2625
X3.7175Y-3.4025
X3.7175Y-3.5425
X3.7175Y-3.685
X3.7177Y-2.7767
X3.7177Y-2.9167
X3.7177Y-3.0567
X3.7177Y-3.1967
X3.7177Y-3.3367
X3.7177Y-3.4767
X3.7177Y-3.6167
X3.7177Y-3.7567
X3.7177Y-3.8233
X3.7323Y-1.6919
X3.7323Y-1.7559
X3.7402Y-2.5906
X3.7598Y-3.1694
X3.7638Y-2.189
X3.7823Y-3.8233
X3.7825Y-2.705
X3.7825Y-2.8425
X3.7825Y-2.9825
X3.7825Y-3.1225
X3.7825Y-3.2625
X3.7825Y-3.4025
X3.7825Y-3.5425
X3.7825Y-3.685
X3.7953Y-1.6919
X3.8028Y-2.4961
X3.8031Y-2.315
X3.8031Y-2.4331
X3.8175Y-2.6375
X3.8175Y-2.705
X3.8175Y-2.8425
X3.8175Y-2.9825
X3.8175Y-3.1225
X3.8175Y-3.2625
X3.8175Y-3.4025
X3.8175Y-3.5425
X3.8175Y-3.685
X3.8177Y-2.7767
X3.8177Y-2.9167
X3.8177Y-3.0567
X3.8177Y-3.1967
X3.8177Y-3.3367
X3.8177Y-3.4767
X3.8177Y-3.6167
X3.8177Y-3.7567
X3.8177Y-3.8233
X3.8189Y-2.5669
X3.8343Y-2.4961
X3.8346Y-2.4331
X3.8504Y-2.5906
X3.8561Y-3.0294
X3.8583Y-1.6919
X3.8657Y-2.4961
X3.8661Y-2.4331
X3.8823Y-3.8233
X3.8825Y-2.705
X3.8825Y-2.8425
X3.8825Y-2.9825
X3.8825Y-3.1225
X3.8825Y-3.2625
X3.8825Y-3.4025
X3.8825Y-3.5425
X3.8825Y-3.685
X3.89Y-2.319
X3.89Y-2.381
X3.8976Y-2.4331
X3.8976Y-2.4961
X3.9175Y-2.6375
X3.9175Y-2.705
X3.9175Y-2.8425
X3.9175Y-2.9825
X3.9175Y-3.1225
X3.9175Y-3.2625
X3.9175Y-3.4025
X3.9175Y-3.5425
X3.9175Y-3.685
X3.9177Y-2.7767
X3.9177Y-2.9167
X3.9177Y-3.0567
X3.9177Y-3.1967
X3.9177Y-3.3367
X3.9177Y-3.4767
X3.9177Y-3.6167
X3.9177Y-3.7567
X3.9177Y-3.8233
X3.9213Y-1.6919
X3.937Y-2.5906
X3.9602Y-2.8894
X3.9823Y-3.8233
X3.9825Y-2.705
X3.9825Y-2.8425
X3.9825Y-2.9825
X3.9825Y-3.1225
X3.9825Y-3.2625
X3.9825Y-3.4025
X3.9825Y-3.5425
X3.9825Y-3.685
X3.9921Y-2.3465
X4.0Y-2.4331
X4.0Y-2.4961
X4.0079Y-1.7717
X4.0157Y-2.2362
X4.0157Y-2.5669
X4.0175Y-2.6375
X4.0175Y-2.705
X4.0175Y-2.8425
X4.0175Y-2.9825
X4.0175Y-3.1225
X4.0175Y-3.2625
X4.0175Y-3.4025
X4.0175Y-3.5425
X4.0175Y-3.685
X4.0177Y-2.7767
X4.0177Y-2.9167
X4.0177Y-3.0567
X4.0177Y-3.1967
X4.0177Y-3.3367
X4.0177Y-3.4767
X4.0177Y-3.6167
X4.0177Y-3.7567
X4.0177Y-3.8233
X4.0315Y-2.4331
X4.0315Y-2.4961
X4.0394Y-1.7717
X4.0394Y-2.5906
X4.0472Y-1.8189
X4.0472Y-1.8661
X4.0472Y-1.9134
X4.0472Y-1.9606
X4.0472Y-2.0079
X4.0472Y-2.0551
X4.0472Y-2.1024
X4.0565Y-2.7494
X4.063Y-1.7953
X4.063Y-1.8425
X4.063Y-1.8898
X4.063Y-1.937
X4.063Y-1.9843
X4.063Y-2.0315
X4.063Y-2.0787
X4.063Y-2.4331
X4.063Y-2.4961
X4.0787Y-2.1024
X4.0823Y-3.8233
X4.0825Y-2.705
X4.0825Y-2.8425
X4.0825Y-2.9825
X4.0825Y-3.1225
X4.0825Y-3.2625
X4.0825Y-3.4025
X4.0825Y-3.5425
X4.0825Y-3.685
X4.0866Y-2.315
X4.09Y-2.381
X4.0945Y-1.6535
X4.0945Y-2.4331
X4.0945Y-2.4961
X4.1024Y-2.1417
X4.1102Y-2.1024
X4.1175Y-2.6375
X4.1175Y-2.705
X4.1175Y-2.8425
X4.1175Y-2.9825
X4.1175Y-3.1225
X4.1175Y-3.2625
X4.1175Y-3.4025
X4.1175Y-3.5425
X4.1175Y-3.685
X4.1177Y-2.7767
X4.1177Y-2.9167
X4.1177Y-3.0567
X4.1177Y-3.1967
X4.1177Y-3.3367
X4.1177Y-3.4767
X4.1177Y-3.6167
X4.1177Y-3.7567
X4.1177Y-3.8233
X4.1181Y-1.9606
X4.1339Y-2.1417
X4.1575Y-1.8031
X4.1654Y-2.1417
X4.1823Y-3.8233
X4.1825Y-2.705
X4.1825Y-2.8425
X4.1825Y-2.9825
X4.1825Y-3.1225
X4.1825Y-3.2625
X4.1825Y-3.4025
X4.1825Y-3.5425
X4.1825Y-3.685
X4.189Y-2.0787
X4.1969Y-2.1417
X4.2028Y-2.4961
X4.2047Y-2.4331
X4.2175Y-2.6375
X4.2175Y-2.705
X4.2175Y-2.8425
X4.2175Y-2.9825
X4.2175Y-3.1225
X4.2175Y-3.2625
X4.2175Y-3.4025
X4.2175Y-3.5425
X4.2175Y-3.685
X4.2177Y-2.7767
X4.2177Y-2.9167
X4.2177Y-3.0567
X4.2177Y-3.1967
X4.2177Y-3.3367
X4.2177Y-3.4767
X4.2177Y-3.6167
X4.2177Y-3.7567
X4.2177Y-3.8233
X4.2205Y-2.5669
X4.2283Y-2.1417
X4.2343Y-2.4961
X4.2362Y-2.4331
X4.2657Y-2.4961
X4.2677Y-2.4331
X4.2823Y-3.8233
X4.2825Y-2.705
X4.2825Y-2.8425
X4.2825Y-2.9825
X4.2825Y-3.1225
X4.2825Y-3.2625
X4.2825Y-3.4025
X4.2825Y-3.5425
X4.2825Y-3.685
X4.29Y-2.319
X4.29Y-2.381
X4.2972Y-2.4961
X4.2992Y-2.4331
X4.3175Y-2.6375
X4.3175Y-2.705
X4.3175Y-2.8425
X4.3175Y-2.9825
X4.3175Y-3.1225
X4.3175Y-3.2625
X4.3175Y-3.4025
X4.3175Y-3.5425
X4.3175Y-3.685
X4.3177Y-2.7767
X4.3177Y-2.9167
X4.3177Y-3.0567
X4.3177Y-3.1967
X4.3177Y-3.3367
X4.3177Y-3.4767
X4.3177Y-3.6167
X4.3177Y-3.7567
X4.3177Y-3.8233
X4.332Y-1.6566
X4.3661Y-2.0768
X4.3701Y-1.939
X4.3823Y-3.8233
X4.3825Y-2.705
X4.3825Y-2.8425
X4.3825Y-2.9825
X4.3825Y-3.1225
X4.3825Y-3.2625
X4.3825Y-3.4025
X4.3825Y-3.5425
X4.3825Y-3.685
X4.4016Y-1.811
X4.4016Y-2.4331
X4.4016Y-2.4961
X4.4175Y-2.6375
X4.4175Y-2.705
X4.4175Y-2.8425
X4.4175Y-2.9825
X4.4175Y-3.1225
X4.4175Y-3.2625
X4.4175Y-3.4025
X4.4175Y-3.5425
X4.4175Y-3.685
X4.4177Y-2.7767
X4.4177Y-2.9167
X4.4177Y-3.0567
X4.4177Y-3.1967
X4.4177Y-3.3367
X4.4177Y-3.4767
X4.4177Y-3.6167
X4.4177Y-3.7567
X4.4177Y-3.8233
X4.4331Y-1.9528
X4.4331Y-2.4331
X4.4331Y-2.4961
X4.4331Y-2.5906
X4.4488Y-2.315
X4.4646Y-2.4331
X4.4646Y-2.4961
X4.4803Y-2.0079
X4.4823Y-3.8233
X4.4825Y-2.705
X4.4825Y-2.8425
X4.4825Y-2.9825
X4.4825Y-3.1225
X4.4825Y-3.2625
X4.4825Y-3.4025
X4.4825Y-3.5425
X4.4825Y-3.685
X4.49Y-2.318
X4.49Y-2.38
X4.4961Y-2.1969
X4.4961Y-2.4331
X4.4972Y-2.4961
X4.5039Y-1.8898
X4.5175Y-2.6375
X4.5175Y-2.705
X4.5175Y-2.8425
X4.5175Y-2.9825
X4.5175Y-3.1225
X4.5175Y-3.2625
X4.5175Y-3.4025
X4.5175Y-3.5425
X4.5175Y-3.685
X4.5177Y-2.7767
X4.5177Y-2.9167
X4.5177Y-3.0567
X4.5177Y-3.1967
X4.5177Y-3.3367
X4.5177Y-3.4767
X4.5177Y-3.6167
X4.5177Y-3.7567
X4.5177Y-3.8233
X4.5354Y-1.8425
T2
X3.23Y-1.9006
X3.23Y-1.94
X3.23Y-1.9794
X3.23Y-2.0187
X3.23Y-2.0581
X3.23Y-2.0975
X3.6378Y-1.9213
X3.6378Y-1.9606
X3.6378Y-2.0
X3.6378Y-2.0394
X3.6378Y-2.0787
X3.6772Y-1.9213
X3.6772Y-1.9606
X3.6772Y-2.0
X3.6772Y-2.0394
X3.6772Y-2.0787
X3.7165Y-1.9213
X3.7165Y-1.9606
X3.7165Y-2.0
X3.7165Y-2.0394
X3.7165Y-2.0787
X3.7559Y-1.9213
X3.7559Y-1.9606
X3.7559Y-2.0
X3.7559Y-2.0394
X3.7559Y-2.0787
X3.7953Y-1.9213
X3.7953Y-1.9606
X3.7953Y-2.0
X3.7953Y-2.0394
X3.7953Y-2.0787
X4.57Y-1.9031
X4.57Y-1.9425
X4.57Y-1.9819
X4.57Y-2.0213
X4.57Y-2.0606
X4.57Y-2.1
T3
X3.28Y-1.69
X4.52Y-1.69
T0
M30
