G04 #@! TF.GenerationSoftware,KiCad,Pcbnew,(6.0.0)*
G04 #@! TF.CreationDate,2022-01-23T21:03:46+07:00*
G04 #@! TF.ProjectId,rgb-board,7267622d-626f-4617-9264-2e6b69636164,rev?*
G04 #@! TF.SameCoordinates,Original*
G04 #@! TF.FileFunction,Copper,L2,Bot*
G04 #@! TF.FilePolarity,Positive*
%FSLAX46Y46*%
G04 Gerber Fmt 4.6, Leading zero omitted, Abs format (unit mm)*
G04 Created by KiCad (PCBNEW (6.0.0)) date 2022-01-23 21:03:46*
%MOMM*%
%LPD*%
G01*
G04 APERTURE LIST*
G04 Aperture macros list*
%AMRoundRect*
0 Rectangle with rounded corners*
0 $1 Rounding radius*
0 $2 $3 $4 $5 $6 $7 $8 $9 X,Y pos of 4 corners*
0 Add a 4 corners polygon primitive as box body*
4,1,4,$2,$3,$4,$5,$6,$7,$8,$9,$2,$3,0*
0 Add four circle primitives for the rounded corners*
1,1,$1+$1,$2,$3*
1,1,$1+$1,$4,$5*
1,1,$1+$1,$6,$7*
1,1,$1+$1,$8,$9*
0 Add four rect primitives between the rounded corners*
20,1,$1+$1,$2,$3,$4,$5,0*
20,1,$1+$1,$4,$5,$6,$7,0*
20,1,$1+$1,$6,$7,$8,$9,0*
20,1,$1+$1,$8,$9,$2,$3,0*%
G04 Aperture macros list end*
G04 #@! TA.AperFunction,ComponentPad*
%ADD10R,0.850000X0.850000*%
G04 #@! TD*
G04 #@! TA.AperFunction,ComponentPad*
%ADD11O,0.850000X0.850000*%
G04 #@! TD*
G04 #@! TA.AperFunction,ComponentPad*
%ADD12C,4.400000*%
G04 #@! TD*
G04 #@! TA.AperFunction,ComponentPad*
%ADD13C,0.600000*%
G04 #@! TD*
G04 #@! TA.AperFunction,SMDPad,CuDef*
%ADD14R,5.400000X5.400000*%
G04 #@! TD*
G04 #@! TA.AperFunction,SMDPad,CuDef*
%ADD15RoundRect,0.243750X0.456250X-0.243750X0.456250X0.243750X-0.456250X0.243750X-0.456250X-0.243750X0*%
G04 #@! TD*
G04 #@! TA.AperFunction,SMDPad,CuDef*
%ADD16RoundRect,0.250000X0.475000X-0.250000X0.475000X0.250000X-0.475000X0.250000X-0.475000X-0.250000X0*%
G04 #@! TD*
G04 #@! TA.AperFunction,SMDPad,CuDef*
%ADD17RoundRect,0.200000X-0.275000X0.200000X-0.275000X-0.200000X0.275000X-0.200000X0.275000X0.200000X0*%
G04 #@! TD*
G04 #@! TA.AperFunction,SMDPad,CuDef*
%ADD18RoundRect,0.250000X-0.475000X0.250000X-0.475000X-0.250000X0.475000X-0.250000X0.475000X0.250000X0*%
G04 #@! TD*
G04 #@! TA.AperFunction,SMDPad,CuDef*
%ADD19RoundRect,0.200000X-0.200000X-0.275000X0.200000X-0.275000X0.200000X0.275000X-0.200000X0.275000X0*%
G04 #@! TD*
G04 #@! TA.AperFunction,ViaPad*
%ADD20C,0.450000*%
G04 #@! TD*
G04 #@! TA.AperFunction,Conductor*
%ADD21C,0.150000*%
G04 #@! TD*
G04 APERTURE END LIST*
D10*
X82042000Y-53276000D03*
D11*
X82042000Y-52276000D03*
X82042000Y-51276000D03*
X82042000Y-50276000D03*
X82042000Y-49276000D03*
X82042000Y-48276000D03*
D12*
X83312000Y-42926000D03*
X114808000Y-42926000D03*
D10*
X116078000Y-53340000D03*
D11*
X116078000Y-52340000D03*
X116078000Y-51340000D03*
X116078000Y-50340000D03*
X116078000Y-49340000D03*
X116078000Y-48340000D03*
D13*
X93400000Y-48800000D03*
X92400000Y-51800000D03*
X95400000Y-48800000D03*
X96400000Y-49800000D03*
X92400000Y-50800000D03*
X95400000Y-52800000D03*
X94400000Y-52800000D03*
D14*
X94400000Y-50800000D03*
D13*
X93400000Y-49800000D03*
X95400000Y-51800000D03*
X94400000Y-50800000D03*
X96400000Y-52800000D03*
X94400000Y-51800000D03*
X95400000Y-50800000D03*
X93400000Y-51800000D03*
X92400000Y-49800000D03*
X96400000Y-51800000D03*
X94400000Y-48800000D03*
X94400000Y-49800000D03*
X93400000Y-50800000D03*
X96400000Y-50800000D03*
X92400000Y-48800000D03*
X95400000Y-49800000D03*
X92400000Y-52800000D03*
X93400000Y-52800000D03*
X96400000Y-48800000D03*
D15*
X103936000Y-43937500D03*
X103936000Y-42062500D03*
X105968000Y-43937500D03*
X105968000Y-42062500D03*
X108000000Y-43952500D03*
X108000000Y-42077500D03*
X110032000Y-43952500D03*
X110032000Y-42077500D03*
D16*
X105640000Y-47750000D03*
X105640000Y-45850000D03*
D17*
X99600000Y-42975000D03*
X99600000Y-44625000D03*
D16*
X107640000Y-47750000D03*
X107640000Y-45850000D03*
X109640000Y-47750000D03*
X109640000Y-45850000D03*
D17*
X94800000Y-42975000D03*
X94800000Y-44625000D03*
X96400000Y-42975000D03*
X96400000Y-44625000D03*
D18*
X111000000Y-49250000D03*
X111000000Y-51150000D03*
X106600000Y-49250000D03*
X106600000Y-51150000D03*
X108800000Y-49250000D03*
X108800000Y-51150000D03*
D16*
X111640000Y-47750000D03*
X111640000Y-45850000D03*
D19*
X85391637Y-49216637D03*
X87041637Y-49216637D03*
D17*
X98000000Y-42975000D03*
X98000000Y-44625000D03*
D20*
X83600000Y-49000000D03*
X110900000Y-52750000D03*
X95600000Y-55600000D03*
X90400000Y-54800000D03*
X112600000Y-49600000D03*
X94800000Y-42975000D03*
X89400000Y-53000000D03*
X111000000Y-49250000D03*
X83600000Y-48200000D03*
X99600000Y-42975000D03*
X89400000Y-50600000D03*
X89400000Y-51400000D03*
X98000000Y-42975000D03*
X96400000Y-42975000D03*
X89400000Y-52200000D03*
X87600000Y-42800000D03*
X105600000Y-45800000D03*
X115200000Y-46800000D03*
X114200000Y-55800000D03*
X106400000Y-52800000D03*
X82200000Y-57400000D03*
X104000000Y-42000000D03*
X111800000Y-46000000D03*
X113800000Y-51000000D03*
X114400000Y-48000000D03*
X104600000Y-49800000D03*
X110032000Y-42077500D03*
X94800000Y-44600000D03*
X113856000Y-82867500D03*
X113856000Y-75755500D03*
X113856000Y-93599000D03*
X113400000Y-63400000D03*
X113856000Y-89979500D03*
X113856000Y-68707000D03*
X113850000Y-97111000D03*
X113856000Y-72199500D03*
X113856000Y-79311500D03*
X113856000Y-86423500D03*
X114046000Y-58877000D03*
X107400000Y-54400000D03*
X114744000Y-89979500D03*
X114744000Y-79311500D03*
X114744000Y-82867500D03*
X114744000Y-75755500D03*
X114744000Y-86423500D03*
X114744000Y-72199500D03*
X114744000Y-68707000D03*
X114230000Y-63400000D03*
X114744000Y-93599000D03*
X114750000Y-97111000D03*
X114750000Y-77641000D03*
X114744000Y-66992500D03*
X114750000Y-81197000D03*
X114750000Y-91865000D03*
X114750000Y-84753000D03*
X114046000Y-60452000D03*
X114750000Y-88309000D03*
X114750000Y-70529000D03*
X114750000Y-74085000D03*
X114750000Y-95421000D03*
X114200000Y-61800000D03*
X106600000Y-54400000D03*
X113400000Y-61800000D03*
X105800000Y-54400000D03*
X105000000Y-54400000D03*
X112600000Y-61800000D03*
X104200000Y-54400000D03*
X111800000Y-61800000D03*
X113000000Y-58800000D03*
X104400000Y-53400000D03*
X103600000Y-53400000D03*
X108966000Y-58902500D03*
X109200000Y-61800000D03*
X102800000Y-53400000D03*
X111316000Y-82867500D03*
X111316000Y-75755500D03*
X111316000Y-86423500D03*
X111316000Y-72199500D03*
X111310000Y-97111000D03*
X111316000Y-68707000D03*
X111316000Y-79311500D03*
X111800000Y-63400000D03*
X111316000Y-93599000D03*
X111316000Y-89979500D03*
X112204000Y-89979500D03*
X112204000Y-93599000D03*
X112204000Y-75755500D03*
X112600000Y-63400000D03*
X112204000Y-79311500D03*
X112204000Y-68707000D03*
X112204000Y-82867500D03*
X112204000Y-86423500D03*
X112210000Y-97111000D03*
X112204000Y-72199500D03*
X112210000Y-88309000D03*
X112600000Y-65800000D03*
X112210000Y-91865000D03*
X112210000Y-81197000D03*
X112210000Y-74085000D03*
X112210000Y-95421000D03*
X112210000Y-70529000D03*
X112210000Y-77641000D03*
X112210000Y-84753000D03*
X112204000Y-66992500D03*
X108776000Y-89979500D03*
X108776000Y-68707000D03*
X108776000Y-72199500D03*
X108776000Y-93599000D03*
X108776000Y-86423500D03*
X108776000Y-82867500D03*
X108350000Y-63400000D03*
X108776000Y-75755500D03*
X108776000Y-79311500D03*
X108770000Y-97111000D03*
X109670000Y-97111000D03*
X109664000Y-93599000D03*
X109664000Y-79311500D03*
X109664000Y-89979500D03*
X109664000Y-82867500D03*
X109664000Y-72199500D03*
X109664000Y-75755500D03*
X109664000Y-68707000D03*
X109150000Y-63400000D03*
X109664000Y-86423500D03*
X109670000Y-81197000D03*
X108966000Y-60477500D03*
X109670000Y-77641000D03*
X109670000Y-84753000D03*
X109664000Y-66992500D03*
X109670000Y-91865000D03*
X109670000Y-74085000D03*
X109670000Y-70529000D03*
X109670000Y-88309000D03*
X109670000Y-95421000D03*
X106236000Y-68707000D03*
X106750000Y-63400000D03*
X106236000Y-75755500D03*
X106236000Y-86423500D03*
X106236000Y-79311500D03*
X106236000Y-89979500D03*
X106236000Y-82867500D03*
X106236000Y-93599000D03*
X106230000Y-97111000D03*
X106236000Y-72199500D03*
X107124000Y-72199500D03*
X107124000Y-79311500D03*
X107124000Y-75755500D03*
X107124000Y-86423500D03*
X107124000Y-82867500D03*
X107130000Y-97111000D03*
X107124000Y-89979500D03*
X107124000Y-68707000D03*
X107124000Y-93599000D03*
X107550000Y-63400000D03*
X107130000Y-95421000D03*
X107130000Y-91865000D03*
X107130000Y-70529000D03*
X107130000Y-84753000D03*
X107130000Y-88309000D03*
X107200000Y-65200000D03*
X107130000Y-77641000D03*
X107130000Y-74085000D03*
X107130000Y-81197000D03*
X107124000Y-66992500D03*
X103696000Y-79311500D03*
X103696000Y-82867500D03*
X103696000Y-89979500D03*
X103696000Y-68707000D03*
X103696000Y-72199500D03*
X103696000Y-93599000D03*
X103200000Y-63400000D03*
X103696000Y-75755500D03*
X103696000Y-86423500D03*
X103690000Y-97111000D03*
X104584000Y-82867500D03*
X104584000Y-75755500D03*
X104584000Y-79311500D03*
X104584000Y-86423500D03*
X104000000Y-63400000D03*
X104584000Y-72199500D03*
X104584000Y-68707000D03*
X104584000Y-93599000D03*
X104584000Y-89979500D03*
X104590000Y-97111000D03*
X104590000Y-77641000D03*
X104590000Y-91865000D03*
X104584000Y-66992500D03*
X104590000Y-95421000D03*
X104590000Y-84753000D03*
X104590000Y-88309000D03*
X104590000Y-70529000D03*
X103886000Y-60477500D03*
X104590000Y-81197000D03*
X104590000Y-74085000D03*
X101156000Y-82867500D03*
X101150000Y-97111000D03*
X101156000Y-79311500D03*
X101156000Y-68707000D03*
X101156000Y-86423500D03*
X101156000Y-89979500D03*
X101156000Y-72199500D03*
X101156000Y-75755500D03*
X101156000Y-93599000D03*
X101600000Y-63400000D03*
X102044000Y-68707000D03*
X102044000Y-93599000D03*
X102044000Y-86423500D03*
X102044000Y-89979500D03*
X102044000Y-79311500D03*
X102044000Y-72199500D03*
X102400000Y-63400000D03*
X102044000Y-75755500D03*
X102050000Y-97111000D03*
X102044000Y-82867500D03*
X102050000Y-91865000D03*
X102050000Y-84753000D03*
X102050000Y-77641000D03*
X102050000Y-74085000D03*
X102050000Y-95421000D03*
X102050000Y-88309000D03*
X102000000Y-65200000D03*
X102050000Y-81197000D03*
X102050000Y-70529000D03*
X102044000Y-66992500D03*
X98615500Y-72199500D03*
X98615500Y-68707000D03*
X98190000Y-63400000D03*
X98615500Y-86423500D03*
X98615500Y-89979500D03*
X98615500Y-93599000D03*
X98610000Y-97111000D03*
X98615500Y-82867500D03*
X98615500Y-75755500D03*
X98615500Y-79311500D03*
X99504500Y-75755500D03*
X99504500Y-68707000D03*
X99504500Y-82867500D03*
X99504500Y-79311500D03*
X99504500Y-72199500D03*
X99504500Y-93599000D03*
X99504500Y-86423500D03*
X99504500Y-89979500D03*
X99510000Y-97111000D03*
X99000000Y-63400000D03*
X99510000Y-77641000D03*
X98806000Y-60477500D03*
X99510000Y-88309000D03*
X99510000Y-84753000D03*
X99504500Y-66992500D03*
X99510000Y-70529000D03*
X99510000Y-91865000D03*
X99510000Y-95421000D03*
X99510000Y-81197000D03*
X99510000Y-74085000D03*
X96590000Y-63400000D03*
X96075500Y-72199500D03*
X96075500Y-89979500D03*
X96075500Y-82867500D03*
X96075500Y-79311500D03*
X96070000Y-97111000D03*
X96075500Y-93599000D03*
X96075500Y-86423500D03*
X96075500Y-68707000D03*
X96075500Y-75755500D03*
X96970000Y-97111000D03*
X96964500Y-79311500D03*
X96964500Y-86423500D03*
X96964500Y-89979500D03*
X96964500Y-75755500D03*
X96964500Y-68707000D03*
X96964500Y-72199500D03*
X96964500Y-93599000D03*
X96964500Y-82867500D03*
X97390000Y-63400000D03*
X96970000Y-88309000D03*
X96970000Y-95421000D03*
X96970000Y-91865000D03*
X96970000Y-77641000D03*
X96964500Y-66992500D03*
X96970000Y-74085000D03*
X96970000Y-84753000D03*
X97000000Y-65200000D03*
X96970000Y-70529000D03*
X96970000Y-81197000D03*
X93535500Y-93599000D03*
X93535500Y-68707000D03*
X93530000Y-97111000D03*
X93535500Y-89979500D03*
X93535500Y-72199500D03*
X93535500Y-82867500D03*
X93535500Y-75755500D03*
X93110000Y-63400000D03*
X93535500Y-79311500D03*
X93535500Y-86423500D03*
X94424500Y-89979500D03*
X93910000Y-63400000D03*
X94424500Y-93599000D03*
X94424500Y-82867500D03*
X94424500Y-68707000D03*
X94430000Y-97111000D03*
X94424500Y-79311500D03*
X94424500Y-72199500D03*
X94424500Y-75755500D03*
X94424500Y-86423500D03*
X93726000Y-60477500D03*
X94430000Y-74085000D03*
X94430000Y-81197000D03*
X94430000Y-84753000D03*
X94424500Y-66992500D03*
X94430000Y-88309000D03*
X94430000Y-91865000D03*
X94430000Y-70529000D03*
X94430000Y-95421000D03*
X94430000Y-77641000D03*
X90995500Y-79311500D03*
X90995500Y-93599000D03*
X90995500Y-82867500D03*
X90995500Y-68707000D03*
X90995500Y-75755500D03*
X90995500Y-89979500D03*
X90990000Y-97111000D03*
X90995500Y-72199500D03*
X90995500Y-86423500D03*
X91510000Y-63400000D03*
X91884500Y-75755500D03*
X91884500Y-86423500D03*
X91884500Y-82867500D03*
X91884500Y-89979500D03*
X92310000Y-63400000D03*
X91884500Y-68707000D03*
X91884500Y-79311500D03*
X91884500Y-93599000D03*
X91884500Y-72199500D03*
X91890000Y-97111000D03*
X91890000Y-81197000D03*
X91890000Y-91865000D03*
X91890000Y-77641000D03*
X91800000Y-65200000D03*
X91890000Y-74085000D03*
X91890000Y-88309000D03*
X91890000Y-95421000D03*
X91884500Y-66992500D03*
X91890000Y-84753000D03*
X91890000Y-70529000D03*
X88455500Y-86423500D03*
X88455500Y-89979500D03*
X88455500Y-68707000D03*
X88455500Y-79311500D03*
X88450000Y-97111000D03*
X88455500Y-75755500D03*
X88455500Y-82867500D03*
X88000000Y-63400000D03*
X88455500Y-93599000D03*
X88455500Y-72199500D03*
X89344500Y-86423500D03*
X88830000Y-63400000D03*
X89344500Y-89979500D03*
X89344500Y-68707000D03*
X89344500Y-82867500D03*
X89344500Y-93599000D03*
X89344500Y-75755500D03*
X89344500Y-79311500D03*
X89344500Y-72199500D03*
X89350000Y-97111000D03*
X89344500Y-66992500D03*
X88646000Y-60477500D03*
X89350000Y-74085000D03*
X89350000Y-88309000D03*
X89350000Y-70529000D03*
X89350000Y-81197000D03*
X89350000Y-91865000D03*
X89350000Y-77641000D03*
X89350000Y-84753000D03*
X89350000Y-95421000D03*
X85915500Y-72199500D03*
X85915500Y-75755500D03*
X85915500Y-82867500D03*
X86400000Y-63400000D03*
X85915500Y-86423500D03*
X85915500Y-89979500D03*
X85910000Y-97111000D03*
X85915500Y-68707000D03*
X85915500Y-93535500D03*
X85915500Y-79311500D03*
X86804500Y-86423500D03*
X86804500Y-89979500D03*
X87200000Y-63400000D03*
X86804500Y-93535500D03*
X86810000Y-97111000D03*
X86804500Y-75755500D03*
X86804500Y-82867500D03*
X86804500Y-68707000D03*
X86804500Y-79311500D03*
X86804500Y-72199500D03*
X86800000Y-65200000D03*
X86804500Y-66992500D03*
X86810000Y-84753000D03*
X86810000Y-81197000D03*
X86810000Y-74085000D03*
X86810000Y-88309000D03*
X86810000Y-77641000D03*
X86810000Y-95421000D03*
X86810000Y-91865000D03*
X86810000Y-70529000D03*
X83058000Y-64200000D03*
X83375500Y-68707000D03*
X83370000Y-89999000D03*
X83370000Y-93555000D03*
X83370000Y-97111000D03*
X83370000Y-82887000D03*
X83370000Y-79331000D03*
X83370000Y-72219000D03*
X83370000Y-75775000D03*
X83370000Y-86443000D03*
X84270000Y-75775000D03*
X84270000Y-86443000D03*
X84270000Y-97111000D03*
X84270000Y-72219000D03*
X84270000Y-93555000D03*
X84270000Y-79331000D03*
X84270000Y-89999000D03*
X84582000Y-64200000D03*
X84264500Y-68707000D03*
X84270000Y-82887000D03*
X84270000Y-81197000D03*
X84270000Y-70529000D03*
X84270000Y-88309000D03*
X83820000Y-60452000D03*
X84270000Y-74085000D03*
X84270000Y-91865000D03*
X84270000Y-77641000D03*
X84270000Y-84753000D03*
X84264500Y-66992500D03*
X84270000Y-95421000D03*
X87800000Y-65200000D03*
X87926000Y-94726000D03*
X97800000Y-65800000D03*
X97946000Y-76946000D03*
X100000000Y-65800000D03*
X100590000Y-73390000D03*
X95000000Y-65800000D03*
X95498000Y-80502000D03*
X90386000Y-87614000D03*
X90200000Y-65800000D03*
X92600000Y-65800000D03*
X92858000Y-84058000D03*
X85200000Y-65800000D03*
X85230000Y-91170000D03*
X103034000Y-69834000D03*
X102600000Y-65800000D03*
X102800000Y-51000000D03*
X102000000Y-56800000D03*
X103200000Y-50400000D03*
X103800000Y-58800000D03*
X101400000Y-59600000D03*
X102800000Y-47400000D03*
X98806000Y-58902500D03*
X103200000Y-46800000D03*
X83600000Y-49800000D03*
X96600000Y-58800000D03*
X93600000Y-58800000D03*
X83600000Y-50600000D03*
X85600000Y-52000000D03*
X91720000Y-57720000D03*
X83600000Y-54600000D03*
X87400000Y-57800000D03*
X86000000Y-56600000D03*
X86600000Y-58800000D03*
X106800000Y-61800000D03*
X103200000Y-51600000D03*
X108400000Y-61800000D03*
X103200000Y-52800000D03*
X102800000Y-52200000D03*
X107600000Y-61800000D03*
X101600000Y-61800000D03*
X103200000Y-48000000D03*
X103200000Y-49200000D03*
X103200000Y-61800000D03*
X102400000Y-61800000D03*
X102800000Y-48600000D03*
X102800000Y-49800000D03*
X104000000Y-61800000D03*
X101800000Y-45000000D03*
X96600000Y-61800000D03*
X98200000Y-61800000D03*
X103200000Y-45600000D03*
X102600000Y-45000000D03*
X97400000Y-61800000D03*
X99000000Y-61800000D03*
X102800000Y-46200000D03*
X83600000Y-53800000D03*
X91400000Y-61800000D03*
X93000000Y-61800000D03*
X83600000Y-52200000D03*
X92200000Y-61800000D03*
X83600000Y-53000000D03*
X93800000Y-61800000D03*
X83600000Y-51400000D03*
X86400000Y-61800000D03*
X83600000Y-57800000D03*
X83600000Y-56200000D03*
X88000000Y-61800000D03*
X83600000Y-57000000D03*
X87200000Y-61800000D03*
X88800000Y-61800000D03*
X83600000Y-55400000D03*
X89600000Y-54600000D03*
D21*
X116000000Y-45800000D02*
X114253223Y-45800000D01*
X116256548Y-46056548D02*
X116000000Y-45800000D01*
X105640000Y-47750000D02*
X103950480Y-46060480D01*
X81773511Y-47626489D02*
X81772963Y-47626489D01*
X103400000Y-45000000D02*
X104000000Y-45000000D01*
X111101440Y-41301440D02*
X93404220Y-41301440D01*
X86200000Y-51600000D02*
X83600000Y-49000000D01*
X95600000Y-55600000D02*
X91200000Y-55600000D01*
X90000000Y-55200000D02*
X89223586Y-55200000D01*
X102800000Y-44400000D02*
X103400000Y-45000000D01*
X116078000Y-53340000D02*
X116800000Y-52618000D01*
X86200000Y-52176414D02*
X86200000Y-51600000D01*
X93404220Y-41301440D02*
X88004217Y-46701440D01*
X81392489Y-52626489D02*
X82042000Y-53276000D01*
X108800000Y-49250000D02*
X109640000Y-48410000D01*
X112000000Y-42200000D02*
X111101440Y-41301440D01*
X89223586Y-55200000D02*
X86200000Y-52176414D01*
X105640000Y-47750000D02*
X111640000Y-47750000D01*
X81392489Y-48006963D02*
X81392489Y-52626489D01*
X88004217Y-46701440D02*
X82698560Y-46701440D01*
X81772963Y-47626489D02*
X81392489Y-48006963D01*
X103950480Y-45049520D02*
X104000000Y-45000000D01*
X116256548Y-47600000D02*
X116256548Y-46056548D01*
X97707200Y-48092800D02*
X101400000Y-44400000D01*
X116800000Y-48143452D02*
X116256548Y-47600000D01*
X106600000Y-49250000D02*
X108800000Y-49250000D01*
X109640000Y-48410000D02*
X109640000Y-47750000D01*
X108000000Y-43952500D02*
X110032000Y-43952500D01*
X112000000Y-43546777D02*
X112000000Y-42200000D01*
X95600000Y-55600000D02*
X97707200Y-53492800D01*
X106952500Y-45000000D02*
X108000000Y-43952500D01*
X103950480Y-46060480D02*
X103950480Y-45049520D01*
X116800000Y-52618000D02*
X116800000Y-48143452D01*
X91200000Y-55600000D02*
X90400000Y-54800000D01*
X105640000Y-48290000D02*
X106600000Y-49250000D01*
X105640000Y-47750000D02*
X105640000Y-48290000D01*
X101400000Y-44400000D02*
X102800000Y-44400000D01*
X104000000Y-45000000D02*
X106952500Y-45000000D01*
X90400000Y-54800000D02*
X90000000Y-55200000D01*
X82698560Y-46701440D02*
X81773511Y-47626489D01*
X114253223Y-45800000D02*
X112000000Y-43546777D01*
X97707200Y-53492800D02*
X97707200Y-48092800D01*
X115428489Y-47986756D02*
X110441733Y-43000000D01*
X106905500Y-43000000D02*
X105968000Y-43937500D01*
X100650000Y-44625000D02*
X101337500Y-43937500D01*
X110441733Y-43000000D02*
X106905500Y-43000000D01*
X112600000Y-49600000D02*
X114600000Y-49600000D01*
X101337500Y-43937500D02*
X105968000Y-43937500D01*
X115428489Y-48771511D02*
X115428489Y-47986756D01*
X96400000Y-44625000D02*
X99600000Y-44625000D01*
X99600000Y-44625000D02*
X100650000Y-44625000D01*
X114600000Y-49600000D02*
X115428489Y-48771511D01*
X83600000Y-48200000D02*
X87729242Y-48200000D01*
X88189167Y-51789167D02*
X89400000Y-53000000D01*
X115018000Y-50400000D02*
X116078000Y-49340000D01*
X93425000Y-42975000D02*
X94800000Y-42975000D01*
X112150000Y-50400000D02*
X115018000Y-50400000D01*
X82042000Y-49202800D02*
X82042000Y-49276000D01*
X111000000Y-49250000D02*
X112150000Y-50400000D01*
X88189167Y-48659925D02*
X88189167Y-51789167D01*
X90600000Y-51800000D02*
X90600000Y-45800000D01*
X87729242Y-48200000D02*
X88189167Y-48659925D01*
X89400000Y-53000000D02*
X90600000Y-51800000D01*
X89400000Y-53000000D02*
X89376414Y-52976414D01*
X90600000Y-45800000D02*
X93425000Y-42975000D01*
X89700480Y-45428763D02*
X93528285Y-41600960D01*
X89087727Y-50287727D02*
X89087727Y-48287728D01*
X97349066Y-41900480D02*
X97648586Y-42200000D01*
X98825000Y-42200000D02*
X99600000Y-42975000D01*
X97648586Y-42200000D02*
X98825000Y-42200000D01*
X95873132Y-41600960D02*
X96172652Y-41900480D01*
X89400000Y-50600000D02*
X89700480Y-50299520D01*
X93528285Y-41600960D02*
X95873132Y-41600960D01*
X82042000Y-48110830D02*
X82042000Y-48276000D01*
X87800960Y-47000960D02*
X83151870Y-47000960D01*
X96172652Y-41900480D02*
X97349066Y-41900480D01*
X89087727Y-48287728D02*
X87800960Y-47000960D01*
X89400000Y-50600000D02*
X89087727Y-50287727D01*
X83151870Y-47000960D02*
X82042000Y-48110830D01*
X89700480Y-50299520D02*
X89700480Y-45428763D01*
X88788207Y-51011793D02*
X89176414Y-51400000D01*
X89400000Y-51400000D02*
X90000000Y-50800000D01*
X90000000Y-50800000D02*
X90000000Y-45552829D01*
X82800000Y-49518000D02*
X82800000Y-47776414D01*
X90000000Y-45552829D02*
X93652350Y-41900480D01*
X95749066Y-41900480D02*
X96048586Y-42200000D01*
X93652350Y-41900480D02*
X95749066Y-41900480D01*
X82042000Y-50276000D02*
X82800000Y-49518000D01*
X88788207Y-48411793D02*
X88788207Y-51011793D01*
X96048586Y-42200000D02*
X97225000Y-42200000D01*
X87676894Y-47300480D02*
X88788207Y-48411793D01*
X97225000Y-42200000D02*
X98000000Y-42975000D01*
X89176414Y-51400000D02*
X89400000Y-51400000D01*
X83275935Y-47300480D02*
X87676894Y-47300480D01*
X82800000Y-47776414D02*
X83275935Y-47300480D01*
X93776415Y-42200000D02*
X95625000Y-42200000D01*
X88488687Y-48535859D02*
X88488687Y-51288687D01*
X88488687Y-51288687D02*
X89400000Y-52200000D01*
X83000000Y-50318000D02*
X83000000Y-49741586D01*
X87552828Y-47600000D02*
X88488687Y-48535859D01*
X89400000Y-52200000D02*
X90299520Y-51300480D01*
X83400000Y-47600000D02*
X87552828Y-47600000D01*
X82188400Y-51276000D02*
X82042000Y-51276000D01*
X83099520Y-49642065D02*
X83099520Y-47900480D01*
X83099520Y-47900480D02*
X83400000Y-47600000D01*
X90299520Y-51300480D02*
X90299520Y-45676895D01*
X95625000Y-42200000D02*
X96400000Y-42975000D01*
X82042000Y-51276000D02*
X83000000Y-50318000D01*
X83000000Y-49741586D02*
X83099520Y-49642065D01*
X90299520Y-45676895D02*
X93776415Y-42200000D01*
X91400000Y-53800000D02*
X92400000Y-52800000D01*
X87041637Y-49216637D02*
X87041637Y-51441637D01*
X87041637Y-51441637D02*
X89400000Y-53800000D01*
X89400000Y-53800000D02*
X91400000Y-53800000D01*
X82200000Y-57400000D02*
X83000000Y-56600000D01*
X115200000Y-46800000D02*
X114777250Y-46800000D01*
X83000000Y-53000000D02*
X82400000Y-52400000D01*
X114777250Y-46800000D02*
X110054750Y-42077500D01*
X110054750Y-42077500D02*
X110032000Y-42077500D01*
X83000000Y-56600000D02*
X83000000Y-53000000D01*
X112400000Y-46000000D02*
X114400000Y-48000000D01*
X111800000Y-46000000D02*
X112400000Y-46000000D01*
X113856000Y-75755500D02*
X113856000Y-79311500D01*
X113856000Y-82867500D02*
X113856000Y-86423500D01*
X113856000Y-86423500D02*
X113856000Y-89979500D01*
X113430000Y-68281000D02*
X113856000Y-68707000D01*
X113856000Y-72199500D02*
X113856000Y-75755500D01*
X113856000Y-97105500D02*
X113850000Y-97111000D01*
X113856000Y-93599000D02*
X113856000Y-97105500D01*
X113856000Y-79311500D02*
X113856000Y-82867500D01*
X113430000Y-63430000D02*
X113430000Y-68281000D01*
X113856000Y-89979500D02*
X113856000Y-93599000D01*
X113856000Y-68707000D02*
X113856000Y-72199500D01*
X113400000Y-63400000D02*
X113430000Y-63430000D01*
X108500480Y-56700480D02*
X110124066Y-56700480D01*
X113023586Y-59600000D02*
X113323000Y-59600000D01*
X110124066Y-56700480D02*
X113023586Y-59600000D01*
X113323000Y-59600000D02*
X114046000Y-58877000D01*
X107400000Y-55600000D02*
X108500480Y-56700480D01*
X107400000Y-54400000D02*
X107400000Y-55600000D01*
X114520000Y-89754500D02*
X114744000Y-89979500D01*
X114230000Y-68193000D02*
X114744000Y-68707000D01*
X114300000Y-86868000D02*
X114300000Y-89535000D01*
X114300000Y-71755000D02*
X114520000Y-71974500D01*
X114744000Y-86423500D02*
X114300000Y-86868000D01*
X114300000Y-90424000D02*
X114300000Y-93154500D01*
X114744000Y-89979500D02*
X114300000Y-90424000D01*
X114300000Y-89535000D02*
X114520000Y-89754500D01*
X114520000Y-82642500D02*
X114744000Y-82867500D01*
X114300000Y-97096000D02*
X114315000Y-97111000D01*
X114520000Y-79086500D02*
X114744000Y-79311500D01*
X114520000Y-86198500D02*
X114744000Y-86423500D01*
X114744000Y-72199500D02*
X114300000Y-72644000D01*
X114230000Y-63400000D02*
X114230000Y-68193000D01*
X114284000Y-85962800D02*
X114520000Y-86198500D01*
X114300000Y-94043500D02*
X114300000Y-97096000D01*
X114300000Y-79756000D02*
X114300000Y-82423000D01*
X114300000Y-93154500D02*
X114520000Y-93374000D01*
X114744000Y-68707000D02*
X114300000Y-69151500D01*
X114300000Y-82423000D02*
X114520000Y-82642500D01*
X114744000Y-75755500D02*
X114284000Y-76216200D01*
X114300000Y-72644000D02*
X114300000Y-75311000D01*
X114744000Y-93599000D02*
X114300000Y-94043500D01*
X114300000Y-69151500D02*
X114300000Y-71755000D01*
X114284000Y-78850800D02*
X114520000Y-79086500D01*
X114315000Y-97111000D02*
X114750000Y-97111000D01*
X114744000Y-79311500D02*
X114300000Y-79756000D01*
X114744000Y-82867500D02*
X114284000Y-83328200D01*
X114284000Y-83328200D02*
X114284000Y-85962800D01*
X114520000Y-75530500D02*
X114744000Y-75755500D01*
X114520000Y-71974500D02*
X114744000Y-72199500D01*
X114284000Y-76216200D02*
X114284000Y-78850800D01*
X114520000Y-93374000D02*
X114744000Y-93599000D01*
X114300000Y-75311000D02*
X114520000Y-75530500D01*
X115195000Y-77650500D02*
X115195000Y-81187500D01*
X114046000Y-60452000D02*
X114744000Y-61150000D01*
X114750000Y-74085000D02*
X115185000Y-74085000D01*
X115195000Y-95411500D02*
X115195000Y-91874500D01*
X115195000Y-74075500D02*
X115185000Y-74085000D01*
X115185000Y-95421000D02*
X115195000Y-95411500D01*
X115185000Y-81197000D02*
X115195000Y-81206500D01*
X115195000Y-91874500D02*
X115185000Y-91865000D01*
X114744000Y-61150000D02*
X114744000Y-66992500D01*
X114750000Y-70529000D02*
X115185000Y-70529000D01*
X114744000Y-66992500D02*
X115195000Y-67442500D01*
X115185000Y-74085000D02*
X115195000Y-74094500D01*
X115185000Y-77641000D02*
X115195000Y-77650500D01*
X115195000Y-88299500D02*
X115185000Y-88309000D01*
X115195000Y-70538500D02*
X115195000Y-74075500D01*
X115195000Y-84743500D02*
X115185000Y-84753000D01*
X115195000Y-84762500D02*
X115195000Y-88299500D01*
X114750000Y-77641000D02*
X115185000Y-77641000D01*
X115195000Y-88318500D02*
X115195000Y-91855500D01*
X114750000Y-88309000D02*
X115185000Y-88309000D01*
X115195000Y-81187500D02*
X115185000Y-81197000D01*
X115195000Y-74094500D02*
X115195000Y-77631500D01*
X114750000Y-84753000D02*
X115185000Y-84753000D01*
X115185000Y-91865000D02*
X114750000Y-91865000D01*
X114750000Y-81197000D02*
X115185000Y-81197000D01*
X115195000Y-91855500D02*
X115185000Y-91865000D01*
X115195000Y-67442500D02*
X115195000Y-70519500D01*
X115185000Y-84753000D02*
X115195000Y-84762500D01*
X115195000Y-70519500D02*
X115185000Y-70529000D01*
X115185000Y-88309000D02*
X115195000Y-88318500D01*
X115195000Y-77631500D02*
X115185000Y-77641000D01*
X115195000Y-81206500D02*
X115195000Y-84743500D01*
X114750000Y-95421000D02*
X115185000Y-95421000D01*
X115185000Y-70529000D02*
X115195000Y-70538500D01*
X113200000Y-60800000D02*
X114200000Y-61800000D01*
X110000000Y-57000000D02*
X113200000Y-60200000D01*
X106600000Y-55600000D02*
X108000000Y-57000000D01*
X108000000Y-57000000D02*
X110000000Y-57000000D01*
X113200000Y-60200000D02*
X113200000Y-60800000D01*
X106600000Y-54400000D02*
X106600000Y-55600000D01*
X105800000Y-55600000D02*
X107600000Y-57400000D01*
X112800000Y-61200000D02*
X113400000Y-61800000D01*
X112800000Y-60223586D02*
X112800000Y-61200000D01*
X105800000Y-54400000D02*
X105800000Y-55600000D01*
X109976414Y-57400000D02*
X112800000Y-60223586D01*
X107600000Y-57400000D02*
X109976414Y-57400000D01*
X112400000Y-61600000D02*
X112600000Y-61800000D01*
X112400000Y-60247172D02*
X112400000Y-61600000D01*
X109952828Y-57800000D02*
X112400000Y-60247172D01*
X107200000Y-57800000D02*
X109952828Y-57800000D01*
X105000000Y-55600000D02*
X107200000Y-57800000D01*
X105000000Y-54400000D02*
X105000000Y-55600000D01*
X111800000Y-60070758D02*
X111800000Y-61800000D01*
X104200000Y-55600000D02*
X106699520Y-58099520D01*
X104200000Y-54400000D02*
X104200000Y-55600000D01*
X106699520Y-58099520D02*
X109828762Y-58099520D01*
X109828762Y-58099520D02*
X111800000Y-60070758D01*
X112647172Y-58800000D02*
X110248132Y-56400960D01*
X113000000Y-58800000D02*
X112647172Y-58800000D01*
X108200000Y-54400000D02*
X107600000Y-53800000D01*
X110248132Y-56400960D02*
X108800960Y-56400960D01*
X104800000Y-53800000D02*
X104400000Y-53400000D01*
X107600000Y-53800000D02*
X104800000Y-53800000D01*
X108200000Y-55800000D02*
X108200000Y-54400000D01*
X108800960Y-56400960D02*
X108200000Y-55800000D01*
X107078914Y-58902500D02*
X108966000Y-58902500D01*
X103600000Y-55423586D02*
X107078914Y-58902500D01*
X103600000Y-53400000D02*
X103600000Y-55423586D01*
X109200000Y-61600000D02*
X103300480Y-55700480D01*
X103300480Y-53900480D02*
X102800000Y-53400000D01*
X109200000Y-61800000D02*
X109200000Y-61600000D01*
X103300480Y-55700480D02*
X103300480Y-53900480D01*
X111310000Y-79157400D02*
X111316000Y-79163400D01*
X111310000Y-72199200D02*
X111315700Y-72199200D01*
X111315700Y-72199200D02*
X111316000Y-72199500D01*
X111315600Y-75755100D02*
X111316000Y-75755500D01*
X111800000Y-63400000D02*
X111300480Y-63899520D01*
X111315700Y-93598700D02*
X111316000Y-93599000D01*
X111316000Y-79163400D02*
X111316000Y-79311500D01*
X111316000Y-86571300D02*
X111316000Y-86423500D01*
X111310000Y-75755100D02*
X111310000Y-72199200D01*
X111310000Y-93598700D02*
X111315700Y-93598700D01*
X111310000Y-89979100D02*
X111310000Y-86577300D01*
X111310000Y-86577300D02*
X111316000Y-86571300D01*
X111310000Y-82867500D02*
X111316000Y-82867500D01*
X111300480Y-68691480D02*
X111316000Y-68707000D01*
X111310000Y-93598700D02*
X111310000Y-89979100D01*
X111310000Y-97111000D02*
X111310000Y-93598700D01*
X111310000Y-75755100D02*
X111315600Y-75755100D01*
X111310000Y-72199200D02*
X111310000Y-68712500D01*
X111315600Y-89979100D02*
X111316000Y-89979500D01*
X111310000Y-68712500D02*
X111316000Y-68707000D01*
X111300480Y-63899520D02*
X111300480Y-68691480D01*
X111310000Y-86577300D02*
X111310000Y-82867500D01*
X111310000Y-89979100D02*
X111315600Y-89979100D01*
X111310000Y-82867500D02*
X111310000Y-79157400D01*
X111310000Y-79157400D02*
X111310000Y-75755100D01*
X111760000Y-94043500D02*
X111760000Y-97096000D01*
X111775000Y-97111000D02*
X112210000Y-97111000D01*
X111744000Y-86884200D02*
X111744000Y-89518800D01*
X111600000Y-64400000D02*
X111600000Y-68000000D01*
X112204000Y-68604000D02*
X112204000Y-68707000D01*
X111980000Y-93374000D02*
X112204000Y-93599000D01*
X111760000Y-97096000D02*
X111775000Y-97111000D01*
X112204000Y-89979500D02*
X111760000Y-90424000D01*
X111980000Y-89754500D02*
X112204000Y-89979500D01*
X111980000Y-82642500D02*
X112204000Y-82867500D01*
X111744000Y-72660200D02*
X111744000Y-75294800D01*
X112204000Y-82867500D02*
X111680000Y-83391700D01*
X111680000Y-82343300D02*
X111980000Y-82642500D01*
X112204000Y-75755500D02*
X111760000Y-76200000D01*
X112204000Y-79311500D02*
X111680000Y-79835700D01*
X111980000Y-71974500D02*
X112204000Y-72199500D01*
X111744000Y-75294800D02*
X111980000Y-75530500D01*
X112600000Y-63400000D02*
X111600000Y-64400000D01*
X111760000Y-76200000D02*
X111760000Y-78867000D01*
X111760000Y-90424000D02*
X111760000Y-93154500D01*
X111680000Y-83391700D02*
X111680000Y-85899300D01*
X112204000Y-72199500D02*
X111744000Y-72660200D01*
X111760000Y-93154500D02*
X111980000Y-93374000D01*
X111980000Y-79086500D02*
X112204000Y-79311500D01*
X112204000Y-93599000D02*
X111760000Y-94043500D01*
X111744000Y-89518800D02*
X111980000Y-89754500D01*
X111680000Y-79835700D02*
X111680000Y-82343300D01*
X112204000Y-86423500D02*
X111744000Y-86884200D01*
X111760000Y-69151500D02*
X111760000Y-71755000D01*
X111980000Y-75530500D02*
X112204000Y-75755500D01*
X112204000Y-68707000D02*
X111760000Y-69151500D01*
X111760000Y-78867000D02*
X111980000Y-79086500D01*
X111980000Y-86198500D02*
X112204000Y-86423500D01*
X111680000Y-85899300D02*
X111980000Y-86198500D01*
X111600000Y-68000000D02*
X112204000Y-68604000D01*
X111760000Y-71755000D02*
X111980000Y-71974500D01*
X112655000Y-70538500D02*
X112645000Y-70529000D01*
X112204000Y-66992500D02*
X112204000Y-66196000D01*
X112655000Y-91874500D02*
X112645000Y-91865000D01*
X112645000Y-95421000D02*
X112655000Y-95411500D01*
X112655000Y-70519500D02*
X112655000Y-67442500D01*
X112645000Y-77641000D02*
X112655000Y-77631500D01*
X112204000Y-66196000D02*
X112600000Y-65800000D01*
X112655000Y-84743500D02*
X112655000Y-81206500D01*
X112655000Y-88318500D02*
X112645000Y-88309000D01*
X112655000Y-84762500D02*
X112645000Y-84753000D01*
X112655000Y-81206500D02*
X112645000Y-81197000D01*
X112655000Y-91855500D02*
X112655000Y-88318500D01*
X112429000Y-67217500D02*
X112204000Y-66992500D01*
X112210000Y-95421000D02*
X112645000Y-95421000D01*
X112655000Y-77650500D02*
X112645000Y-77641000D01*
X112645000Y-88309000D02*
X112655000Y-88299500D01*
X112655000Y-88299500D02*
X112655000Y-84762500D01*
X112645000Y-74085000D02*
X112655000Y-74075500D01*
X112210000Y-70529000D02*
X112645000Y-70529000D01*
X112655000Y-77631500D02*
X112655000Y-74094500D01*
X112655000Y-81187500D02*
X112655000Y-77650500D01*
X112645000Y-84753000D02*
X112655000Y-84743500D01*
X112655000Y-67442500D02*
X112429000Y-67217500D01*
X112645000Y-70529000D02*
X112655000Y-70519500D01*
X112655000Y-74094500D02*
X112645000Y-74085000D01*
X112645000Y-91865000D02*
X112655000Y-91855500D01*
X112655000Y-95411500D02*
X112655000Y-91874500D01*
X112655000Y-74075500D02*
X112655000Y-70538500D01*
X112210000Y-84753000D02*
X112645000Y-84753000D01*
X112210000Y-77641000D02*
X112645000Y-77641000D01*
X112210000Y-91865000D02*
X112645000Y-91865000D01*
X112645000Y-81197000D02*
X112655000Y-81187500D01*
X112210000Y-88309000D02*
X112645000Y-88309000D01*
X112210000Y-81197000D02*
X112645000Y-81197000D01*
X112210000Y-74085000D02*
X112645000Y-74085000D01*
X108776000Y-82867500D02*
X108776000Y-86423500D01*
X108776000Y-68707000D02*
X108776000Y-72199500D01*
X108776000Y-97105500D02*
X108770000Y-97111000D01*
X108776000Y-79311500D02*
X108776000Y-82867500D01*
X108776000Y-72199500D02*
X108776000Y-75755500D01*
X108350000Y-63400000D02*
X108350000Y-68281000D01*
X108350000Y-68281000D02*
X108776000Y-68707000D01*
X108776000Y-93599000D02*
X108776000Y-97105500D01*
X108776000Y-86423500D02*
X108776000Y-89979500D01*
X108776000Y-89979500D02*
X108776000Y-93599000D01*
X108776000Y-75755500D02*
X108776000Y-79311500D01*
X109220000Y-90424000D02*
X109220000Y-93154500D01*
X109220000Y-71755000D02*
X109440000Y-71974500D01*
X109235000Y-97111000D02*
X109670000Y-97111000D01*
X109664000Y-93599000D02*
X109220000Y-94043500D01*
X109440000Y-82642500D02*
X109664000Y-82867500D01*
X109220000Y-79756000D02*
X109220000Y-82423000D01*
X109150000Y-63400000D02*
X109150000Y-68193000D01*
X109220000Y-69151500D02*
X109220000Y-71755000D01*
X109664000Y-75755500D02*
X109220000Y-76200000D01*
X109220000Y-82423000D02*
X109440000Y-82642500D01*
X109664000Y-89979500D02*
X109220000Y-90424000D01*
X109440000Y-86198500D02*
X109664000Y-86423500D01*
X109220000Y-83312000D02*
X109220000Y-85979000D01*
X109440000Y-75530500D02*
X109664000Y-75755500D01*
X109440000Y-93374000D02*
X109664000Y-93599000D01*
X109220000Y-97096000D02*
X109235000Y-97111000D01*
X109220000Y-93154500D02*
X109440000Y-93374000D01*
X109440000Y-79086500D02*
X109664000Y-79311500D01*
X109220000Y-75311000D02*
X109440000Y-75530500D01*
X109664000Y-82867500D02*
X109220000Y-83312000D01*
X109664000Y-72199500D02*
X109220000Y-72644000D01*
X109664000Y-68707000D02*
X109220000Y-69151500D01*
X109220000Y-85979000D02*
X109440000Y-86198500D01*
X109220000Y-89535000D02*
X109440000Y-89754500D01*
X109664000Y-79311500D02*
X109220000Y-79756000D01*
X109150000Y-68193000D02*
X109664000Y-68707000D01*
X109440000Y-71974500D02*
X109664000Y-72199500D01*
X109220000Y-78867000D02*
X109440000Y-79086500D01*
X109220000Y-76200000D02*
X109220000Y-78867000D01*
X109220000Y-94043500D02*
X109220000Y-97096000D01*
X109220000Y-86868000D02*
X109220000Y-89535000D01*
X109440000Y-89754500D02*
X109664000Y-89979500D01*
X109664000Y-86423500D02*
X109220000Y-86868000D01*
X109220000Y-72644000D02*
X109220000Y-75311000D01*
X109835941Y-67164059D02*
X110115000Y-67442500D01*
X110115000Y-74094500D02*
X110115000Y-77631500D01*
X110115000Y-88299500D02*
X110105000Y-88309000D01*
X110115000Y-70538500D02*
X110115000Y-74075500D01*
X109670000Y-77641000D02*
X110105000Y-77641000D01*
X110115000Y-88318500D02*
X110115000Y-91855500D01*
X109835941Y-61347441D02*
X108966000Y-60477500D01*
X109670000Y-88309000D02*
X110105000Y-88309000D01*
X109670000Y-70529000D02*
X110105000Y-70529000D01*
X109835941Y-67164059D02*
X109835941Y-61347441D01*
X110115000Y-77650500D02*
X110115000Y-81187500D01*
X110115000Y-74075500D02*
X110105000Y-74085000D01*
X110105000Y-84753000D02*
X110115000Y-84762500D01*
X110115000Y-91874500D02*
X110115000Y-95411500D01*
X110115000Y-95411500D02*
X110105000Y-95421000D01*
X110105000Y-70529000D02*
X110115000Y-70538500D01*
X109670000Y-74085000D02*
X110105000Y-74085000D01*
X110105000Y-88309000D02*
X110115000Y-88318500D01*
X110105000Y-95421000D02*
X109670000Y-95421000D01*
X110115000Y-84762500D02*
X110115000Y-88299500D01*
X109670000Y-81197000D02*
X110105000Y-81197000D01*
X109670000Y-91865000D02*
X110105000Y-91865000D01*
X110115000Y-81187500D02*
X110105000Y-81197000D01*
X110105000Y-91865000D02*
X110115000Y-91874500D01*
X110105000Y-77641000D02*
X110115000Y-77650500D01*
X110115000Y-77631500D02*
X110105000Y-77641000D01*
X110115000Y-67442500D02*
X110115000Y-70519500D01*
X110105000Y-81197000D02*
X110115000Y-81206500D01*
X109670000Y-84753000D02*
X110105000Y-84753000D01*
X110105000Y-74085000D02*
X110115000Y-74094500D01*
X110115000Y-84743500D02*
X110105000Y-84753000D01*
X110115000Y-81206500D02*
X110115000Y-84743500D01*
X110115000Y-91855500D02*
X110105000Y-91865000D01*
X110115000Y-70519500D02*
X110105000Y-70529000D01*
X109664000Y-66992500D02*
X109835941Y-67164059D01*
X106230000Y-75755200D02*
X106235700Y-75755200D01*
X106230000Y-93598700D02*
X106230000Y-89979200D01*
X106235700Y-75755200D02*
X106236000Y-75755500D01*
X106230000Y-97111000D02*
X106230000Y-93598700D01*
X106235700Y-72199200D02*
X106236000Y-72199500D01*
X106235700Y-79311200D02*
X106236000Y-79311500D01*
X106230000Y-72199200D02*
X106230000Y-68712500D01*
X106235700Y-89979200D02*
X106236000Y-89979500D01*
X106230000Y-75755200D02*
X106230000Y-72199200D01*
X106230000Y-72199200D02*
X106235700Y-72199200D01*
X106230000Y-82867200D02*
X106235700Y-82867200D01*
X106230000Y-68712500D02*
X106236000Y-68707000D01*
X106235700Y-93598700D02*
X106236000Y-93599000D01*
X106235700Y-86423200D02*
X106236000Y-86423500D01*
X106230000Y-82867200D02*
X106230000Y-79311200D01*
X106230000Y-79311200D02*
X106235700Y-79311200D01*
X106230000Y-93598700D02*
X106235700Y-93598700D01*
X106236000Y-63914000D02*
X106236000Y-68707000D01*
X106235700Y-82867200D02*
X106236000Y-82867500D01*
X106230000Y-86423200D02*
X106230000Y-82867200D01*
X106230000Y-86423200D02*
X106235700Y-86423200D01*
X106230000Y-89979200D02*
X106235700Y-89979200D01*
X106230000Y-89979200D02*
X106230000Y-86423200D01*
X106230000Y-79311200D02*
X106230000Y-75755200D01*
X106750000Y-63400000D02*
X106236000Y-63914000D01*
X107124000Y-89979500D02*
X106632000Y-90472000D01*
X106680000Y-82423000D02*
X106900000Y-82642500D01*
X106632000Y-89487000D02*
X106900000Y-89754500D01*
X106680000Y-78867000D02*
X106900000Y-79086500D01*
X106900000Y-89754500D02*
X107124000Y-89979500D01*
X106600000Y-64350000D02*
X106600000Y-68183000D01*
X106632000Y-86916000D02*
X106632000Y-89487000D01*
X106632000Y-93106500D02*
X106900000Y-93374000D01*
X106680000Y-83312000D02*
X106680000Y-85979000D01*
X106900000Y-93374000D02*
X107124000Y-93599000D01*
X106680000Y-71755000D02*
X106900000Y-71974500D01*
X107124000Y-82867500D02*
X106680000Y-83312000D01*
X106680000Y-72644000D02*
X106680000Y-75311000D01*
X107124000Y-79311500D02*
X106680000Y-79756000D01*
X107124000Y-86423500D02*
X106632000Y-86916000D01*
X106680000Y-85979000D02*
X106900000Y-86198500D01*
X106600000Y-68183000D02*
X107124000Y-68707000D01*
X106900000Y-79086500D02*
X107124000Y-79311500D01*
X106680000Y-97096000D02*
X106695000Y-97111000D01*
X107550000Y-63400000D02*
X106600000Y-64350000D01*
X107124000Y-72199500D02*
X106680000Y-72644000D01*
X106680000Y-76200000D02*
X106680000Y-78867000D01*
X107124000Y-93599000D02*
X106680000Y-94043500D01*
X106680000Y-75311000D02*
X106900000Y-75530500D01*
X106680000Y-79756000D02*
X106680000Y-82423000D01*
X106680000Y-94043500D02*
X106680000Y-97096000D01*
X106632000Y-90472000D02*
X106632000Y-93106500D01*
X106900000Y-71974500D02*
X107124000Y-72199500D01*
X107124000Y-75755500D02*
X106680000Y-76200000D01*
X106680000Y-69151500D02*
X106680000Y-71755000D01*
X106695000Y-97111000D02*
X107130000Y-97111000D01*
X106900000Y-75530500D02*
X107124000Y-75755500D01*
X106900000Y-82642500D02*
X107124000Y-82867500D01*
X107124000Y-68707000D02*
X106680000Y-69151500D01*
X106900000Y-86198500D02*
X107124000Y-86423500D01*
X107575000Y-77650500D02*
X107565000Y-77641000D01*
X107130000Y-74085000D02*
X107565000Y-74085000D01*
X107565000Y-84753000D02*
X107575000Y-84743500D01*
X107575000Y-88299500D02*
X107575000Y-84762500D01*
X107565000Y-88309000D02*
X107575000Y-88299500D01*
X107575000Y-67442500D02*
X107349000Y-67217500D01*
X107565000Y-70529000D02*
X107575000Y-70519500D01*
X107575000Y-91855500D02*
X107575000Y-88318500D01*
X107200000Y-65200000D02*
X107124000Y-65276000D01*
X107130000Y-81197000D02*
X107565000Y-81197000D01*
X107575000Y-81187500D02*
X107575000Y-77650500D01*
X107565000Y-95421000D02*
X107575000Y-95411500D01*
X107575000Y-77631500D02*
X107575000Y-74094500D01*
X107349000Y-67217500D02*
X107124000Y-66992500D01*
X107575000Y-74075500D02*
X107575000Y-70538500D01*
X107575000Y-88318500D02*
X107565000Y-88309000D01*
X107575000Y-84743500D02*
X107575000Y-81206500D01*
X107575000Y-74094500D02*
X107565000Y-74085000D01*
X107565000Y-91865000D02*
X107575000Y-91855500D01*
X107575000Y-81206500D02*
X107565000Y-81197000D01*
X107565000Y-74085000D02*
X107575000Y-74075500D01*
X107575000Y-70538500D02*
X107565000Y-70529000D01*
X107130000Y-77641000D02*
X107565000Y-77641000D01*
X107575000Y-95411500D02*
X107575000Y-91874500D01*
X107575000Y-84762500D02*
X107565000Y-84753000D01*
X107130000Y-91865000D02*
X107565000Y-91865000D01*
X107575000Y-70519500D02*
X107575000Y-67442500D01*
X107130000Y-70529000D02*
X107565000Y-70529000D01*
X107575000Y-91874500D02*
X107565000Y-91865000D01*
X107565000Y-81197000D02*
X107575000Y-81187500D01*
X107124000Y-65276000D02*
X107124000Y-66992500D01*
X107130000Y-88309000D02*
X107565000Y-88309000D01*
X107130000Y-84753000D02*
X107565000Y-84753000D01*
X107130000Y-95421000D02*
X107565000Y-95421000D01*
X107565000Y-77641000D02*
X107575000Y-77631500D01*
X103696000Y-89979500D02*
X103696000Y-93599000D01*
X103696000Y-82867500D02*
X103696000Y-86423500D01*
X103696000Y-68707000D02*
X103696000Y-72199500D01*
X103696000Y-72199500D02*
X103696000Y-75755500D01*
X103696000Y-86423500D02*
X103696000Y-89979500D01*
X103696000Y-97105500D02*
X103690000Y-97111000D01*
X103696000Y-79311500D02*
X103696000Y-82867500D01*
X103270000Y-68281000D02*
X103696000Y-68707000D01*
X103270000Y-63470000D02*
X103270000Y-68281000D01*
X103200000Y-63400000D02*
X103270000Y-63470000D01*
X103696000Y-75755500D02*
X103696000Y-79311500D01*
X103696000Y-93599000D02*
X103696000Y-97105500D01*
X104584000Y-86423500D02*
X104140000Y-86868000D01*
X104070000Y-68193000D02*
X104584000Y-68707000D01*
X104360000Y-82642500D02*
X104584000Y-82867500D01*
X104584000Y-79311500D02*
X104124000Y-79772200D01*
X104360000Y-86198500D02*
X104584000Y-86423500D01*
X104360000Y-71974500D02*
X104584000Y-72199500D01*
X104140000Y-83312000D02*
X104140000Y-85979000D01*
X104092000Y-78819000D02*
X104360000Y-79086500D01*
X104140000Y-71755000D02*
X104360000Y-71974500D01*
X104360000Y-89754500D02*
X104584000Y-89979500D01*
X104070000Y-63470000D02*
X104070000Y-68193000D01*
X104124000Y-79772200D02*
X104124000Y-82406800D01*
X104584000Y-68707000D02*
X104140000Y-69151500D01*
X104362000Y-72199500D02*
X104140000Y-72421000D01*
X104140000Y-86868000D02*
X104140000Y-89535000D01*
X104140000Y-97096000D02*
X104155000Y-97111000D01*
X104360000Y-93374000D02*
X104584000Y-93599000D01*
X104584000Y-93599000D02*
X104140000Y-94043500D01*
X104360000Y-75530500D02*
X104584000Y-75755500D01*
X104584000Y-75755500D02*
X104092000Y-76248000D01*
X104584000Y-82867500D02*
X104140000Y-83312000D01*
X104124000Y-82406800D02*
X104360000Y-82642500D01*
X104360000Y-79086500D02*
X104584000Y-79311500D01*
X104140000Y-94043500D02*
X104140000Y-97096000D01*
X104140000Y-72421000D02*
X104140000Y-75311000D01*
X104140000Y-89535000D02*
X104360000Y-89754500D01*
X104140000Y-85979000D02*
X104360000Y-86198500D01*
X104140000Y-90424000D02*
X104140000Y-93154500D01*
X104140000Y-93154500D02*
X104360000Y-93374000D01*
X104000000Y-63400000D02*
X104070000Y-63470000D01*
X104092000Y-76248000D02*
X104092000Y-78819000D01*
X104155000Y-97111000D02*
X104590000Y-97111000D01*
X104584000Y-89979500D02*
X104140000Y-90424000D01*
X104584000Y-72199500D02*
X104362000Y-72199500D01*
X104140000Y-69151500D02*
X104140000Y-71755000D01*
X104140000Y-75311000D02*
X104360000Y-75530500D01*
X104590000Y-70529000D02*
X105025000Y-70529000D01*
X104590000Y-77641000D02*
X105025000Y-77641000D01*
X105035000Y-81206500D02*
X105035000Y-84743500D01*
X105035000Y-67442500D02*
X105035000Y-70519500D01*
X105035000Y-77650500D02*
X105035000Y-81187500D01*
X105035000Y-88318500D02*
X105035000Y-91855500D01*
X105035000Y-91855500D02*
X105025000Y-91865000D01*
X105035000Y-70519500D02*
X105025000Y-70529000D01*
X104590000Y-91865000D02*
X105025000Y-91865000D01*
X104584000Y-66992500D02*
X104584000Y-61175500D01*
X105025000Y-95421000D02*
X104590000Y-95421000D01*
X105035000Y-88299500D02*
X105025000Y-88309000D01*
X105025000Y-70529000D02*
X105035000Y-70538500D01*
X105035000Y-95411500D02*
X105025000Y-95421000D01*
X105035000Y-74075500D02*
X105025000Y-74085000D01*
X105025000Y-88309000D02*
X105035000Y-88318500D01*
X105025000Y-74085000D02*
X105035000Y-74094500D01*
X105025000Y-91865000D02*
X105035000Y-91874500D01*
X105035000Y-77631500D02*
X105025000Y-77641000D01*
X105035000Y-84762500D02*
X105035000Y-88299500D01*
X104590000Y-81197000D02*
X105025000Y-81197000D01*
X104584000Y-66992500D02*
X105035000Y-67442500D01*
X105035000Y-91874500D02*
X105035000Y-95411500D01*
X105025000Y-84753000D02*
X105035000Y-84762500D01*
X104584000Y-61175500D02*
X103886000Y-60477500D01*
X104590000Y-88309000D02*
X105025000Y-88309000D01*
X105025000Y-81197000D02*
X105035000Y-81206500D01*
X104590000Y-74085000D02*
X105025000Y-74085000D01*
X105035000Y-81187500D02*
X105025000Y-81197000D01*
X105035000Y-84743500D02*
X105025000Y-84753000D01*
X105035000Y-70538500D02*
X105035000Y-74075500D01*
X105025000Y-77641000D02*
X105035000Y-77650500D01*
X104590000Y-84753000D02*
X105025000Y-84753000D01*
X105035000Y-74094500D02*
X105035000Y-77631500D01*
X101600000Y-63400000D02*
X101000000Y-64000000D01*
X101150000Y-93598700D02*
X101155700Y-93598700D01*
X101155700Y-75755200D02*
X101156000Y-75755500D01*
X101150000Y-86423200D02*
X101155700Y-86423200D01*
X101150000Y-72199100D02*
X101150000Y-68712500D01*
X101150000Y-86423200D02*
X101150000Y-82867200D01*
X101000000Y-68600000D02*
X101107000Y-68707000D01*
X101150000Y-89979200D02*
X101150000Y-86423200D01*
X101150000Y-82867200D02*
X101155700Y-82867200D01*
X101150000Y-75755200D02*
X101150000Y-72199100D01*
X101156000Y-79187100D02*
X101156000Y-79311500D01*
X101155700Y-89979200D02*
X101156000Y-89979500D01*
X101150000Y-89979200D02*
X101155700Y-89979200D01*
X101150000Y-79181100D02*
X101150000Y-75755200D01*
X101150000Y-82867200D02*
X101150000Y-79181100D01*
X101150000Y-97111000D02*
X101150000Y-93598700D01*
X101150000Y-68712500D02*
X101156000Y-68707000D01*
X101155600Y-72199100D02*
X101156000Y-72199500D01*
X101107000Y-68707000D02*
X101156000Y-68707000D01*
X101150000Y-75755200D02*
X101155700Y-75755200D01*
X101155700Y-82867200D02*
X101156000Y-82867500D01*
X101000000Y-64000000D02*
X101000000Y-68600000D01*
X101150000Y-93598700D02*
X101150000Y-89979200D01*
X101150000Y-72199100D02*
X101155600Y-72199100D01*
X101155700Y-86423200D02*
X101156000Y-86423500D01*
X101150000Y-79181100D02*
X101156000Y-79187100D01*
X101155700Y-93598700D02*
X101156000Y-93599000D01*
X101600000Y-83312000D02*
X101600000Y-85979000D01*
X101600000Y-86868000D02*
X101600000Y-89535000D01*
X101473000Y-82296000D02*
X101820000Y-82642500D01*
X101400000Y-64400000D02*
X101400000Y-68063000D01*
X102044000Y-86423500D02*
X101600000Y-86868000D01*
X101552000Y-75263000D02*
X101820000Y-75530500D01*
X101600000Y-93154500D02*
X101820000Y-93374000D01*
X101820000Y-71974500D02*
X102044000Y-72199500D01*
X101600000Y-76200000D02*
X101600000Y-78867000D01*
X101600000Y-97096000D02*
X101615000Y-97111000D01*
X102044000Y-89979500D02*
X101600000Y-90424000D01*
X102044000Y-72199500D02*
X101552000Y-72692000D01*
X101552000Y-72692000D02*
X101552000Y-75263000D01*
X101473000Y-79883000D02*
X101473000Y-82296000D01*
X101600000Y-90424000D02*
X101600000Y-93154500D01*
X101600000Y-94043500D02*
X101600000Y-97096000D01*
X101820000Y-89754500D02*
X102044000Y-89979500D01*
X102044000Y-82867500D02*
X101600000Y-83312000D01*
X101584000Y-71738800D02*
X101820000Y-71974500D01*
X101600000Y-89535000D02*
X101820000Y-89754500D01*
X101820000Y-93374000D02*
X102044000Y-93599000D01*
X101820000Y-86198500D02*
X102044000Y-86423500D01*
X101615000Y-97111000D02*
X102050000Y-97111000D01*
X102400000Y-63400000D02*
X101400000Y-64400000D01*
X101820000Y-75530500D02*
X102044000Y-75755500D01*
X102044000Y-75755500D02*
X101600000Y-76200000D01*
X101820000Y-79086500D02*
X102044000Y-79311500D01*
X102044000Y-93599000D02*
X101600000Y-94043500D01*
X101400000Y-68063000D02*
X102044000Y-68707000D01*
X101600000Y-78867000D02*
X101820000Y-79086500D01*
X102044000Y-79311500D02*
X101473000Y-79883000D01*
X101600000Y-85979000D02*
X101820000Y-86198500D01*
X102044000Y-68707000D02*
X101584000Y-69167700D01*
X101820000Y-82642500D02*
X102044000Y-82867500D01*
X101584000Y-69167700D02*
X101584000Y-71738800D01*
X102044000Y-65244000D02*
X102044000Y-66992500D01*
X102485000Y-81197000D02*
X102495000Y-81187500D01*
X102050000Y-88309000D02*
X102485000Y-88309000D01*
X102495000Y-84762500D02*
X102485000Y-84753000D01*
X102495000Y-77650500D02*
X102485000Y-77641000D01*
X102495000Y-81187500D02*
X102495000Y-77650500D01*
X102485000Y-91865000D02*
X102495000Y-91855500D01*
X102050000Y-74085000D02*
X102485000Y-74085000D01*
X102050000Y-91865000D02*
X102485000Y-91865000D01*
X102050000Y-81197000D02*
X102485000Y-81197000D01*
X102485000Y-84753000D02*
X102495000Y-84743500D01*
X102495000Y-77631500D02*
X102495000Y-74094500D01*
X102495000Y-70519500D02*
X102495000Y-67442500D01*
X102485000Y-95421000D02*
X102495000Y-95411500D01*
X102269000Y-67217500D02*
X102044000Y-66992500D01*
X102495000Y-88299500D02*
X102495000Y-84762500D01*
X102495000Y-81206500D02*
X102485000Y-81197000D01*
X102495000Y-67442500D02*
X102269000Y-67217500D01*
X102495000Y-91874500D02*
X102485000Y-91865000D01*
X102485000Y-70529000D02*
X102495000Y-70519500D01*
X102495000Y-88318500D02*
X102485000Y-88309000D01*
X102485000Y-74085000D02*
X102495000Y-74075500D01*
X102050000Y-95421000D02*
X102485000Y-95421000D01*
X102495000Y-84743500D02*
X102495000Y-81206500D01*
X102495000Y-95411500D02*
X102495000Y-91874500D01*
X102000000Y-65200000D02*
X102044000Y-65244000D01*
X102495000Y-74094500D02*
X102485000Y-74085000D01*
X102050000Y-77641000D02*
X102485000Y-77641000D01*
X102485000Y-88309000D02*
X102495000Y-88299500D01*
X102495000Y-70538500D02*
X102485000Y-70529000D01*
X102485000Y-77641000D02*
X102495000Y-77631500D01*
X102495000Y-74075500D02*
X102495000Y-70538500D01*
X102050000Y-84753000D02*
X102485000Y-84753000D01*
X102050000Y-70529000D02*
X102485000Y-70529000D01*
X102495000Y-91855500D02*
X102495000Y-88318500D01*
X98400000Y-63610000D02*
X98400000Y-68491500D01*
X98615500Y-82867500D02*
X98615500Y-86423500D01*
X98615500Y-68707000D02*
X98615500Y-72199500D01*
X98615500Y-79311500D02*
X98615500Y-82867500D01*
X98615500Y-97105500D02*
X98610000Y-97111000D01*
X98615500Y-75755500D02*
X98615500Y-79311500D01*
X98190000Y-63400000D02*
X98400000Y-63610000D01*
X98615500Y-86423500D02*
X98615500Y-89979500D01*
X98615500Y-72199500D02*
X98615500Y-75755500D01*
X98615500Y-93599000D02*
X98615500Y-97105500D01*
X98400000Y-68491500D02*
X98615500Y-68707000D01*
X98615500Y-89979500D02*
X98615500Y-93599000D01*
X99012000Y-69199500D02*
X99012000Y-71707000D01*
X99012000Y-93106500D02*
X99504500Y-93599000D01*
X99504500Y-86423500D02*
X99060000Y-86868000D01*
X99060000Y-79756000D02*
X99060000Y-82423000D01*
X98990000Y-63410000D02*
X98990000Y-68192500D01*
X99504500Y-89979500D02*
X99012000Y-90472000D01*
X99504500Y-75755500D02*
X99060000Y-76200000D01*
X99504500Y-68707000D02*
X99012000Y-69199500D01*
X99012000Y-90472000D02*
X99012000Y-93106500D01*
X99000000Y-63400000D02*
X98990000Y-63410000D01*
X99060000Y-76200000D02*
X99060000Y-78867000D01*
X99504500Y-93599000D02*
X99060000Y-94043500D01*
X99060000Y-75311000D02*
X99504500Y-75755500D01*
X99075000Y-97111000D02*
X99510000Y-97111000D01*
X99504500Y-79311500D02*
X99060000Y-79756000D01*
X99012000Y-83360000D02*
X99012000Y-85931000D01*
X99060000Y-89535000D02*
X99504500Y-89979500D01*
X99060000Y-97096000D02*
X99075000Y-97111000D01*
X99060000Y-94043500D02*
X99060000Y-97096000D01*
X99060000Y-82423000D02*
X99504500Y-82867500D01*
X99504500Y-72199500D02*
X99060000Y-72644000D01*
X99060000Y-78867000D02*
X99504500Y-79311500D01*
X99060000Y-72644000D02*
X99060000Y-75311000D01*
X99060000Y-86868000D02*
X99060000Y-89535000D01*
X98990000Y-68192500D02*
X99504500Y-68707000D01*
X99012000Y-71707000D02*
X99504500Y-72199500D01*
X99504500Y-82867500D02*
X99012000Y-83360000D01*
X99012000Y-85931000D02*
X99504500Y-86423500D01*
X99954500Y-67442500D02*
X99954500Y-70519500D01*
X99954500Y-88299500D02*
X99945000Y-88309000D01*
X99954500Y-84762500D02*
X99954500Y-88299500D01*
X99510000Y-91865000D02*
X99945000Y-91865000D01*
X99954500Y-84743500D02*
X99945000Y-84753000D01*
X99954500Y-81206500D02*
X99954500Y-84743500D01*
X99954500Y-77650500D02*
X99954500Y-81187500D01*
X99945000Y-81197000D02*
X99954500Y-81206500D01*
X99954500Y-74094500D02*
X99954500Y-77631500D01*
X99960000Y-95406000D02*
X99945000Y-95421000D01*
X99945000Y-77641000D02*
X99954500Y-77650500D01*
X99954500Y-91855500D02*
X99945000Y-91865000D01*
X99945000Y-84753000D02*
X99954500Y-84762500D01*
X99954500Y-70538500D02*
X99954500Y-74075500D01*
X99510000Y-70529000D02*
X99945000Y-70529000D01*
X99954500Y-70519500D02*
X99945000Y-70529000D01*
X99945000Y-88309000D02*
X99954500Y-88318500D01*
X99510000Y-74085000D02*
X99945000Y-74085000D01*
X99504500Y-66992500D02*
X99954500Y-67442500D01*
X99504500Y-61176000D02*
X99504500Y-66992500D01*
X99954500Y-74075500D02*
X99945000Y-74085000D01*
X99510000Y-77641000D02*
X99945000Y-77641000D01*
X99510000Y-84753000D02*
X99945000Y-84753000D01*
X99945000Y-74085000D02*
X99954500Y-74094500D01*
X99954500Y-77631500D02*
X99945000Y-77641000D01*
X99945000Y-70529000D02*
X99954500Y-70538500D01*
X99510000Y-81197000D02*
X99945000Y-81197000D01*
X98806000Y-60477500D02*
X99504500Y-61176000D01*
X99945000Y-91865000D02*
X99960000Y-91880000D01*
X99954500Y-81187500D02*
X99945000Y-81197000D01*
X99960000Y-91880000D02*
X99960000Y-95406000D01*
X99954500Y-88318500D02*
X99954500Y-91855500D01*
X99945000Y-95421000D02*
X99510000Y-95421000D01*
X99510000Y-88309000D02*
X99945000Y-88309000D01*
X96070000Y-79311500D02*
X96075500Y-79311500D01*
X96070000Y-86423500D02*
X96075500Y-86423500D01*
X96070000Y-82867500D02*
X96070000Y-79311500D01*
X96070000Y-75755500D02*
X96075500Y-75755500D01*
X96070000Y-89979500D02*
X96070000Y-86423500D01*
X96070000Y-72199500D02*
X96070000Y-68712500D01*
X96000000Y-68631500D02*
X96075500Y-68707000D01*
X96590000Y-63400000D02*
X96000000Y-63990000D01*
X96070000Y-93599000D02*
X96070000Y-89979500D01*
X96070000Y-82867500D02*
X96075500Y-82867500D01*
X96070000Y-86423500D02*
X96070000Y-82867500D01*
X96070000Y-97111000D02*
X96070000Y-93599000D01*
X96070000Y-72199500D02*
X96075500Y-72199500D01*
X96000000Y-63990000D02*
X96000000Y-68631500D01*
X96070000Y-93599000D02*
X96075500Y-93599000D01*
X96070000Y-75755500D02*
X96070000Y-72199500D01*
X96070000Y-79311500D02*
X96070000Y-75755500D01*
X96070000Y-89979500D02*
X96075500Y-89979500D01*
X96070000Y-68712500D02*
X96075500Y-68707000D01*
X96400000Y-68142500D02*
X96964500Y-68707000D01*
X96472000Y-85931000D02*
X96964500Y-86423500D01*
X96535000Y-97111000D02*
X96970000Y-97111000D01*
X96964500Y-79311500D02*
X96520000Y-79756000D01*
X96520000Y-97096000D02*
X96535000Y-97111000D01*
X96520000Y-78867000D02*
X96964500Y-79311500D01*
X97390000Y-63400000D02*
X96400000Y-64390000D01*
X96964500Y-93599000D02*
X96520000Y-94043500D01*
X96520000Y-89535000D02*
X96964500Y-89979500D01*
X96520000Y-69151500D02*
X96520000Y-71755000D01*
X96520000Y-94043500D02*
X96520000Y-97096000D01*
X96964500Y-72199500D02*
X96520000Y-72644000D01*
X96472000Y-83360000D02*
X96472000Y-85931000D01*
X96400000Y-64390000D02*
X96400000Y-68142500D01*
X96964500Y-75755500D02*
X96520000Y-76200000D01*
X96964500Y-89979500D02*
X96520000Y-90424000D01*
X96520000Y-79756000D02*
X96520000Y-82423000D01*
X96964500Y-68707000D02*
X96520000Y-69151500D01*
X96520000Y-72644000D02*
X96520000Y-75311000D01*
X96520000Y-82423000D02*
X96964500Y-82867500D01*
X96964500Y-86423500D02*
X96520000Y-86868000D01*
X96520000Y-75311000D02*
X96964500Y-75755500D01*
X96520000Y-76200000D02*
X96520000Y-78867000D01*
X96520000Y-71755000D02*
X96964500Y-72199500D01*
X96964500Y-82867500D02*
X96472000Y-83360000D01*
X96520000Y-86868000D02*
X96520000Y-89535000D01*
X96520000Y-93154500D02*
X96964500Y-93599000D01*
X96520000Y-90424000D02*
X96520000Y-93154500D01*
X96964500Y-65235500D02*
X96964500Y-66992500D01*
X97414500Y-77650500D02*
X97405000Y-77641000D01*
X97414500Y-88318500D02*
X97405000Y-88309000D01*
X97405000Y-77641000D02*
X97414500Y-77631500D01*
X97414500Y-77631500D02*
X97414500Y-74094500D01*
X97414500Y-95411500D02*
X97414500Y-91874500D01*
X97414500Y-74075500D02*
X97414500Y-70538500D01*
X96970000Y-95421000D02*
X97405000Y-95421000D01*
X97414500Y-84762500D02*
X97405000Y-84753000D01*
X97414500Y-88299500D02*
X97414500Y-84762500D01*
X96970000Y-88309000D02*
X97405000Y-88309000D01*
X97414500Y-70538500D02*
X97405000Y-70529000D01*
X97405000Y-70529000D02*
X97414500Y-70519500D01*
X97414500Y-84743500D02*
X97414500Y-81206500D01*
X97414500Y-74094500D02*
X97405000Y-74085000D01*
X97405000Y-74085000D02*
X97414500Y-74075500D01*
X97414500Y-91855500D02*
X97414500Y-88318500D01*
X96970000Y-91865000D02*
X97405000Y-91865000D01*
X96970000Y-84753000D02*
X97405000Y-84753000D01*
X97405000Y-91865000D02*
X97414500Y-91855500D01*
X97000000Y-65200000D02*
X96964500Y-65235500D01*
X96970000Y-77641000D02*
X97405000Y-77641000D01*
X97414500Y-81206500D02*
X97405000Y-81197000D01*
X96970000Y-81197000D02*
X97405000Y-81197000D01*
X97405000Y-88309000D02*
X97414500Y-88299500D01*
X97405000Y-81197000D02*
X97414500Y-81187500D01*
X97414500Y-81187500D02*
X97414500Y-77650500D01*
X96970000Y-74085000D02*
X97405000Y-74085000D01*
X97414500Y-67442500D02*
X96964500Y-66992500D01*
X97405000Y-84753000D02*
X97414500Y-84743500D01*
X97414500Y-91874500D02*
X97405000Y-91865000D01*
X97414500Y-70519500D02*
X97414500Y-67442500D01*
X97405000Y-95421000D02*
X97414500Y-95411500D01*
X96970000Y-70529000D02*
X97405000Y-70529000D01*
X93535500Y-97105500D02*
X93530000Y-97111000D01*
X93535500Y-75755500D02*
X93535500Y-79311500D01*
X93535500Y-79311500D02*
X93535500Y-82867500D01*
X93535500Y-82867500D02*
X93535500Y-86423500D01*
X93110000Y-63400000D02*
X93110000Y-68281500D01*
X93535500Y-68707000D02*
X93535500Y-72199500D01*
X93535500Y-89979500D02*
X93535500Y-93599000D01*
X93535500Y-86423500D02*
X93535500Y-89979500D01*
X93535500Y-72199500D02*
X93535500Y-75755500D01*
X93110000Y-68281500D02*
X93535500Y-68707000D01*
X93535500Y-93599000D02*
X93535500Y-97105500D01*
X94424500Y-75755500D02*
X93963800Y-76216200D01*
X93980000Y-72644000D02*
X93980000Y-75311000D01*
X94424500Y-82867500D02*
X93980000Y-83312000D01*
X94424500Y-79311500D02*
X93980000Y-79756000D01*
X93963800Y-76216200D02*
X93963800Y-78850800D01*
X93980000Y-89535000D02*
X94424500Y-89979500D01*
X94424500Y-68707000D02*
X93963800Y-69167700D01*
X94424500Y-72199500D02*
X93980000Y-72644000D01*
X93910000Y-68192500D02*
X94424500Y-68707000D01*
X93980000Y-85979000D02*
X94424500Y-86423500D01*
X93980000Y-83312000D02*
X93980000Y-85979000D01*
X94424500Y-93599000D02*
X93980000Y-94043500D01*
X93980000Y-82423000D02*
X94424500Y-82867500D01*
X94424500Y-89979500D02*
X93980000Y-90424000D01*
X93995000Y-97111000D02*
X94430000Y-97111000D01*
X93980000Y-90424000D02*
X93980000Y-93154500D01*
X93980000Y-75311000D02*
X94424500Y-75755500D01*
X93980000Y-79756000D02*
X93980000Y-82423000D01*
X93963800Y-71738800D02*
X94424500Y-72199500D01*
X93980000Y-94043500D02*
X93980000Y-97096000D01*
X93910000Y-63400000D02*
X93910000Y-68192500D01*
X93980000Y-86868000D02*
X93980000Y-89535000D01*
X93980000Y-93154500D02*
X94424500Y-93599000D01*
X93963800Y-69167700D02*
X93963800Y-71738800D01*
X94424500Y-86423500D02*
X93980000Y-86868000D01*
X93980000Y-97096000D02*
X93995000Y-97111000D01*
X93963800Y-78850800D02*
X94424500Y-79311500D01*
X94424500Y-66992500D02*
X94874500Y-67442500D01*
X94430000Y-91865000D02*
X94865000Y-91865000D01*
X94874500Y-67442500D02*
X94874500Y-70519500D01*
X94874500Y-70519500D02*
X94865000Y-70529000D01*
X94874500Y-95411500D02*
X94865000Y-95421000D01*
X94874500Y-88318500D02*
X94874500Y-91855500D01*
X94865000Y-88309000D02*
X94874500Y-88318500D01*
X94430000Y-77641000D02*
X94865000Y-77641000D01*
X94430000Y-84753000D02*
X94865000Y-84753000D01*
X94865000Y-95421000D02*
X94430000Y-95421000D01*
X94865000Y-74085000D02*
X94874500Y-74094500D01*
X94430000Y-74085000D02*
X94865000Y-74085000D01*
X94874500Y-84762500D02*
X94874500Y-88299500D01*
X94874500Y-81187500D02*
X94865000Y-81197000D01*
X94430000Y-70529000D02*
X94865000Y-70529000D01*
X94874500Y-81206500D02*
X94874500Y-84743500D01*
X94865000Y-84753000D02*
X94874500Y-84762500D01*
X94424500Y-61176000D02*
X94424500Y-66992500D01*
X94874500Y-74075500D02*
X94865000Y-74085000D01*
X94874500Y-88299500D02*
X94865000Y-88309000D01*
X94865000Y-91865000D02*
X94874500Y-91874500D01*
X94874500Y-70538500D02*
X94874500Y-74075500D01*
X94874500Y-84743500D02*
X94865000Y-84753000D01*
X94865000Y-77641000D02*
X94874500Y-77650500D01*
X94874500Y-91855500D02*
X94865000Y-91865000D01*
X94865000Y-81197000D02*
X94874500Y-81206500D01*
X94874500Y-74094500D02*
X94874500Y-77631500D01*
X94430000Y-88309000D02*
X94865000Y-88309000D01*
X93726000Y-60477500D02*
X94424500Y-61176000D01*
X94430000Y-81197000D02*
X94865000Y-81197000D01*
X94874500Y-77631500D02*
X94865000Y-77641000D01*
X94874500Y-77650500D02*
X94874500Y-81187500D01*
X94865000Y-70529000D02*
X94874500Y-70538500D01*
X94874500Y-91874500D02*
X94874500Y-95411500D01*
X90990000Y-75755500D02*
X90995500Y-75755500D01*
X90800000Y-68511500D02*
X90995500Y-68707000D01*
X90800000Y-64110000D02*
X90800000Y-68511500D01*
X90990000Y-82867500D02*
X90990000Y-79311500D01*
X90990000Y-82867500D02*
X90995500Y-82867500D01*
X90990000Y-86423500D02*
X90995500Y-86423500D01*
X90990000Y-89979500D02*
X90990000Y-86423500D01*
X90990000Y-97111000D02*
X90990000Y-93599000D01*
X90990000Y-72199500D02*
X90990000Y-68712500D01*
X90990000Y-79311500D02*
X90995500Y-79311500D01*
X91510000Y-63400000D02*
X90800000Y-64110000D01*
X90990000Y-72199500D02*
X90995500Y-72199500D01*
X90990000Y-79311500D02*
X90990000Y-75755500D01*
X90990000Y-93599000D02*
X90995500Y-93599000D01*
X90990000Y-93599000D02*
X90990000Y-89979500D01*
X90990000Y-86423500D02*
X90990000Y-82867500D01*
X90990000Y-68712500D02*
X90995500Y-68707000D01*
X90990000Y-89979500D02*
X90995500Y-89979500D01*
X90990000Y-75755500D02*
X90990000Y-72199500D01*
X91440000Y-75311000D02*
X91884500Y-75755500D01*
X91440000Y-78867000D02*
X91884500Y-79311500D01*
X91440000Y-72644000D02*
X91440000Y-75311000D01*
X91884500Y-79311500D02*
X91440000Y-79756000D01*
X91884500Y-68707000D02*
X91440000Y-69151500D01*
X91884500Y-72199500D02*
X91440000Y-72644000D01*
X91440000Y-97096000D02*
X91455000Y-97111000D01*
X91440000Y-69151500D02*
X91440000Y-71755000D01*
X91440000Y-79756000D02*
X91440000Y-82423000D01*
X91884500Y-75755500D02*
X91440000Y-76200000D01*
X91884500Y-82867500D02*
X91440000Y-83312000D01*
X91884500Y-86423500D02*
X91440000Y-86868000D01*
X91440000Y-71755000D02*
X91884500Y-72199500D01*
X91440000Y-89535000D02*
X91884500Y-89979500D01*
X91440000Y-83312000D02*
X91440000Y-85979000D01*
X91455000Y-97111000D02*
X91890000Y-97111000D01*
X91440000Y-82423000D02*
X91884500Y-82867500D01*
X91440000Y-85979000D02*
X91884500Y-86423500D01*
X91423800Y-90440200D02*
X91423800Y-93138300D01*
X91200000Y-68022500D02*
X91884500Y-68707000D01*
X91884500Y-93599000D02*
X91440000Y-94043500D01*
X91200000Y-64510000D02*
X91200000Y-68022500D01*
X91440000Y-86868000D02*
X91440000Y-89535000D01*
X91440000Y-76200000D02*
X91440000Y-78867000D01*
X92310000Y-63400000D02*
X91200000Y-64510000D01*
X91423800Y-93138300D02*
X91884500Y-93599000D01*
X91884500Y-89979500D02*
X91423800Y-90440200D01*
X91440000Y-94043500D02*
X91440000Y-97096000D01*
X92325000Y-88309000D02*
X92334500Y-88299500D01*
X91800000Y-65200000D02*
X91884500Y-65284500D01*
X92334500Y-91855500D02*
X92334500Y-88318500D01*
X92325000Y-91865000D02*
X92334500Y-91855500D01*
X92334500Y-84762500D02*
X92325000Y-84753000D01*
X92334500Y-67442500D02*
X91884500Y-66992500D01*
X92334500Y-70538500D02*
X92325000Y-70529000D01*
X91890000Y-70529000D02*
X92325000Y-70529000D01*
X92334500Y-91874500D02*
X92325000Y-91865000D01*
X92334500Y-77650500D02*
X92325000Y-77641000D01*
X91890000Y-74085000D02*
X92325000Y-74085000D01*
X92325000Y-77641000D02*
X92334500Y-77631500D01*
X91890000Y-81197000D02*
X92325000Y-81197000D01*
X92325000Y-74085000D02*
X92334500Y-74075500D01*
X92334500Y-74094500D02*
X92325000Y-74085000D01*
X91890000Y-88309000D02*
X92325000Y-88309000D01*
X92334500Y-70519500D02*
X92334500Y-67442500D01*
X92334500Y-88318500D02*
X92325000Y-88309000D01*
X91890000Y-95421000D02*
X92325000Y-95421000D01*
X92334500Y-84743500D02*
X92334500Y-81206500D01*
X91890000Y-77641000D02*
X92325000Y-77641000D01*
X92334500Y-81187500D02*
X92334500Y-77650500D01*
X92334500Y-88299500D02*
X92334500Y-84762500D01*
X92325000Y-81197000D02*
X92334500Y-81187500D01*
X92334500Y-81206500D02*
X92325000Y-81197000D01*
X92325000Y-70529000D02*
X92334500Y-70519500D01*
X92334500Y-95411500D02*
X92334500Y-91874500D01*
X91890000Y-91865000D02*
X92325000Y-91865000D01*
X92334500Y-74075500D02*
X92334500Y-70538500D01*
X92334500Y-77631500D02*
X92334500Y-74094500D01*
X91884500Y-65284500D02*
X91884500Y-66992500D01*
X91890000Y-84753000D02*
X92325000Y-84753000D01*
X92325000Y-95421000D02*
X92334500Y-95411500D01*
X92325000Y-84753000D02*
X92334500Y-84743500D01*
X88455500Y-75755500D02*
X88455500Y-79311500D01*
X88455500Y-97105500D02*
X88450000Y-97111000D01*
X88455500Y-72199500D02*
X88455500Y-75755500D01*
X88455500Y-79311500D02*
X88455500Y-82867500D01*
X88000000Y-63400000D02*
X88400000Y-63800000D01*
X88455500Y-93599000D02*
X88455500Y-97105500D01*
X88455500Y-82867500D02*
X88455500Y-86423500D01*
X88455500Y-89979500D02*
X88455500Y-93599000D01*
X88455500Y-86423500D02*
X88455500Y-89979500D01*
X88400000Y-63800000D02*
X88400000Y-68651500D01*
X88400000Y-68651500D02*
X88455500Y-68707000D01*
X88455500Y-68707000D02*
X88455500Y-72199500D01*
X88900000Y-97096000D02*
X88915000Y-97111000D01*
X89344500Y-75755500D02*
X88900000Y-76200000D01*
X88900000Y-76200000D02*
X88900000Y-78867000D01*
X89344500Y-72199500D02*
X88900000Y-72644000D01*
X88900000Y-71755000D02*
X89344500Y-72199500D01*
X89344500Y-86423500D02*
X88900000Y-86868000D01*
X88830000Y-63400000D02*
X88830000Y-68192500D01*
X88900000Y-83312000D02*
X88900000Y-85979000D01*
X88900000Y-86868000D02*
X88900000Y-89535000D01*
X88900000Y-75311000D02*
X89344500Y-75755500D01*
X89344500Y-68707000D02*
X88900000Y-69151500D01*
X88830000Y-68192500D02*
X89344500Y-68707000D01*
X88900000Y-79756000D02*
X88900000Y-82423000D01*
X89344500Y-82867500D02*
X88900000Y-83312000D01*
X89344500Y-89979500D02*
X88900000Y-90424000D01*
X88900000Y-72644000D02*
X88900000Y-75311000D01*
X89344500Y-93599000D02*
X88900000Y-94043500D01*
X88900000Y-90424000D02*
X88900000Y-93154500D01*
X88900000Y-78867000D02*
X89344500Y-79311500D01*
X88900000Y-93154500D02*
X89344500Y-93599000D01*
X89344500Y-79311500D02*
X88900000Y-79756000D01*
X88915000Y-97111000D02*
X89350000Y-97111000D01*
X88900000Y-85979000D02*
X89344500Y-86423500D01*
X88900000Y-69151500D02*
X88900000Y-71755000D01*
X88900000Y-94043500D02*
X88900000Y-97096000D01*
X88900000Y-89535000D02*
X89344500Y-89979500D01*
X88900000Y-82423000D02*
X89344500Y-82867500D01*
X89794500Y-70519500D02*
X89785000Y-70529000D01*
X89350000Y-88309000D02*
X89785000Y-88309000D01*
X89794500Y-84762500D02*
X89794500Y-88299500D01*
X89794500Y-88318500D02*
X89794500Y-91855500D01*
X89785000Y-95421000D02*
X89350000Y-95421000D01*
X89794500Y-81187500D02*
X89785000Y-81197000D01*
X89350000Y-91865000D02*
X89785000Y-91865000D01*
X89794500Y-74094500D02*
X89794500Y-77631500D01*
X89344500Y-61176000D02*
X89344500Y-66992500D01*
X89800000Y-95406000D02*
X89785000Y-95421000D01*
X89785000Y-84753000D02*
X89794500Y-84762500D01*
X89785000Y-74085000D02*
X89794500Y-74094500D01*
X89785000Y-91865000D02*
X89800000Y-91880000D01*
X89785000Y-81197000D02*
X89794500Y-81206500D01*
X89794500Y-77631500D02*
X89785000Y-77641000D01*
X89794500Y-88299500D02*
X89785000Y-88309000D01*
X89794500Y-70538500D02*
X89794500Y-74075500D01*
X89794500Y-81206500D02*
X89794500Y-84743500D01*
X89794500Y-84743500D02*
X89785000Y-84753000D01*
X89350000Y-84753000D02*
X89785000Y-84753000D01*
X89794500Y-67442500D02*
X89794500Y-70519500D01*
X89344500Y-66992500D02*
X89794500Y-67442500D01*
X89785000Y-88309000D02*
X89794500Y-88318500D01*
X89800000Y-91880000D02*
X89800000Y-95406000D01*
X89794500Y-77650500D02*
X89794500Y-81187500D01*
X89350000Y-74085000D02*
X89785000Y-74085000D01*
X88646000Y-60477500D02*
X89344500Y-61176000D01*
X89794500Y-74075500D02*
X89785000Y-74085000D01*
X89350000Y-70529000D02*
X89785000Y-70529000D01*
X89785000Y-70529000D02*
X89794500Y-70538500D01*
X89350000Y-81197000D02*
X89785000Y-81197000D01*
X89350000Y-77641000D02*
X89785000Y-77641000D01*
X89785000Y-77641000D02*
X89794500Y-77650500D01*
X89794500Y-91855500D02*
X89785000Y-91865000D01*
X85910000Y-97111000D02*
X85910000Y-93535500D01*
X85910000Y-79311500D02*
X85915500Y-79311500D01*
X85910000Y-86423500D02*
X85910000Y-82867500D01*
X85910000Y-86423500D02*
X85915500Y-86423500D01*
X85910000Y-82867500D02*
X85915500Y-82867500D01*
X85910000Y-72199500D02*
X85915500Y-72199500D01*
X85910000Y-93535500D02*
X85915500Y-93535500D01*
X85910000Y-89979500D02*
X85910000Y-86423500D01*
X85910000Y-68712500D02*
X85915500Y-68707000D01*
X85910000Y-75755500D02*
X85910000Y-72199500D01*
X85910000Y-82867500D02*
X85910000Y-79311500D01*
X85915500Y-63884500D02*
X85915500Y-68707000D01*
X85910000Y-72199500D02*
X85910000Y-68712500D01*
X86400000Y-63400000D02*
X85915500Y-63884500D01*
X85910000Y-75755500D02*
X85915500Y-75755500D01*
X85910000Y-93535500D02*
X85910000Y-89979500D01*
X85910000Y-79311500D02*
X85910000Y-75755500D01*
X85910000Y-89979500D02*
X85915500Y-89979500D01*
X86360000Y-90424000D02*
X86360000Y-93091000D01*
X86360000Y-72644000D02*
X86360000Y-75311000D01*
X86360000Y-97096000D02*
X86375000Y-97111000D01*
X86360000Y-85979000D02*
X86804500Y-86423500D01*
X86804500Y-72199500D02*
X86360000Y-72644000D01*
X86312000Y-82375000D02*
X86804500Y-82867500D01*
X86360000Y-71755000D02*
X86804500Y-72199500D01*
X86360000Y-93091000D02*
X86804500Y-93535500D01*
X86360000Y-75311000D02*
X86804500Y-75755500D01*
X86804500Y-79311500D02*
X86312000Y-79804000D01*
X86804500Y-82867500D02*
X86360000Y-83312000D01*
X86804500Y-86423500D02*
X86360000Y-86868000D01*
X86375000Y-97111000D02*
X86810000Y-97111000D01*
X86360000Y-76200000D02*
X86360000Y-78867000D01*
X86360000Y-89535000D02*
X86804500Y-89979500D01*
X86312000Y-79804000D02*
X86312000Y-82375000D01*
X86215020Y-68117520D02*
X86804500Y-68707000D01*
X86804500Y-89979500D02*
X86360000Y-90424000D01*
X86360000Y-69151500D02*
X86360000Y-71755000D01*
X87200000Y-63400000D02*
X86215020Y-64384980D01*
X86215020Y-64384980D02*
X86215020Y-68117520D01*
X86360000Y-78867000D02*
X86804500Y-79311500D01*
X86804500Y-75755500D02*
X86360000Y-76200000D01*
X86360000Y-93980000D02*
X86360000Y-97096000D01*
X86360000Y-83312000D02*
X86360000Y-85979000D01*
X86804500Y-93535500D02*
X86360000Y-93980000D01*
X86804500Y-68707000D02*
X86360000Y-69151500D01*
X86360000Y-86868000D02*
X86360000Y-89535000D01*
X87245000Y-77641000D02*
X87254500Y-77631500D01*
X86810000Y-77641000D02*
X87245000Y-77641000D01*
X87254500Y-84743500D02*
X87254500Y-81206500D01*
X87254500Y-91874500D02*
X87245000Y-91865000D01*
X86810000Y-88309000D02*
X87245000Y-88309000D01*
X87245000Y-91865000D02*
X87254500Y-91855500D01*
X87254500Y-88299500D02*
X87254500Y-84762500D01*
X87254500Y-81206500D02*
X87245000Y-81197000D01*
X87254500Y-84762500D02*
X87245000Y-84753000D01*
X87254500Y-74075500D02*
X87254500Y-70538500D01*
X87254500Y-95411500D02*
X87254500Y-91874500D01*
X87245000Y-74085000D02*
X87254500Y-74075500D01*
X87254500Y-70519500D02*
X87254500Y-67442500D01*
X86810000Y-74085000D02*
X87245000Y-74085000D01*
X87254500Y-67442500D02*
X86804500Y-66992500D01*
X87254500Y-77650500D02*
X87245000Y-77641000D01*
X87245000Y-81197000D02*
X87254500Y-81187500D01*
X86810000Y-91865000D02*
X87245000Y-91865000D01*
X86810000Y-95421000D02*
X87245000Y-95421000D01*
X86810000Y-81197000D02*
X87245000Y-81197000D01*
X87245000Y-70529000D02*
X87254500Y-70519500D01*
X87254500Y-91855500D02*
X87254500Y-88318500D01*
X86804500Y-65204500D02*
X86804500Y-66992500D01*
X87254500Y-88318500D02*
X87245000Y-88309000D01*
X86800000Y-65200000D02*
X86804500Y-65204500D01*
X87254500Y-77631500D02*
X87254500Y-74094500D01*
X87254500Y-81187500D02*
X87254500Y-77650500D01*
X87245000Y-84753000D02*
X87254500Y-84743500D01*
X87254500Y-74094500D02*
X87245000Y-74085000D01*
X86810000Y-84753000D02*
X87245000Y-84753000D01*
X87245000Y-95421000D02*
X87254500Y-95411500D01*
X87245000Y-88309000D02*
X87254500Y-88299500D01*
X86810000Y-70529000D02*
X87245000Y-70529000D01*
X87254500Y-70538500D02*
X87245000Y-70529000D01*
X83370000Y-75775000D02*
X83370000Y-79331000D01*
X83375500Y-68707000D02*
X83375500Y-72213500D01*
X83370000Y-93555000D02*
X83370000Y-97111000D01*
X83375500Y-68707000D02*
X83058000Y-68389500D01*
X83370000Y-89999000D02*
X83370000Y-93555000D01*
X83370000Y-82887000D02*
X83370000Y-86443000D01*
X83058000Y-68389500D02*
X83058000Y-64187500D01*
X83370000Y-72219000D02*
X83370000Y-75775000D01*
X83370000Y-86443000D02*
X83370000Y-89999000D01*
X83370000Y-79331000D02*
X83370000Y-82887000D01*
X83375500Y-72213500D02*
X83370000Y-72219000D01*
X83820000Y-82902000D02*
X83820000Y-86428000D01*
X83820000Y-89984000D02*
X83835000Y-89999000D01*
X83820000Y-90014000D02*
X83820000Y-93540000D01*
X84270000Y-93555000D02*
X83835000Y-93555000D01*
X83820000Y-75790000D02*
X83820000Y-79316000D01*
X83600000Y-65182000D02*
X83600000Y-68042500D01*
X83820000Y-93570000D02*
X83820000Y-97096000D01*
X83820000Y-97096000D02*
X83835000Y-97111000D01*
X83820000Y-79316000D02*
X83835000Y-79331000D01*
X84270000Y-72219000D02*
X83835000Y-72219000D01*
X83820000Y-79346000D02*
X83820000Y-82872000D01*
X83820000Y-72204000D02*
X83835000Y-72219000D01*
X84270000Y-89999000D02*
X83835000Y-89999000D01*
X84270000Y-82887000D02*
X83835000Y-82887000D01*
X83600000Y-68042500D02*
X84264500Y-68707000D01*
X84270000Y-75775000D02*
X83835000Y-75775000D01*
X83835000Y-75775000D02*
X83820000Y-75790000D01*
X83835000Y-97111000D02*
X84270000Y-97111000D01*
X83835000Y-82887000D02*
X83820000Y-82902000D01*
X83820000Y-93540000D02*
X83835000Y-93555000D01*
X84270000Y-79331000D02*
X83835000Y-79331000D01*
X84264500Y-68707000D02*
X83820000Y-69151500D01*
X83820000Y-69151500D02*
X83820000Y-72204000D01*
X83835000Y-79331000D02*
X83820000Y-79346000D01*
X84270000Y-86443000D02*
X83835000Y-86443000D01*
X83820000Y-82872000D02*
X83835000Y-82887000D01*
X83820000Y-75760000D02*
X83835000Y-75775000D01*
X83820000Y-86458000D02*
X83820000Y-89984000D01*
X84582000Y-64200000D02*
X83600000Y-65182000D01*
X83820000Y-86428000D02*
X83835000Y-86443000D01*
X83835000Y-86443000D02*
X83820000Y-86458000D01*
X83820000Y-72234000D02*
X83820000Y-75760000D01*
X83835000Y-93555000D02*
X83820000Y-93570000D01*
X83835000Y-72219000D02*
X83820000Y-72234000D01*
X83835000Y-89999000D02*
X83820000Y-90014000D01*
X84270000Y-74085000D02*
X84705000Y-74085000D01*
X84705000Y-70529000D02*
X84720000Y-70544000D01*
X84264500Y-66992500D02*
X84264500Y-65735500D01*
X84720000Y-88294000D02*
X84705000Y-88309000D01*
X84720000Y-95406000D02*
X84705000Y-95421000D01*
X84705000Y-88309000D02*
X84720000Y-88324000D01*
X84720000Y-74070000D02*
X84705000Y-74085000D01*
X84705000Y-81197000D02*
X84720000Y-81212000D01*
X84270000Y-77641000D02*
X84705000Y-77641000D01*
X84270000Y-70529000D02*
X84705000Y-70529000D01*
X84720000Y-77626000D02*
X84705000Y-77641000D01*
X84720000Y-77656000D02*
X84720000Y-81182000D01*
X84714500Y-67442500D02*
X84714500Y-70519500D01*
X85200000Y-64800000D02*
X85200000Y-61832000D01*
X84705000Y-95421000D02*
X84270000Y-95421000D01*
X84264500Y-65735500D02*
X85200000Y-64800000D01*
X84720000Y-91880000D02*
X84720000Y-95406000D01*
X84720000Y-81212000D02*
X84720000Y-84738000D01*
X84270000Y-88309000D02*
X84705000Y-88309000D01*
X84270000Y-91865000D02*
X84705000Y-91865000D01*
X84705000Y-91865000D02*
X84720000Y-91880000D01*
X84714500Y-70519500D02*
X84705000Y-70529000D01*
X84720000Y-91850000D02*
X84705000Y-91865000D01*
X85200000Y-61832000D02*
X83820000Y-60452000D01*
X84270000Y-84753000D02*
X84705000Y-84753000D01*
X84705000Y-77641000D02*
X84720000Y-77656000D01*
X84705000Y-84753000D02*
X84720000Y-84768000D01*
X84270000Y-81197000D02*
X84705000Y-81197000D01*
X84720000Y-70544000D02*
X84720000Y-74070000D01*
X84264500Y-66992500D02*
X84714500Y-67442500D01*
X84720000Y-81182000D02*
X84705000Y-81197000D01*
X84720000Y-84768000D02*
X84720000Y-88294000D01*
X84720000Y-88324000D02*
X84720000Y-91850000D01*
X84705000Y-74085000D02*
X84720000Y-74100000D01*
X84720000Y-84738000D02*
X84705000Y-84753000D01*
X84720000Y-74100000D02*
X84720000Y-77626000D01*
X87600000Y-65400000D02*
X87600000Y-94400000D01*
X87600000Y-94400000D02*
X87926000Y-94726000D01*
X87800000Y-65200000D02*
X87600000Y-65400000D01*
X97800000Y-65800000D02*
X97800000Y-76800000D01*
X97800000Y-76800000D02*
X97946000Y-76946000D01*
X100000000Y-65800000D02*
X100400000Y-66200000D01*
X100400000Y-73200000D02*
X100590000Y-73390000D01*
X100400000Y-66200000D02*
X100400000Y-73200000D01*
X95400000Y-66200000D02*
X95400000Y-80404000D01*
X95000000Y-65800000D02*
X95400000Y-66200000D01*
X95400000Y-80404000D02*
X95498000Y-80502000D01*
X90200000Y-87428000D02*
X90386000Y-87614000D01*
X90200000Y-65800000D02*
X90200000Y-87428000D01*
X92800000Y-84000000D02*
X92858000Y-84058000D01*
X92800000Y-66000000D02*
X92800000Y-84000000D01*
X92600000Y-65800000D02*
X92800000Y-66000000D01*
X85200000Y-65800000D02*
X85200000Y-91140000D01*
X85200000Y-91140000D02*
X85230000Y-91170000D01*
X102600000Y-65800000D02*
X102970480Y-66170480D01*
X102970480Y-66170480D02*
X102970480Y-69770480D01*
X102970480Y-69770480D02*
X103034000Y-69834000D01*
X101800000Y-51000000D02*
X102800000Y-51000000D01*
X101301440Y-56101440D02*
X101301440Y-51498560D01*
X101301440Y-51498560D02*
X101800000Y-51000000D01*
X102000000Y-56800000D02*
X101301440Y-56101440D01*
X101001920Y-56601920D02*
X101001920Y-51374495D01*
X101976415Y-50400000D02*
X103200000Y-50400000D01*
X101001920Y-51374495D02*
X101976415Y-50400000D01*
X103200000Y-58800000D02*
X101001920Y-56601920D01*
X103800000Y-58800000D02*
X103200000Y-58800000D01*
X99504320Y-57222250D02*
X99504320Y-50295680D01*
X101400000Y-59117930D02*
X99504320Y-57222250D01*
X102400000Y-47400000D02*
X102800000Y-47400000D01*
X99504320Y-50295680D02*
X102400000Y-47400000D01*
X101400000Y-59600000D02*
X101400000Y-59117930D01*
X99204800Y-50171614D02*
X102576414Y-46800000D01*
X102576414Y-46800000D02*
X103200000Y-46800000D01*
X98806000Y-58902500D02*
X98600000Y-58696500D01*
X99204800Y-56995200D02*
X99204800Y-50171614D01*
X98600000Y-58696500D02*
X98600000Y-57600000D01*
X98600000Y-57600000D02*
X99204800Y-56995200D01*
X96600000Y-58800000D02*
X96000000Y-58200000D01*
X85000000Y-52129242D02*
X85000000Y-51000000D01*
X91070758Y-58200000D02*
X85000000Y-52129242D01*
X85000000Y-51000000D02*
X83800000Y-49800000D01*
X96000000Y-58200000D02*
X91070758Y-58200000D01*
X83800000Y-49800000D02*
X83600000Y-49800000D01*
X91247171Y-58800000D02*
X93600000Y-58800000D01*
X84699520Y-51299520D02*
X84699520Y-52252349D01*
X84699520Y-52252349D02*
X91247171Y-58800000D01*
X83600000Y-50600000D02*
X84000000Y-50600000D01*
X84000000Y-50600000D02*
X84699520Y-51299520D01*
X91720000Y-57720000D02*
X91320000Y-57720000D01*
X91320000Y-57720000D02*
X85600000Y-52000000D01*
X83600000Y-54600000D02*
X84800000Y-54600000D01*
X84800000Y-54600000D02*
X87400000Y-57200000D01*
X87400000Y-57200000D02*
X87400000Y-57800000D01*
X85899520Y-58099520D02*
X86600000Y-58800000D01*
X85899520Y-56700480D02*
X85899520Y-58099520D01*
X86000000Y-56600000D02*
X85899520Y-56700480D01*
X101600960Y-52175455D02*
X102176415Y-51600000D01*
X102176415Y-51600000D02*
X103200000Y-51600000D01*
X101600960Y-55600960D02*
X101600960Y-52175455D01*
X106800000Y-60800000D02*
X101600960Y-55600960D01*
X106800000Y-61800000D02*
X106800000Y-60800000D01*
X103000960Y-55824546D02*
X103000960Y-54400960D01*
X102200000Y-52800000D02*
X103200000Y-52800000D01*
X108400000Y-61223586D02*
X103000960Y-55824546D01*
X102200000Y-53600000D02*
X102200000Y-52800000D01*
X108400000Y-61800000D02*
X108400000Y-61223586D01*
X103000960Y-54400960D02*
X102200000Y-53600000D01*
X107600000Y-61800000D02*
X107600000Y-61000000D01*
X101900480Y-52675935D02*
X102376415Y-52200000D01*
X102376415Y-52200000D02*
X102800000Y-52200000D01*
X107600000Y-61000000D02*
X101900480Y-55300480D01*
X101900480Y-55300480D02*
X101900480Y-52675935D01*
X99803840Y-57098184D02*
X99803840Y-50596160D01*
X102100480Y-59394824D02*
X99803840Y-57098184D01*
X102100480Y-61299520D02*
X102100480Y-59394824D01*
X102400000Y-48000000D02*
X103200000Y-48000000D01*
X99803840Y-50596160D02*
X102400000Y-48000000D01*
X101600000Y-61800000D02*
X102100480Y-61299520D01*
X103200000Y-49200000D02*
X102329244Y-49200000D01*
X100402880Y-56850052D02*
X102900480Y-59347652D01*
X100402880Y-51126364D02*
X100402880Y-56850052D01*
X102329244Y-49200000D02*
X100402880Y-51126364D01*
X102900480Y-61500480D02*
X103200000Y-61800000D01*
X102900480Y-59347652D02*
X102900480Y-61500480D01*
X102400000Y-48600000D02*
X102800000Y-48600000D01*
X100103360Y-50896640D02*
X102400000Y-48600000D01*
X102400000Y-59270758D02*
X100103360Y-56974118D01*
X102400000Y-61800000D02*
X102400000Y-59270758D01*
X100103360Y-56974118D02*
X100103360Y-50896640D01*
X103200000Y-59223586D02*
X103200000Y-60600000D01*
X100702400Y-51250429D02*
X100702400Y-56725986D01*
X102800000Y-49800000D02*
X102152829Y-49800000D01*
X102152829Y-49800000D02*
X100702400Y-51250429D01*
X100702400Y-56725986D02*
X103200000Y-59223586D01*
X104000000Y-61400000D02*
X104000000Y-61800000D01*
X103200000Y-60600000D02*
X104000000Y-61400000D01*
X101800000Y-45552829D02*
X98006720Y-49346109D01*
X101800000Y-45000000D02*
X101800000Y-45552829D01*
X98006720Y-56498938D02*
X97301440Y-57204219D01*
X97301440Y-61098560D02*
X96600000Y-61800000D01*
X98006720Y-49346109D02*
X98006720Y-56498938D01*
X97301440Y-57204219D02*
X97301440Y-61098560D01*
X103200000Y-45600000D02*
X102600000Y-45600000D01*
X97900480Y-57452349D02*
X97900480Y-61124066D01*
X97900480Y-61124066D02*
X98200000Y-61423586D01*
X98605760Y-49594240D02*
X98605760Y-56747068D01*
X98605760Y-56747068D02*
X97900480Y-57452349D01*
X98200000Y-61423586D02*
X98200000Y-61800000D01*
X102600000Y-45600000D02*
X98605760Y-49594240D01*
X97600960Y-57328284D02*
X97600960Y-61599040D01*
X102600000Y-45176415D02*
X98306240Y-49470175D01*
X98306240Y-56623003D02*
X97600960Y-57328284D01*
X102600000Y-45000000D02*
X102600000Y-45176415D01*
X98306240Y-49470175D02*
X98306240Y-56623003D01*
X97600960Y-61599040D02*
X97400000Y-61800000D01*
X98905280Y-56871134D02*
X98200000Y-57576414D01*
X102800000Y-46200000D02*
X102752828Y-46200000D01*
X98200000Y-57576414D02*
X98200000Y-61000000D01*
X102752828Y-46200000D02*
X98905280Y-50047548D01*
X98200000Y-61000000D02*
X99000000Y-61800000D01*
X98905280Y-50047548D02*
X98905280Y-56871134D01*
X88000000Y-58400000D02*
X91400000Y-61800000D01*
X88000000Y-57376414D02*
X88000000Y-58400000D01*
X83600000Y-53800000D02*
X84423586Y-53800000D01*
X84423586Y-53800000D02*
X88000000Y-57376414D01*
X88699520Y-57099520D02*
X88699520Y-57499520D01*
X88699520Y-57499520D02*
X93000000Y-61800000D01*
X83800000Y-52200000D02*
X88699520Y-57099520D01*
X83600000Y-52200000D02*
X83800000Y-52200000D01*
X88400000Y-57352828D02*
X88400000Y-58000000D01*
X88400000Y-58000000D02*
X92200000Y-61800000D01*
X83600000Y-53000000D02*
X84047172Y-53000000D01*
X84047172Y-53000000D02*
X88400000Y-57352828D01*
X84400000Y-51800000D02*
X84400000Y-52376415D01*
X83600000Y-51400000D02*
X84000000Y-51400000D01*
X84000000Y-51400000D02*
X84400000Y-51800000D01*
X84400000Y-52376415D02*
X93800000Y-61776415D01*
X93800000Y-61776415D02*
X93800000Y-61800000D01*
X83600000Y-57800000D02*
X83600000Y-59000000D01*
X83600000Y-59000000D02*
X86400000Y-61800000D01*
X84200000Y-56200000D02*
X85000000Y-57000000D01*
X85000000Y-58800000D02*
X88000000Y-61800000D01*
X85000000Y-57000000D02*
X85000000Y-58800000D01*
X83600000Y-56200000D02*
X84200000Y-56200000D01*
X84400000Y-57200000D02*
X84400000Y-59000000D01*
X83600000Y-57000000D02*
X84200000Y-57000000D01*
X84400000Y-59000000D02*
X87200000Y-61800000D01*
X84200000Y-57000000D02*
X84400000Y-57200000D01*
X85600000Y-58600000D02*
X88800000Y-61800000D01*
X85600000Y-57000000D02*
X85600000Y-58600000D01*
X84000000Y-55400000D02*
X85600000Y-57000000D01*
X83600000Y-55400000D02*
X84000000Y-55400000D01*
X89200000Y-54600000D02*
X86600000Y-52000000D01*
X89600000Y-54600000D02*
X89200000Y-54600000D01*
X86600000Y-51400000D02*
X85391637Y-50191637D01*
X85391637Y-50191637D02*
X85391637Y-49216637D01*
X86600000Y-52000000D02*
X86600000Y-51400000D01*
G04 #@! TA.AperFunction,Conductor*
G36*
X104061358Y-47003469D02*
G01*
X104089402Y-47024595D01*
X104374175Y-47309368D01*
X104408201Y-47371680D01*
X104410424Y-47411305D01*
X104406500Y-47449600D01*
X104406500Y-48050400D01*
X104406837Y-48053646D01*
X104406837Y-48053650D01*
X104411185Y-48095550D01*
X104417474Y-48156166D01*
X104419655Y-48162702D01*
X104419655Y-48162704D01*
X104450066Y-48253856D01*
X104473450Y-48323946D01*
X104566522Y-48474348D01*
X104691697Y-48599305D01*
X104842262Y-48692115D01*
X104919872Y-48717857D01*
X105003611Y-48745632D01*
X105003613Y-48745632D01*
X105010139Y-48747797D01*
X105016975Y-48748497D01*
X105016978Y-48748498D01*
X105060031Y-48752909D01*
X105114600Y-48758500D01*
X105231117Y-48758500D01*
X105299238Y-48778502D01*
X105320212Y-48795405D01*
X105334175Y-48809368D01*
X105368201Y-48871680D01*
X105370424Y-48911305D01*
X105366500Y-48949600D01*
X105366500Y-49550400D01*
X105366837Y-49553646D01*
X105366837Y-49553650D01*
X105373898Y-49621699D01*
X105377474Y-49656166D01*
X105379655Y-49662702D01*
X105379655Y-49662704D01*
X105385201Y-49679327D01*
X105433450Y-49823946D01*
X105526522Y-49974348D01*
X105651697Y-50099305D01*
X105656235Y-50102102D01*
X105696824Y-50159353D01*
X105700054Y-50230276D01*
X105664428Y-50291687D01*
X105655932Y-50299062D01*
X105645793Y-50307098D01*
X105531261Y-50421829D01*
X105522249Y-50433240D01*
X105437184Y-50571243D01*
X105431037Y-50584424D01*
X105379862Y-50738710D01*
X105376995Y-50752086D01*
X105367328Y-50846438D01*
X105367000Y-50852855D01*
X105367000Y-50877885D01*
X105371475Y-50893124D01*
X105372865Y-50894329D01*
X105380548Y-50896000D01*
X111800422Y-50896000D01*
X111855310Y-50910707D01*
X111855733Y-50909686D01*
X111997676Y-50968481D01*
X112150000Y-50988535D01*
X112180058Y-50984578D01*
X112196503Y-50983500D01*
X114971497Y-50983500D01*
X114987944Y-50984578D01*
X115018000Y-50988535D01*
X115026188Y-50987457D01*
X115034447Y-50987457D01*
X115034447Y-50989922D01*
X115092243Y-50998931D01*
X115145344Y-51046057D01*
X115164538Y-51114410D01*
X115161825Y-51138829D01*
X115159870Y-51144845D01*
X115139358Y-51340000D01*
X115140048Y-51346565D01*
X115151300Y-51453614D01*
X115159870Y-51535155D01*
X115161910Y-51541433D01*
X115161910Y-51541434D01*
X115164435Y-51549206D01*
X115220508Y-51721780D01*
X115223811Y-51727502D01*
X115223812Y-51727503D01*
X115252678Y-51777500D01*
X115269416Y-51846495D01*
X115252678Y-51903501D01*
X115224266Y-51952712D01*
X115218927Y-51964704D01*
X115185115Y-52068768D01*
X115184712Y-52082868D01*
X115191083Y-52086000D01*
X115475676Y-52086000D01*
X115543797Y-52106002D01*
X115549737Y-52110064D01*
X115601598Y-52147743D01*
X115608679Y-52152888D01*
X115614706Y-52155571D01*
X115614714Y-52155576D01*
X115639223Y-52166488D01*
X115693318Y-52212468D01*
X115713967Y-52280396D01*
X115694614Y-52348704D01*
X115641403Y-52395705D01*
X115601580Y-52406857D01*
X115550540Y-52412401D01*
X115550536Y-52412402D01*
X115542684Y-52413255D01*
X115406295Y-52464385D01*
X115289739Y-52551739D01*
X115285408Y-52557518D01*
X115223870Y-52591121D01*
X115197946Y-52593908D01*
X115184100Y-52597973D01*
X115183090Y-52605000D01*
X115189450Y-52624575D01*
X115191476Y-52695543D01*
X115187600Y-52707735D01*
X115151255Y-52804684D01*
X115144500Y-52866866D01*
X115144500Y-53813134D01*
X115151255Y-53875316D01*
X115202385Y-54011705D01*
X115289739Y-54128261D01*
X115406295Y-54215615D01*
X115542684Y-54266745D01*
X115604866Y-54273500D01*
X116551134Y-54273500D01*
X116613316Y-54266745D01*
X116669771Y-54245581D01*
X116740577Y-54240398D01*
X116802946Y-54274318D01*
X116837075Y-54336574D01*
X116840000Y-54363563D01*
X116840000Y-98248671D01*
X116838500Y-98268055D01*
X116834814Y-98291729D01*
X116835978Y-98300631D01*
X116835978Y-98300633D01*
X116835991Y-98300729D01*
X116836262Y-98331168D01*
X116828852Y-98396935D01*
X116822573Y-98424443D01*
X116794381Y-98505011D01*
X116782139Y-98530432D01*
X116736722Y-98602713D01*
X116719130Y-98624772D01*
X116658772Y-98685130D01*
X116636713Y-98702722D01*
X116564432Y-98748139D01*
X116539011Y-98760381D01*
X116458443Y-98788573D01*
X116430937Y-98794852D01*
X116416768Y-98796449D01*
X116371740Y-98801522D01*
X116356098Y-98802305D01*
X116347143Y-98802196D01*
X116338269Y-98800814D01*
X116306748Y-98804936D01*
X116290410Y-98806000D01*
X81837329Y-98806000D01*
X81817944Y-98804500D01*
X81803143Y-98802195D01*
X81803140Y-98802195D01*
X81794271Y-98800814D01*
X81785369Y-98801978D01*
X81785367Y-98801978D01*
X81785309Y-98801986D01*
X81785270Y-98801991D01*
X81754832Y-98802262D01*
X81689065Y-98794852D01*
X81661557Y-98788573D01*
X81580989Y-98760381D01*
X81555568Y-98748139D01*
X81483287Y-98702722D01*
X81461228Y-98685130D01*
X81400870Y-98624772D01*
X81383278Y-98602713D01*
X81337861Y-98530432D01*
X81325619Y-98505011D01*
X81297427Y-98424443D01*
X81291148Y-98396937D01*
X81284478Y-98337745D01*
X81283695Y-98322098D01*
X81283804Y-98313143D01*
X81285186Y-98304269D01*
X81281064Y-98272747D01*
X81280000Y-98256410D01*
X81280000Y-54299563D01*
X81300002Y-54231442D01*
X81353658Y-54184949D01*
X81423932Y-54174845D01*
X81450227Y-54181580D01*
X81506684Y-54202745D01*
X81568866Y-54209500D01*
X82515134Y-54209500D01*
X82577316Y-54202745D01*
X82713705Y-54151615D01*
X82744682Y-54128399D01*
X82811188Y-54103551D01*
X82880571Y-54118604D01*
X82930801Y-54168778D01*
X82945931Y-54238144D01*
X82938648Y-54272319D01*
X82884966Y-54419809D01*
X82884965Y-54419814D01*
X82882556Y-54426432D01*
X82861931Y-54589694D01*
X82877989Y-54753468D01*
X82929932Y-54909615D01*
X82933581Y-54915640D01*
X82944097Y-54933004D01*
X82962276Y-55001634D01*
X82944569Y-55058961D01*
X82945787Y-55059566D01*
X82942657Y-55065871D01*
X82938838Y-55071797D01*
X82936427Y-55078420D01*
X82936426Y-55078423D01*
X82884966Y-55219809D01*
X82884965Y-55219814D01*
X82882556Y-55226432D01*
X82861931Y-55389694D01*
X82877989Y-55553468D01*
X82929932Y-55709615D01*
X82933581Y-55715640D01*
X82944097Y-55733004D01*
X82962276Y-55801634D01*
X82944569Y-55858961D01*
X82945787Y-55859566D01*
X82942657Y-55865871D01*
X82938838Y-55871797D01*
X82936427Y-55878420D01*
X82936426Y-55878423D01*
X82884966Y-56019809D01*
X82884965Y-56019814D01*
X82882556Y-56026432D01*
X82861931Y-56189694D01*
X82877989Y-56353468D01*
X82929932Y-56509615D01*
X82933581Y-56515640D01*
X82944097Y-56533004D01*
X82962276Y-56601634D01*
X82944569Y-56658961D01*
X82945787Y-56659566D01*
X82942657Y-56665871D01*
X82938838Y-56671797D01*
X82936427Y-56678420D01*
X82936426Y-56678423D01*
X82884966Y-56819809D01*
X82884965Y-56819814D01*
X82882556Y-56826432D01*
X82861931Y-56989694D01*
X82877989Y-57153468D01*
X82929932Y-57309615D01*
X82933581Y-57315640D01*
X82944097Y-57333004D01*
X82962276Y-57401634D01*
X82944569Y-57458961D01*
X82945787Y-57459566D01*
X82942657Y-57465871D01*
X82938838Y-57471797D01*
X82936427Y-57478420D01*
X82936426Y-57478423D01*
X82884966Y-57619809D01*
X82884965Y-57619814D01*
X82882556Y-57626432D01*
X82861931Y-57789694D01*
X82877989Y-57953468D01*
X82929932Y-58109615D01*
X82987102Y-58204013D01*
X82998276Y-58222463D01*
X83016500Y-58287735D01*
X83016500Y-58953497D01*
X83015422Y-58969944D01*
X83011465Y-59000000D01*
X83019439Y-59060568D01*
X83031519Y-59152324D01*
X83090314Y-59294267D01*
X83183843Y-59416157D01*
X83190389Y-59421180D01*
X83207902Y-59434618D01*
X83220293Y-59445486D01*
X83425839Y-59651032D01*
X83459865Y-59713344D01*
X83454800Y-59784159D01*
X83412253Y-59840995D01*
X83402765Y-59847445D01*
X83371560Y-59866642D01*
X83371556Y-59866645D01*
X83365555Y-59870337D01*
X83247982Y-59985473D01*
X83158838Y-60123797D01*
X83156427Y-60130420D01*
X83156426Y-60130423D01*
X83104966Y-60271809D01*
X83104965Y-60271814D01*
X83102556Y-60278432D01*
X83081931Y-60441694D01*
X83097989Y-60605468D01*
X83149932Y-60761615D01*
X83153581Y-60767640D01*
X83217268Y-60872798D01*
X83235179Y-60902373D01*
X83349491Y-61020747D01*
X83487189Y-61110854D01*
X83493793Y-61113310D01*
X83634826Y-61165760D01*
X83634828Y-61165761D01*
X83641428Y-61168215D01*
X83648411Y-61169147D01*
X83648412Y-61169147D01*
X83658764Y-61170528D01*
X83679464Y-61173290D01*
X83744340Y-61202125D01*
X83751894Y-61209088D01*
X84579595Y-62036789D01*
X84613621Y-62099101D01*
X84616500Y-62125884D01*
X84616500Y-63345341D01*
X84596498Y-63413462D01*
X84542842Y-63459955D01*
X84503671Y-63470651D01*
X84468384Y-63474360D01*
X84423495Y-63479078D01*
X84416827Y-63481348D01*
X84274382Y-63529840D01*
X84274379Y-63529841D01*
X84267715Y-63532110D01*
X84127555Y-63618337D01*
X84065066Y-63679531D01*
X84030518Y-63713363D01*
X84009982Y-63733473D01*
X83979019Y-63781519D01*
X83925352Y-63864793D01*
X83871638Y-63911218D01*
X83801351Y-63921233D01*
X83736808Y-63891658D01*
X83712587Y-63863308D01*
X83701688Y-63845865D01*
X83636476Y-63741505D01*
X83565826Y-63670360D01*
X83525486Y-63629737D01*
X83525482Y-63629734D01*
X83520522Y-63624739D01*
X83381580Y-63536563D01*
X83250561Y-63489909D01*
X83233189Y-63483723D01*
X83233187Y-63483722D01*
X83226555Y-63481361D01*
X83219569Y-63480528D01*
X83219565Y-63480527D01*
X83092497Y-63465376D01*
X83063153Y-63461877D01*
X83056150Y-63462613D01*
X83056149Y-63462613D01*
X83012935Y-63467155D01*
X82899495Y-63479078D01*
X82892827Y-63481348D01*
X82750382Y-63529840D01*
X82750379Y-63529841D01*
X82743715Y-63532110D01*
X82603555Y-63618337D01*
X82541066Y-63679531D01*
X82506518Y-63713363D01*
X82485982Y-63733473D01*
X82396838Y-63871797D01*
X82394427Y-63878420D01*
X82394426Y-63878423D01*
X82342966Y-64019809D01*
X82342965Y-64019814D01*
X82340556Y-64026432D01*
X82319931Y-64189694D01*
X82335989Y-64353468D01*
X82387932Y-64509615D01*
X82450368Y-64612708D01*
X82456276Y-64622463D01*
X82474500Y-64687735D01*
X82474500Y-68342997D01*
X82473422Y-68359444D01*
X82469465Y-68389500D01*
X82474500Y-68427744D01*
X82489519Y-68541824D01*
X82548314Y-68683767D01*
X82553341Y-68690318D01*
X82627112Y-68786459D01*
X82650885Y-68846660D01*
X82651336Y-68846564D01*
X82651906Y-68849245D01*
X82652548Y-68850871D01*
X82653489Y-68860468D01*
X82705432Y-69016615D01*
X82709081Y-69022640D01*
X82773776Y-69129463D01*
X82792000Y-69194735D01*
X82792000Y-71724672D01*
X82771911Y-71792927D01*
X82708838Y-71890797D01*
X82706427Y-71897420D01*
X82706426Y-71897423D01*
X82654966Y-72038809D01*
X82654965Y-72038814D01*
X82652556Y-72045432D01*
X82631931Y-72208694D01*
X82647989Y-72372468D01*
X82699932Y-72528615D01*
X82703581Y-72534640D01*
X82768276Y-72641463D01*
X82786500Y-72706735D01*
X82786500Y-75289206D01*
X82766411Y-75357462D01*
X82708838Y-75446797D01*
X82706427Y-75453422D01*
X82654966Y-75594809D01*
X82654965Y-75594814D01*
X82652556Y-75601432D01*
X82631931Y-75764694D01*
X82647989Y-75928468D01*
X82699932Y-76084615D01*
X82703581Y-76090640D01*
X82768276Y-76197463D01*
X82786500Y-76262735D01*
X82786500Y-78845206D01*
X82766411Y-78913462D01*
X82708838Y-79002797D01*
X82706427Y-79009422D01*
X82654966Y-79150809D01*
X82654965Y-79150814D01*
X82652556Y-79157432D01*
X82631931Y-79320694D01*
X82647989Y-79484468D01*
X82699932Y-79640615D01*
X82703581Y-79646640D01*
X82768276Y-79753463D01*
X82786500Y-79818735D01*
X82786500Y-82401206D01*
X82766411Y-82469462D01*
X82708838Y-82558797D01*
X82706427Y-82565422D01*
X82654966Y-82706809D01*
X82654965Y-82706814D01*
X82652556Y-82713432D01*
X82631931Y-82876694D01*
X82647989Y-83040468D01*
X82699932Y-83196615D01*
X82703581Y-83202640D01*
X82768276Y-83309463D01*
X82786500Y-83374735D01*
X82786500Y-85957206D01*
X82766411Y-86025462D01*
X82708838Y-86114797D01*
X82706427Y-86121422D01*
X82654966Y-86262809D01*
X82654965Y-86262814D01*
X82652556Y-86269432D01*
X82631931Y-86432694D01*
X82647989Y-86596468D01*
X82699932Y-86752615D01*
X82703581Y-86758640D01*
X82768276Y-86865463D01*
X82786500Y-86930735D01*
X82786500Y-89513206D01*
X82766411Y-89581462D01*
X82708838Y-89670797D01*
X82706427Y-89677422D01*
X82654966Y-89818809D01*
X82654965Y-89818814D01*
X82652556Y-89825432D01*
X82631931Y-89988694D01*
X82647989Y-90152468D01*
X82699932Y-90308615D01*
X82703581Y-90314640D01*
X82768276Y-90421463D01*
X82786500Y-90486735D01*
X82786500Y-93069206D01*
X82766411Y-93137462D01*
X82708838Y-93226797D01*
X82706427Y-93233422D01*
X82654966Y-93374809D01*
X82654965Y-93374814D01*
X82652556Y-93381432D01*
X82631931Y-93544694D01*
X82647989Y-93708468D01*
X82699932Y-93864615D01*
X82768276Y-93977463D01*
X82786500Y-94042735D01*
X82786500Y-96625206D01*
X82766411Y-96693462D01*
X82708838Y-96782797D01*
X82705467Y-96792060D01*
X82654966Y-96930809D01*
X82654965Y-96930814D01*
X82652556Y-96937432D01*
X82631931Y-97100694D01*
X82647989Y-97264468D01*
X82699932Y-97420615D01*
X82785179Y-97561373D01*
X82899491Y-97679747D01*
X83037189Y-97769854D01*
X83191428Y-97827215D01*
X83198409Y-97828146D01*
X83198411Y-97828147D01*
X83347561Y-97848048D01*
X83347565Y-97848048D01*
X83354542Y-97848979D01*
X83361553Y-97848341D01*
X83361557Y-97848341D01*
X83511403Y-97834704D01*
X83511404Y-97834704D01*
X83518424Y-97834065D01*
X83547062Y-97824760D01*
X83668230Y-97785390D01*
X83668233Y-97785389D01*
X83674929Y-97783213D01*
X83680980Y-97779606D01*
X83680984Y-97779604D01*
X83755222Y-97735349D01*
X83823977Y-97717648D01*
X83888733Y-97738145D01*
X83931291Y-97765995D01*
X83931295Y-97765997D01*
X83937189Y-97769854D01*
X84091428Y-97827215D01*
X84098409Y-97828146D01*
X84098411Y-97828147D01*
X84247561Y-97848048D01*
X84247565Y-97848048D01*
X84254542Y-97848979D01*
X84261553Y-97848341D01*
X84261557Y-97848341D01*
X84411403Y-97834704D01*
X84411404Y-97834704D01*
X84418424Y-97834065D01*
X84447062Y-97824760D01*
X84568230Y-97785390D01*
X84568233Y-97785389D01*
X84574929Y-97783213D01*
X84716279Y-97698951D01*
X84835449Y-97585468D01*
X84851458Y-97561373D01*
X84922614Y-97454275D01*
X84922615Y-97454273D01*
X84926515Y-97448403D01*
X84972880Y-97326345D01*
X85015768Y-97269767D01*
X85082437Y-97245357D01*
X85151719Y-97260866D01*
X85201617Y-97311370D01*
X85210226Y-97331316D01*
X85239932Y-97420615D01*
X85325179Y-97561373D01*
X85439491Y-97679747D01*
X85577189Y-97769854D01*
X85731428Y-97827215D01*
X85738409Y-97828146D01*
X85738411Y-97828147D01*
X85887561Y-97848048D01*
X85887565Y-97848048D01*
X85894542Y-97848979D01*
X85901553Y-97848341D01*
X85901557Y-97848341D01*
X86051403Y-97834704D01*
X86051404Y-97834704D01*
X86058424Y-97834065D01*
X86087062Y-97824760D01*
X86208230Y-97785390D01*
X86208233Y-97785389D01*
X86214929Y-97783213D01*
X86220980Y-97779606D01*
X86220984Y-97779604D01*
X86295222Y-97735349D01*
X86363977Y-97717648D01*
X86428733Y-97738145D01*
X86471291Y-97765995D01*
X86471295Y-97765997D01*
X86477189Y-97769854D01*
X86631428Y-97827215D01*
X86638409Y-97828146D01*
X86638411Y-97828147D01*
X86787561Y-97848048D01*
X86787565Y-97848048D01*
X86794542Y-97848979D01*
X86801553Y-97848341D01*
X86801557Y-97848341D01*
X86951403Y-97834704D01*
X86951404Y-97834704D01*
X86958424Y-97834065D01*
X86987062Y-97824760D01*
X87108230Y-97785390D01*
X87108233Y-97785389D01*
X87114929Y-97783213D01*
X87256279Y-97698951D01*
X87375449Y-97585468D01*
X87391458Y-97561373D01*
X87462614Y-97454275D01*
X87462615Y-97454273D01*
X87466515Y-97448403D01*
X87512880Y-97326345D01*
X87555768Y-97269767D01*
X87622437Y-97245357D01*
X87691719Y-97260866D01*
X87741617Y-97311370D01*
X87750226Y-97331316D01*
X87779932Y-97420615D01*
X87865179Y-97561373D01*
X87979491Y-97679747D01*
X88117189Y-97769854D01*
X88271428Y-97827215D01*
X88278409Y-97828146D01*
X88278411Y-97828147D01*
X88427561Y-97848048D01*
X88427565Y-97848048D01*
X88434542Y-97848979D01*
X88441553Y-97848341D01*
X88441557Y-97848341D01*
X88591403Y-97834704D01*
X88591404Y-97834704D01*
X88598424Y-97834065D01*
X88627062Y-97824760D01*
X88748230Y-97785390D01*
X88748233Y-97785389D01*
X88754929Y-97783213D01*
X88760980Y-97779606D01*
X88760984Y-97779604D01*
X88835222Y-97735349D01*
X88903977Y-97717648D01*
X88968733Y-97738145D01*
X89011291Y-97765995D01*
X89011295Y-97765997D01*
X89017189Y-97769854D01*
X89171428Y-97827215D01*
X89178409Y-97828146D01*
X89178411Y-97828147D01*
X89327561Y-97848048D01*
X89327565Y-97848048D01*
X89334542Y-97848979D01*
X89341553Y-97848341D01*
X89341557Y-97848341D01*
X89491403Y-97834704D01*
X89491404Y-97834704D01*
X89498424Y-97834065D01*
X89527062Y-97824760D01*
X89648230Y-97785390D01*
X89648233Y-97785389D01*
X89654929Y-97783213D01*
X89796279Y-97698951D01*
X89915449Y-97585468D01*
X89931458Y-97561373D01*
X90002614Y-97454275D01*
X90002615Y-97454273D01*
X90006515Y-97448403D01*
X90052880Y-97326345D01*
X90095768Y-97269767D01*
X90162437Y-97245357D01*
X90231719Y-97260866D01*
X90281617Y-97311370D01*
X90290226Y-97331316D01*
X90319932Y-97420615D01*
X90405179Y-97561373D01*
X90519491Y-97679747D01*
X90657189Y-97769854D01*
X90811428Y-97827215D01*
X90818409Y-97828146D01*
X90818411Y-97828147D01*
X90967561Y-97848048D01*
X90967565Y-97848048D01*
X90974542Y-97848979D01*
X90981553Y-97848341D01*
X90981557Y-97848341D01*
X91131403Y-97834704D01*
X91131404Y-97834704D01*
X91138424Y-97834065D01*
X91167062Y-97824760D01*
X91288230Y-97785390D01*
X91288233Y-97785389D01*
X91294929Y-97783213D01*
X91300980Y-97779606D01*
X91300984Y-97779604D01*
X91375222Y-97735349D01*
X91443977Y-97717648D01*
X91508733Y-97738145D01*
X91551291Y-97765995D01*
X91551295Y-97765997D01*
X91557189Y-97769854D01*
X91711428Y-97827215D01*
X91718409Y-97828146D01*
X91718411Y-97828147D01*
X91867561Y-97848048D01*
X91867565Y-97848048D01*
X91874542Y-97848979D01*
X91881553Y-97848341D01*
X91881557Y-97848341D01*
X92031403Y-97834704D01*
X92031404Y-97834704D01*
X92038424Y-97834065D01*
X92067062Y-97824760D01*
X92188230Y-97785390D01*
X92188233Y-97785389D01*
X92194929Y-97783213D01*
X92336279Y-97698951D01*
X92455449Y-97585468D01*
X92471458Y-97561373D01*
X92542614Y-97454275D01*
X92542615Y-97454273D01*
X92546515Y-97448403D01*
X92592880Y-97326345D01*
X92635768Y-97269767D01*
X92702437Y-97245357D01*
X92771719Y-97260866D01*
X92821617Y-97311370D01*
X92830226Y-97331316D01*
X92859932Y-97420615D01*
X92945179Y-97561373D01*
X93059491Y-97679747D01*
X93197189Y-97769854D01*
X93351428Y-97827215D01*
X93358409Y-97828146D01*
X93358411Y-97828147D01*
X93507561Y-97848048D01*
X93507565Y-97848048D01*
X93514542Y-97848979D01*
X93521553Y-97848341D01*
X93521557Y-97848341D01*
X93671403Y-97834704D01*
X93671404Y-97834704D01*
X93678424Y-97834065D01*
X93707062Y-97824760D01*
X93828230Y-97785390D01*
X93828233Y-97785389D01*
X93834929Y-97783213D01*
X93840980Y-97779606D01*
X93840984Y-97779604D01*
X93915222Y-97735349D01*
X93983977Y-97717648D01*
X94048733Y-97738145D01*
X94091291Y-97765995D01*
X94091295Y-97765997D01*
X94097189Y-97769854D01*
X94251428Y-97827215D01*
X94258409Y-97828146D01*
X94258411Y-97828147D01*
X94407561Y-97848048D01*
X94407565Y-97848048D01*
X94414542Y-97848979D01*
X94421553Y-97848341D01*
X94421557Y-97848341D01*
X94571403Y-97834704D01*
X94571404Y-97834704D01*
X94578424Y-97834065D01*
X94607062Y-97824760D01*
X94728230Y-97785390D01*
X94728233Y-97785389D01*
X94734929Y-97783213D01*
X94876279Y-97698951D01*
X94995449Y-97585468D01*
X95011458Y-97561373D01*
X95082614Y-97454275D01*
X95082615Y-97454273D01*
X95086515Y-97448403D01*
X95132880Y-97326345D01*
X95175768Y-97269767D01*
X95242437Y-97245357D01*
X95311719Y-97260866D01*
X95361617Y-97311370D01*
X95370226Y-97331316D01*
X95399932Y-97420615D01*
X95485179Y-97561373D01*
X95599491Y-97679747D01*
X95737189Y-97769854D01*
X95891428Y-97827215D01*
X95898409Y-97828146D01*
X95898411Y-97828147D01*
X96047561Y-97848048D01*
X96047565Y-97848048D01*
X96054542Y-97848979D01*
X96061553Y-97848341D01*
X96061557Y-97848341D01*
X96211403Y-97834704D01*
X96211404Y-97834704D01*
X96218424Y-97834065D01*
X96247062Y-97824760D01*
X96368230Y-97785390D01*
X96368233Y-97785389D01*
X96374929Y-97783213D01*
X96380980Y-97779606D01*
X96380984Y-97779604D01*
X96455222Y-97735349D01*
X96523977Y-97717648D01*
X96588733Y-97738145D01*
X96631291Y-97765995D01*
X96631295Y-97765997D01*
X96637189Y-97769854D01*
X96791428Y-97827215D01*
X96798409Y-97828146D01*
X96798411Y-97828147D01*
X96947561Y-97848048D01*
X96947565Y-97848048D01*
X96954542Y-97848979D01*
X96961553Y-97848341D01*
X96961557Y-97848341D01*
X97111403Y-97834704D01*
X97111404Y-97834704D01*
X97118424Y-97834065D01*
X97147062Y-97824760D01*
X97268230Y-97785390D01*
X97268233Y-97785389D01*
X97274929Y-97783213D01*
X97416279Y-97698951D01*
X97535449Y-97585468D01*
X97551458Y-97561373D01*
X97622614Y-97454275D01*
X97622615Y-97454273D01*
X97626515Y-97448403D01*
X97672880Y-97326345D01*
X97715768Y-97269767D01*
X97782437Y-97245357D01*
X97851719Y-97260866D01*
X97901617Y-97311370D01*
X97910226Y-97331316D01*
X97939932Y-97420615D01*
X98025179Y-97561373D01*
X98139491Y-97679747D01*
X98277189Y-97769854D01*
X98431428Y-97827215D01*
X98438409Y-97828146D01*
X98438411Y-97828147D01*
X98587561Y-97848048D01*
X98587565Y-97848048D01*
X98594542Y-97848979D01*
X98601553Y-97848341D01*
X98601557Y-97848341D01*
X98751403Y-97834704D01*
X98751404Y-97834704D01*
X98758424Y-97834065D01*
X98787062Y-97824760D01*
X98908230Y-97785390D01*
X98908233Y-97785389D01*
X98914929Y-97783213D01*
X98920980Y-97779606D01*
X98920984Y-97779604D01*
X98995222Y-97735349D01*
X99063977Y-97717648D01*
X99128733Y-97738145D01*
X99171291Y-97765995D01*
X99171295Y-97765997D01*
X99177189Y-97769854D01*
X99331428Y-97827215D01*
X99338409Y-97828146D01*
X99338411Y-97828147D01*
X99487561Y-97848048D01*
X99487565Y-97848048D01*
X99494542Y-97848979D01*
X99501553Y-97848341D01*
X99501557Y-97848341D01*
X99651403Y-97834704D01*
X99651404Y-97834704D01*
X99658424Y-97834065D01*
X99687062Y-97824760D01*
X99808230Y-97785390D01*
X99808233Y-97785389D01*
X99814929Y-97783213D01*
X99956279Y-97698951D01*
X100075449Y-97585468D01*
X100091458Y-97561373D01*
X100162614Y-97454275D01*
X100162615Y-97454273D01*
X100166515Y-97448403D01*
X100212880Y-97326345D01*
X100255768Y-97269767D01*
X100322437Y-97245357D01*
X100391719Y-97260866D01*
X100441617Y-97311370D01*
X100450226Y-97331316D01*
X100479932Y-97420615D01*
X100565179Y-97561373D01*
X100679491Y-97679747D01*
X100817189Y-97769854D01*
X100971428Y-97827215D01*
X100978409Y-97828146D01*
X100978411Y-97828147D01*
X101127561Y-97848048D01*
X101127565Y-97848048D01*
X101134542Y-97848979D01*
X101141553Y-97848341D01*
X101141557Y-97848341D01*
X101291403Y-97834704D01*
X101291404Y-97834704D01*
X101298424Y-97834065D01*
X101327062Y-97824760D01*
X101448230Y-97785390D01*
X101448233Y-97785389D01*
X101454929Y-97783213D01*
X101460980Y-97779606D01*
X101460984Y-97779604D01*
X101535222Y-97735349D01*
X101603977Y-97717648D01*
X101668733Y-97738145D01*
X101711291Y-97765995D01*
X101711295Y-97765997D01*
X101717189Y-97769854D01*
X101871428Y-97827215D01*
X101878409Y-97828146D01*
X101878411Y-97828147D01*
X102027561Y-97848048D01*
X102027565Y-97848048D01*
X102034542Y-97848979D01*
X102041553Y-97848341D01*
X102041557Y-97848341D01*
X102191403Y-97834704D01*
X102191404Y-97834704D01*
X102198424Y-97834065D01*
X102227062Y-97824760D01*
X102348230Y-97785390D01*
X102348233Y-97785389D01*
X102354929Y-97783213D01*
X102496279Y-97698951D01*
X102615449Y-97585468D01*
X102631458Y-97561373D01*
X102702614Y-97454275D01*
X102702615Y-97454273D01*
X102706515Y-97448403D01*
X102752880Y-97326345D01*
X102795768Y-97269767D01*
X102862437Y-97245357D01*
X102931719Y-97260866D01*
X102981617Y-97311370D01*
X102990226Y-97331316D01*
X103019932Y-97420615D01*
X103105179Y-97561373D01*
X103219491Y-97679747D01*
X103357189Y-97769854D01*
X103511428Y-97827215D01*
X103518409Y-97828146D01*
X103518411Y-97828147D01*
X103667561Y-97848048D01*
X103667565Y-97848048D01*
X103674542Y-97848979D01*
X103681553Y-97848341D01*
X103681557Y-97848341D01*
X103831403Y-97834704D01*
X103831404Y-97834704D01*
X103838424Y-97834065D01*
X103867062Y-97824760D01*
X103988230Y-97785390D01*
X103988233Y-97785389D01*
X103994929Y-97783213D01*
X104000980Y-97779606D01*
X104000984Y-97779604D01*
X104075222Y-97735349D01*
X104143977Y-97717648D01*
X104208733Y-97738145D01*
X104251291Y-97765995D01*
X104251295Y-97765997D01*
X104257189Y-97769854D01*
X104411428Y-97827215D01*
X104418409Y-97828146D01*
X104418411Y-97828147D01*
X104567561Y-97848048D01*
X104567565Y-97848048D01*
X104574542Y-97848979D01*
X104581553Y-97848341D01*
X104581557Y-97848341D01*
X104731403Y-97834704D01*
X104731404Y-97834704D01*
X104738424Y-97834065D01*
X104767062Y-97824760D01*
X104888230Y-97785390D01*
X104888233Y-97785389D01*
X104894929Y-97783213D01*
X105036279Y-97698951D01*
X105155449Y-97585468D01*
X105171458Y-97561373D01*
X105242614Y-97454275D01*
X105242615Y-97454273D01*
X105246515Y-97448403D01*
X105292880Y-97326345D01*
X105335768Y-97269767D01*
X105402437Y-97245357D01*
X105471719Y-97260866D01*
X105521617Y-97311370D01*
X105530226Y-97331316D01*
X105559932Y-97420615D01*
X105645179Y-97561373D01*
X105759491Y-97679747D01*
X105897189Y-97769854D01*
X106051428Y-97827215D01*
X106058409Y-97828146D01*
X106058411Y-97828147D01*
X106207561Y-97848048D01*
X106207565Y-97848048D01*
X106214542Y-97848979D01*
X106221553Y-97848341D01*
X106221557Y-97848341D01*
X106371403Y-97834704D01*
X106371404Y-97834704D01*
X106378424Y-97834065D01*
X106407062Y-97824760D01*
X106528230Y-97785390D01*
X106528233Y-97785389D01*
X106534929Y-97783213D01*
X106540980Y-97779606D01*
X106540984Y-97779604D01*
X106615222Y-97735349D01*
X106683977Y-97717648D01*
X106748733Y-97738145D01*
X106791291Y-97765995D01*
X106791295Y-97765997D01*
X106797189Y-97769854D01*
X106951428Y-97827215D01*
X106958409Y-97828146D01*
X106958411Y-97828147D01*
X107107561Y-97848048D01*
X107107565Y-97848048D01*
X107114542Y-97848979D01*
X107121553Y-97848341D01*
X107121557Y-97848341D01*
X107271403Y-97834704D01*
X107271404Y-97834704D01*
X107278424Y-97834065D01*
X107307062Y-97824760D01*
X107428230Y-97785390D01*
X107428233Y-97785389D01*
X107434929Y-97783213D01*
X107576279Y-97698951D01*
X107695449Y-97585468D01*
X107711458Y-97561373D01*
X107782614Y-97454275D01*
X107782615Y-97454273D01*
X107786515Y-97448403D01*
X107832880Y-97326345D01*
X107875768Y-97269767D01*
X107942437Y-97245357D01*
X108011719Y-97260866D01*
X108061617Y-97311370D01*
X108070226Y-97331316D01*
X108099932Y-97420615D01*
X108185179Y-97561373D01*
X108299491Y-97679747D01*
X108437189Y-97769854D01*
X108591428Y-97827215D01*
X108598409Y-97828146D01*
X108598411Y-97828147D01*
X108747561Y-97848048D01*
X108747565Y-97848048D01*
X108754542Y-97848979D01*
X108761553Y-97848341D01*
X108761557Y-97848341D01*
X108911403Y-97834704D01*
X108911404Y-97834704D01*
X108918424Y-97834065D01*
X108947062Y-97824760D01*
X109068230Y-97785390D01*
X109068233Y-97785389D01*
X109074929Y-97783213D01*
X109080980Y-97779606D01*
X109080984Y-97779604D01*
X109155222Y-97735349D01*
X109223977Y-97717648D01*
X109288733Y-97738145D01*
X109331291Y-97765995D01*
X109331295Y-97765997D01*
X109337189Y-97769854D01*
X109491428Y-97827215D01*
X109498409Y-97828146D01*
X109498411Y-97828147D01*
X109647561Y-97848048D01*
X109647565Y-97848048D01*
X109654542Y-97848979D01*
X109661553Y-97848341D01*
X109661557Y-97848341D01*
X109811403Y-97834704D01*
X109811404Y-97834704D01*
X109818424Y-97834065D01*
X109847062Y-97824760D01*
X109968230Y-97785390D01*
X109968233Y-97785389D01*
X109974929Y-97783213D01*
X110116279Y-97698951D01*
X110235449Y-97585468D01*
X110251458Y-97561373D01*
X110322614Y-97454275D01*
X110322615Y-97454273D01*
X110326515Y-97448403D01*
X110372880Y-97326345D01*
X110415768Y-97269767D01*
X110482437Y-97245357D01*
X110551719Y-97260866D01*
X110601617Y-97311370D01*
X110610226Y-97331316D01*
X110639932Y-97420615D01*
X110725179Y-97561373D01*
X110839491Y-97679747D01*
X110977189Y-97769854D01*
X111131428Y-97827215D01*
X111138409Y-97828146D01*
X111138411Y-97828147D01*
X111287561Y-97848048D01*
X111287565Y-97848048D01*
X111294542Y-97848979D01*
X111301553Y-97848341D01*
X111301557Y-97848341D01*
X111451403Y-97834704D01*
X111451404Y-97834704D01*
X111458424Y-97834065D01*
X111487062Y-97824760D01*
X111608230Y-97785390D01*
X111608233Y-97785389D01*
X111614929Y-97783213D01*
X111620980Y-97779606D01*
X111620984Y-97779604D01*
X111695222Y-97735349D01*
X111763977Y-97717648D01*
X111828733Y-97738145D01*
X111871291Y-97765995D01*
X111871295Y-97765997D01*
X111877189Y-97769854D01*
X112031428Y-97827215D01*
X112038409Y-97828146D01*
X112038411Y-97828147D01*
X112187561Y-97848048D01*
X112187565Y-97848048D01*
X112194542Y-97848979D01*
X112201553Y-97848341D01*
X112201557Y-97848341D01*
X112351403Y-97834704D01*
X112351404Y-97834704D01*
X112358424Y-97834065D01*
X112387062Y-97824760D01*
X112508230Y-97785390D01*
X112508233Y-97785389D01*
X112514929Y-97783213D01*
X112656279Y-97698951D01*
X112775449Y-97585468D01*
X112791458Y-97561373D01*
X112862614Y-97454275D01*
X112862615Y-97454273D01*
X112866515Y-97448403D01*
X112912880Y-97326345D01*
X112955768Y-97269767D01*
X113022437Y-97245357D01*
X113091719Y-97260866D01*
X113141617Y-97311370D01*
X113150226Y-97331316D01*
X113179932Y-97420615D01*
X113265179Y-97561373D01*
X113379491Y-97679747D01*
X113517189Y-97769854D01*
X113671428Y-97827215D01*
X113678409Y-97828146D01*
X113678411Y-97828147D01*
X113827561Y-97848048D01*
X113827565Y-97848048D01*
X113834542Y-97848979D01*
X113841553Y-97848341D01*
X113841557Y-97848341D01*
X113991403Y-97834704D01*
X113991404Y-97834704D01*
X113998424Y-97834065D01*
X114027062Y-97824760D01*
X114148230Y-97785390D01*
X114148233Y-97785389D01*
X114154929Y-97783213D01*
X114160980Y-97779606D01*
X114160984Y-97779604D01*
X114235222Y-97735349D01*
X114303977Y-97717648D01*
X114368733Y-97738145D01*
X114411291Y-97765995D01*
X114411295Y-97765997D01*
X114417189Y-97769854D01*
X114571428Y-97827215D01*
X114578409Y-97828146D01*
X114578411Y-97828147D01*
X114727561Y-97848048D01*
X114727565Y-97848048D01*
X114734542Y-97848979D01*
X114741553Y-97848341D01*
X114741557Y-97848341D01*
X114891403Y-97834704D01*
X114891404Y-97834704D01*
X114898424Y-97834065D01*
X114927062Y-97824760D01*
X115048230Y-97785390D01*
X115048233Y-97785389D01*
X115054929Y-97783213D01*
X115196279Y-97698951D01*
X115315449Y-97585468D01*
X115331458Y-97561373D01*
X115402614Y-97454275D01*
X115402615Y-97454273D01*
X115406515Y-97448403D01*
X115464951Y-97294568D01*
X115487853Y-97131610D01*
X115488141Y-97111000D01*
X115469798Y-96947466D01*
X115463998Y-96930809D01*
X115417998Y-96798717D01*
X115415680Y-96792060D01*
X115328476Y-96652505D01*
X115270499Y-96594122D01*
X115217486Y-96540737D01*
X115217482Y-96540734D01*
X115212522Y-96535739D01*
X115073580Y-96447563D01*
X115047948Y-96438436D01*
X114967233Y-96409694D01*
X114909769Y-96367999D01*
X114883969Y-96301857D01*
X114883500Y-96290995D01*
X114883500Y-96240458D01*
X114903502Y-96172337D01*
X114957158Y-96125844D01*
X114970564Y-96120625D01*
X115048230Y-96095390D01*
X115048233Y-96095389D01*
X115054929Y-96093213D01*
X115060980Y-96089606D01*
X115060982Y-96089605D01*
X115175906Y-96021097D01*
X115223974Y-96004404D01*
X115231820Y-96003371D01*
X115252172Y-96000691D01*
X115255360Y-96000313D01*
X115314497Y-95994065D01*
X115322703Y-95993198D01*
X115329791Y-95990473D01*
X115337324Y-95989481D01*
X115399920Y-95963553D01*
X115402919Y-95962356D01*
X115458390Y-95941028D01*
X115458392Y-95941027D01*
X115466106Y-95938061D01*
X115472248Y-95933593D01*
X115479267Y-95930686D01*
X115485813Y-95925663D01*
X115485820Y-95925659D01*
X115533009Y-95889449D01*
X115535563Y-95887540D01*
X115559158Y-95870378D01*
X115562145Y-95867541D01*
X115565316Y-95864901D01*
X115565391Y-95864991D01*
X115569861Y-95861173D01*
X115594606Y-95842185D01*
X115594611Y-95842180D01*
X115601157Y-95837157D01*
X115604534Y-95832757D01*
X115604608Y-95832683D01*
X115611157Y-95827657D01*
X115619059Y-95817360D01*
X115652382Y-95773932D01*
X115654381Y-95771394D01*
X115686817Y-95731295D01*
X115696976Y-95718735D01*
X115700062Y-95711793D01*
X115704686Y-95705767D01*
X115730605Y-95643194D01*
X115731876Y-95640232D01*
X115756035Y-95585890D01*
X115759389Y-95578346D01*
X115760573Y-95570845D01*
X115763481Y-95563824D01*
X115772322Y-95496675D01*
X115772784Y-95493481D01*
X115782054Y-95434744D01*
X115782054Y-95434740D01*
X115783341Y-95426586D01*
X115779197Y-95387362D01*
X115778500Y-95374124D01*
X115778500Y-91911873D01*
X115779199Y-91898621D01*
X115779434Y-91896399D01*
X115780275Y-91890009D01*
X115782053Y-91878744D01*
X115783341Y-91870586D01*
X115782751Y-91865000D01*
X115783341Y-91859414D01*
X115782054Y-91851261D01*
X115782054Y-91851251D01*
X115780273Y-91839970D01*
X115779431Y-91833577D01*
X115779196Y-91831348D01*
X115778500Y-91818129D01*
X115778500Y-88355873D01*
X115779199Y-88342621D01*
X115779434Y-88340399D01*
X115780275Y-88334009D01*
X115782053Y-88322744D01*
X115783341Y-88314586D01*
X115782751Y-88309000D01*
X115783341Y-88303414D01*
X115782054Y-88295261D01*
X115782054Y-88295251D01*
X115780273Y-88283970D01*
X115779431Y-88277577D01*
X115779196Y-88275348D01*
X115778500Y-88262129D01*
X115778500Y-84799873D01*
X115779199Y-84786621D01*
X115779434Y-84784399D01*
X115780275Y-84778009D01*
X115782053Y-84766744D01*
X115783341Y-84758586D01*
X115782751Y-84753000D01*
X115783341Y-84747414D01*
X115782054Y-84739261D01*
X115782054Y-84739251D01*
X115780273Y-84727970D01*
X115779431Y-84721577D01*
X115779196Y-84719348D01*
X115778500Y-84706129D01*
X115778500Y-81243873D01*
X115779199Y-81230621D01*
X115779434Y-81228399D01*
X115780275Y-81222009D01*
X115782053Y-81210744D01*
X115783341Y-81202586D01*
X115782751Y-81197000D01*
X115783341Y-81191414D01*
X115782054Y-81183261D01*
X115782054Y-81183251D01*
X115780273Y-81171970D01*
X115779431Y-81165577D01*
X115779196Y-81163348D01*
X115778500Y-81150129D01*
X115778500Y-77687873D01*
X115779199Y-77674621D01*
X115779434Y-77672399D01*
X115780275Y-77666009D01*
X115782053Y-77654744D01*
X115783341Y-77646586D01*
X115782751Y-77641000D01*
X115783341Y-77635414D01*
X115782054Y-77627261D01*
X115782054Y-77627251D01*
X115780273Y-77615970D01*
X115779431Y-77609577D01*
X115779196Y-77607348D01*
X115778500Y-77594129D01*
X115778500Y-74131873D01*
X115779199Y-74118621D01*
X115779434Y-74116399D01*
X115780275Y-74110009D01*
X115782053Y-74098744D01*
X115783341Y-74090586D01*
X115782751Y-74085000D01*
X115783341Y-74079414D01*
X115782054Y-74071261D01*
X115782054Y-74071251D01*
X115780273Y-74059970D01*
X115779431Y-74053577D01*
X115779196Y-74051348D01*
X115778500Y-74038129D01*
X115778500Y-70575873D01*
X115779199Y-70562621D01*
X115779434Y-70560399D01*
X115780275Y-70554009D01*
X115782053Y-70542744D01*
X115783341Y-70534586D01*
X115782751Y-70529000D01*
X115783341Y-70523414D01*
X115782054Y-70515261D01*
X115782054Y-70515251D01*
X115780273Y-70503970D01*
X115779431Y-70497577D01*
X115779196Y-70495348D01*
X115778500Y-70482129D01*
X115778500Y-67488609D01*
X115779560Y-67472301D01*
X115782466Y-67450037D01*
X115783535Y-67441847D01*
X115773476Y-67366094D01*
X115763481Y-67290176D01*
X115763354Y-67289870D01*
X115763311Y-67289545D01*
X115760146Y-67281928D01*
X115760145Y-67281924D01*
X115733918Y-67218805D01*
X115733866Y-67218677D01*
X115707794Y-67155736D01*
X115707793Y-67155735D01*
X115704686Y-67148233D01*
X115704486Y-67147972D01*
X115704359Y-67147667D01*
X115657675Y-67086966D01*
X115611157Y-67026343D01*
X115586790Y-67007645D01*
X115574499Y-66996878D01*
X115502346Y-66924885D01*
X115468252Y-66862611D01*
X115466128Y-66849738D01*
X115464583Y-66835964D01*
X115463798Y-66828966D01*
X115409680Y-66673560D01*
X115346646Y-66572685D01*
X115327500Y-66505915D01*
X115327500Y-61196503D01*
X115328578Y-61180056D01*
X115331457Y-61158188D01*
X115332535Y-61150000D01*
X115312481Y-60997676D01*
X115253686Y-60855733D01*
X115222356Y-60814903D01*
X115160157Y-60733843D01*
X115136097Y-60715381D01*
X115123707Y-60704514D01*
X114804345Y-60385152D01*
X114770319Y-60322840D01*
X114768225Y-60310103D01*
X114766583Y-60295464D01*
X114766583Y-60295463D01*
X114765798Y-60288466D01*
X114759998Y-60271809D01*
X114725451Y-60172605D01*
X114711680Y-60133060D01*
X114694186Y-60105063D01*
X114628209Y-59999479D01*
X114624476Y-59993505D01*
X114561840Y-59930430D01*
X114513486Y-59881737D01*
X114513482Y-59881734D01*
X114508522Y-59876739D01*
X114369580Y-59788563D01*
X114356254Y-59783818D01*
X114298790Y-59742123D01*
X114272991Y-59675980D01*
X114287047Y-59606388D01*
X114336495Y-59555444D01*
X114344900Y-59551172D01*
X114350929Y-59549213D01*
X114373373Y-59535834D01*
X114443457Y-59494055D01*
X114492279Y-59464951D01*
X114611449Y-59351468D01*
X114629296Y-59324606D01*
X114698614Y-59220275D01*
X114698615Y-59220273D01*
X114702515Y-59214403D01*
X114760951Y-59060568D01*
X114777528Y-58942617D01*
X114783302Y-58901534D01*
X114783303Y-58901527D01*
X114783853Y-58897610D01*
X114784141Y-58877000D01*
X114765798Y-58713466D01*
X114711680Y-58558060D01*
X114624476Y-58418505D01*
X114533845Y-58327239D01*
X114513486Y-58306737D01*
X114513482Y-58306734D01*
X114508522Y-58301739D01*
X114369580Y-58213563D01*
X114320447Y-58196068D01*
X114221189Y-58160723D01*
X114221187Y-58160722D01*
X114214555Y-58158361D01*
X114207569Y-58157528D01*
X114207565Y-58157527D01*
X114093071Y-58143875D01*
X114051153Y-58138877D01*
X114044150Y-58139613D01*
X114044149Y-58139613D01*
X114000935Y-58144155D01*
X113887495Y-58156078D01*
X113880827Y-58158348D01*
X113738382Y-58206840D01*
X113738379Y-58206841D01*
X113731715Y-58209110D01*
X113644393Y-58262831D01*
X113640035Y-58265512D01*
X113571534Y-58284170D01*
X113503820Y-58262831D01*
X113484609Y-58246979D01*
X113467491Y-58229742D01*
X113467487Y-58229739D01*
X113462522Y-58224739D01*
X113323580Y-58136563D01*
X113274447Y-58119068D01*
X113175189Y-58083723D01*
X113175187Y-58083722D01*
X113168555Y-58081361D01*
X113161569Y-58080528D01*
X113161565Y-58080527D01*
X113047071Y-58066875D01*
X113005153Y-58061877D01*
X112998150Y-58062613D01*
X112998149Y-58062613D01*
X112954935Y-58067155D01*
X112841495Y-58079078D01*
X112835447Y-58081137D01*
X112764879Y-58076247D01*
X112719554Y-58047189D01*
X110693614Y-56021249D01*
X110682746Y-56008857D01*
X110669317Y-55991356D01*
X110664289Y-55984803D01*
X110542399Y-55891274D01*
X110400456Y-55832479D01*
X110286376Y-55817460D01*
X110248132Y-55812425D01*
X110239944Y-55813503D01*
X110218076Y-55816382D01*
X110201629Y-55817460D01*
X109094845Y-55817460D01*
X109026724Y-55797458D01*
X109005750Y-55780556D01*
X108820405Y-55595212D01*
X108786380Y-55532900D01*
X108783500Y-55506116D01*
X108783500Y-54446503D01*
X108784578Y-54430056D01*
X108787457Y-54408188D01*
X108788535Y-54400000D01*
X108768481Y-54247676D01*
X108761051Y-54229737D01*
X108724021Y-54140340D01*
X108709686Y-54105732D01*
X108690986Y-54081361D01*
X108661608Y-54043076D01*
X108651373Y-54029738D01*
X108616157Y-53983843D01*
X108592097Y-53965381D01*
X108579707Y-53954514D01*
X108045486Y-53420293D01*
X108034618Y-53407902D01*
X108021180Y-53390389D01*
X108016157Y-53383843D01*
X107894267Y-53290314D01*
X107752324Y-53231519D01*
X107698767Y-53224468D01*
X107600000Y-53211465D01*
X107591812Y-53212543D01*
X107569944Y-53215422D01*
X107553497Y-53216500D01*
X105202388Y-53216500D01*
X105134267Y-53196498D01*
X105087774Y-53142842D01*
X105083405Y-53131959D01*
X105065680Y-53081060D01*
X105056045Y-53065640D01*
X104982209Y-52947479D01*
X104978476Y-52941505D01*
X104900983Y-52863469D01*
X104867486Y-52829737D01*
X104867482Y-52829734D01*
X104862522Y-52824739D01*
X104723580Y-52736563D01*
X104608383Y-52695543D01*
X104575189Y-52683723D01*
X104575187Y-52683722D01*
X104568555Y-52681361D01*
X104561569Y-52680528D01*
X104561565Y-52680527D01*
X104442255Y-52666301D01*
X104405153Y-52661877D01*
X104398150Y-52662613D01*
X104398149Y-52662613D01*
X104363061Y-52666301D01*
X104241495Y-52679078D01*
X104085715Y-52732110D01*
X104084876Y-52729645D01*
X104026548Y-52738713D01*
X103961634Y-52709960D01*
X103922571Y-52650676D01*
X103920533Y-52643023D01*
X103919798Y-52636466D01*
X103865680Y-52481060D01*
X103837187Y-52435461D01*
X103782209Y-52347479D01*
X103778476Y-52341505D01*
X103770298Y-52333269D01*
X103726515Y-52289180D01*
X103692708Y-52226749D01*
X103698020Y-52155952D01*
X103729029Y-52109150D01*
X103744977Y-52093963D01*
X103765449Y-52074468D01*
X103769350Y-52068597D01*
X103852614Y-51943275D01*
X103852615Y-51943273D01*
X103856515Y-51937403D01*
X103914951Y-51783568D01*
X103929882Y-51677326D01*
X103937302Y-51624534D01*
X103937303Y-51624527D01*
X103937853Y-51620610D01*
X103938141Y-51600000D01*
X103920990Y-51447095D01*
X105367001Y-51447095D01*
X105367338Y-51453614D01*
X105377257Y-51549206D01*
X105380149Y-51562600D01*
X105431588Y-51716784D01*
X105437761Y-51729962D01*
X105523063Y-51867807D01*
X105532099Y-51879208D01*
X105646829Y-51993739D01*
X105658240Y-52002751D01*
X105796243Y-52087816D01*
X105809424Y-52093963D01*
X105963710Y-52145138D01*
X105977086Y-52148005D01*
X106071438Y-52157672D01*
X106077854Y-52158000D01*
X106327885Y-52158000D01*
X106343124Y-52153525D01*
X106344329Y-52152135D01*
X106346000Y-52144452D01*
X106346000Y-52139884D01*
X106854000Y-52139884D01*
X106858475Y-52155123D01*
X106859865Y-52156328D01*
X106867548Y-52157999D01*
X107122095Y-52157999D01*
X107128614Y-52157662D01*
X107224206Y-52147743D01*
X107237600Y-52144851D01*
X107391784Y-52093412D01*
X107404962Y-52087239D01*
X107542807Y-52001937D01*
X107554208Y-51992901D01*
X107610827Y-51936183D01*
X107673109Y-51902104D01*
X107743929Y-51907107D01*
X107789018Y-51936028D01*
X107846829Y-51993739D01*
X107858240Y-52002751D01*
X107996243Y-52087816D01*
X108009424Y-52093963D01*
X108163710Y-52145138D01*
X108177086Y-52148005D01*
X108271438Y-52157672D01*
X108277854Y-52158000D01*
X108527885Y-52158000D01*
X108543124Y-52153525D01*
X108544329Y-52152135D01*
X108546000Y-52144452D01*
X108546000Y-52139884D01*
X109054000Y-52139884D01*
X109058475Y-52155123D01*
X109059865Y-52156328D01*
X109067548Y-52157999D01*
X109322095Y-52157999D01*
X109328614Y-52157662D01*
X109424206Y-52147743D01*
X109437600Y-52144851D01*
X109591784Y-52093412D01*
X109604962Y-52087239D01*
X109742807Y-52001937D01*
X109754208Y-51992901D01*
X109810827Y-51936183D01*
X109873109Y-51902104D01*
X109943929Y-51907107D01*
X109989018Y-51936028D01*
X110046829Y-51993739D01*
X110058240Y-52002751D01*
X110196243Y-52087816D01*
X110209424Y-52093963D01*
X110253408Y-52108552D01*
X110311768Y-52148983D01*
X110339004Y-52214547D01*
X110326470Y-52284429D01*
X110319651Y-52296400D01*
X110311158Y-52309579D01*
X110238838Y-52421797D01*
X110236427Y-52428420D01*
X110236426Y-52428423D01*
X110184966Y-52569809D01*
X110184965Y-52569814D01*
X110182556Y-52576432D01*
X110161931Y-52739694D01*
X110177989Y-52903468D01*
X110229932Y-53059615D01*
X110239446Y-53075325D01*
X110293398Y-53164408D01*
X110315179Y-53200373D01*
X110320070Y-53205438D01*
X110320071Y-53205439D01*
X110332778Y-53218597D01*
X110429491Y-53318747D01*
X110567189Y-53408854D01*
X110721428Y-53466215D01*
X110728409Y-53467146D01*
X110728411Y-53467147D01*
X110877561Y-53487048D01*
X110877565Y-53487048D01*
X110884542Y-53487979D01*
X110891553Y-53487341D01*
X110891557Y-53487341D01*
X111041403Y-53473704D01*
X111041404Y-53473704D01*
X111048424Y-53473065D01*
X111077062Y-53463760D01*
X111198230Y-53424390D01*
X111198233Y-53424389D01*
X111204929Y-53422213D01*
X111346279Y-53337951D01*
X111465449Y-53224468D01*
X111473372Y-53212543D01*
X111552614Y-53093275D01*
X111552615Y-53093273D01*
X111556515Y-53087403D01*
X111614951Y-52933568D01*
X111624803Y-52863469D01*
X111637302Y-52774534D01*
X111637303Y-52774527D01*
X111637853Y-52770610D01*
X111638141Y-52750000D01*
X111619798Y-52586466D01*
X111613998Y-52569809D01*
X111580082Y-52472416D01*
X111565680Y-52431060D01*
X111531467Y-52376307D01*
X111509999Y-52341952D01*
X111490863Y-52273583D01*
X111511728Y-52205721D01*
X111565970Y-52159913D01*
X111603852Y-52149855D01*
X111624205Y-52147744D01*
X111637600Y-52144851D01*
X111791784Y-52093412D01*
X111804962Y-52087239D01*
X111942807Y-52001937D01*
X111954208Y-51992901D01*
X112068739Y-51878171D01*
X112077751Y-51866760D01*
X112162816Y-51728757D01*
X112168963Y-51715576D01*
X112220138Y-51561290D01*
X112223005Y-51547914D01*
X112232672Y-51453562D01*
X112233000Y-51447146D01*
X112233000Y-51422115D01*
X112228525Y-51406876D01*
X112227135Y-51405671D01*
X112219452Y-51404000D01*
X109072115Y-51404000D01*
X109056876Y-51408475D01*
X109055671Y-51409865D01*
X109054000Y-51417548D01*
X109054000Y-52139884D01*
X108546000Y-52139884D01*
X108546000Y-51422115D01*
X108541525Y-51406876D01*
X108540135Y-51405671D01*
X108532452Y-51404000D01*
X106872115Y-51404000D01*
X106856876Y-51408475D01*
X106855671Y-51409865D01*
X106854000Y-51417548D01*
X106854000Y-52139884D01*
X106346000Y-52139884D01*
X106346000Y-51422115D01*
X106341525Y-51406876D01*
X106340135Y-51405671D01*
X106332452Y-51404000D01*
X105385116Y-51404000D01*
X105369877Y-51408475D01*
X105368672Y-51409865D01*
X105367001Y-51417548D01*
X105367001Y-51447095D01*
X103920990Y-51447095D01*
X103919798Y-51436466D01*
X103914801Y-51422115D01*
X103875611Y-51309579D01*
X103865680Y-51281060D01*
X103778476Y-51141505D01*
X103751570Y-51114410D01*
X103726515Y-51089180D01*
X103692708Y-51026749D01*
X103698020Y-50955952D01*
X103729029Y-50909150D01*
X103742838Y-50896000D01*
X103765449Y-50874468D01*
X103806416Y-50812808D01*
X103852614Y-50743275D01*
X103852615Y-50743273D01*
X103856515Y-50737403D01*
X103914951Y-50583568D01*
X103933520Y-50451441D01*
X103937302Y-50424534D01*
X103937303Y-50424527D01*
X103937853Y-50420610D01*
X103938141Y-50400000D01*
X103919798Y-50236466D01*
X103905415Y-50195162D01*
X103872775Y-50101435D01*
X103865680Y-50081060D01*
X103778476Y-49941505D01*
X103770725Y-49933699D01*
X103726515Y-49889180D01*
X103692708Y-49826749D01*
X103698020Y-49755952D01*
X103729029Y-49709150D01*
X103760346Y-49679327D01*
X103765449Y-49674468D01*
X103769350Y-49668597D01*
X103852614Y-49543275D01*
X103852615Y-49543273D01*
X103856515Y-49537403D01*
X103914951Y-49383568D01*
X103926537Y-49301130D01*
X103937302Y-49224534D01*
X103937303Y-49224527D01*
X103937853Y-49220610D01*
X103938141Y-49200000D01*
X103919798Y-49036466D01*
X103906015Y-48996885D01*
X103884624Y-48935460D01*
X103865680Y-48881060D01*
X103837815Y-48836466D01*
X103782209Y-48747479D01*
X103778476Y-48741505D01*
X103754993Y-48717857D01*
X103726515Y-48689180D01*
X103692708Y-48626749D01*
X103698020Y-48555952D01*
X103729029Y-48509150D01*
X103730642Y-48507614D01*
X103765449Y-48474468D01*
X103787825Y-48440790D01*
X103852614Y-48343275D01*
X103852615Y-48343273D01*
X103856515Y-48337403D01*
X103914951Y-48183568D01*
X103927617Y-48093445D01*
X103937302Y-48024534D01*
X103937303Y-48024527D01*
X103937853Y-48020610D01*
X103938141Y-48000000D01*
X103919798Y-47836466D01*
X103865680Y-47681060D01*
X103859247Y-47670764D01*
X103782209Y-47547479D01*
X103778476Y-47541505D01*
X103726515Y-47489180D01*
X103692708Y-47426749D01*
X103698020Y-47355952D01*
X103729029Y-47309150D01*
X103760346Y-47279327D01*
X103765449Y-47274468D01*
X103787729Y-47240934D01*
X103852614Y-47143275D01*
X103852615Y-47143273D01*
X103856515Y-47137403D01*
X103882519Y-47068947D01*
X103925408Y-47012368D01*
X103992076Y-46987959D01*
X104061358Y-47003469D01*
G37*
G04 #@! TD.AperFunction*
G04 #@! TA.AperFunction,Conductor*
G36*
X93926723Y-43578502D02*
G01*
X93957754Y-43606751D01*
X93959425Y-43608882D01*
X93963361Y-43615381D01*
X94059239Y-43711259D01*
X94093265Y-43773571D01*
X94088200Y-43844386D01*
X94059239Y-43889449D01*
X93969131Y-43979557D01*
X93959824Y-43991426D01*
X93878921Y-44125012D01*
X93872715Y-44138757D01*
X93825744Y-44288644D01*
X93823131Y-44301694D01*
X93818087Y-44356586D01*
X93821475Y-44368124D01*
X93822865Y-44369329D01*
X93830548Y-44371000D01*
X94928000Y-44371000D01*
X94996121Y-44391002D01*
X95042614Y-44444658D01*
X95054000Y-44497000D01*
X95054000Y-45514884D01*
X95058475Y-45530123D01*
X95059865Y-45531328D01*
X95067548Y-45532999D01*
X95128705Y-45532999D01*
X95134454Y-45532736D01*
X95198315Y-45526868D01*
X95211351Y-45524257D01*
X95361243Y-45477285D01*
X95374988Y-45471079D01*
X95508575Y-45390175D01*
X95521839Y-45379774D01*
X95587786Y-45353477D01*
X95657481Y-45367009D01*
X95677339Y-45379770D01*
X95679243Y-45381263D01*
X95684619Y-45386639D01*
X95831301Y-45475472D01*
X95838548Y-45477743D01*
X95838550Y-45477744D01*
X95904836Y-45498517D01*
X95994938Y-45526753D01*
X96068365Y-45533500D01*
X96071263Y-45533500D01*
X96400860Y-45533499D01*
X96731634Y-45533499D01*
X96734492Y-45533236D01*
X96734501Y-45533236D01*
X96770004Y-45529974D01*
X96805062Y-45526753D01*
X96813030Y-45524256D01*
X96961450Y-45477744D01*
X96961452Y-45477743D01*
X96968699Y-45475472D01*
X97115381Y-45386639D01*
X97120752Y-45381268D01*
X97122253Y-45380091D01*
X97188201Y-45353798D01*
X97257896Y-45367333D01*
X97277747Y-45380091D01*
X97279248Y-45381268D01*
X97284619Y-45386639D01*
X97431301Y-45475472D01*
X97438548Y-45477743D01*
X97438550Y-45477744D01*
X97504836Y-45498517D01*
X97594938Y-45526753D01*
X97668365Y-45533500D01*
X97671263Y-45533500D01*
X98000860Y-45533499D01*
X98331634Y-45533499D01*
X98334492Y-45533236D01*
X98334501Y-45533236D01*
X98370004Y-45529974D01*
X98405062Y-45526753D01*
X98413030Y-45524256D01*
X98561450Y-45477744D01*
X98561452Y-45477743D01*
X98568699Y-45475472D01*
X98715381Y-45386639D01*
X98720752Y-45381268D01*
X98722253Y-45380091D01*
X98788201Y-45353798D01*
X98857896Y-45367333D01*
X98877747Y-45380091D01*
X98879248Y-45381268D01*
X98884619Y-45386639D01*
X99031301Y-45475472D01*
X99098714Y-45496598D01*
X99189130Y-45524933D01*
X99248152Y-45564391D01*
X99276471Y-45629495D01*
X99265098Y-45699574D01*
X99240545Y-45734262D01*
X97381986Y-47592821D01*
X97319674Y-47626847D01*
X97248662Y-47621708D01*
X97215874Y-47609416D01*
X97200616Y-47605789D01*
X97150729Y-47600369D01*
X97143915Y-47600000D01*
X94918115Y-47600000D01*
X94902876Y-47604475D01*
X94901671Y-47605865D01*
X94900000Y-47613548D01*
X94900000Y-48082632D01*
X94903237Y-48093657D01*
X94926378Y-48083089D01*
X94996652Y-48072984D01*
X95061233Y-48102476D01*
X95067818Y-48108607D01*
X95387189Y-48427979D01*
X95401132Y-48435592D01*
X95402966Y-48435461D01*
X95409579Y-48431210D01*
X95733602Y-48107187D01*
X95795915Y-48073162D01*
X95866730Y-48078226D01*
X95883084Y-48085695D01*
X95901131Y-48095550D01*
X95902965Y-48095418D01*
X95909874Y-48090978D01*
X95977994Y-48070976D01*
X96046115Y-48090978D01*
X96067090Y-48107881D01*
X96399999Y-48440790D01*
X97086795Y-49127585D01*
X97120821Y-49189897D01*
X97123700Y-49216680D01*
X97123700Y-49233719D01*
X97108287Y-49294105D01*
X97104450Y-49301131D01*
X97104736Y-49305126D01*
X97123700Y-49369710D01*
X97123700Y-49383320D01*
X97103698Y-49451441D01*
X97086795Y-49472416D01*
X96772021Y-49787189D01*
X96764408Y-49801132D01*
X96764539Y-49802966D01*
X96768790Y-49809579D01*
X97086795Y-50127584D01*
X97120820Y-50189897D01*
X97123700Y-50216680D01*
X97123700Y-50233719D01*
X97108287Y-50294105D01*
X97104450Y-50301131D01*
X97104736Y-50305126D01*
X97123700Y-50369710D01*
X97123700Y-50383320D01*
X97103698Y-50451441D01*
X97086795Y-50472416D01*
X96772021Y-50787189D01*
X96764408Y-50801132D01*
X96764539Y-50802966D01*
X96768790Y-50809579D01*
X97086795Y-51127584D01*
X97120820Y-51189897D01*
X97123700Y-51216680D01*
X97123700Y-51233719D01*
X97108287Y-51294105D01*
X97104450Y-51301131D01*
X97104736Y-51305126D01*
X97123700Y-51369710D01*
X97123700Y-51383320D01*
X97103698Y-51451441D01*
X97086795Y-51472416D01*
X96772021Y-51787189D01*
X96764408Y-51801132D01*
X96764539Y-51802966D01*
X96768790Y-51809579D01*
X97086795Y-52127584D01*
X97120820Y-52189897D01*
X97123700Y-52216680D01*
X97123700Y-52233719D01*
X97108287Y-52294105D01*
X97104450Y-52301131D01*
X97104736Y-52305126D01*
X97123700Y-52369710D01*
X97123700Y-52383320D01*
X97103698Y-52451441D01*
X97086795Y-52472416D01*
X96759210Y-52800000D01*
X96400000Y-53159210D01*
X96066397Y-53492814D01*
X96004085Y-53526839D01*
X95933269Y-53521774D01*
X95916916Y-53514305D01*
X95898869Y-53504450D01*
X95897035Y-53504582D01*
X95890126Y-53509022D01*
X95822006Y-53529024D01*
X95753885Y-53509022D01*
X95732910Y-53492119D01*
X95412813Y-53172022D01*
X95398868Y-53164408D01*
X95397034Y-53164539D01*
X95390421Y-53168790D01*
X95066398Y-53492813D01*
X95004085Y-53526838D01*
X94933270Y-53521774D01*
X94916916Y-53514305D01*
X94902723Y-53506555D01*
X94900000Y-53513857D01*
X94900000Y-53981885D01*
X94904475Y-53997124D01*
X94905865Y-53998329D01*
X94913548Y-54000000D01*
X96070616Y-54000000D01*
X96138737Y-54020002D01*
X96185230Y-54073658D01*
X96195334Y-54143932D01*
X96165840Y-54208512D01*
X96159711Y-54215095D01*
X95533649Y-54841157D01*
X95471337Y-54875183D01*
X95457727Y-54877372D01*
X95441495Y-54879078D01*
X95434829Y-54881347D01*
X95434826Y-54881348D01*
X95292382Y-54929840D01*
X95292379Y-54929841D01*
X95285715Y-54932110D01*
X95208528Y-54979596D01*
X95178908Y-54997818D01*
X95112886Y-55016500D01*
X91493885Y-55016500D01*
X91425764Y-54996498D01*
X91404790Y-54979596D01*
X91158345Y-54733152D01*
X91124320Y-54670839D01*
X91122225Y-54658102D01*
X91120583Y-54643464D01*
X91120583Y-54643463D01*
X91119798Y-54636466D01*
X91105953Y-54596707D01*
X91067998Y-54487717D01*
X91065680Y-54481060D01*
X91038926Y-54438244D01*
X90982209Y-54347479D01*
X90978476Y-54341505D01*
X90910944Y-54273500D01*
X90867486Y-54229737D01*
X90867482Y-54229734D01*
X90862522Y-54224739D01*
X90723580Y-54136563D01*
X90651462Y-54110883D01*
X90575189Y-54083723D01*
X90575187Y-54083722D01*
X90568555Y-54081361D01*
X90561569Y-54080528D01*
X90561565Y-54080527D01*
X90425146Y-54064261D01*
X90405153Y-54061877D01*
X90398150Y-54062613D01*
X90398149Y-54062613D01*
X90248503Y-54078341D01*
X90248499Y-54078342D01*
X90241495Y-54079078D01*
X90222598Y-54085511D01*
X90151666Y-54088527D01*
X90092590Y-54055017D01*
X90067486Y-54029738D01*
X90062522Y-54024739D01*
X89923580Y-53936563D01*
X89885725Y-53923084D01*
X89775195Y-53883725D01*
X89775192Y-53883724D01*
X89768555Y-53881361D01*
X89768829Y-53880591D01*
X89712008Y-53848359D01*
X89678996Y-53785504D01*
X89685207Y-53714780D01*
X89728668Y-53658640D01*
X89738016Y-53652489D01*
X89840233Y-53591555D01*
X89846279Y-53587951D01*
X89965449Y-53474468D01*
X89970313Y-53467147D01*
X90052614Y-53343275D01*
X90052615Y-53343273D01*
X90056515Y-53337403D01*
X90101645Y-53218597D01*
X90112450Y-53190153D01*
X90112451Y-53190150D01*
X90114951Y-53183568D01*
X90121074Y-53139999D01*
X90150362Y-53075325D01*
X90156753Y-53068440D01*
X90979707Y-52245486D01*
X90992105Y-52234613D01*
X90997303Y-52230625D01*
X91063525Y-52205029D01*
X91133073Y-52219299D01*
X91183865Y-52268903D01*
X91200000Y-52330593D01*
X91200000Y-53543915D01*
X91200369Y-53550729D01*
X91205789Y-53600621D01*
X91209414Y-53615867D01*
X91253767Y-53734177D01*
X91262299Y-53749763D01*
X91337430Y-53850009D01*
X91349991Y-53862570D01*
X91450237Y-53937701D01*
X91465823Y-53946233D01*
X91584133Y-53990586D01*
X91599379Y-53994211D01*
X91649271Y-53999631D01*
X91656085Y-54000000D01*
X93881885Y-54000000D01*
X93897124Y-53995525D01*
X93898329Y-53994135D01*
X93900000Y-53986452D01*
X93900000Y-53517368D01*
X93896763Y-53506343D01*
X93873622Y-53516911D01*
X93803348Y-53527016D01*
X93738767Y-53497524D01*
X93732182Y-53491393D01*
X93412811Y-53172021D01*
X93398868Y-53164408D01*
X93397034Y-53164539D01*
X93390421Y-53168790D01*
X93066398Y-53492813D01*
X93004085Y-53526838D01*
X92933270Y-53521774D01*
X92916916Y-53514305D01*
X92898869Y-53504450D01*
X92897037Y-53504582D01*
X92890129Y-53509021D01*
X92822008Y-53529025D01*
X92753887Y-53509025D01*
X92732909Y-53492120D01*
X92041920Y-52801130D01*
X92764408Y-52801130D01*
X92764539Y-52802966D01*
X92768789Y-52809579D01*
X92887192Y-52927981D01*
X92901130Y-52935592D01*
X92902966Y-52935460D01*
X92909579Y-52931211D01*
X93027981Y-52812808D01*
X93034358Y-52801130D01*
X93764408Y-52801130D01*
X93764539Y-52802966D01*
X93768789Y-52809579D01*
X93887192Y-52927981D01*
X93897276Y-52933487D01*
X93900000Y-52926183D01*
X93900000Y-52922674D01*
X94900000Y-52922674D01*
X94903237Y-52933699D01*
X94910328Y-52930461D01*
X95027981Y-52812808D01*
X95034358Y-52801130D01*
X95764408Y-52801130D01*
X95764539Y-52802966D01*
X95768789Y-52809579D01*
X95887192Y-52927981D01*
X95901130Y-52935592D01*
X95902966Y-52935460D01*
X95909579Y-52931211D01*
X96027981Y-52812808D01*
X96035592Y-52798870D01*
X96035461Y-52797034D01*
X96031211Y-52790421D01*
X95912808Y-52672019D01*
X95898870Y-52664408D01*
X95897034Y-52664540D01*
X95890421Y-52668789D01*
X95772019Y-52787192D01*
X95764408Y-52801130D01*
X95034358Y-52801130D01*
X95035592Y-52798870D01*
X95035461Y-52797034D01*
X95031211Y-52790421D01*
X94912808Y-52672019D01*
X94902724Y-52666513D01*
X94900000Y-52673817D01*
X94900000Y-52922674D01*
X93900000Y-52922674D01*
X93900000Y-52677326D01*
X93896763Y-52666301D01*
X93889672Y-52669539D01*
X93772019Y-52787192D01*
X93764408Y-52801130D01*
X93034358Y-52801130D01*
X93035592Y-52798870D01*
X93035461Y-52797034D01*
X93031211Y-52790421D01*
X92912808Y-52672019D01*
X92898870Y-52664408D01*
X92897034Y-52664540D01*
X92890421Y-52668789D01*
X92772019Y-52787192D01*
X92764408Y-52801130D01*
X92041920Y-52801130D01*
X92040790Y-52800000D01*
X91707186Y-52466397D01*
X91673161Y-52404085D01*
X91678226Y-52333269D01*
X91685695Y-52316916D01*
X91694315Y-52301130D01*
X92264408Y-52301130D01*
X92264540Y-52302966D01*
X92268789Y-52309579D01*
X92387192Y-52427981D01*
X92401130Y-52435592D01*
X92402966Y-52435461D01*
X92409579Y-52431211D01*
X92527981Y-52312808D01*
X92534358Y-52301130D01*
X93264408Y-52301130D01*
X93264540Y-52302966D01*
X93268789Y-52309579D01*
X93387192Y-52427981D01*
X93401130Y-52435592D01*
X93402966Y-52435461D01*
X93409579Y-52431211D01*
X93527981Y-52312808D01*
X93534358Y-52301130D01*
X95264408Y-52301130D01*
X95264540Y-52302966D01*
X95268789Y-52309579D01*
X95387192Y-52427981D01*
X95401130Y-52435592D01*
X95402966Y-52435461D01*
X95409579Y-52431211D01*
X95527981Y-52312808D01*
X95534358Y-52301130D01*
X96264408Y-52301130D01*
X96264540Y-52302966D01*
X96268789Y-52309579D01*
X96387192Y-52427981D01*
X96401130Y-52435592D01*
X96402966Y-52435461D01*
X96409579Y-52431211D01*
X96527981Y-52312808D01*
X96535592Y-52298870D01*
X96535460Y-52297034D01*
X96531211Y-52290421D01*
X96412808Y-52172019D01*
X96398870Y-52164408D01*
X96397034Y-52164539D01*
X96390421Y-52168789D01*
X96272019Y-52287192D01*
X96264408Y-52301130D01*
X95534358Y-52301130D01*
X95535592Y-52298870D01*
X95535460Y-52297034D01*
X95531211Y-52290421D01*
X95412808Y-52172019D01*
X95398870Y-52164408D01*
X95397034Y-52164539D01*
X95390421Y-52168789D01*
X95272019Y-52287192D01*
X95264408Y-52301130D01*
X93534358Y-52301130D01*
X93535592Y-52298870D01*
X93535460Y-52297034D01*
X93531211Y-52290421D01*
X93412808Y-52172019D01*
X93398870Y-52164408D01*
X93397034Y-52164539D01*
X93390421Y-52168789D01*
X93272019Y-52287192D01*
X93264408Y-52301130D01*
X92534358Y-52301130D01*
X92535592Y-52298870D01*
X92535460Y-52297034D01*
X92531211Y-52290421D01*
X92412808Y-52172019D01*
X92398870Y-52164408D01*
X92397034Y-52164539D01*
X92390421Y-52168789D01*
X92272019Y-52287192D01*
X92264408Y-52301130D01*
X91694315Y-52301130D01*
X91695550Y-52298869D01*
X91695418Y-52297035D01*
X91690978Y-52290126D01*
X91670976Y-52222006D01*
X91690978Y-52153885D01*
X91707881Y-52132910D01*
X92027978Y-51812813D01*
X92034357Y-51801130D01*
X92764408Y-51801130D01*
X92764539Y-51802966D01*
X92768789Y-51809579D01*
X92887192Y-51927981D01*
X92901130Y-51935592D01*
X92902966Y-51935460D01*
X92909579Y-51931211D01*
X93027981Y-51812808D01*
X93034358Y-51801130D01*
X93764408Y-51801130D01*
X93764539Y-51802966D01*
X93768789Y-51809579D01*
X93887192Y-51927981D01*
X93897276Y-51933487D01*
X93900000Y-51926183D01*
X93900000Y-51922674D01*
X94900000Y-51922674D01*
X94903237Y-51933699D01*
X94910328Y-51930461D01*
X95027981Y-51812808D01*
X95034358Y-51801130D01*
X95764408Y-51801130D01*
X95764539Y-51802966D01*
X95768789Y-51809579D01*
X95887192Y-51927981D01*
X95901130Y-51935592D01*
X95902966Y-51935460D01*
X95909579Y-51931211D01*
X96027981Y-51812808D01*
X96035592Y-51798870D01*
X96035461Y-51797034D01*
X96031211Y-51790421D01*
X95912808Y-51672019D01*
X95898870Y-51664408D01*
X95897034Y-51664540D01*
X95890421Y-51668789D01*
X95772019Y-51787192D01*
X95764408Y-51801130D01*
X95034358Y-51801130D01*
X95035592Y-51798870D01*
X95035461Y-51797034D01*
X95031211Y-51790421D01*
X94912808Y-51672019D01*
X94902724Y-51666513D01*
X94900000Y-51673817D01*
X94900000Y-51922674D01*
X93900000Y-51922674D01*
X93900000Y-51677326D01*
X93896763Y-51666301D01*
X93889672Y-51669539D01*
X93772019Y-51787192D01*
X93764408Y-51801130D01*
X93034358Y-51801130D01*
X93035592Y-51798870D01*
X93035461Y-51797034D01*
X93031211Y-51790421D01*
X92912808Y-51672019D01*
X92898870Y-51664408D01*
X92897034Y-51664540D01*
X92890421Y-51668789D01*
X92772019Y-51787192D01*
X92764408Y-51801130D01*
X92034357Y-51801130D01*
X92035592Y-51798868D01*
X92035461Y-51797034D01*
X92031210Y-51790421D01*
X91707187Y-51466398D01*
X91673162Y-51404085D01*
X91678226Y-51333270D01*
X91685695Y-51316916D01*
X91694315Y-51301130D01*
X92264408Y-51301130D01*
X92264540Y-51302966D01*
X92268789Y-51309579D01*
X92387192Y-51427981D01*
X92401130Y-51435592D01*
X92402966Y-51435461D01*
X92409579Y-51431211D01*
X92527981Y-51312808D01*
X92534358Y-51301130D01*
X93264408Y-51301130D01*
X93264540Y-51302966D01*
X93268789Y-51309579D01*
X93387192Y-51427981D01*
X93401130Y-51435592D01*
X93402966Y-51435461D01*
X93409579Y-51431211D01*
X93527981Y-51312808D01*
X93534358Y-51301130D01*
X95264408Y-51301130D01*
X95264540Y-51302966D01*
X95268789Y-51309579D01*
X95387192Y-51427981D01*
X95401130Y-51435592D01*
X95402966Y-51435461D01*
X95409579Y-51431211D01*
X95527981Y-51312808D01*
X95534358Y-51301130D01*
X96264408Y-51301130D01*
X96264540Y-51302966D01*
X96268789Y-51309579D01*
X96387192Y-51427981D01*
X96401130Y-51435592D01*
X96402966Y-51435461D01*
X96409579Y-51431211D01*
X96527981Y-51312808D01*
X96535592Y-51298870D01*
X96535460Y-51297034D01*
X96531211Y-51290421D01*
X96412808Y-51172019D01*
X96398870Y-51164408D01*
X96397034Y-51164539D01*
X96390421Y-51168789D01*
X96272019Y-51287192D01*
X96264408Y-51301130D01*
X95534358Y-51301130D01*
X95535592Y-51298870D01*
X95535460Y-51297034D01*
X95531211Y-51290421D01*
X95412808Y-51172019D01*
X95398870Y-51164408D01*
X95397034Y-51164539D01*
X95390421Y-51168789D01*
X95272019Y-51287192D01*
X95264408Y-51301130D01*
X93534358Y-51301130D01*
X93535592Y-51298870D01*
X93535460Y-51297034D01*
X93531211Y-51290421D01*
X93412808Y-51172019D01*
X93398870Y-51164408D01*
X93397034Y-51164539D01*
X93390421Y-51168789D01*
X93272019Y-51287192D01*
X93264408Y-51301130D01*
X92534358Y-51301130D01*
X92535592Y-51298870D01*
X92535460Y-51297034D01*
X92531211Y-51290421D01*
X92412808Y-51172019D01*
X92398870Y-51164408D01*
X92397034Y-51164539D01*
X92390421Y-51168789D01*
X92272019Y-51287192D01*
X92264408Y-51301130D01*
X91694315Y-51301130D01*
X91695550Y-51298869D01*
X91695418Y-51297035D01*
X91690978Y-51290126D01*
X91670976Y-51222006D01*
X91690978Y-51153885D01*
X91707881Y-51132910D01*
X92027978Y-50812813D01*
X92034357Y-50801130D01*
X92764408Y-50801130D01*
X92764539Y-50802966D01*
X92768789Y-50809579D01*
X92887192Y-50927981D01*
X92901130Y-50935592D01*
X92902966Y-50935460D01*
X92909579Y-50931211D01*
X93027981Y-50812808D01*
X93034358Y-50801130D01*
X93764408Y-50801130D01*
X93764539Y-50802966D01*
X93768789Y-50809579D01*
X93887192Y-50927981D01*
X93897276Y-50933487D01*
X93900000Y-50926183D01*
X93900000Y-50922674D01*
X94900000Y-50922674D01*
X94903237Y-50933699D01*
X94910328Y-50930461D01*
X95027981Y-50812808D01*
X95034358Y-50801130D01*
X95764408Y-50801130D01*
X95764539Y-50802966D01*
X95768789Y-50809579D01*
X95887192Y-50927981D01*
X95901130Y-50935592D01*
X95902966Y-50935460D01*
X95909579Y-50931211D01*
X96027981Y-50812808D01*
X96035592Y-50798870D01*
X96035461Y-50797034D01*
X96031211Y-50790421D01*
X95912808Y-50672019D01*
X95898870Y-50664408D01*
X95897034Y-50664540D01*
X95890421Y-50668789D01*
X95772019Y-50787192D01*
X95764408Y-50801130D01*
X95034358Y-50801130D01*
X95035592Y-50798870D01*
X95035461Y-50797034D01*
X95031211Y-50790421D01*
X94912808Y-50672019D01*
X94902724Y-50666513D01*
X94900000Y-50673817D01*
X94900000Y-50922674D01*
X93900000Y-50922674D01*
X93900000Y-50677326D01*
X93896763Y-50666301D01*
X93889672Y-50669539D01*
X93772019Y-50787192D01*
X93764408Y-50801130D01*
X93034358Y-50801130D01*
X93035592Y-50798870D01*
X93035461Y-50797034D01*
X93031211Y-50790421D01*
X92912808Y-50672019D01*
X92898870Y-50664408D01*
X92897034Y-50664540D01*
X92890421Y-50668789D01*
X92772019Y-50787192D01*
X92764408Y-50801130D01*
X92034357Y-50801130D01*
X92035592Y-50798868D01*
X92035461Y-50797034D01*
X92031210Y-50790421D01*
X91707187Y-50466398D01*
X91673162Y-50404085D01*
X91678226Y-50333270D01*
X91685695Y-50316916D01*
X91694315Y-50301130D01*
X92264408Y-50301130D01*
X92264540Y-50302966D01*
X92268789Y-50309579D01*
X92387192Y-50427981D01*
X92401130Y-50435592D01*
X92402966Y-50435461D01*
X92409579Y-50431211D01*
X92527981Y-50312808D01*
X92534358Y-50301130D01*
X93264408Y-50301130D01*
X93264540Y-50302966D01*
X93268789Y-50309579D01*
X93387192Y-50427981D01*
X93401130Y-50435592D01*
X93402966Y-50435461D01*
X93409579Y-50431211D01*
X93527981Y-50312808D01*
X93534358Y-50301130D01*
X95264408Y-50301130D01*
X95264540Y-50302966D01*
X95268789Y-50309579D01*
X95387192Y-50427981D01*
X95401130Y-50435592D01*
X95402966Y-50435461D01*
X95409579Y-50431211D01*
X95527981Y-50312808D01*
X95534358Y-50301130D01*
X96264408Y-50301130D01*
X96264540Y-50302966D01*
X96268789Y-50309579D01*
X96387192Y-50427981D01*
X96401130Y-50435592D01*
X96402966Y-50435461D01*
X96409579Y-50431211D01*
X96527981Y-50312808D01*
X96535592Y-50298870D01*
X96535460Y-50297034D01*
X96531211Y-50290421D01*
X96412808Y-50172019D01*
X96398870Y-50164408D01*
X96397034Y-50164539D01*
X96390421Y-50168789D01*
X96272019Y-50287192D01*
X96264408Y-50301130D01*
X95534358Y-50301130D01*
X95535592Y-50298870D01*
X95535460Y-50297034D01*
X95531211Y-50290421D01*
X95412808Y-50172019D01*
X95398870Y-50164408D01*
X95397034Y-50164539D01*
X95390421Y-50168789D01*
X95272019Y-50287192D01*
X95264408Y-50301130D01*
X93534358Y-50301130D01*
X93535592Y-50298870D01*
X93535460Y-50297034D01*
X93531211Y-50290421D01*
X93412808Y-50172019D01*
X93398870Y-50164408D01*
X93397034Y-50164539D01*
X93390421Y-50168789D01*
X93272019Y-50287192D01*
X93264408Y-50301130D01*
X92534358Y-50301130D01*
X92535592Y-50298870D01*
X92535460Y-50297034D01*
X92531211Y-50290421D01*
X92412808Y-50172019D01*
X92398870Y-50164408D01*
X92397034Y-50164539D01*
X92390421Y-50168789D01*
X92272019Y-50287192D01*
X92264408Y-50301130D01*
X91694315Y-50301130D01*
X91695550Y-50298869D01*
X91695418Y-50297035D01*
X91690978Y-50290126D01*
X91670976Y-50222006D01*
X91690978Y-50153885D01*
X91707881Y-50132910D01*
X92027978Y-49812813D01*
X92034357Y-49801130D01*
X92764408Y-49801130D01*
X92764539Y-49802966D01*
X92768789Y-49809579D01*
X92887192Y-49927981D01*
X92901130Y-49935592D01*
X92902966Y-49935460D01*
X92909579Y-49931211D01*
X93027981Y-49812808D01*
X93034358Y-49801130D01*
X93764408Y-49801130D01*
X93764539Y-49802966D01*
X93768789Y-49809579D01*
X93887192Y-49927981D01*
X93897276Y-49933487D01*
X93900000Y-49926183D01*
X93900000Y-49922674D01*
X94900000Y-49922674D01*
X94903237Y-49933699D01*
X94910328Y-49930461D01*
X95027981Y-49812808D01*
X95034358Y-49801130D01*
X95764408Y-49801130D01*
X95764539Y-49802966D01*
X95768789Y-49809579D01*
X95887192Y-49927981D01*
X95901130Y-49935592D01*
X95902966Y-49935460D01*
X95909579Y-49931211D01*
X96027981Y-49812808D01*
X96035592Y-49798870D01*
X96035461Y-49797034D01*
X96031211Y-49790421D01*
X95912808Y-49672019D01*
X95898870Y-49664408D01*
X95897034Y-49664540D01*
X95890421Y-49668789D01*
X95772019Y-49787192D01*
X95764408Y-49801130D01*
X95034358Y-49801130D01*
X95035592Y-49798870D01*
X95035461Y-49797034D01*
X95031211Y-49790421D01*
X94912808Y-49672019D01*
X94902724Y-49666513D01*
X94900000Y-49673817D01*
X94900000Y-49922674D01*
X93900000Y-49922674D01*
X93900000Y-49677326D01*
X93896763Y-49666301D01*
X93889672Y-49669539D01*
X93772019Y-49787192D01*
X93764408Y-49801130D01*
X93034358Y-49801130D01*
X93035592Y-49798870D01*
X93035461Y-49797034D01*
X93031211Y-49790421D01*
X92912808Y-49672019D01*
X92898870Y-49664408D01*
X92897034Y-49664540D01*
X92890421Y-49668789D01*
X92772019Y-49787192D01*
X92764408Y-49801130D01*
X92034357Y-49801130D01*
X92035592Y-49798868D01*
X92035461Y-49797034D01*
X92031210Y-49790421D01*
X91707187Y-49466398D01*
X91673162Y-49404085D01*
X91678226Y-49333270D01*
X91685695Y-49316916D01*
X91694315Y-49301130D01*
X92264408Y-49301130D01*
X92264540Y-49302966D01*
X92268789Y-49309579D01*
X92387192Y-49427981D01*
X92401130Y-49435592D01*
X92402966Y-49435461D01*
X92409579Y-49431211D01*
X92527981Y-49312808D01*
X92534358Y-49301130D01*
X93264408Y-49301130D01*
X93264540Y-49302966D01*
X93268789Y-49309579D01*
X93387192Y-49427981D01*
X93401130Y-49435592D01*
X93402966Y-49435461D01*
X93409579Y-49431211D01*
X93527981Y-49312808D01*
X93534358Y-49301130D01*
X95264408Y-49301130D01*
X95264540Y-49302966D01*
X95268789Y-49309579D01*
X95387192Y-49427981D01*
X95401130Y-49435592D01*
X95402966Y-49435461D01*
X95409579Y-49431211D01*
X95527981Y-49312808D01*
X95534358Y-49301130D01*
X96264408Y-49301130D01*
X96264540Y-49302966D01*
X96268789Y-49309579D01*
X96387192Y-49427981D01*
X96401130Y-49435592D01*
X96402966Y-49435461D01*
X96409579Y-49431211D01*
X96527981Y-49312808D01*
X96535592Y-49298870D01*
X96535460Y-49297034D01*
X96531211Y-49290421D01*
X96412808Y-49172019D01*
X96398870Y-49164408D01*
X96397034Y-49164539D01*
X96390421Y-49168789D01*
X96272019Y-49287192D01*
X96264408Y-49301130D01*
X95534358Y-49301130D01*
X95535592Y-49298870D01*
X95535460Y-49297034D01*
X95531211Y-49290421D01*
X95412808Y-49172019D01*
X95398870Y-49164408D01*
X95397034Y-49164539D01*
X95390421Y-49168789D01*
X95272019Y-49287192D01*
X95264408Y-49301130D01*
X93534358Y-49301130D01*
X93535592Y-49298870D01*
X93535460Y-49297034D01*
X93531211Y-49290421D01*
X93412808Y-49172019D01*
X93398870Y-49164408D01*
X93397034Y-49164539D01*
X93390421Y-49168789D01*
X93272019Y-49287192D01*
X93264408Y-49301130D01*
X92534358Y-49301130D01*
X92535592Y-49298870D01*
X92535460Y-49297034D01*
X92531211Y-49290421D01*
X92412808Y-49172019D01*
X92398870Y-49164408D01*
X92397034Y-49164539D01*
X92390421Y-49168789D01*
X92272019Y-49287192D01*
X92264408Y-49301130D01*
X91694315Y-49301130D01*
X91695550Y-49298869D01*
X91695418Y-49297037D01*
X91690979Y-49290129D01*
X91670975Y-49222008D01*
X91690975Y-49153887D01*
X91707880Y-49132909D01*
X92039659Y-48801130D01*
X92764408Y-48801130D01*
X92764539Y-48802966D01*
X92768789Y-48809579D01*
X92887192Y-48927981D01*
X92901130Y-48935592D01*
X92902966Y-48935460D01*
X92909579Y-48931211D01*
X93027981Y-48812808D01*
X93034358Y-48801130D01*
X93764408Y-48801130D01*
X93764539Y-48802966D01*
X93768789Y-48809579D01*
X93887192Y-48927981D01*
X93897276Y-48933487D01*
X93900000Y-48926183D01*
X93900000Y-48922674D01*
X94900000Y-48922674D01*
X94903237Y-48933699D01*
X94910328Y-48930461D01*
X95027981Y-48812808D01*
X95034358Y-48801130D01*
X95764408Y-48801130D01*
X95764539Y-48802966D01*
X95768789Y-48809579D01*
X95887192Y-48927981D01*
X95901130Y-48935592D01*
X95902966Y-48935460D01*
X95909579Y-48931211D01*
X96027981Y-48812808D01*
X96035592Y-48798870D01*
X96035461Y-48797034D01*
X96031211Y-48790421D01*
X95912808Y-48672019D01*
X95898870Y-48664408D01*
X95897034Y-48664540D01*
X95890421Y-48668789D01*
X95772019Y-48787192D01*
X95764408Y-48801130D01*
X95034358Y-48801130D01*
X95035592Y-48798870D01*
X95035461Y-48797034D01*
X95031211Y-48790421D01*
X94912808Y-48672019D01*
X94902724Y-48666513D01*
X94900000Y-48673817D01*
X94900000Y-48922674D01*
X93900000Y-48922674D01*
X93900000Y-48677326D01*
X93896763Y-48666301D01*
X93889672Y-48669539D01*
X93772019Y-48787192D01*
X93764408Y-48801130D01*
X93034358Y-48801130D01*
X93035592Y-48798870D01*
X93035461Y-48797034D01*
X93031211Y-48790421D01*
X92912808Y-48672019D01*
X92898870Y-48664408D01*
X92897034Y-48664540D01*
X92890421Y-48668789D01*
X92772019Y-48787192D01*
X92764408Y-48801130D01*
X92039659Y-48801130D01*
X92400000Y-48440790D01*
X92733603Y-48107186D01*
X92795915Y-48073161D01*
X92866731Y-48078226D01*
X92883084Y-48085695D01*
X92901131Y-48095550D01*
X92902965Y-48095418D01*
X92909874Y-48090978D01*
X92977994Y-48070976D01*
X93046115Y-48090978D01*
X93067090Y-48107881D01*
X93387187Y-48427978D01*
X93401132Y-48435592D01*
X93402966Y-48435461D01*
X93409579Y-48431210D01*
X93733602Y-48107187D01*
X93795915Y-48073162D01*
X93866730Y-48078226D01*
X93883084Y-48085695D01*
X93897277Y-48093445D01*
X93900000Y-48086143D01*
X93900000Y-47618115D01*
X93895525Y-47602876D01*
X93894135Y-47601671D01*
X93886452Y-47600000D01*
X91656085Y-47600000D01*
X91649271Y-47600369D01*
X91599379Y-47605789D01*
X91584133Y-47609414D01*
X91465823Y-47653767D01*
X91450237Y-47662299D01*
X91385065Y-47711143D01*
X91318558Y-47735991D01*
X91249176Y-47720938D01*
X91198946Y-47670764D01*
X91183500Y-47610317D01*
X91183500Y-46093883D01*
X91203502Y-46025762D01*
X91220405Y-46004788D01*
X92335899Y-44889294D01*
X93817709Y-44889294D01*
X93823132Y-44948315D01*
X93825743Y-44961351D01*
X93872715Y-45111243D01*
X93878921Y-45124988D01*
X93959824Y-45258574D01*
X93969131Y-45270443D01*
X94079557Y-45380869D01*
X94091426Y-45390176D01*
X94225012Y-45471079D01*
X94238757Y-45477285D01*
X94388644Y-45524256D01*
X94401694Y-45526869D01*
X94465521Y-45532734D01*
X94471309Y-45533000D01*
X94527885Y-45533000D01*
X94543124Y-45528525D01*
X94544329Y-45527135D01*
X94546000Y-45519452D01*
X94546000Y-44897115D01*
X94541525Y-44881876D01*
X94540135Y-44880671D01*
X94532452Y-44879000D01*
X93835116Y-44879000D01*
X93819877Y-44883475D01*
X93818672Y-44884865D01*
X93817709Y-44889294D01*
X92335899Y-44889294D01*
X93629788Y-43595405D01*
X93692100Y-43561379D01*
X93718883Y-43558500D01*
X93858602Y-43558500D01*
X93926723Y-43578502D01*
G37*
G04 #@! TD.AperFunction*
G04 #@! TA.AperFunction,Conductor*
G36*
X87237758Y-48982639D02*
G01*
X87284251Y-49036295D01*
X87295637Y-49088637D01*
X87295637Y-50181521D01*
X87300112Y-50196760D01*
X87301502Y-50197965D01*
X87305931Y-50198928D01*
X87364952Y-50193505D01*
X87377988Y-50190894D01*
X87441988Y-50170838D01*
X87512973Y-50169554D01*
X87573384Y-50206851D01*
X87604040Y-50270888D01*
X87605667Y-50291072D01*
X87605667Y-51742664D01*
X87604589Y-51759111D01*
X87600632Y-51789167D01*
X87605667Y-51827411D01*
X87608180Y-51846495D01*
X87610747Y-51865995D01*
X87599808Y-51936144D01*
X87552680Y-51989243D01*
X87484326Y-52008433D01*
X87416448Y-51987622D01*
X87396730Y-51971537D01*
X87220405Y-51795212D01*
X87186379Y-51732900D01*
X87183500Y-51706117D01*
X87183500Y-51446501D01*
X87184578Y-51430053D01*
X87186225Y-51417548D01*
X87188535Y-51400000D01*
X87183316Y-51360361D01*
X87180636Y-51340000D01*
X87169559Y-51255864D01*
X87168481Y-51247676D01*
X87123043Y-51137979D01*
X87109686Y-51105732D01*
X87058971Y-51039640D01*
X87016157Y-50983843D01*
X87003382Y-50974040D01*
X86992098Y-50965382D01*
X86979707Y-50954514D01*
X86317546Y-50292353D01*
X86283520Y-50230041D01*
X86288585Y-50159226D01*
X86331132Y-50102390D01*
X86397652Y-50077579D01*
X86471913Y-50095482D01*
X86541649Y-50137716D01*
X86555394Y-50143922D01*
X86705281Y-50190893D01*
X86718331Y-50193506D01*
X86773223Y-50198550D01*
X86784761Y-50195162D01*
X86785966Y-50193772D01*
X86787637Y-50186089D01*
X86787637Y-49088637D01*
X86807639Y-49020516D01*
X86861295Y-48974023D01*
X86913637Y-48962637D01*
X87169637Y-48962637D01*
X87237758Y-48982639D01*
G37*
G04 #@! TD.AperFunction*
G04 #@! TA.AperFunction,Conductor*
G36*
X112987029Y-46374267D02*
G01*
X113007170Y-46390630D01*
X114808084Y-48191544D01*
X114842110Y-48253856D01*
X114844989Y-48280639D01*
X114844989Y-48477628D01*
X114824987Y-48545749D01*
X114808084Y-48566723D01*
X114395212Y-48979595D01*
X114332900Y-49013621D01*
X114306117Y-49016500D01*
X113086146Y-49016500D01*
X113018632Y-48996885D01*
X112929534Y-48940341D01*
X112929530Y-48940339D01*
X112923580Y-48936563D01*
X112826376Y-48901950D01*
X112775189Y-48883723D01*
X112775187Y-48883722D01*
X112768555Y-48881361D01*
X112761569Y-48880528D01*
X112761565Y-48880527D01*
X112664330Y-48868933D01*
X112605153Y-48861877D01*
X112602829Y-48862121D01*
X112536631Y-48842180D01*
X112490515Y-48788200D01*
X112480903Y-48717857D01*
X112510847Y-48653484D01*
X112539186Y-48629519D01*
X112589348Y-48598478D01*
X112714305Y-48473303D01*
X112718146Y-48467072D01*
X112803275Y-48328968D01*
X112803276Y-48328966D01*
X112807115Y-48322738D01*
X112851091Y-48190154D01*
X112860632Y-48161389D01*
X112860632Y-48161387D01*
X112862797Y-48154861D01*
X112873500Y-48050400D01*
X112873500Y-47449600D01*
X112871129Y-47426749D01*
X112863238Y-47350692D01*
X112863237Y-47350688D01*
X112862526Y-47343834D01*
X112852011Y-47312315D01*
X112808868Y-47183002D01*
X112806550Y-47176054D01*
X112713478Y-47025652D01*
X112588303Y-46900695D01*
X112583765Y-46897898D01*
X112543176Y-46840647D01*
X112539946Y-46769724D01*
X112575572Y-46708313D01*
X112584068Y-46700938D01*
X112594207Y-46692902D01*
X112708739Y-46578171D01*
X112717751Y-46566760D01*
X112802814Y-46428762D01*
X112803877Y-46426481D01*
X112805019Y-46425184D01*
X112806658Y-46422525D01*
X112807113Y-46422805D01*
X112850791Y-46373194D01*
X112919068Y-46353729D01*
X112987029Y-46374267D01*
G37*
G04 #@! TD.AperFunction*
G04 #@! TA.AperFunction,Conductor*
G36*
X115615169Y-46403502D02*
G01*
X115661662Y-46457158D01*
X115673048Y-46509500D01*
X115673048Y-47101932D01*
X115653046Y-47170053D01*
X115599390Y-47216546D01*
X115529116Y-47226650D01*
X115464536Y-47197156D01*
X115457953Y-47191027D01*
X114865521Y-46598595D01*
X114831495Y-46536283D01*
X114836560Y-46465468D01*
X114879107Y-46408632D01*
X114945627Y-46383821D01*
X114954616Y-46383500D01*
X115547048Y-46383500D01*
X115615169Y-46403502D01*
G37*
G04 #@! TD.AperFunction*
G04 #@! TA.AperFunction,Conductor*
G36*
X92750398Y-40914002D02*
G01*
X92796891Y-40967658D01*
X92806995Y-41037932D01*
X92777501Y-41102512D01*
X92771374Y-41109093D01*
X90285060Y-43595405D01*
X87799429Y-46081035D01*
X87737117Y-46115061D01*
X87710334Y-46117940D01*
X82745063Y-46117940D01*
X82728616Y-46116862D01*
X82706748Y-46113983D01*
X82698560Y-46112905D01*
X82546236Y-46132959D01*
X82404293Y-46191754D01*
X82313006Y-46261800D01*
X82313003Y-46261803D01*
X82282403Y-46285283D01*
X82277377Y-46291833D01*
X82277374Y-46291836D01*
X82263951Y-46309330D01*
X82253085Y-46321721D01*
X81833307Y-46741500D01*
X81495096Y-47079711D01*
X81432783Y-47113736D01*
X81361968Y-47108672D01*
X81305132Y-47066125D01*
X81280321Y-46999605D01*
X81280000Y-46990616D01*
X81280000Y-45030375D01*
X81300002Y-44962254D01*
X81353658Y-44915761D01*
X81423932Y-44905657D01*
X81484719Y-44934312D01*
X81485814Y-44932953D01*
X81737196Y-45135431D01*
X81737201Y-45135435D01*
X81740149Y-45137809D01*
X82017253Y-45310627D01*
X82313112Y-45448903D01*
X82394160Y-45475472D01*
X82570368Y-45533236D01*
X82623440Y-45550634D01*
X82943742Y-45614346D01*
X82947514Y-45614633D01*
X82947522Y-45614634D01*
X83265602Y-45638829D01*
X83265607Y-45638829D01*
X83269379Y-45639116D01*
X83595633Y-45624586D01*
X83655425Y-45614634D01*
X83914037Y-45571590D01*
X83914042Y-45571589D01*
X83917778Y-45570967D01*
X84231149Y-45479034D01*
X84234616Y-45477544D01*
X84234620Y-45477543D01*
X84527721Y-45351616D01*
X84527723Y-45351615D01*
X84531205Y-45350119D01*
X84813601Y-45186091D01*
X85074245Y-44989324D01*
X85191804Y-44875997D01*
X85306632Y-44765303D01*
X85306635Y-44765300D01*
X85309363Y-44762670D01*
X85515549Y-44509410D01*
X85523379Y-44497000D01*
X85687788Y-44236428D01*
X85687790Y-44236425D01*
X85689815Y-44233215D01*
X85829638Y-43938084D01*
X85850100Y-43876753D01*
X85931790Y-43631897D01*
X85931792Y-43631891D01*
X85932992Y-43628293D01*
X85998381Y-43308329D01*
X86011294Y-43149574D01*
X86024674Y-42985061D01*
X86024856Y-42982826D01*
X86025451Y-42926000D01*
X86023932Y-42900794D01*
X86006026Y-42603793D01*
X86006026Y-42603789D01*
X86005798Y-42600015D01*
X86002845Y-42583843D01*
X85947805Y-42282473D01*
X85947804Y-42282469D01*
X85947125Y-42278751D01*
X85850282Y-41966863D01*
X85716670Y-41668869D01*
X85548226Y-41389084D01*
X85545899Y-41386100D01*
X85545894Y-41386093D01*
X85349726Y-41134558D01*
X85349724Y-41134556D01*
X85347390Y-41131563D01*
X85344716Y-41128875D01*
X85344709Y-41128867D01*
X85324807Y-41108861D01*
X85290946Y-41046460D01*
X85296196Y-40975657D01*
X85338892Y-40918934D01*
X85405478Y-40894298D01*
X85414136Y-40894000D01*
X92682277Y-40894000D01*
X92750398Y-40914002D01*
G37*
G04 #@! TD.AperFunction*
G04 #@! TA.AperFunction,Conductor*
G36*
X111836121Y-45616002D02*
G01*
X111882614Y-45669658D01*
X111894000Y-45722000D01*
X111894000Y-45978000D01*
X111873998Y-46046121D01*
X111820342Y-46092614D01*
X111768000Y-46104000D01*
X105512000Y-46104000D01*
X105443879Y-46083998D01*
X105397386Y-46030342D01*
X105386000Y-45978000D01*
X105386000Y-45722000D01*
X105406002Y-45653879D01*
X105459658Y-45607386D01*
X105512000Y-45596000D01*
X111768000Y-45596000D01*
X111836121Y-45616002D01*
G37*
G04 #@! TD.AperFunction*
G04 #@! TA.AperFunction,Conductor*
G36*
X110228121Y-41904942D02*
G01*
X110274614Y-41958598D01*
X110286000Y-42010940D01*
X110286000Y-42205500D01*
X110265998Y-42273621D01*
X110212342Y-42320114D01*
X110160000Y-42331500D01*
X106808513Y-42331500D01*
X106778090Y-42322567D01*
X106777559Y-42325007D01*
X106738452Y-42316500D01*
X102746116Y-42316500D01*
X102730877Y-42320975D01*
X102729672Y-42322365D01*
X102728001Y-42330048D01*
X102728001Y-42352933D01*
X102728338Y-42359452D01*
X102738166Y-42454170D01*
X102741058Y-42467564D01*
X102792036Y-42620365D01*
X102798210Y-42633543D01*
X102882744Y-42770149D01*
X102891780Y-42781550D01*
X103005479Y-42895051D01*
X103012751Y-42900794D01*
X103053814Y-42958711D01*
X103057046Y-43029634D01*
X103021421Y-43091046D01*
X103014746Y-43096840D01*
X103009311Y-43100203D01*
X102885383Y-43224347D01*
X102881543Y-43230577D01*
X102881542Y-43230578D01*
X102842377Y-43294116D01*
X102789605Y-43341609D01*
X102735117Y-43354000D01*
X101384003Y-43354000D01*
X101367556Y-43352922D01*
X101345688Y-43350043D01*
X101337500Y-43348965D01*
X101185176Y-43369019D01*
X101043233Y-43427814D01*
X100951946Y-43497860D01*
X100951943Y-43497863D01*
X100921343Y-43521343D01*
X100902881Y-43545403D01*
X100892026Y-43557781D01*
X100540006Y-43909801D01*
X100477697Y-43943824D01*
X100406882Y-43938760D01*
X100361819Y-43909799D01*
X100341115Y-43889095D01*
X100307089Y-43826783D01*
X100312154Y-43755968D01*
X100341115Y-43710905D01*
X100436639Y-43615381D01*
X100525472Y-43468699D01*
X100576753Y-43305062D01*
X100583500Y-43231635D01*
X100583499Y-42718366D01*
X100576753Y-42644938D01*
X100574085Y-42636424D01*
X100527744Y-42488550D01*
X100527743Y-42488548D01*
X100525472Y-42481301D01*
X100436639Y-42334619D01*
X100315381Y-42213361D01*
X100284790Y-42194835D01*
X100175199Y-42128464D01*
X100175196Y-42128463D01*
X100168699Y-42124528D01*
X100167273Y-42124081D01*
X100115393Y-42079514D01*
X100095099Y-42011479D01*
X100114810Y-41943274D01*
X100168266Y-41896551D01*
X100221098Y-41884940D01*
X110160000Y-41884940D01*
X110228121Y-41904942D01*
G37*
G04 #@! TD.AperFunction*
M02*
