G04 #@! TF.GenerationSoftware,KiCad,Pcbnew,(6.0.0)*
G04 #@! TF.CreationDate,2022-01-23T21:03:46+07:00*
G04 #@! TF.ProjectId,rgb-board,7267622d-626f-4617-9264-2e6b69636164,rev?*
G04 #@! TF.SameCoordinates,Original*
G04 #@! TF.FileFunction,Copper,L1,Top*
G04 #@! TF.FilePolarity,Positive*
%FSLAX46Y46*%
G04 Gerber Fmt 4.6, Leading zero omitted, Abs format (unit mm)*
G04 Created by KiCad (PCBNEW (6.0.0)) date 2022-01-23 21:03:46*
%MOMM*%
%LPD*%
G01*
G04 APERTURE LIST*
G04 Aperture macros list*
%AMRoundRect*
0 Rectangle with rounded corners*
0 $1 Rounding radius*
0 $2 $3 $4 $5 $6 $7 $8 $9 X,Y pos of 4 corners*
0 Add a 4 corners polygon primitive as box body*
4,1,4,$2,$3,$4,$5,$6,$7,$8,$9,$2,$3,0*
0 Add four circle primitives for the rounded corners*
1,1,$1+$1,$2,$3*
1,1,$1+$1,$4,$5*
1,1,$1+$1,$6,$7*
1,1,$1+$1,$8,$9*
0 Add four rect primitives between the rounded corners*
20,1,$1+$1,$2,$3,$4,$5,0*
20,1,$1+$1,$4,$5,$6,$7,0*
20,1,$1+$1,$6,$7,$8,$9,0*
20,1,$1+$1,$8,$9,$2,$3,0*%
%AMOutline4P*
0 Free polygon, 4 corners , with rotation*
0 The origin of the aperture is its center*
0 number of corners: always 4*
0 $1 to $8 corner X, Y*
0 $9 Rotation angle, in degrees counterclockwise*
0 create outline with 4 corners*
4,1,4,$1,$2,$3,$4,$5,$6,$7,$8,$1,$2,$9*%
G04 Aperture macros list end*
G04 #@! TA.AperFunction,SMDPad,CuDef*
%ADD10R,0.570000X0.940000*%
G04 #@! TD*
G04 #@! TA.AperFunction,SMDPad,CuDef*
%ADD11RoundRect,0.218750X0.256250X-0.218750X0.256250X0.218750X-0.256250X0.218750X-0.256250X-0.218750X0*%
G04 #@! TD*
G04 #@! TA.AperFunction,SMDPad,CuDef*
%ADD12R,0.500000X0.800000*%
G04 #@! TD*
G04 #@! TA.AperFunction,SMDPad,CuDef*
%ADD13R,0.400000X0.800000*%
G04 #@! TD*
G04 #@! TA.AperFunction,ComponentPad*
%ADD14R,0.850000X0.850000*%
G04 #@! TD*
G04 #@! TA.AperFunction,ComponentPad*
%ADD15O,0.850000X0.850000*%
G04 #@! TD*
G04 #@! TA.AperFunction,SMDPad,CuDef*
%ADD16R,1.500000X2.000000*%
G04 #@! TD*
G04 #@! TA.AperFunction,SMDPad,CuDef*
%ADD17R,3.800000X2.000000*%
G04 #@! TD*
G04 #@! TA.AperFunction,ComponentPad*
%ADD18C,4.400000*%
G04 #@! TD*
G04 #@! TA.AperFunction,SMDPad,CuDef*
%ADD19RoundRect,0.100000X-0.300000X0.000000X0.300000X0.000000X0.300000X0.000000X-0.300000X0.000000X0*%
G04 #@! TD*
G04 #@! TA.AperFunction,SMDPad,CuDef*
%ADD20Outline4P,-0.400000X-0.100000X0.400000X-0.100000X0.400000X0.100000X-0.400000X0.100000X0.000000*%
G04 #@! TD*
G04 #@! TA.AperFunction,SMDPad,CuDef*
%ADD21Outline4P,-0.400000X-0.100000X0.400000X-0.100000X0.400000X0.100000X-0.400000X0.100000X270.000000*%
G04 #@! TD*
G04 #@! TA.AperFunction,SMDPad,CuDef*
%ADD22Outline4P,-0.400000X-0.100000X0.400000X-0.100000X0.400000X0.100000X-0.400000X0.100000X90.000000*%
G04 #@! TD*
G04 #@! TA.AperFunction,ComponentPad*
%ADD23C,0.600000*%
G04 #@! TD*
G04 #@! TA.AperFunction,SMDPad,CuDef*
%ADD24R,5.400000X5.400000*%
G04 #@! TD*
G04 #@! TA.AperFunction,ViaPad*
%ADD25C,0.450000*%
G04 #@! TD*
G04 #@! TA.AperFunction,Conductor*
%ADD26C,0.150000*%
G04 #@! TD*
G04 APERTURE END LIST*
D10*
X113850000Y-66973000D03*
X114750000Y-66973000D03*
X114750000Y-68663000D03*
X113850000Y-68663000D03*
X113850000Y-70529000D03*
X114750000Y-70529000D03*
X114750000Y-72219000D03*
X113850000Y-72219000D03*
X113850000Y-74085000D03*
X114750000Y-74085000D03*
X114750000Y-75775000D03*
X113850000Y-75775000D03*
X113850000Y-77641000D03*
X114750000Y-77641000D03*
X114750000Y-79331000D03*
X113850000Y-79331000D03*
X113850000Y-81197000D03*
X114750000Y-81197000D03*
X114750000Y-82887000D03*
X113850000Y-82887000D03*
X113850000Y-84753000D03*
X114750000Y-84753000D03*
X114750000Y-86443000D03*
X113850000Y-86443000D03*
X113850000Y-88309000D03*
X114750000Y-88309000D03*
X114750000Y-89999000D03*
X113850000Y-89999000D03*
X113850000Y-91865000D03*
X114750000Y-91865000D03*
X114750000Y-93555000D03*
X113850000Y-93555000D03*
X113850000Y-95421000D03*
X114750000Y-95421000D03*
X114750000Y-97111000D03*
X113850000Y-97111000D03*
X111310000Y-66973000D03*
X112210000Y-66973000D03*
X112210000Y-68663000D03*
X111310000Y-68663000D03*
X111310000Y-70529000D03*
X112210000Y-70529000D03*
X112210000Y-72219000D03*
X111310000Y-72219000D03*
X111310000Y-74085000D03*
X112210000Y-74085000D03*
X112210000Y-75775000D03*
X111310000Y-75775000D03*
X111310000Y-77641000D03*
X112210000Y-77641000D03*
X112210000Y-79331000D03*
X111310000Y-79331000D03*
X111310000Y-81197000D03*
X112210000Y-81197000D03*
X112210000Y-82887000D03*
X111310000Y-82887000D03*
X111310000Y-84753000D03*
X112210000Y-84753000D03*
X112210000Y-86443000D03*
X111310000Y-86443000D03*
X111310000Y-88309000D03*
X112210000Y-88309000D03*
X112210000Y-89999000D03*
X111310000Y-89999000D03*
X111310000Y-91865000D03*
X112210000Y-91865000D03*
X112210000Y-93555000D03*
X111310000Y-93555000D03*
X111310000Y-95421000D03*
X112210000Y-95421000D03*
X112210000Y-97111000D03*
X111310000Y-97111000D03*
X108770000Y-66973000D03*
X109670000Y-66973000D03*
X109670000Y-68663000D03*
X108770000Y-68663000D03*
X108770000Y-70529000D03*
X109670000Y-70529000D03*
X109670000Y-72219000D03*
X108770000Y-72219000D03*
X108770000Y-74085000D03*
X109670000Y-74085000D03*
X109670000Y-75775000D03*
X108770000Y-75775000D03*
X108770000Y-77641000D03*
X109670000Y-77641000D03*
X109670000Y-79331000D03*
X108770000Y-79331000D03*
X108770000Y-81197000D03*
X109670000Y-81197000D03*
X109670000Y-82887000D03*
X108770000Y-82887000D03*
X108770000Y-84753000D03*
X109670000Y-84753000D03*
X109670000Y-86443000D03*
X108770000Y-86443000D03*
X108770000Y-88309000D03*
X109670000Y-88309000D03*
X109670000Y-89999000D03*
X108770000Y-89999000D03*
X108770000Y-91865000D03*
X109670000Y-91865000D03*
X109670000Y-93555000D03*
X108770000Y-93555000D03*
X108770000Y-95421000D03*
X109670000Y-95421000D03*
X109670000Y-97111000D03*
X108770000Y-97111000D03*
X106230000Y-66973000D03*
X107130000Y-66973000D03*
X107130000Y-68663000D03*
X106230000Y-68663000D03*
X106230000Y-70529000D03*
X107130000Y-70529000D03*
X107130000Y-72219000D03*
X106230000Y-72219000D03*
X106230000Y-74085000D03*
X107130000Y-74085000D03*
X107130000Y-75775000D03*
X106230000Y-75775000D03*
X106230000Y-77641000D03*
X107130000Y-77641000D03*
X107130000Y-79331000D03*
X106230000Y-79331000D03*
X106230000Y-81197000D03*
X107130000Y-81197000D03*
X107130000Y-82887000D03*
X106230000Y-82887000D03*
X106230000Y-84753000D03*
X107130000Y-84753000D03*
X107130000Y-86443000D03*
X106230000Y-86443000D03*
X106230000Y-88309000D03*
X107130000Y-88309000D03*
X107130000Y-89999000D03*
X106230000Y-89999000D03*
X106230000Y-91865000D03*
X107130000Y-91865000D03*
X107130000Y-93555000D03*
X106230000Y-93555000D03*
X106230000Y-95421000D03*
X107130000Y-95421000D03*
X107130000Y-97111000D03*
X106230000Y-97111000D03*
X103690000Y-66973000D03*
X104590000Y-66973000D03*
X104590000Y-68663000D03*
X103690000Y-68663000D03*
X103690000Y-70529000D03*
X104590000Y-70529000D03*
X104590000Y-72219000D03*
X103690000Y-72219000D03*
X103690000Y-74085000D03*
X104590000Y-74085000D03*
X104590000Y-75775000D03*
X103690000Y-75775000D03*
X103690000Y-77641000D03*
X104590000Y-77641000D03*
X104590000Y-79331000D03*
X103690000Y-79331000D03*
X103690000Y-81197000D03*
X104590000Y-81197000D03*
X104590000Y-82887000D03*
X103690000Y-82887000D03*
X103690000Y-84753000D03*
X104590000Y-84753000D03*
X104590000Y-86443000D03*
X103690000Y-86443000D03*
X103690000Y-88309000D03*
X104590000Y-88309000D03*
X104590000Y-89999000D03*
X103690000Y-89999000D03*
X103690000Y-91865000D03*
X104590000Y-91865000D03*
X104590000Y-93555000D03*
X103690000Y-93555000D03*
X103690000Y-95421000D03*
X104590000Y-95421000D03*
X104590000Y-97111000D03*
X103690000Y-97111000D03*
X101150000Y-66973000D03*
X102050000Y-66973000D03*
X102050000Y-68663000D03*
X101150000Y-68663000D03*
X101150000Y-70529000D03*
X102050000Y-70529000D03*
X102050000Y-72219000D03*
X101150000Y-72219000D03*
X101150000Y-74085000D03*
X102050000Y-74085000D03*
X102050000Y-75775000D03*
X101150000Y-75775000D03*
X101150000Y-77641000D03*
X102050000Y-77641000D03*
X102050000Y-79331000D03*
X101150000Y-79331000D03*
X101150000Y-81197000D03*
X102050000Y-81197000D03*
X102050000Y-82887000D03*
X101150000Y-82887000D03*
X101150000Y-84753000D03*
X102050000Y-84753000D03*
X102050000Y-86443000D03*
X101150000Y-86443000D03*
X101150000Y-88309000D03*
X102050000Y-88309000D03*
X102050000Y-89999000D03*
X101150000Y-89999000D03*
X101150000Y-91865000D03*
X102050000Y-91865000D03*
X102050000Y-93555000D03*
X101150000Y-93555000D03*
X101150000Y-95421000D03*
X102050000Y-95421000D03*
X102050000Y-97111000D03*
X101150000Y-97111000D03*
X98610000Y-66973000D03*
X99510000Y-66973000D03*
X99510000Y-68663000D03*
X98610000Y-68663000D03*
X98610000Y-70529000D03*
X99510000Y-70529000D03*
X99510000Y-72219000D03*
X98610000Y-72219000D03*
X98610000Y-74085000D03*
X99510000Y-74085000D03*
X99510000Y-75775000D03*
X98610000Y-75775000D03*
X98610000Y-77641000D03*
X99510000Y-77641000D03*
X99510000Y-79331000D03*
X98610000Y-79331000D03*
X98610000Y-81197000D03*
X99510000Y-81197000D03*
X99510000Y-82887000D03*
X98610000Y-82887000D03*
X98610000Y-84753000D03*
X99510000Y-84753000D03*
X99510000Y-86443000D03*
X98610000Y-86443000D03*
X98610000Y-88309000D03*
X99510000Y-88309000D03*
X99510000Y-89999000D03*
X98610000Y-89999000D03*
X98610000Y-91865000D03*
X99510000Y-91865000D03*
X99510000Y-93555000D03*
X98610000Y-93555000D03*
X98610000Y-95421000D03*
X99510000Y-95421000D03*
X99510000Y-97111000D03*
X98610000Y-97111000D03*
X96070000Y-66973000D03*
X96970000Y-66973000D03*
X96970000Y-68663000D03*
X96070000Y-68663000D03*
X96070000Y-70529000D03*
X96970000Y-70529000D03*
X96970000Y-72219000D03*
X96070000Y-72219000D03*
X96070000Y-74085000D03*
X96970000Y-74085000D03*
X96970000Y-75775000D03*
X96070000Y-75775000D03*
X96070000Y-77641000D03*
X96970000Y-77641000D03*
X96970000Y-79331000D03*
X96070000Y-79331000D03*
X96070000Y-81197000D03*
X96970000Y-81197000D03*
X96970000Y-82887000D03*
X96070000Y-82887000D03*
X96070000Y-84753000D03*
X96970000Y-84753000D03*
X96970000Y-86443000D03*
X96070000Y-86443000D03*
X96070000Y-88309000D03*
X96970000Y-88309000D03*
X96970000Y-89999000D03*
X96070000Y-89999000D03*
X96070000Y-91865000D03*
X96970000Y-91865000D03*
X96970000Y-93555000D03*
X96070000Y-93555000D03*
X96070000Y-95421000D03*
X96970000Y-95421000D03*
X96970000Y-97111000D03*
X96070000Y-97111000D03*
X93530000Y-66973000D03*
X94430000Y-66973000D03*
X94430000Y-68663000D03*
X93530000Y-68663000D03*
X93530000Y-70529000D03*
X94430000Y-70529000D03*
X94430000Y-72219000D03*
X93530000Y-72219000D03*
X93530000Y-74085000D03*
X94430000Y-74085000D03*
X94430000Y-75775000D03*
X93530000Y-75775000D03*
X93530000Y-77641000D03*
X94430000Y-77641000D03*
X94430000Y-79331000D03*
X93530000Y-79331000D03*
X93530000Y-81197000D03*
X94430000Y-81197000D03*
X94430000Y-82887000D03*
X93530000Y-82887000D03*
X93530000Y-84753000D03*
X94430000Y-84753000D03*
X94430000Y-86443000D03*
X93530000Y-86443000D03*
X93530000Y-88309000D03*
X94430000Y-88309000D03*
X94430000Y-89999000D03*
X93530000Y-89999000D03*
X93530000Y-91865000D03*
X94430000Y-91865000D03*
X94430000Y-93555000D03*
X93530000Y-93555000D03*
X93530000Y-95421000D03*
X94430000Y-95421000D03*
X94430000Y-97111000D03*
X93530000Y-97111000D03*
X90990000Y-66973000D03*
X91890000Y-66973000D03*
X91890000Y-68663000D03*
X90990000Y-68663000D03*
X90990000Y-70529000D03*
X91890000Y-70529000D03*
X91890000Y-72219000D03*
X90990000Y-72219000D03*
X90990000Y-74085000D03*
X91890000Y-74085000D03*
X91890000Y-75775000D03*
X90990000Y-75775000D03*
X90990000Y-77641000D03*
X91890000Y-77641000D03*
X91890000Y-79331000D03*
X90990000Y-79331000D03*
X90990000Y-81197000D03*
X91890000Y-81197000D03*
X91890000Y-82887000D03*
X90990000Y-82887000D03*
X90990000Y-84753000D03*
X91890000Y-84753000D03*
X91890000Y-86443000D03*
X90990000Y-86443000D03*
X90990000Y-88309000D03*
X91890000Y-88309000D03*
X91890000Y-89999000D03*
X90990000Y-89999000D03*
X90990000Y-91865000D03*
X91890000Y-91865000D03*
X91890000Y-93555000D03*
X90990000Y-93555000D03*
X90990000Y-95421000D03*
X91890000Y-95421000D03*
X91890000Y-97111000D03*
X90990000Y-97111000D03*
X88450000Y-66973000D03*
X89350000Y-66973000D03*
X89350000Y-68663000D03*
X88450000Y-68663000D03*
X88450000Y-70529000D03*
X89350000Y-70529000D03*
X89350000Y-72219000D03*
X88450000Y-72219000D03*
X88450000Y-74085000D03*
X89350000Y-74085000D03*
X89350000Y-75775000D03*
X88450000Y-75775000D03*
X88450000Y-77641000D03*
X89350000Y-77641000D03*
X89350000Y-79331000D03*
X88450000Y-79331000D03*
X88450000Y-81197000D03*
X89350000Y-81197000D03*
X89350000Y-82887000D03*
X88450000Y-82887000D03*
X88450000Y-84753000D03*
X89350000Y-84753000D03*
X89350000Y-86443000D03*
X88450000Y-86443000D03*
X88450000Y-88309000D03*
X89350000Y-88309000D03*
X89350000Y-89999000D03*
X88450000Y-89999000D03*
X88450000Y-91865000D03*
X89350000Y-91865000D03*
X89350000Y-93555000D03*
X88450000Y-93555000D03*
X88450000Y-95421000D03*
X89350000Y-95421000D03*
X89350000Y-97111000D03*
X88450000Y-97111000D03*
X85910000Y-66973000D03*
X86810000Y-66973000D03*
X86810000Y-68663000D03*
X85910000Y-68663000D03*
X85910000Y-70529000D03*
X86810000Y-70529000D03*
X86810000Y-72219000D03*
X85910000Y-72219000D03*
X85910000Y-74085000D03*
X86810000Y-74085000D03*
X86810000Y-75775000D03*
X85910000Y-75775000D03*
X85910000Y-77641000D03*
X86810000Y-77641000D03*
X86810000Y-79331000D03*
X85910000Y-79331000D03*
X85910000Y-81197000D03*
X86810000Y-81197000D03*
X86810000Y-82887000D03*
X85910000Y-82887000D03*
X85910000Y-84753000D03*
X86810000Y-84753000D03*
X86810000Y-86443000D03*
X85910000Y-86443000D03*
X85910000Y-88309000D03*
X86810000Y-88309000D03*
X86810000Y-89999000D03*
X85910000Y-89999000D03*
X85910000Y-91865000D03*
X86810000Y-91865000D03*
X86810000Y-93555000D03*
X85910000Y-93555000D03*
X85910000Y-95421000D03*
X86810000Y-95421000D03*
X86810000Y-97111000D03*
X85910000Y-97111000D03*
X83370000Y-66973000D03*
X84270000Y-66973000D03*
X84270000Y-68663000D03*
X83370000Y-68663000D03*
X83370000Y-70529000D03*
X84270000Y-70529000D03*
X84270000Y-72219000D03*
X83370000Y-72219000D03*
X83370000Y-74085000D03*
X84270000Y-74085000D03*
X84270000Y-75775000D03*
X83370000Y-75775000D03*
X83370000Y-77641000D03*
X84270000Y-77641000D03*
X84270000Y-79331000D03*
X83370000Y-79331000D03*
X83370000Y-81197000D03*
X84270000Y-81197000D03*
X84270000Y-82887000D03*
X83370000Y-82887000D03*
X83370000Y-84753000D03*
X84270000Y-84753000D03*
X84270000Y-86443000D03*
X83370000Y-86443000D03*
X83370000Y-88309000D03*
X84270000Y-88309000D03*
X84270000Y-89999000D03*
X83370000Y-89999000D03*
X83370000Y-91865000D03*
X84270000Y-91865000D03*
X84270000Y-93555000D03*
X83370000Y-93555000D03*
X83370000Y-95421000D03*
X84270000Y-95421000D03*
X84270000Y-97111000D03*
X83370000Y-97111000D03*
D11*
X114046000Y-60452000D03*
X114046000Y-58877000D03*
X108966000Y-60477500D03*
X108966000Y-58902500D03*
X106934000Y-60477500D03*
X106934000Y-58902500D03*
X101854000Y-60477500D03*
X101854000Y-58902500D03*
X98806000Y-60477500D03*
X98806000Y-58902500D03*
X96774000Y-60477500D03*
X96774000Y-58902500D03*
X93726000Y-60477500D03*
X93726000Y-58902500D03*
X91720000Y-60477500D03*
X91720000Y-58902500D03*
X88646000Y-60477500D03*
X88646000Y-58902500D03*
X86614000Y-60477500D03*
X86614000Y-58902500D03*
X83820000Y-60452000D03*
X83820000Y-58877000D03*
X84582000Y-64187500D03*
X84582000Y-62612500D03*
D12*
X109150000Y-62500000D03*
D13*
X108350000Y-62500000D03*
X107550000Y-62500000D03*
D12*
X106750000Y-62500000D03*
X106750000Y-64300000D03*
D13*
X107550000Y-64300000D03*
X108350000Y-64300000D03*
D12*
X109150000Y-64300000D03*
X104000000Y-62500000D03*
D13*
X103200000Y-62500000D03*
X102400000Y-62500000D03*
D12*
X101600000Y-62500000D03*
X101600000Y-64300000D03*
D13*
X102400000Y-64300000D03*
X103200000Y-64300000D03*
D12*
X104000000Y-64300000D03*
X98990000Y-62500000D03*
D13*
X98190000Y-62500000D03*
X97390000Y-62500000D03*
D12*
X96590000Y-62500000D03*
X96590000Y-64300000D03*
D13*
X97390000Y-64300000D03*
X98190000Y-64300000D03*
D12*
X98990000Y-64300000D03*
X93910000Y-62500000D03*
D13*
X93110000Y-62500000D03*
X92310000Y-62500000D03*
D12*
X91510000Y-62500000D03*
X91510000Y-64300000D03*
D13*
X92310000Y-64300000D03*
X93110000Y-64300000D03*
D12*
X93910000Y-64300000D03*
X88800000Y-62500000D03*
D13*
X88000000Y-62500000D03*
X87200000Y-62500000D03*
D12*
X86400000Y-62500000D03*
X86400000Y-64300000D03*
D13*
X87200000Y-64300000D03*
X88000000Y-64300000D03*
D12*
X88800000Y-64300000D03*
D11*
X103886000Y-60477500D03*
X103886000Y-58902500D03*
D12*
X114200000Y-62500000D03*
D13*
X113400000Y-62500000D03*
X112600000Y-62500000D03*
D12*
X111800000Y-62500000D03*
X111800000Y-64300000D03*
D13*
X112600000Y-64300000D03*
X113400000Y-64300000D03*
D12*
X114200000Y-64300000D03*
D11*
X112014000Y-60452000D03*
X112014000Y-58877000D03*
X83058000Y-64187500D03*
X83058000Y-62612500D03*
D14*
X82042000Y-53276000D03*
D15*
X82042000Y-52276000D03*
X82042000Y-51276000D03*
X82042000Y-50276000D03*
X82042000Y-49276000D03*
X82042000Y-48276000D03*
D16*
X106300000Y-52750000D03*
X108600000Y-52750000D03*
D17*
X108600000Y-46450000D03*
D16*
X110900000Y-52750000D03*
D18*
X83312000Y-42926000D03*
X114808000Y-42926000D03*
D14*
X116078000Y-53340000D03*
D15*
X116078000Y-52340000D03*
X116078000Y-51340000D03*
X116078000Y-50340000D03*
X116078000Y-49340000D03*
X116078000Y-48340000D03*
D19*
X90950000Y-48000000D03*
D20*
X90950000Y-48400000D03*
X90950000Y-48800000D03*
X90950000Y-49200000D03*
X90950000Y-49600000D03*
X90950000Y-50000000D03*
X90950000Y-50400000D03*
X90950000Y-50800000D03*
X90950000Y-51200000D03*
X90950000Y-51600000D03*
X90950000Y-52000000D03*
X90950000Y-52400000D03*
X90950000Y-52800000D03*
X90950000Y-53200000D03*
X90950000Y-53600000D03*
D21*
X91600000Y-54250000D03*
D22*
X92000000Y-54250000D03*
X92400000Y-54250000D03*
X92800000Y-54250000D03*
X93200000Y-54250000D03*
X93600000Y-54250000D03*
X94000000Y-54250000D03*
X94400000Y-54250000D03*
X94800000Y-54250000D03*
X95200000Y-54250000D03*
X95600000Y-54250000D03*
X96000000Y-54250000D03*
X96400000Y-54250000D03*
X96800000Y-54250000D03*
X97200000Y-54250000D03*
D20*
X97850000Y-53600000D03*
X97850000Y-53200000D03*
X97850000Y-52800000D03*
X97850000Y-52400000D03*
X97850000Y-52000000D03*
X97850000Y-51600000D03*
X97850000Y-51200000D03*
X97850000Y-50800000D03*
X97850000Y-50400000D03*
X97850000Y-50000000D03*
X97850000Y-49600000D03*
X97850000Y-49200000D03*
X97850000Y-48800000D03*
X97850000Y-48400000D03*
X97850000Y-48000000D03*
D22*
X97200000Y-47350000D03*
X96800000Y-47350000D03*
X96400000Y-47350000D03*
X96000000Y-47350000D03*
X95600000Y-47350000D03*
X95200000Y-47350000D03*
X94800000Y-47350000D03*
X94400000Y-47350000D03*
X94000000Y-47350000D03*
X93600000Y-47350000D03*
X93200000Y-47350000D03*
X92800000Y-47350000D03*
X92400000Y-47350000D03*
X92000000Y-47350000D03*
X91600000Y-47350000D03*
D23*
X93400000Y-48800000D03*
X92400000Y-51800000D03*
X95400000Y-48800000D03*
X96400000Y-49800000D03*
X92400000Y-50800000D03*
X95400000Y-52800000D03*
X94400000Y-52800000D03*
X93400000Y-49800000D03*
X95400000Y-51800000D03*
X94400000Y-50800000D03*
X96400000Y-52800000D03*
X94400000Y-51800000D03*
X95400000Y-50800000D03*
X93400000Y-51800000D03*
X92400000Y-49800000D03*
X96400000Y-51800000D03*
X94400000Y-48800000D03*
X94400000Y-49800000D03*
X93400000Y-50800000D03*
X96400000Y-50800000D03*
X92400000Y-48800000D03*
D24*
X94400000Y-50800000D03*
D23*
X95400000Y-49800000D03*
X92400000Y-52800000D03*
X93400000Y-52800000D03*
X96400000Y-48800000D03*
D25*
X83600000Y-49000000D03*
X110900000Y-52750000D03*
X95600000Y-55600000D03*
X90400000Y-54800000D03*
X112600000Y-49600000D03*
X94800000Y-42975000D03*
X89400000Y-53000000D03*
X111000000Y-49250000D03*
X83600000Y-48200000D03*
X99600000Y-42975000D03*
X89400000Y-50600000D03*
X89400000Y-51400000D03*
X98000000Y-42975000D03*
X96400000Y-42975000D03*
X89400000Y-52200000D03*
X87600000Y-42800000D03*
X105600000Y-45800000D03*
X115200000Y-46800000D03*
X114200000Y-55800000D03*
X106400000Y-52800000D03*
X82200000Y-57400000D03*
X104000000Y-42000000D03*
X111800000Y-46000000D03*
X113800000Y-51000000D03*
X114400000Y-48000000D03*
X104600000Y-49800000D03*
X110032000Y-42077500D03*
X94800000Y-44600000D03*
X113856000Y-82867500D03*
X113856000Y-75755500D03*
X113856000Y-93599000D03*
X113400000Y-63400000D03*
X113856000Y-89979500D03*
X113856000Y-68707000D03*
X113850000Y-97111000D03*
X113856000Y-72199500D03*
X113856000Y-79311500D03*
X113856000Y-86423500D03*
X114046000Y-58877000D03*
X107400000Y-54400000D03*
X114744000Y-89979500D03*
X114744000Y-79311500D03*
X114744000Y-82867500D03*
X114744000Y-75755500D03*
X114744000Y-86423500D03*
X114744000Y-72199500D03*
X114744000Y-68707000D03*
X114230000Y-63400000D03*
X114744000Y-93599000D03*
X114750000Y-97111000D03*
X114750000Y-77641000D03*
X114744000Y-66992500D03*
X114750000Y-81197000D03*
X114750000Y-91865000D03*
X114750000Y-84753000D03*
X114046000Y-60452000D03*
X114750000Y-88309000D03*
X114750000Y-70529000D03*
X114750000Y-74085000D03*
X114750000Y-95421000D03*
X114200000Y-61800000D03*
X106600000Y-54400000D03*
X113400000Y-61800000D03*
X105800000Y-54400000D03*
X105000000Y-54400000D03*
X112600000Y-61800000D03*
X104200000Y-54400000D03*
X111800000Y-61800000D03*
X113000000Y-58800000D03*
X104400000Y-53400000D03*
X103600000Y-53400000D03*
X108966000Y-58902500D03*
X109200000Y-61800000D03*
X102800000Y-53400000D03*
X111316000Y-82867500D03*
X111316000Y-75755500D03*
X111316000Y-86423500D03*
X111316000Y-72199500D03*
X111310000Y-97111000D03*
X111316000Y-68707000D03*
X111316000Y-79311500D03*
X111800000Y-63400000D03*
X111316000Y-93599000D03*
X111316000Y-89979500D03*
X112204000Y-89979500D03*
X112204000Y-93599000D03*
X112204000Y-75755500D03*
X112600000Y-63400000D03*
X112204000Y-79311500D03*
X112204000Y-68707000D03*
X112204000Y-82867500D03*
X112204000Y-86423500D03*
X112210000Y-97111000D03*
X112204000Y-72199500D03*
X112210000Y-88309000D03*
X112600000Y-65800000D03*
X112210000Y-91865000D03*
X112210000Y-81197000D03*
X112210000Y-74085000D03*
X112210000Y-95421000D03*
X112210000Y-70529000D03*
X112210000Y-77641000D03*
X112210000Y-84753000D03*
X112204000Y-66992500D03*
X108776000Y-89979500D03*
X108776000Y-68707000D03*
X108776000Y-72199500D03*
X108776000Y-93599000D03*
X108776000Y-86423500D03*
X108776000Y-82867500D03*
X108350000Y-63400000D03*
X108776000Y-75755500D03*
X108776000Y-79311500D03*
X108770000Y-97111000D03*
X109670000Y-97111000D03*
X109664000Y-93599000D03*
X109664000Y-79311500D03*
X109664000Y-89979500D03*
X109664000Y-82867500D03*
X109664000Y-72199500D03*
X109664000Y-75755500D03*
X109664000Y-68707000D03*
X109150000Y-63400000D03*
X109664000Y-86423500D03*
X109670000Y-81197000D03*
X108966000Y-60477500D03*
X109670000Y-77641000D03*
X109670000Y-84753000D03*
X109664000Y-66992500D03*
X109670000Y-91865000D03*
X109670000Y-74085000D03*
X109670000Y-70529000D03*
X109670000Y-88309000D03*
X109670000Y-95421000D03*
X106236000Y-68707000D03*
X106750000Y-63400000D03*
X106236000Y-75755500D03*
X106236000Y-86423500D03*
X106236000Y-79311500D03*
X106236000Y-89979500D03*
X106236000Y-82867500D03*
X106236000Y-93599000D03*
X106230000Y-97111000D03*
X106236000Y-72199500D03*
X107124000Y-72199500D03*
X107124000Y-79311500D03*
X107124000Y-75755500D03*
X107124000Y-86423500D03*
X107124000Y-82867500D03*
X107130000Y-97111000D03*
X107124000Y-89979500D03*
X107124000Y-68707000D03*
X107124000Y-93599000D03*
X107550000Y-63400000D03*
X107130000Y-95421000D03*
X107130000Y-91865000D03*
X107130000Y-70529000D03*
X107130000Y-84753000D03*
X107130000Y-88309000D03*
X107200000Y-65200000D03*
X107130000Y-77641000D03*
X107130000Y-74085000D03*
X107130000Y-81197000D03*
X107124000Y-66992500D03*
X103696000Y-79311500D03*
X103696000Y-82867500D03*
X103696000Y-89979500D03*
X103696000Y-68707000D03*
X103696000Y-72199500D03*
X103696000Y-93599000D03*
X103200000Y-63400000D03*
X103696000Y-75755500D03*
X103696000Y-86423500D03*
X103690000Y-97111000D03*
X104584000Y-82867500D03*
X104584000Y-75755500D03*
X104584000Y-79311500D03*
X104584000Y-86423500D03*
X104000000Y-63400000D03*
X104584000Y-72199500D03*
X104584000Y-68707000D03*
X104584000Y-93599000D03*
X104584000Y-89979500D03*
X104590000Y-97111000D03*
X104590000Y-77641000D03*
X104590000Y-91865000D03*
X104584000Y-66992500D03*
X104590000Y-95421000D03*
X104590000Y-84753000D03*
X104590000Y-88309000D03*
X104590000Y-70529000D03*
X103886000Y-60477500D03*
X104590000Y-81197000D03*
X104590000Y-74085000D03*
X101156000Y-82867500D03*
X101150000Y-97111000D03*
X101156000Y-79311500D03*
X101156000Y-68707000D03*
X101156000Y-86423500D03*
X101156000Y-89979500D03*
X101156000Y-72199500D03*
X101156000Y-75755500D03*
X101156000Y-93599000D03*
X101600000Y-63400000D03*
X102044000Y-68707000D03*
X102044000Y-93599000D03*
X102044000Y-86423500D03*
X102044000Y-89979500D03*
X102044000Y-79311500D03*
X102044000Y-72199500D03*
X102400000Y-63400000D03*
X102044000Y-75755500D03*
X102050000Y-97111000D03*
X102044000Y-82867500D03*
X102050000Y-91865000D03*
X102050000Y-84753000D03*
X102050000Y-77641000D03*
X102050000Y-74085000D03*
X102050000Y-95421000D03*
X102050000Y-88309000D03*
X102000000Y-65200000D03*
X102050000Y-81197000D03*
X102050000Y-70529000D03*
X102044000Y-66992500D03*
X98615500Y-72199500D03*
X98615500Y-68707000D03*
X98190000Y-63400000D03*
X98615500Y-86423500D03*
X98615500Y-89979500D03*
X98615500Y-93599000D03*
X98610000Y-97111000D03*
X98615500Y-82867500D03*
X98615500Y-75755500D03*
X98615500Y-79311500D03*
X99504500Y-75755500D03*
X99504500Y-68707000D03*
X99504500Y-82867500D03*
X99504500Y-79311500D03*
X99504500Y-72199500D03*
X99504500Y-93599000D03*
X99504500Y-86423500D03*
X99504500Y-89979500D03*
X99510000Y-97111000D03*
X99000000Y-63400000D03*
X99510000Y-77641000D03*
X98806000Y-60477500D03*
X99510000Y-88309000D03*
X99510000Y-84753000D03*
X99504500Y-66992500D03*
X99510000Y-70529000D03*
X99510000Y-91865000D03*
X99510000Y-95421000D03*
X99510000Y-81197000D03*
X99510000Y-74085000D03*
X96590000Y-63400000D03*
X96075500Y-72199500D03*
X96075500Y-89979500D03*
X96075500Y-82867500D03*
X96075500Y-79311500D03*
X96070000Y-97111000D03*
X96075500Y-93599000D03*
X96075500Y-86423500D03*
X96075500Y-68707000D03*
X96075500Y-75755500D03*
X96970000Y-97111000D03*
X96964500Y-79311500D03*
X96964500Y-86423500D03*
X96964500Y-89979500D03*
X96964500Y-75755500D03*
X96964500Y-68707000D03*
X96964500Y-72199500D03*
X96964500Y-93599000D03*
X96964500Y-82867500D03*
X97390000Y-63400000D03*
X96970000Y-88309000D03*
X96970000Y-95421000D03*
X96970000Y-91865000D03*
X96970000Y-77641000D03*
X96964500Y-66992500D03*
X96970000Y-74085000D03*
X96970000Y-84753000D03*
X97000000Y-65200000D03*
X96970000Y-70529000D03*
X96970000Y-81197000D03*
X93535500Y-93599000D03*
X93535500Y-68707000D03*
X93530000Y-97111000D03*
X93535500Y-89979500D03*
X93535500Y-72199500D03*
X93535500Y-82867500D03*
X93535500Y-75755500D03*
X93110000Y-63400000D03*
X93535500Y-79311500D03*
X93535500Y-86423500D03*
X94424500Y-89979500D03*
X93910000Y-63400000D03*
X94424500Y-93599000D03*
X94424500Y-82867500D03*
X94424500Y-68707000D03*
X94430000Y-97111000D03*
X94424500Y-79311500D03*
X94424500Y-72199500D03*
X94424500Y-75755500D03*
X94424500Y-86423500D03*
X93726000Y-60477500D03*
X94430000Y-74085000D03*
X94430000Y-81197000D03*
X94430000Y-84753000D03*
X94424500Y-66992500D03*
X94430000Y-88309000D03*
X94430000Y-91865000D03*
X94430000Y-70529000D03*
X94430000Y-95421000D03*
X94430000Y-77641000D03*
X90995500Y-79311500D03*
X90995500Y-93599000D03*
X90995500Y-82867500D03*
X90995500Y-68707000D03*
X90995500Y-75755500D03*
X90995500Y-89979500D03*
X90990000Y-97111000D03*
X90995500Y-72199500D03*
X90995500Y-86423500D03*
X91510000Y-63400000D03*
X91884500Y-75755500D03*
X91884500Y-86423500D03*
X91884500Y-82867500D03*
X91884500Y-89979500D03*
X92310000Y-63400000D03*
X91884500Y-68707000D03*
X91884500Y-79311500D03*
X91884500Y-93599000D03*
X91884500Y-72199500D03*
X91890000Y-97111000D03*
X91890000Y-81197000D03*
X91890000Y-91865000D03*
X91890000Y-77641000D03*
X91800000Y-65200000D03*
X91890000Y-74085000D03*
X91890000Y-88309000D03*
X91890000Y-95421000D03*
X91884500Y-66992500D03*
X91890000Y-84753000D03*
X91890000Y-70529000D03*
X88455500Y-86423500D03*
X88455500Y-89979500D03*
X88455500Y-68707000D03*
X88455500Y-79311500D03*
X88450000Y-97111000D03*
X88455500Y-75755500D03*
X88455500Y-82867500D03*
X88000000Y-63400000D03*
X88455500Y-93599000D03*
X88455500Y-72199500D03*
X89344500Y-86423500D03*
X88830000Y-63400000D03*
X89344500Y-89979500D03*
X89344500Y-68707000D03*
X89344500Y-82867500D03*
X89344500Y-93599000D03*
X89344500Y-75755500D03*
X89344500Y-79311500D03*
X89344500Y-72199500D03*
X89350000Y-97111000D03*
X89344500Y-66992500D03*
X88646000Y-60477500D03*
X89350000Y-74085000D03*
X89350000Y-88309000D03*
X89350000Y-70529000D03*
X89350000Y-81197000D03*
X89350000Y-91865000D03*
X89350000Y-77641000D03*
X89350000Y-84753000D03*
X89350000Y-95421000D03*
X85915500Y-72199500D03*
X85915500Y-75755500D03*
X85915500Y-82867500D03*
X86400000Y-63400000D03*
X85915500Y-86423500D03*
X85915500Y-89979500D03*
X85910000Y-97111000D03*
X85915500Y-68707000D03*
X85915500Y-93535500D03*
X85915500Y-79311500D03*
X86804500Y-86423500D03*
X86804500Y-89979500D03*
X87200000Y-63400000D03*
X86804500Y-93535500D03*
X86810000Y-97111000D03*
X86804500Y-75755500D03*
X86804500Y-82867500D03*
X86804500Y-68707000D03*
X86804500Y-79311500D03*
X86804500Y-72199500D03*
X86800000Y-65200000D03*
X86804500Y-66992500D03*
X86810000Y-84753000D03*
X86810000Y-81197000D03*
X86810000Y-74085000D03*
X86810000Y-88309000D03*
X86810000Y-77641000D03*
X86810000Y-95421000D03*
X86810000Y-91865000D03*
X86810000Y-70529000D03*
X83058000Y-64200000D03*
X83375500Y-68707000D03*
X83370000Y-89999000D03*
X83370000Y-93555000D03*
X83370000Y-97111000D03*
X83370000Y-82887000D03*
X83370000Y-79331000D03*
X83370000Y-72219000D03*
X83370000Y-75775000D03*
X83370000Y-86443000D03*
X84270000Y-75775000D03*
X84270000Y-86443000D03*
X84270000Y-97111000D03*
X84270000Y-72219000D03*
X84270000Y-93555000D03*
X84270000Y-79331000D03*
X84270000Y-89999000D03*
X84582000Y-64200000D03*
X84264500Y-68707000D03*
X84270000Y-82887000D03*
X84270000Y-81197000D03*
X84270000Y-70529000D03*
X84270000Y-88309000D03*
X83820000Y-60452000D03*
X84270000Y-74085000D03*
X84270000Y-91865000D03*
X84270000Y-77641000D03*
X84270000Y-84753000D03*
X84264500Y-66992500D03*
X84270000Y-95421000D03*
X87800000Y-65200000D03*
X87926000Y-94726000D03*
X97800000Y-65800000D03*
X97946000Y-76946000D03*
X100000000Y-65800000D03*
X100590000Y-73390000D03*
X95000000Y-65800000D03*
X95498000Y-80502000D03*
X90386000Y-87614000D03*
X90200000Y-65800000D03*
X92600000Y-65800000D03*
X92858000Y-84058000D03*
X85200000Y-65800000D03*
X85230000Y-91170000D03*
X103034000Y-69834000D03*
X102600000Y-65800000D03*
X102800000Y-51000000D03*
X102000000Y-56800000D03*
X103200000Y-50400000D03*
X103800000Y-58800000D03*
X101400000Y-59600000D03*
X102800000Y-47400000D03*
X98806000Y-58902500D03*
X103200000Y-46800000D03*
X83600000Y-49800000D03*
X96600000Y-58800000D03*
X93600000Y-58800000D03*
X83600000Y-50600000D03*
X85600000Y-52000000D03*
X91720000Y-57720000D03*
X83600000Y-54600000D03*
X87400000Y-57800000D03*
X86000000Y-56600000D03*
X86600000Y-58800000D03*
X106800000Y-61800000D03*
X103200000Y-51600000D03*
X108400000Y-61800000D03*
X103200000Y-52800000D03*
X102800000Y-52200000D03*
X107600000Y-61800000D03*
X101600000Y-61800000D03*
X103200000Y-48000000D03*
X103200000Y-49200000D03*
X103200000Y-61800000D03*
X102400000Y-61800000D03*
X102800000Y-48600000D03*
X102800000Y-49800000D03*
X104000000Y-61800000D03*
X101800000Y-45000000D03*
X96600000Y-61800000D03*
X98200000Y-61800000D03*
X103200000Y-45600000D03*
X102600000Y-45000000D03*
X97400000Y-61800000D03*
X99000000Y-61800000D03*
X102800000Y-46200000D03*
X83600000Y-53800000D03*
X91400000Y-61800000D03*
X93000000Y-61800000D03*
X83600000Y-52200000D03*
X92200000Y-61800000D03*
X83600000Y-53000000D03*
X93800000Y-61800000D03*
X83600000Y-51400000D03*
X86400000Y-61800000D03*
X83600000Y-57800000D03*
X83600000Y-56200000D03*
X88000000Y-61800000D03*
X83600000Y-57000000D03*
X87200000Y-61800000D03*
X88800000Y-61800000D03*
X83600000Y-55400000D03*
X89600000Y-54600000D03*
D26*
X83400000Y-49000000D02*
X83600000Y-49000000D01*
X96200000Y-56200000D02*
X107450000Y-56200000D01*
X90950000Y-54250000D02*
X90400000Y-54800000D01*
X90950000Y-53600000D02*
X90950000Y-54250000D01*
X95200000Y-54250000D02*
X95200000Y-55200000D01*
X83000000Y-52318000D02*
X83000000Y-49400000D01*
X115488000Y-52750000D02*
X116078000Y-53340000D01*
X82042000Y-53259100D02*
X82042000Y-53276000D01*
X83000000Y-49400000D02*
X83400000Y-49000000D01*
X82042000Y-53276000D02*
X83000000Y-52318000D01*
X107450000Y-56200000D02*
X110900000Y-52750000D01*
X90950000Y-53200000D02*
X90950000Y-53600000D01*
X95600000Y-55600000D02*
X96200000Y-56200000D01*
X95200000Y-55200000D02*
X95600000Y-55600000D01*
X110900000Y-52750000D02*
X115488000Y-52750000D01*
X112000000Y-50200000D02*
X108600000Y-50200000D01*
X108600000Y-50200000D02*
X108600000Y-46450000D01*
X108600000Y-52750000D02*
X108600000Y-50200000D01*
X112600000Y-49600000D02*
X112000000Y-50200000D01*
X111000000Y-44600000D02*
X111000000Y-49250000D01*
X89400000Y-53000000D02*
X90400000Y-52000000D01*
X82524000Y-49276000D02*
X82042000Y-49276000D01*
X90400000Y-52000000D02*
X90950000Y-52000000D01*
X94800000Y-42975000D02*
X96225000Y-44400000D01*
X83600000Y-48200000D02*
X82524000Y-49276000D01*
X96225000Y-44400000D02*
X110800000Y-44400000D01*
X110800000Y-44400000D02*
X111000000Y-44600000D01*
X89400000Y-50600000D02*
X89600000Y-50400000D01*
X115018000Y-49400000D02*
X116078000Y-48340000D01*
X110712998Y-42975000D02*
X113599040Y-45861042D01*
X89600000Y-50400000D02*
X90950000Y-50400000D01*
X113599040Y-45861042D02*
X113599040Y-48575454D01*
X99600000Y-42975000D02*
X110712998Y-42975000D01*
X113599040Y-48575454D02*
X114423586Y-49400000D01*
X114423586Y-49400000D02*
X115018000Y-49400000D01*
X89600000Y-51200000D02*
X90950000Y-51200000D01*
X110914414Y-43600000D02*
X113299520Y-45985107D01*
X98400000Y-43600000D02*
X110914414Y-43600000D01*
X89400000Y-51400000D02*
X89600000Y-51200000D01*
X113299520Y-48699520D02*
X114940000Y-50340000D01*
X113299520Y-45985107D02*
X113299520Y-48699520D01*
X98000000Y-42975000D02*
X98000000Y-43200000D01*
X98000000Y-43200000D02*
X98400000Y-43600000D01*
X114940000Y-50340000D02*
X116078000Y-50340000D01*
X96400000Y-42975000D02*
X97425000Y-44000000D01*
X89600000Y-52200000D02*
X90200000Y-51600000D01*
X110890828Y-44000000D02*
X113000000Y-46109172D01*
X97425000Y-44000000D02*
X110890828Y-44000000D01*
X90200000Y-51600000D02*
X90950000Y-51600000D01*
X113000000Y-49000000D02*
X115340000Y-51340000D01*
X89400000Y-52200000D02*
X89600000Y-52200000D01*
X115340000Y-51340000D02*
X116078000Y-51340000D01*
X113000000Y-46109172D02*
X113000000Y-49000000D01*
X90950000Y-50800000D02*
X92400000Y-50800000D01*
X97850000Y-51600000D02*
X96600000Y-51600000D01*
X93600000Y-48600000D02*
X93400000Y-48800000D01*
X96600000Y-51600000D02*
X96400000Y-51800000D01*
X91800000Y-52400000D02*
X92400000Y-51800000D01*
X90950000Y-52400000D02*
X91800000Y-52400000D01*
X93600000Y-47350000D02*
X93600000Y-48600000D01*
X113400000Y-64300000D02*
X113400000Y-63400000D01*
X113856000Y-72199500D02*
X113850000Y-72205500D01*
X113850000Y-89985500D02*
X113850000Y-89999000D01*
X113856000Y-86423500D02*
X113850000Y-86429500D01*
X113850000Y-93593000D02*
X113850000Y-93555000D01*
X113856000Y-82867500D02*
X113850000Y-82873500D01*
X113856000Y-93599000D02*
X113850000Y-93593000D01*
X113856000Y-89979500D02*
X113850000Y-89985500D01*
X113856000Y-68669000D02*
X113856000Y-68707000D01*
X113856000Y-79311500D02*
X113850000Y-79317500D01*
X113850000Y-75761500D02*
X113850000Y-75775000D01*
X113856000Y-75755500D02*
X113850000Y-75761500D01*
X113850000Y-82873500D02*
X113850000Y-82887000D01*
X113850000Y-79317500D02*
X113850000Y-79331000D01*
X113850000Y-72205500D02*
X113850000Y-72219000D01*
X113850000Y-86429500D02*
X113850000Y-86443000D01*
X113850000Y-68663000D02*
X113856000Y-68669000D01*
X95600000Y-54869780D02*
X95600000Y-54250000D01*
X105900480Y-55899520D02*
X101381591Y-55899520D01*
X96630700Y-55900480D02*
X95600000Y-54869780D01*
X101380631Y-55900480D02*
X96630700Y-55900480D01*
X101381591Y-55899520D02*
X101380631Y-55900480D01*
X107400000Y-54400000D02*
X105900480Y-55899520D01*
X114744000Y-89979500D02*
X114750000Y-89985500D01*
X114744000Y-82867500D02*
X114750000Y-82873500D01*
X114744000Y-86423500D02*
X114750000Y-86429500D01*
X114750000Y-75761500D02*
X114750000Y-75775000D01*
X114744000Y-75755500D02*
X114750000Y-75761500D01*
X114200000Y-63430000D02*
X114230000Y-63400000D01*
X114750000Y-82873500D02*
X114750000Y-82887000D01*
X114744000Y-93599000D02*
X114750000Y-93593000D01*
X114744000Y-79311500D02*
X114750000Y-79317500D01*
X114750000Y-86429500D02*
X114750000Y-86443000D01*
X114750000Y-93593000D02*
X114750000Y-93555000D01*
X114750000Y-79317500D02*
X114750000Y-79331000D01*
X114750000Y-68663000D02*
X114744000Y-68669000D01*
X114750000Y-89985500D02*
X114750000Y-89999000D01*
X114744000Y-72199500D02*
X114750000Y-72205500D01*
X114744000Y-68669000D02*
X114744000Y-68707000D01*
X114200000Y-64300000D02*
X114200000Y-63430000D01*
X114750000Y-72205500D02*
X114750000Y-72219000D01*
X114744000Y-66992500D02*
X114750000Y-66986500D01*
X114750000Y-66986500D02*
X114750000Y-66973000D01*
X96754766Y-55600960D02*
X96000000Y-54846194D01*
X101257525Y-55600000D02*
X101256565Y-55600960D01*
X105400000Y-55600000D02*
X101257525Y-55600000D01*
X101256565Y-55600960D02*
X96754766Y-55600960D01*
X114200000Y-62500000D02*
X114200000Y-61800000D01*
X106600000Y-54400000D02*
X105400000Y-55600000D01*
X114230000Y-61830000D02*
X114200000Y-61800000D01*
X96000000Y-54846194D02*
X96000000Y-54250000D01*
X96400000Y-54822608D02*
X96400000Y-54250000D01*
X113430000Y-61830000D02*
X113400000Y-61800000D01*
X113400000Y-62500000D02*
X113400000Y-61800000D01*
X105800000Y-54400000D02*
X104900480Y-55299520D01*
X96878832Y-55301440D02*
X96400000Y-54822608D01*
X101134420Y-55299520D02*
X101132500Y-55301440D01*
X101132500Y-55301440D02*
X96878832Y-55301440D01*
X104900480Y-55299520D02*
X101134420Y-55299520D01*
X97002898Y-55001920D02*
X96800000Y-54799022D01*
X104400000Y-55000000D02*
X101010355Y-55000000D01*
X96800000Y-54799022D02*
X96800000Y-54250000D01*
X101010355Y-55000000D02*
X101008435Y-55001920D01*
X105000000Y-54400000D02*
X104400000Y-55000000D01*
X101008435Y-55001920D02*
X97002898Y-55001920D01*
X112630000Y-61830000D02*
X112600000Y-61800000D01*
X112600000Y-62500000D02*
X112600000Y-61800000D01*
X97652400Y-54702400D02*
X97200000Y-54250000D01*
X111800000Y-62500000D02*
X111800000Y-61800000D01*
X100884370Y-54702400D02*
X97652400Y-54702400D01*
X111830000Y-61830000D02*
X111800000Y-61800000D01*
X103900480Y-54699520D02*
X100887250Y-54699520D01*
X100887250Y-54699520D02*
X100884370Y-54702400D01*
X104200000Y-54400000D02*
X103900480Y-54699520D01*
X101200000Y-53600000D02*
X102000000Y-54400000D01*
X112923000Y-58877000D02*
X113000000Y-58800000D01*
X102000000Y-54400000D02*
X103400000Y-54400000D01*
X97850000Y-53600000D02*
X101200000Y-53600000D01*
X103400000Y-54400000D02*
X104400000Y-53400000D01*
X112014000Y-58877000D02*
X112923000Y-58877000D01*
X103000000Y-54000000D02*
X102200000Y-54000000D01*
X101400000Y-53200000D02*
X97850000Y-53200000D01*
X103600000Y-53400000D02*
X103000000Y-54000000D01*
X102200000Y-54000000D02*
X101400000Y-53200000D01*
X102800000Y-53400000D02*
X102188207Y-53400000D01*
X109200000Y-61800000D02*
X109150000Y-61850000D01*
X109150000Y-61850000D02*
X109150000Y-62500000D01*
X102188207Y-53400000D02*
X101588207Y-52800000D01*
X101588207Y-52800000D02*
X97850000Y-52800000D01*
X111316000Y-89979500D02*
X111310000Y-89985500D01*
X111316000Y-68669000D02*
X111316000Y-68707000D01*
X111316000Y-82867500D02*
X111310000Y-82873500D01*
X111316000Y-75755500D02*
X111310000Y-75761500D01*
X111310000Y-82873500D02*
X111310000Y-82887000D01*
X111310000Y-72205500D02*
X111310000Y-72219000D01*
X111310000Y-86429500D02*
X111310000Y-86443000D01*
X111310000Y-79317500D02*
X111310000Y-79331000D01*
X111310000Y-89985500D02*
X111310000Y-89999000D01*
X111316000Y-72199500D02*
X111310000Y-72205500D01*
X111316000Y-79311500D02*
X111310000Y-79317500D01*
X111310000Y-75761500D02*
X111310000Y-75775000D01*
X111310000Y-93593000D02*
X111310000Y-93555000D01*
X111800000Y-64300000D02*
X111800000Y-63400000D01*
X111316000Y-86423500D02*
X111310000Y-86429500D01*
X111310000Y-68663000D02*
X111316000Y-68669000D01*
X111316000Y-93599000D02*
X111310000Y-93593000D01*
X112204000Y-86423500D02*
X112210000Y-86429500D01*
X112204000Y-93599000D02*
X112210000Y-93593000D01*
X112210000Y-82873500D02*
X112210000Y-82887000D01*
X112210000Y-72205500D02*
X112210000Y-72219000D01*
X112600000Y-64300000D02*
X112600000Y-63400000D01*
X112210000Y-89985500D02*
X112210000Y-89999000D01*
X112204000Y-75755500D02*
X112210000Y-75761500D01*
X112210000Y-75761500D02*
X112210000Y-75775000D01*
X112210000Y-68663000D02*
X112204000Y-68669000D01*
X112210000Y-79317500D02*
X112210000Y-79331000D01*
X112204000Y-79311500D02*
X112210000Y-79317500D01*
X112210000Y-93593000D02*
X112210000Y-93555000D01*
X112210000Y-86429500D02*
X112210000Y-86443000D01*
X112204000Y-72199500D02*
X112210000Y-72205500D01*
X112204000Y-68669000D02*
X112204000Y-68707000D01*
X112204000Y-82867500D02*
X112210000Y-82873500D01*
X112204000Y-89979500D02*
X112210000Y-89985500D01*
X112210000Y-66986500D02*
X112210000Y-66973000D01*
X111876978Y-65800000D02*
X111000000Y-64923022D01*
X111000000Y-61466000D02*
X112014000Y-60452000D01*
X112204000Y-66992500D02*
X112210000Y-66986500D01*
X111000000Y-64923022D02*
X111000000Y-61466000D01*
X112600000Y-65800000D02*
X111876978Y-65800000D01*
X108770000Y-75761500D02*
X108770000Y-75775000D01*
X108770000Y-72205500D02*
X108770000Y-72219000D01*
X108776000Y-93599000D02*
X108770000Y-93593000D01*
X108770000Y-89985500D02*
X108770000Y-89999000D01*
X108776000Y-86423500D02*
X108770000Y-86429500D01*
X108776000Y-75755500D02*
X108770000Y-75761500D01*
X108770000Y-79317500D02*
X108770000Y-79331000D01*
X108350000Y-64300000D02*
X108350000Y-63400000D01*
X108776000Y-79311500D02*
X108770000Y-79317500D01*
X108770000Y-93593000D02*
X108770000Y-93555000D01*
X108776000Y-89979500D02*
X108770000Y-89985500D01*
X108776000Y-72199500D02*
X108770000Y-72205500D01*
X108776000Y-68669000D02*
X108776000Y-68707000D01*
X108776000Y-82867500D02*
X108770000Y-82873500D01*
X108770000Y-86429500D02*
X108770000Y-86443000D01*
X108770000Y-68663000D02*
X108776000Y-68669000D01*
X108770000Y-82873500D02*
X108770000Y-82887000D01*
X109664000Y-89979500D02*
X109670000Y-89985500D01*
X109670000Y-72205500D02*
X109670000Y-72219000D01*
X109664000Y-79311500D02*
X109670000Y-79317500D01*
X109150000Y-64300000D02*
X109150000Y-63400000D01*
X109664000Y-68669000D02*
X109664000Y-68707000D01*
X109670000Y-93593000D02*
X109670000Y-93555000D01*
X109664000Y-72199500D02*
X109670000Y-72205500D01*
X109664000Y-86423500D02*
X109670000Y-86429500D01*
X109664000Y-82867500D02*
X109670000Y-82873500D01*
X109670000Y-75761500D02*
X109670000Y-75775000D01*
X109670000Y-82873500D02*
X109670000Y-82887000D01*
X109670000Y-68663000D02*
X109664000Y-68669000D01*
X109670000Y-89985500D02*
X109670000Y-89999000D01*
X109664000Y-75755500D02*
X109670000Y-75761500D01*
X109670000Y-86429500D02*
X109670000Y-86443000D01*
X109664000Y-93599000D02*
X109670000Y-93593000D01*
X109670000Y-79317500D02*
X109670000Y-79331000D01*
X109664000Y-66992500D02*
X109670000Y-66986500D01*
X109670000Y-66986500D02*
X109670000Y-66973000D01*
X106236000Y-72199500D02*
X106230000Y-72205500D01*
X106750000Y-64300000D02*
X106750000Y-63400000D01*
X106230000Y-68663000D02*
X106236000Y-68669000D01*
X106230000Y-79317500D02*
X106230000Y-79331000D01*
X106230000Y-86429500D02*
X106230000Y-86443000D01*
X106236000Y-79311500D02*
X106230000Y-79317500D01*
X106236000Y-89979500D02*
X106230000Y-89985500D01*
X106230000Y-72205500D02*
X106230000Y-72219000D01*
X106230000Y-75761500D02*
X106230000Y-75775000D01*
X106236000Y-68669000D02*
X106236000Y-68707000D01*
X106230000Y-82873500D02*
X106230000Y-82887000D01*
X106236000Y-82867500D02*
X106230000Y-82873500D01*
X106236000Y-93599000D02*
X106230000Y-93593000D01*
X106230000Y-93593000D02*
X106230000Y-93555000D01*
X106236000Y-75755500D02*
X106230000Y-75761500D01*
X106230000Y-89985500D02*
X106230000Y-89999000D01*
X106236000Y-86423500D02*
X106230000Y-86429500D01*
X107130000Y-79317500D02*
X107130000Y-79331000D01*
X107124000Y-79311500D02*
X107130000Y-79317500D01*
X107124000Y-93599000D02*
X107130000Y-93593000D01*
X107130000Y-68663000D02*
X107124000Y-68669000D01*
X107130000Y-82873500D02*
X107130000Y-82887000D01*
X107124000Y-89979500D02*
X107130000Y-89985500D01*
X107124000Y-68669000D02*
X107124000Y-68707000D01*
X107124000Y-72199500D02*
X107130000Y-72205500D01*
X107124000Y-75755500D02*
X107130000Y-75761500D01*
X107130000Y-93593000D02*
X107130000Y-93555000D01*
X107130000Y-75761500D02*
X107130000Y-75775000D01*
X107130000Y-72205500D02*
X107130000Y-72219000D01*
X107124000Y-86423500D02*
X107130000Y-86429500D01*
X107130000Y-89985500D02*
X107130000Y-89999000D01*
X107130000Y-86429500D02*
X107130000Y-86443000D01*
X107124000Y-82867500D02*
X107130000Y-82873500D01*
X107550000Y-64300000D02*
X107550000Y-63400000D01*
X107200000Y-65200000D02*
X106196978Y-65200000D01*
X105800000Y-64803022D02*
X105800000Y-61611500D01*
X107130000Y-66986500D02*
X107130000Y-66973000D01*
X107124000Y-66992500D02*
X107130000Y-66986500D01*
X106196978Y-65200000D02*
X105800000Y-64803022D01*
X105800000Y-61611500D02*
X106934000Y-60477500D01*
X103690000Y-72205500D02*
X103690000Y-72219000D01*
X103690000Y-86429500D02*
X103690000Y-86443000D01*
X103696000Y-75755500D02*
X103690000Y-75761500D01*
X103696000Y-79311500D02*
X103690000Y-79317500D01*
X103696000Y-82867500D02*
X103690000Y-82873500D01*
X103690000Y-75761500D02*
X103690000Y-75775000D01*
X103690000Y-68663000D02*
X103696000Y-68669000D01*
X103200000Y-64300000D02*
X103200000Y-63400000D01*
X103696000Y-86423500D02*
X103690000Y-86429500D01*
X103690000Y-79317500D02*
X103690000Y-79331000D01*
X103690000Y-93593000D02*
X103690000Y-93555000D01*
X103696000Y-89979500D02*
X103690000Y-89985500D01*
X103696000Y-68669000D02*
X103696000Y-68707000D01*
X103696000Y-72199500D02*
X103690000Y-72205500D01*
X103690000Y-82873500D02*
X103690000Y-82887000D01*
X103696000Y-93599000D02*
X103690000Y-93593000D01*
X103690000Y-89985500D02*
X103690000Y-89999000D01*
X104590000Y-79317500D02*
X104590000Y-79331000D01*
X104590000Y-75761500D02*
X104590000Y-75775000D01*
X104584000Y-82867500D02*
X104590000Y-82873500D01*
X104590000Y-72205500D02*
X104590000Y-72219000D01*
X104590000Y-89985500D02*
X104590000Y-89999000D01*
X104000000Y-64300000D02*
X104000000Y-63400000D01*
X104584000Y-79311500D02*
X104590000Y-79317500D01*
X104590000Y-93593000D02*
X104590000Y-93555000D01*
X104584000Y-75755500D02*
X104590000Y-75761500D01*
X104590000Y-82873500D02*
X104590000Y-82887000D01*
X104584000Y-93599000D02*
X104590000Y-93593000D01*
X104584000Y-86423500D02*
X104590000Y-86429500D01*
X104584000Y-68669000D02*
X104584000Y-68707000D01*
X104584000Y-89979500D02*
X104590000Y-89985500D01*
X104584000Y-72199500D02*
X104590000Y-72205500D01*
X104590000Y-68663000D02*
X104584000Y-68669000D01*
X104590000Y-86429500D02*
X104590000Y-86443000D01*
X104590000Y-66986500D02*
X104590000Y-66973000D01*
X104584000Y-66992500D02*
X104590000Y-66986500D01*
X101156000Y-89979500D02*
X101150000Y-89985500D01*
X101156000Y-86423500D02*
X101150000Y-86429500D01*
X101156000Y-75755500D02*
X101150000Y-75761500D01*
X101150000Y-89985500D02*
X101150000Y-89999000D01*
X101156000Y-79311500D02*
X101150000Y-79317500D01*
X101150000Y-93593000D02*
X101150000Y-93555000D01*
X101156000Y-68669000D02*
X101156000Y-68707000D01*
X101600000Y-64300000D02*
X101600000Y-63400000D01*
X101150000Y-75761500D02*
X101150000Y-75775000D01*
X101150000Y-72205500D02*
X101150000Y-72219000D01*
X101156000Y-72199500D02*
X101150000Y-72205500D01*
X101156000Y-82867500D02*
X101150000Y-82873500D01*
X101150000Y-82873500D02*
X101150000Y-82887000D01*
X101150000Y-68663000D02*
X101156000Y-68669000D01*
X101150000Y-86429500D02*
X101150000Y-86443000D01*
X101156000Y-93599000D02*
X101150000Y-93593000D01*
X101150000Y-79317500D02*
X101150000Y-79331000D01*
X102050000Y-82873500D02*
X102050000Y-82887000D01*
X102050000Y-75761500D02*
X102050000Y-75775000D01*
X102044000Y-79311500D02*
X102050000Y-79317500D01*
X102044000Y-72199500D02*
X102050000Y-72205500D01*
X102050000Y-86429500D02*
X102050000Y-86443000D01*
X102044000Y-89979500D02*
X102050000Y-89985500D01*
X102050000Y-79317500D02*
X102050000Y-79331000D01*
X102050000Y-93593000D02*
X102050000Y-93555000D01*
X102050000Y-68663000D02*
X102044000Y-68669000D01*
X102050000Y-72205500D02*
X102050000Y-72219000D01*
X102400000Y-64300000D02*
X102400000Y-63400000D01*
X102044000Y-82867500D02*
X102050000Y-82873500D01*
X102044000Y-86423500D02*
X102050000Y-86429500D01*
X102044000Y-93599000D02*
X102050000Y-93593000D01*
X102050000Y-89985500D02*
X102050000Y-89999000D01*
X102044000Y-68669000D02*
X102044000Y-68707000D01*
X102044000Y-75755500D02*
X102050000Y-75761500D01*
X102050000Y-66986500D02*
X102050000Y-66973000D01*
X100800000Y-64883022D02*
X100800000Y-61531500D01*
X102044000Y-66992500D02*
X102050000Y-66986500D01*
X100800000Y-61531500D02*
X101854000Y-60477500D01*
X102000000Y-65200000D02*
X101116978Y-65200000D01*
X101116978Y-65200000D02*
X100800000Y-64883022D01*
X98615500Y-68668500D02*
X98615500Y-68707000D01*
X98615500Y-86423500D02*
X98610000Y-86429000D01*
X98190000Y-63400000D02*
X98190000Y-64300000D01*
X98615500Y-82867500D02*
X98610000Y-82873000D01*
X98615500Y-89979500D02*
X98610000Y-89985000D01*
X98610000Y-89985000D02*
X98610000Y-89999000D01*
X98610000Y-93593500D02*
X98610000Y-93555000D01*
X98615500Y-75755500D02*
X98610000Y-75761000D01*
X98610000Y-72205000D02*
X98610000Y-72219000D01*
X98610000Y-82873000D02*
X98610000Y-82887000D01*
X98610000Y-75761000D02*
X98610000Y-75775000D01*
X98615500Y-79311500D02*
X98610000Y-79317000D01*
X98615500Y-93599000D02*
X98610000Y-93593500D01*
X98610000Y-79317000D02*
X98610000Y-79331000D01*
X98610000Y-68663000D02*
X98615500Y-68668500D01*
X98615500Y-72199500D02*
X98610000Y-72205000D01*
X98610000Y-86429000D02*
X98610000Y-86443000D01*
X99000000Y-64290000D02*
X98990000Y-64300000D01*
X99504500Y-72199500D02*
X99510000Y-72205000D01*
X99510000Y-89985000D02*
X99510000Y-89999000D01*
X99504500Y-68668500D02*
X99504500Y-68707000D01*
X99510000Y-75761000D02*
X99510000Y-75775000D01*
X99510000Y-79317000D02*
X99510000Y-79331000D01*
X99510000Y-68663000D02*
X99504500Y-68668500D01*
X99510000Y-72205000D02*
X99510000Y-72219000D01*
X99510000Y-82873000D02*
X99510000Y-82887000D01*
X99504500Y-75755500D02*
X99510000Y-75761000D01*
X99504500Y-93599000D02*
X99510000Y-93593500D01*
X99510000Y-86429000D02*
X99510000Y-86443000D01*
X99504500Y-82867500D02*
X99510000Y-82873000D01*
X99000000Y-63400000D02*
X99000000Y-64290000D01*
X99504500Y-89979500D02*
X99510000Y-89985000D01*
X99504500Y-86423500D02*
X99510000Y-86429000D01*
X99504500Y-79311500D02*
X99510000Y-79317000D01*
X99510000Y-93593500D02*
X99510000Y-93555000D01*
X99504500Y-66992500D02*
X99510000Y-66987000D01*
X99510000Y-66987000D02*
X99510000Y-66973000D01*
X96075500Y-89979500D02*
X96070000Y-89985000D01*
X96075500Y-68668500D02*
X96075500Y-68707000D01*
X96070000Y-82873000D02*
X96070000Y-82887000D01*
X96070000Y-93593500D02*
X96070000Y-93555000D01*
X96075500Y-72199500D02*
X96070000Y-72205000D01*
X96590000Y-63400000D02*
X96590000Y-64300000D01*
X96070000Y-68663000D02*
X96075500Y-68668500D01*
X96075500Y-86423500D02*
X96070000Y-86429000D01*
X96070000Y-79317000D02*
X96070000Y-79331000D01*
X96075500Y-82867500D02*
X96070000Y-82873000D01*
X96075500Y-93599000D02*
X96070000Y-93593500D01*
X96075500Y-79311500D02*
X96070000Y-79317000D01*
X96075500Y-75755500D02*
X96070000Y-75761000D01*
X96070000Y-75761000D02*
X96070000Y-75775000D01*
X96070000Y-72205000D02*
X96070000Y-72219000D01*
X96070000Y-86429000D02*
X96070000Y-86443000D01*
X96070000Y-89985000D02*
X96070000Y-89999000D01*
X96970000Y-86429000D02*
X96970000Y-86443000D01*
X96964500Y-82867500D02*
X96970000Y-82873000D01*
X96970000Y-82873000D02*
X96970000Y-82887000D01*
X96964500Y-72199500D02*
X96970000Y-72205000D01*
X97390000Y-63400000D02*
X97390000Y-64300000D01*
X96964500Y-93599000D02*
X96970000Y-93593500D01*
X96964500Y-86423500D02*
X96970000Y-86429000D01*
X96970000Y-72205000D02*
X96970000Y-72219000D01*
X96964500Y-68668500D02*
X96964500Y-68707000D01*
X96970000Y-89985000D02*
X96970000Y-89999000D01*
X96964500Y-75755500D02*
X96970000Y-75761000D01*
X96970000Y-75761000D02*
X96970000Y-75775000D01*
X96964500Y-89979500D02*
X96970000Y-89985000D01*
X96970000Y-68663000D02*
X96964500Y-68668500D01*
X96964500Y-79311500D02*
X96970000Y-79317000D01*
X96970000Y-93593500D02*
X96970000Y-93555000D01*
X96970000Y-79317000D02*
X96970000Y-79331000D01*
X96970000Y-66987000D02*
X96970000Y-66973000D01*
X96036978Y-65200000D02*
X95800000Y-64963022D01*
X95800000Y-61451500D02*
X96774000Y-60477500D01*
X95800000Y-64963022D02*
X95800000Y-61451500D01*
X97000000Y-65200000D02*
X96036978Y-65200000D01*
X96964500Y-66992500D02*
X96970000Y-66987000D01*
X93530000Y-93593500D02*
X93530000Y-93555000D01*
X93535500Y-75755500D02*
X93530000Y-75761000D01*
X93530000Y-75761000D02*
X93530000Y-75775000D01*
X93535500Y-82867500D02*
X93530000Y-82873000D01*
X93530000Y-79317000D02*
X93530000Y-79331000D01*
X93535500Y-86423500D02*
X93530000Y-86429000D01*
X93530000Y-86429000D02*
X93530000Y-86443000D01*
X93530000Y-72205000D02*
X93530000Y-72219000D01*
X93535500Y-72199500D02*
X93530000Y-72205000D01*
X93535500Y-68668500D02*
X93535500Y-68707000D01*
X93535500Y-89979500D02*
X93530000Y-89985000D01*
X93110000Y-63400000D02*
X93110000Y-64300000D01*
X93535500Y-93599000D02*
X93530000Y-93593500D01*
X93530000Y-68663000D02*
X93535500Y-68668500D01*
X93535500Y-79311500D02*
X93530000Y-79317000D01*
X93530000Y-82873000D02*
X93530000Y-82887000D01*
X93530000Y-89985000D02*
X93530000Y-89999000D01*
X94424500Y-72199500D02*
X94430000Y-72205000D01*
X94424500Y-86423500D02*
X94430000Y-86429000D01*
X94424500Y-89979500D02*
X94430000Y-89985000D01*
X94430000Y-79317000D02*
X94430000Y-79331000D01*
X93910000Y-63400000D02*
X93910000Y-64300000D01*
X94424500Y-68668500D02*
X94424500Y-68707000D01*
X94430000Y-93593500D02*
X94430000Y-93555000D01*
X94424500Y-82867500D02*
X94430000Y-82873000D01*
X94430000Y-86429000D02*
X94430000Y-86443000D01*
X94424500Y-75755500D02*
X94430000Y-75761000D01*
X94430000Y-89985000D02*
X94430000Y-89999000D01*
X94430000Y-75761000D02*
X94430000Y-75775000D01*
X94424500Y-93599000D02*
X94430000Y-93593500D01*
X94430000Y-72205000D02*
X94430000Y-72219000D01*
X94430000Y-68663000D02*
X94424500Y-68668500D01*
X94424500Y-79311500D02*
X94430000Y-79317000D01*
X94430000Y-82873000D02*
X94430000Y-82887000D01*
X94430000Y-66987000D02*
X94430000Y-66973000D01*
X94424500Y-66992500D02*
X94430000Y-66987000D01*
X90990000Y-72205000D02*
X90990000Y-72219000D01*
X90995500Y-89979500D02*
X90990000Y-89985000D01*
X90990000Y-89985000D02*
X90990000Y-89999000D01*
X90995500Y-79311500D02*
X90990000Y-79317000D01*
X90990000Y-86429000D02*
X90990000Y-86443000D01*
X90995500Y-68668500D02*
X90995500Y-68707000D01*
X90990000Y-68663000D02*
X90995500Y-68668500D01*
X90995500Y-75755500D02*
X90990000Y-75761000D01*
X90995500Y-82867500D02*
X90990000Y-82873000D01*
X91510000Y-63400000D02*
X91510000Y-64300000D01*
X90995500Y-86423500D02*
X90990000Y-86429000D01*
X90995500Y-72199500D02*
X90990000Y-72205000D01*
X90990000Y-82873000D02*
X90990000Y-82887000D01*
X90990000Y-93593500D02*
X90990000Y-93555000D01*
X90990000Y-75761000D02*
X90990000Y-75775000D01*
X90995500Y-93599000D02*
X90990000Y-93593500D01*
X90990000Y-79317000D02*
X90990000Y-79331000D01*
X91884500Y-82867500D02*
X91890000Y-82873000D01*
X91890000Y-82873000D02*
X91890000Y-82887000D01*
X91890000Y-72205000D02*
X91890000Y-72219000D01*
X91890000Y-79317000D02*
X91890000Y-79331000D01*
X91890000Y-86429000D02*
X91890000Y-86443000D01*
X91884500Y-75755500D02*
X91890000Y-75761000D01*
X91884500Y-93599000D02*
X91890000Y-93593500D01*
X91884500Y-79311500D02*
X91890000Y-79317000D01*
X91890000Y-75761000D02*
X91890000Y-75775000D01*
X91884500Y-86423500D02*
X91890000Y-86429000D01*
X91884500Y-89979500D02*
X91890000Y-89985000D01*
X91884500Y-68668500D02*
X91884500Y-68707000D01*
X92310000Y-63400000D02*
X92310000Y-64300000D01*
X91890000Y-68663000D02*
X91884500Y-68668500D01*
X91890000Y-89985000D02*
X91890000Y-89999000D01*
X91890000Y-93593500D02*
X91890000Y-93555000D01*
X91884500Y-72199500D02*
X91890000Y-72205000D01*
X90956978Y-65200000D02*
X90800000Y-65043022D01*
X90800000Y-65043022D02*
X90800000Y-61397500D01*
X91884500Y-66992500D02*
X91890000Y-66987000D01*
X91800000Y-65200000D02*
X90956978Y-65200000D01*
X90800000Y-61397500D02*
X91720000Y-60477500D01*
X91890000Y-66987000D02*
X91890000Y-66973000D01*
X88455500Y-72199500D02*
X88450000Y-72205000D01*
X88455500Y-75755500D02*
X88450000Y-75761000D01*
X88455500Y-89979500D02*
X88450000Y-89985000D01*
X88450000Y-68663000D02*
X88455500Y-68668500D01*
X88450000Y-93593500D02*
X88450000Y-93555000D01*
X88450000Y-79317000D02*
X88450000Y-79331000D01*
X88455500Y-93599000D02*
X88450000Y-93593500D01*
X88450000Y-82873000D02*
X88450000Y-82887000D01*
X88450000Y-89985000D02*
X88450000Y-89999000D01*
X88000000Y-63400000D02*
X88000000Y-64300000D01*
X88450000Y-86429000D02*
X88450000Y-86443000D01*
X88450000Y-75761000D02*
X88450000Y-75775000D01*
X88455500Y-82867500D02*
X88450000Y-82873000D01*
X88450000Y-72205000D02*
X88450000Y-72219000D01*
X88455500Y-79311500D02*
X88450000Y-79317000D01*
X88455500Y-68668500D02*
X88455500Y-68707000D01*
X88455500Y-86423500D02*
X88450000Y-86429000D01*
X89344500Y-75755500D02*
X89350000Y-75761000D01*
X89350000Y-93593500D02*
X89350000Y-93555000D01*
X89350000Y-89985000D02*
X89350000Y-89999000D01*
X89350000Y-72205000D02*
X89350000Y-72219000D01*
X89344500Y-68668500D02*
X89344500Y-68707000D01*
X89344500Y-93599000D02*
X89350000Y-93593500D01*
X89350000Y-82873000D02*
X89350000Y-82887000D01*
X89344500Y-89979500D02*
X89350000Y-89985000D01*
X89344500Y-86423500D02*
X89350000Y-86429000D01*
X89344500Y-82867500D02*
X89350000Y-82873000D01*
X89350000Y-68663000D02*
X89344500Y-68668500D01*
X88830000Y-63400000D02*
X88830000Y-64270000D01*
X89344500Y-72199500D02*
X89350000Y-72205000D01*
X89350000Y-79317000D02*
X89350000Y-79331000D01*
X89344500Y-79311500D02*
X89350000Y-79317000D01*
X89350000Y-86429000D02*
X89350000Y-86443000D01*
X88830000Y-64270000D02*
X88800000Y-64300000D01*
X89350000Y-75761000D02*
X89350000Y-75775000D01*
X89344500Y-66992500D02*
X89350000Y-66987000D01*
X89350000Y-66987000D02*
X89350000Y-66973000D01*
X85910000Y-75761000D02*
X85910000Y-75775000D01*
X85910000Y-79317000D02*
X85910000Y-79331000D01*
X85915500Y-72199500D02*
X85910000Y-72205000D01*
X85915500Y-68707000D02*
X85910000Y-68701500D01*
X85915500Y-75755500D02*
X85910000Y-75761000D01*
X85910000Y-89985000D02*
X85910000Y-89999000D01*
X85915500Y-86423500D02*
X85910000Y-86429000D01*
X85910000Y-82873000D02*
X85910000Y-82887000D01*
X85915500Y-89979500D02*
X85910000Y-89985000D01*
X85910000Y-86429000D02*
X85910000Y-86443000D01*
X85915500Y-93535500D02*
X85910000Y-93541000D01*
X85910000Y-72205000D02*
X85910000Y-72219000D01*
X85910000Y-93541000D02*
X85910000Y-93555000D01*
X85910000Y-68701500D02*
X85910000Y-68663000D01*
X86400000Y-64300000D02*
X86400000Y-63400000D01*
X85915500Y-82867500D02*
X85910000Y-82873000D01*
X85915500Y-79311500D02*
X85910000Y-79317000D01*
X86810000Y-93541000D02*
X86810000Y-93555000D01*
X86810000Y-68701500D02*
X86810000Y-68663000D01*
X86804500Y-68707000D02*
X86810000Y-68701500D01*
X86810000Y-82873000D02*
X86810000Y-82887000D01*
X86804500Y-86423500D02*
X86810000Y-86429000D01*
X86804500Y-75755500D02*
X86810000Y-75761000D01*
X87200000Y-63400000D02*
X87200000Y-64300000D01*
X86810000Y-72205000D02*
X86810000Y-72219000D01*
X86804500Y-89979500D02*
X86810000Y-89985000D01*
X86804500Y-93535500D02*
X86810000Y-93541000D01*
X86804500Y-79311500D02*
X86810000Y-79317000D01*
X86804500Y-82867500D02*
X86810000Y-82873000D01*
X86810000Y-79317000D02*
X86810000Y-79331000D01*
X86810000Y-89985000D02*
X86810000Y-89999000D01*
X86810000Y-75761000D02*
X86810000Y-75775000D01*
X86810000Y-86429000D02*
X86810000Y-86443000D01*
X86804500Y-72199500D02*
X86810000Y-72205000D01*
X86800000Y-65200000D02*
X85876978Y-65200000D01*
X85800000Y-65123022D02*
X85800000Y-61291500D01*
X85800000Y-61291500D02*
X86614000Y-60477500D01*
X86804500Y-66992500D02*
X86810000Y-66987000D01*
X86810000Y-66987000D02*
X86810000Y-66973000D01*
X85876978Y-65200000D02*
X85800000Y-65123022D01*
X83370000Y-68701500D02*
X83370000Y-68663000D01*
X83375500Y-68707000D02*
X83370000Y-68701500D01*
X84264500Y-68707000D02*
X84270000Y-68701500D01*
X84270000Y-68701500D02*
X84270000Y-68663000D01*
X84270000Y-66987000D02*
X84270000Y-66973000D01*
X84264500Y-66992500D02*
X84270000Y-66987000D01*
X93455000Y-94726000D02*
X93530000Y-94801000D01*
X98610000Y-95421000D02*
X98610000Y-94801000D01*
X103765000Y-94726000D02*
X106155000Y-94726000D01*
X88525000Y-94726000D02*
X90915000Y-94726000D01*
X85835000Y-94726000D02*
X85910000Y-94801000D01*
X88450000Y-95421000D02*
X88450000Y-94801000D01*
X96145000Y-94726000D02*
X98535000Y-94726000D01*
X83370000Y-94801000D02*
X83445000Y-94726000D01*
X93530000Y-95421000D02*
X93530000Y-94801000D01*
X88375000Y-94726000D02*
X88450000Y-94801000D01*
X98535000Y-94726000D02*
X98610000Y-94801000D01*
X108845000Y-94726000D02*
X111235000Y-94726000D01*
X90990000Y-94801000D02*
X91065000Y-94726000D01*
X101150000Y-94801000D02*
X101225000Y-94726000D01*
X106305000Y-94726000D02*
X108695000Y-94726000D01*
X108770000Y-95421000D02*
X108770000Y-94801000D01*
X90990000Y-95421000D02*
X90990000Y-94801000D01*
X111310000Y-95421000D02*
X111310000Y-94801000D01*
X96070000Y-95421000D02*
X96070000Y-94801000D01*
X85985000Y-94726000D02*
X87926000Y-94726000D01*
X89601920Y-65127322D02*
X89601920Y-57327325D01*
X89601920Y-57327325D02*
X91600000Y-55329242D01*
X87926000Y-94726000D02*
X88375000Y-94726000D01*
X106230000Y-94801000D02*
X106305000Y-94726000D01*
X85910000Y-94801000D02*
X85985000Y-94726000D01*
X95995000Y-94726000D02*
X96070000Y-94801000D01*
X93530000Y-94801000D02*
X93605000Y-94726000D01*
X111235000Y-94726000D02*
X111310000Y-94801000D01*
X93605000Y-94726000D02*
X95995000Y-94726000D01*
X83370000Y-95111000D02*
X83370000Y-94801000D01*
X91600000Y-55329242D02*
X91600000Y-54250000D01*
X87800000Y-65200000D02*
X89529242Y-65200000D01*
X111385000Y-94726000D02*
X113775000Y-94726000D01*
X113850000Y-94801000D02*
X113850000Y-95421000D01*
X113775000Y-94726000D02*
X113850000Y-94801000D01*
X83445000Y-94726000D02*
X85835000Y-94726000D01*
X108770000Y-94801000D02*
X108845000Y-94726000D01*
X111310000Y-94801000D02*
X111385000Y-94726000D01*
X98685000Y-94726000D02*
X101075000Y-94726000D01*
X88450000Y-94801000D02*
X88525000Y-94726000D01*
X96070000Y-94801000D02*
X96145000Y-94726000D01*
X101225000Y-94726000D02*
X103615000Y-94726000D01*
X108695000Y-94726000D02*
X108770000Y-94801000D01*
X91065000Y-94726000D02*
X93455000Y-94726000D01*
X106155000Y-94726000D02*
X106230000Y-94801000D01*
X103615000Y-94726000D02*
X103690000Y-94801000D01*
X106230000Y-95421000D02*
X106230000Y-94801000D01*
X85910000Y-95421000D02*
X85910000Y-94801000D01*
X101075000Y-94726000D02*
X101150000Y-94801000D01*
X90915000Y-94726000D02*
X90990000Y-94801000D01*
X83370000Y-95421000D02*
X83370000Y-95111000D01*
X98610000Y-94801000D02*
X98685000Y-94726000D01*
X103690000Y-94801000D02*
X103765000Y-94726000D01*
X103690000Y-95421000D02*
X103690000Y-94801000D01*
X89529242Y-65200000D02*
X89601920Y-65127322D01*
X101150000Y-95421000D02*
X101150000Y-94801000D01*
X83370000Y-77021000D02*
X83370000Y-77641000D01*
X101150000Y-77021000D02*
X101075000Y-76946000D01*
X88450000Y-77641000D02*
X88450000Y-77021000D01*
X95400000Y-57776414D02*
X95400000Y-65400000D01*
X88375000Y-76946000D02*
X85985000Y-76946000D01*
X90400000Y-76946000D02*
X88525000Y-76946000D01*
X101150000Y-77641000D02*
X101150000Y-77021000D01*
X106230000Y-77021000D02*
X106155000Y-76946000D01*
X90915000Y-76946000D02*
X90400000Y-76946000D01*
X95800000Y-65800000D02*
X97800000Y-65800000D01*
X97946000Y-76946000D02*
X96145000Y-76946000D01*
X98535000Y-76946000D02*
X97946000Y-76946000D01*
X98610000Y-77641000D02*
X98610000Y-77021000D01*
X90990000Y-77021000D02*
X90990000Y-77641000D01*
X91065000Y-76946000D02*
X90990000Y-77021000D01*
X96070000Y-77021000D02*
X95995000Y-76946000D01*
X93530000Y-77641000D02*
X93530000Y-77021000D01*
X108845000Y-76946000D02*
X108770000Y-77021000D01*
X108770000Y-77641000D02*
X108770000Y-77021000D01*
X108770000Y-77021000D02*
X108695000Y-76946000D01*
X113850000Y-77641000D02*
X113850000Y-77021000D01*
X88450000Y-77021000D02*
X88375000Y-76946000D01*
X106305000Y-76946000D02*
X106230000Y-77021000D01*
X93600000Y-54250000D02*
X93600000Y-55976414D01*
X93605000Y-76946000D02*
X93530000Y-77021000D01*
X101075000Y-76946000D02*
X98685000Y-76946000D01*
X85910000Y-77641000D02*
X85910000Y-77021000D01*
X103615000Y-76946000D02*
X101225000Y-76946000D01*
X103690000Y-77021000D02*
X103615000Y-76946000D01*
X83445000Y-76946000D02*
X83370000Y-77021000D01*
X111310000Y-77021000D02*
X111235000Y-76946000D01*
X98610000Y-77021000D02*
X98535000Y-76946000D01*
X111310000Y-77641000D02*
X111310000Y-77021000D01*
X85985000Y-76946000D02*
X85910000Y-77021000D01*
X93600000Y-55976414D02*
X95400000Y-57776414D01*
X85910000Y-77021000D02*
X85835000Y-76946000D01*
X106230000Y-77641000D02*
X106230000Y-77021000D01*
X96070000Y-77641000D02*
X96070000Y-77021000D01*
X90990000Y-77021000D02*
X90915000Y-76946000D01*
X88525000Y-76946000D02*
X88450000Y-77021000D01*
X85835000Y-76946000D02*
X83445000Y-76946000D01*
X113775000Y-76946000D02*
X111385000Y-76946000D01*
X103690000Y-77641000D02*
X103690000Y-77021000D01*
X95995000Y-76946000D02*
X93605000Y-76946000D01*
X98685000Y-76946000D02*
X98610000Y-77021000D01*
X95400000Y-65400000D02*
X95800000Y-65800000D01*
X111385000Y-76946000D02*
X111310000Y-77021000D01*
X108695000Y-76946000D02*
X106305000Y-76946000D01*
X93530000Y-77021000D02*
X93455000Y-76946000D01*
X101225000Y-76946000D02*
X101150000Y-77021000D01*
X113850000Y-77021000D02*
X113775000Y-76946000D01*
X111235000Y-76946000D02*
X108845000Y-76946000D01*
X96145000Y-76946000D02*
X96070000Y-77021000D01*
X93455000Y-76946000D02*
X91065000Y-76946000D01*
X103765000Y-76946000D02*
X103690000Y-77021000D01*
X106155000Y-76946000D02*
X103765000Y-76946000D01*
X96145000Y-73390000D02*
X98535000Y-73390000D01*
X94000000Y-55952827D02*
X96047173Y-58000000D01*
X85910000Y-73465000D02*
X85985000Y-73390000D01*
X85835000Y-73390000D02*
X85910000Y-73465000D01*
X111385000Y-73390000D02*
X113775000Y-73390000D01*
X101150000Y-73465000D02*
X101225000Y-73390000D01*
X111310000Y-74085000D02*
X111310000Y-73465000D01*
X98631500Y-73390000D02*
X100590000Y-73390000D01*
X93455000Y-73390000D02*
X93530000Y-73465000D01*
X103615000Y-73390000D02*
X103690000Y-73465000D01*
X108845000Y-73390000D02*
X111235000Y-73390000D01*
X83445000Y-73390000D02*
X85835000Y-73390000D01*
X98610000Y-73465000D02*
X98610000Y-73411500D01*
X101150000Y-74085000D02*
X101150000Y-73465000D01*
X88450000Y-73465000D02*
X88525000Y-73390000D01*
X99576414Y-58000000D02*
X100000000Y-58423586D01*
X83370000Y-74085000D02*
X83370000Y-73465000D01*
X96070000Y-73465000D02*
X96145000Y-73390000D01*
X88375000Y-73390000D02*
X88450000Y-73465000D01*
X96047173Y-58000000D02*
X99576414Y-58000000D01*
X95250000Y-73390000D02*
X95995000Y-73390000D01*
X106230000Y-74085000D02*
X106230000Y-73465000D01*
X103690000Y-74085000D02*
X103690000Y-73465000D01*
X88450000Y-74085000D02*
X88450000Y-73465000D01*
X95995000Y-73390000D02*
X96070000Y-73465000D01*
X113775000Y-73390000D02*
X113850000Y-73465000D01*
X96070000Y-74085000D02*
X96070000Y-73465000D01*
X103690000Y-73465000D02*
X103765000Y-73390000D01*
X101225000Y-73390000D02*
X103615000Y-73390000D01*
X94000000Y-54250000D02*
X94000000Y-55952827D01*
X93530000Y-74085000D02*
X93530000Y-73465000D01*
X106155000Y-73390000D02*
X106230000Y-73465000D01*
X98610000Y-73465000D02*
X98610000Y-74085000D01*
X90990000Y-73465000D02*
X91065000Y-73390000D01*
X103765000Y-73390000D02*
X106155000Y-73390000D01*
X93530000Y-73465000D02*
X93605000Y-73390000D01*
X93605000Y-73390000D02*
X95250000Y-73390000D01*
X98610000Y-73411500D02*
X98631500Y-73390000D01*
X113850000Y-73465000D02*
X113850000Y-74085000D01*
X106230000Y-73465000D02*
X106305000Y-73390000D01*
X100590000Y-73390000D02*
X101075000Y-73390000D01*
X100000000Y-58423586D02*
X100000000Y-65800000D01*
X98610000Y-74085000D02*
X98610000Y-73465000D01*
X91065000Y-73390000D02*
X93455000Y-73390000D01*
X85910000Y-74085000D02*
X85910000Y-73465000D01*
X106305000Y-73390000D02*
X108695000Y-73390000D01*
X108770000Y-73465000D02*
X108845000Y-73390000D01*
X90990000Y-74085000D02*
X90990000Y-73465000D01*
X111310000Y-73465000D02*
X111385000Y-73390000D01*
X108695000Y-73390000D02*
X108770000Y-73465000D01*
X101075000Y-73390000D02*
X101150000Y-73465000D01*
X88525000Y-73390000D02*
X90915000Y-73390000D01*
X85985000Y-73390000D02*
X88375000Y-73390000D01*
X108770000Y-74085000D02*
X108770000Y-73465000D01*
X111235000Y-73390000D02*
X111310000Y-73465000D01*
X90915000Y-73390000D02*
X90990000Y-73465000D01*
X98535000Y-73390000D02*
X98610000Y-73465000D01*
X83370000Y-73465000D02*
X83445000Y-73390000D01*
X106230000Y-80577000D02*
X106305000Y-80502000D01*
X111235000Y-80502000D02*
X111310000Y-80577000D01*
X98535000Y-80502000D02*
X98610000Y-80577000D01*
X88525000Y-80502000D02*
X90915000Y-80502000D01*
X98610000Y-81197000D02*
X98610000Y-80577000D01*
X83370000Y-80577000D02*
X83445000Y-80502000D01*
X93200000Y-56000000D02*
X93200000Y-54250000D01*
X111310000Y-80577000D02*
X111385000Y-80502000D01*
X90915000Y-80502000D02*
X90990000Y-80577000D01*
X113775000Y-80502000D02*
X113850000Y-80577000D01*
X106155000Y-80502000D02*
X106230000Y-80577000D01*
X113850000Y-80577000D02*
X113850000Y-81197000D01*
X88375000Y-80502000D02*
X88450000Y-80577000D01*
X95000000Y-65800000D02*
X95000000Y-57800000D01*
X93455000Y-80502000D02*
X93530000Y-80577000D01*
X101150000Y-80577000D02*
X101225000Y-80502000D01*
X96145000Y-80502000D02*
X98535000Y-80502000D01*
X106305000Y-80502000D02*
X108695000Y-80502000D01*
X85910000Y-81197000D02*
X85910000Y-80577000D01*
X90990000Y-81197000D02*
X90990000Y-80577000D01*
X85835000Y-80502000D02*
X85910000Y-80577000D01*
X98685000Y-80502000D02*
X101075000Y-80502000D01*
X93530000Y-81197000D02*
X93530000Y-80577000D01*
X108770000Y-80577000D02*
X108845000Y-80502000D01*
X85910000Y-80577000D02*
X85985000Y-80502000D01*
X111385000Y-80502000D02*
X113775000Y-80502000D01*
X95000000Y-57800000D02*
X93200000Y-56000000D01*
X96070000Y-81197000D02*
X96070000Y-80577000D01*
X90990000Y-80577000D02*
X91065000Y-80502000D01*
X111310000Y-81197000D02*
X111310000Y-80577000D01*
X96070000Y-80577000D02*
X96145000Y-80502000D01*
X108845000Y-80502000D02*
X111235000Y-80502000D01*
X103690000Y-81197000D02*
X103690000Y-80577000D01*
X83445000Y-80502000D02*
X85835000Y-80502000D01*
X101075000Y-80502000D02*
X101150000Y-80577000D01*
X85985000Y-80502000D02*
X88375000Y-80502000D01*
X106230000Y-81197000D02*
X106230000Y-80577000D01*
X93530000Y-80577000D02*
X93605000Y-80502000D01*
X95995000Y-80502000D02*
X96070000Y-80577000D01*
X83370000Y-81197000D02*
X83370000Y-80577000D01*
X103615000Y-80502000D02*
X103690000Y-80577000D01*
X108695000Y-80502000D02*
X108770000Y-80577000D01*
X88450000Y-80577000D02*
X88525000Y-80502000D01*
X95498000Y-80502000D02*
X95995000Y-80502000D01*
X108770000Y-81197000D02*
X108770000Y-80577000D01*
X103690000Y-80577000D02*
X103765000Y-80502000D01*
X88450000Y-81197000D02*
X88450000Y-80577000D01*
X101150000Y-81197000D02*
X101150000Y-80577000D01*
X93605000Y-80502000D02*
X95498000Y-80502000D01*
X91065000Y-80502000D02*
X93455000Y-80502000D01*
X101225000Y-80502000D02*
X103615000Y-80502000D01*
X103765000Y-80502000D02*
X105410000Y-80502000D01*
X98610000Y-80577000D02*
X98685000Y-80502000D01*
X105410000Y-80502000D02*
X106155000Y-80502000D01*
X106155000Y-87614000D02*
X106230000Y-87689000D01*
X90200960Y-57575455D02*
X90200960Y-65375454D01*
X108845000Y-87614000D02*
X111235000Y-87614000D01*
X106230000Y-87689000D02*
X106305000Y-87614000D01*
X103765000Y-87614000D02*
X106155000Y-87614000D01*
X101225000Y-87614000D02*
X103615000Y-87614000D01*
X103690000Y-88309000D02*
X103690000Y-87689000D01*
X92400000Y-55376414D02*
X90200960Y-57575455D01*
X98535000Y-87614000D02*
X98610000Y-87689000D01*
X85910000Y-88309000D02*
X85910000Y-87689000D01*
X98610000Y-88309000D02*
X98610000Y-87689000D01*
X91065000Y-87614000D02*
X93455000Y-87614000D01*
X108770000Y-88309000D02*
X108770000Y-87689000D01*
X101075000Y-87614000D02*
X101150000Y-87689000D01*
X88450000Y-88309000D02*
X88450000Y-87689000D01*
X90915000Y-87614000D02*
X90990000Y-87689000D01*
X111310000Y-87689000D02*
X111385000Y-87614000D01*
X90200000Y-65800000D02*
X90200000Y-65376414D01*
X93530000Y-87689000D02*
X93605000Y-87614000D01*
X85835000Y-87614000D02*
X85910000Y-87689000D01*
X83370000Y-88309000D02*
X83370000Y-87698600D01*
X90990000Y-87689000D02*
X91065000Y-87614000D01*
X85910000Y-87689000D02*
X85985000Y-87614000D01*
X106230000Y-88309000D02*
X106230000Y-87689000D01*
X101150000Y-88309000D02*
X101150000Y-87689000D01*
X88450000Y-87689000D02*
X88525000Y-87614000D01*
X96070000Y-87689000D02*
X96145000Y-87614000D01*
X111385000Y-87614000D02*
X113775000Y-87614000D01*
X103690000Y-87689000D02*
X103765000Y-87614000D01*
X83370000Y-87698600D02*
X83370000Y-87689000D01*
X90990000Y-88309000D02*
X90990000Y-87689000D01*
X83445000Y-87614000D02*
X85835000Y-87614000D01*
X111310000Y-88309000D02*
X111310000Y-87689000D01*
X88375000Y-87614000D02*
X88450000Y-87689000D01*
X113775000Y-87614000D02*
X113850000Y-87689000D01*
X96145000Y-87614000D02*
X98535000Y-87614000D01*
X88525000Y-87614000D02*
X90386000Y-87614000D01*
X98610000Y-87689000D02*
X98685000Y-87614000D01*
X103615000Y-87614000D02*
X103690000Y-87689000D01*
X108695000Y-87614000D02*
X108770000Y-87689000D01*
X92400000Y-54250000D02*
X92400000Y-55376414D01*
X90386000Y-87614000D02*
X90915000Y-87614000D01*
X95995000Y-87614000D02*
X96070000Y-87689000D01*
X93605000Y-87614000D02*
X95995000Y-87614000D01*
X96070000Y-88309000D02*
X96070000Y-87689000D01*
X90200000Y-65376414D02*
X90200960Y-65375454D01*
X111235000Y-87614000D02*
X111310000Y-87689000D01*
X108770000Y-87689000D02*
X108845000Y-87614000D01*
X83370000Y-87689000D02*
X83445000Y-87614000D01*
X93455000Y-87614000D02*
X93530000Y-87689000D01*
X113850000Y-87689000D02*
X113850000Y-88309000D01*
X106305000Y-87614000D02*
X108695000Y-87614000D01*
X93530000Y-88309000D02*
X93530000Y-87689000D01*
X85985000Y-87614000D02*
X88375000Y-87614000D01*
X98685000Y-87614000D02*
X101075000Y-87614000D01*
X101150000Y-87689000D02*
X101225000Y-87614000D01*
X106305000Y-84058000D02*
X108695000Y-84058000D01*
X98610000Y-84133000D02*
X98610000Y-84753000D01*
X93530000Y-84133000D02*
X93605000Y-84058000D01*
X93455000Y-84058000D02*
X93530000Y-84133000D01*
X98685000Y-84058000D02*
X101075000Y-84058000D01*
X83445000Y-84058000D02*
X85835000Y-84058000D01*
X113850000Y-84133000D02*
X113850000Y-84753000D01*
X101150000Y-84753000D02*
X101150000Y-84133000D01*
X83370000Y-84133000D02*
X83445000Y-84058000D01*
X85985000Y-84058000D02*
X88375000Y-84058000D01*
X88450000Y-84133000D02*
X88525000Y-84058000D01*
X108695000Y-84058000D02*
X108770000Y-84133000D01*
X91065000Y-84058000D02*
X92858000Y-84058000D01*
X95995000Y-84058000D02*
X96070000Y-84133000D01*
X91133392Y-65800000D02*
X90500480Y-65167088D01*
X111235000Y-84058000D02*
X111310000Y-84133000D01*
X93530000Y-84753000D02*
X93530000Y-84133000D01*
X111310000Y-84133000D02*
X111385000Y-84058000D01*
X88375000Y-84058000D02*
X88450000Y-84133000D01*
X90500480Y-57699520D02*
X92800000Y-55400000D01*
X96070000Y-84753000D02*
X96070000Y-84133000D01*
X90990000Y-84133000D02*
X91065000Y-84058000D01*
X103690000Y-84133000D02*
X103765000Y-84058000D01*
X93605000Y-84058000D02*
X95995000Y-84058000D01*
X108770000Y-84133000D02*
X108845000Y-84058000D01*
X92858000Y-84058000D02*
X93455000Y-84058000D01*
X106230000Y-84133000D02*
X106305000Y-84058000D01*
X101225000Y-84058000D02*
X103615000Y-84058000D01*
X103615000Y-84058000D02*
X103690000Y-84133000D01*
X85910000Y-84753000D02*
X85910000Y-84133000D01*
X103690000Y-84753000D02*
X103690000Y-84133000D01*
X88525000Y-84058000D02*
X90915000Y-84058000D01*
X98535000Y-84058000D02*
X98610000Y-84133000D01*
X98610000Y-84133000D02*
X98685000Y-84058000D01*
X111310000Y-84753000D02*
X111310000Y-84133000D01*
X92800000Y-55400000D02*
X92800000Y-54250000D01*
X113775000Y-84058000D02*
X113850000Y-84133000D01*
X92600000Y-65800000D02*
X91133392Y-65800000D01*
X111385000Y-84058000D02*
X113775000Y-84058000D01*
X101150000Y-84133000D02*
X101225000Y-84058000D01*
X103765000Y-84058000D02*
X106155000Y-84058000D01*
X90500480Y-65167088D02*
X90500480Y-57699520D01*
X106155000Y-84058000D02*
X106230000Y-84133000D01*
X85910000Y-84133000D02*
X85985000Y-84058000D01*
X83370000Y-84753000D02*
X83370000Y-84288000D01*
X88450000Y-84753000D02*
X88450000Y-84133000D01*
X108845000Y-84058000D02*
X111235000Y-84058000D01*
X106230000Y-84753000D02*
X106230000Y-84133000D01*
X85835000Y-84058000D02*
X85910000Y-84133000D01*
X90915000Y-84058000D02*
X90990000Y-84133000D01*
X90990000Y-84753000D02*
X90990000Y-84133000D01*
X96070000Y-84133000D02*
X96145000Y-84058000D01*
X96145000Y-84058000D02*
X98535000Y-84058000D01*
X101075000Y-84058000D02*
X101150000Y-84133000D01*
X83370000Y-84288000D02*
X83370000Y-84133000D01*
X108770000Y-84753000D02*
X108770000Y-84133000D01*
X90990000Y-91865000D02*
X90990000Y-91245000D01*
X93530000Y-91865000D02*
X93530000Y-91245000D01*
X92000000Y-55352828D02*
X89901440Y-57451390D01*
X106155000Y-91170000D02*
X106230000Y-91245000D01*
X91065000Y-91170000D02*
X93455000Y-91170000D01*
X96145000Y-91170000D02*
X98535000Y-91170000D01*
X103765000Y-91170000D02*
X106155000Y-91170000D01*
X111310000Y-91865000D02*
X111310000Y-91245000D01*
X96070000Y-91245000D02*
X96145000Y-91170000D01*
X101225000Y-91170000D02*
X103615000Y-91170000D01*
X85910000Y-91245000D02*
X85985000Y-91170000D01*
X101150000Y-91245000D02*
X101225000Y-91170000D01*
X101150000Y-91865000D02*
X101150000Y-91245000D01*
X85835000Y-91170000D02*
X85910000Y-91245000D01*
X98610000Y-91245000D02*
X98685000Y-91170000D01*
X111385000Y-91170000D02*
X113775000Y-91170000D01*
X85985000Y-91170000D02*
X88375000Y-91170000D01*
X103690000Y-91865000D02*
X103690000Y-91245000D01*
X88450000Y-91245000D02*
X88525000Y-91170000D01*
X89901440Y-57451390D02*
X89901440Y-65251388D01*
X106305000Y-91170000D02*
X108695000Y-91170000D01*
X95995000Y-91170000D02*
X96070000Y-91245000D01*
X113775000Y-91170000D02*
X113850000Y-91245000D01*
X106230000Y-91865000D02*
X106230000Y-91245000D01*
X106230000Y-91245000D02*
X106305000Y-91170000D01*
X108770000Y-91245000D02*
X108845000Y-91170000D01*
X108695000Y-91170000D02*
X108770000Y-91245000D01*
X93530000Y-91245000D02*
X93605000Y-91170000D01*
X98610000Y-91865000D02*
X98610000Y-91245000D01*
X111235000Y-91170000D02*
X111310000Y-91245000D01*
X83370000Y-91245000D02*
X83445000Y-91170000D01*
X103690000Y-91245000D02*
X103765000Y-91170000D01*
X90990000Y-91245000D02*
X91065000Y-91170000D01*
X90915000Y-91170000D02*
X90990000Y-91245000D01*
X96070000Y-91865000D02*
X96070000Y-91245000D01*
X88375000Y-91170000D02*
X88450000Y-91245000D01*
X88450000Y-91865000D02*
X88450000Y-91245000D01*
X103615000Y-91170000D02*
X103690000Y-91245000D01*
X85910000Y-91865000D02*
X85910000Y-91245000D01*
X83445000Y-91170000D02*
X85230000Y-91170000D01*
X83370000Y-91400000D02*
X83370000Y-91245000D01*
X113850000Y-91245000D02*
X113850000Y-91865000D01*
X89901440Y-65251388D02*
X89352828Y-65800000D01*
X108770000Y-91865000D02*
X108770000Y-91245000D01*
X88525000Y-91170000D02*
X90915000Y-91170000D01*
X93605000Y-91170000D02*
X95995000Y-91170000D01*
X98535000Y-91170000D02*
X98610000Y-91245000D01*
X108845000Y-91170000D02*
X111235000Y-91170000D01*
X85230000Y-91170000D02*
X85835000Y-91170000D01*
X98685000Y-91170000D02*
X101075000Y-91170000D01*
X89352828Y-65800000D02*
X85200000Y-65800000D01*
X93455000Y-91170000D02*
X93530000Y-91245000D01*
X101075000Y-91170000D02*
X101150000Y-91245000D01*
X111310000Y-91245000D02*
X111385000Y-91170000D01*
X92000000Y-54250000D02*
X92000000Y-55352828D01*
X83370000Y-91865000D02*
X83370000Y-91400000D01*
X111385000Y-66278000D02*
X113775000Y-66278000D01*
X101225000Y-66278000D02*
X103615000Y-66278000D01*
X111235000Y-66278000D02*
X111310000Y-66353000D01*
X96145000Y-66278000D02*
X98535000Y-66278000D01*
X98610000Y-66353000D02*
X98685000Y-66278000D01*
X105322000Y-58522000D02*
X105322000Y-66278000D01*
X93455000Y-66278000D02*
X93530000Y-66353000D01*
X90915000Y-66278000D02*
X90990000Y-66353000D01*
X83370000Y-66973000D02*
X83370000Y-66353000D01*
X106230000Y-66973000D02*
X106230000Y-66353000D01*
X108770000Y-66353000D02*
X108845000Y-66278000D01*
X108770000Y-66973000D02*
X108770000Y-66353000D01*
X103765000Y-66278000D02*
X105322000Y-66278000D01*
X106305000Y-66278000D02*
X108695000Y-66278000D01*
X100122500Y-66278000D02*
X101075000Y-66278000D01*
X90990000Y-66973000D02*
X90990000Y-66353000D01*
X108845000Y-66278000D02*
X111235000Y-66278000D01*
X111310000Y-66973000D02*
X111310000Y-66353000D01*
X108695000Y-66278000D02*
X108770000Y-66353000D01*
X93530000Y-66353000D02*
X93605000Y-66278000D01*
X88450000Y-66973000D02*
X88450000Y-66353000D01*
X96070000Y-66973000D02*
X96070000Y-66353000D01*
X113775000Y-66278000D02*
X113850000Y-66353000D01*
X104200960Y-57400960D02*
X105322000Y-58522000D01*
X85910000Y-66353000D02*
X85985000Y-66278000D01*
X106230000Y-66353000D02*
X106305000Y-66278000D01*
X96070000Y-66353000D02*
X96145000Y-66278000D01*
X103615000Y-66278000D02*
X103690000Y-66353000D01*
X88525000Y-66278000D02*
X90915000Y-66278000D01*
X88450000Y-66353000D02*
X88525000Y-66278000D01*
X98610000Y-66973000D02*
X98610000Y-66353000D01*
X95995000Y-66278000D02*
X96070000Y-66353000D01*
X94800000Y-54250000D02*
X94800000Y-55905655D01*
X101150000Y-66973000D02*
X101150000Y-66353000D01*
X93605000Y-66278000D02*
X95995000Y-66278000D01*
X101150000Y-66353000D02*
X101225000Y-66278000D01*
X85910000Y-66973000D02*
X85910000Y-66353000D01*
X103690000Y-66973000D02*
X103690000Y-66353000D01*
X105322000Y-66278000D02*
X106155000Y-66278000D01*
X101075000Y-66278000D02*
X101150000Y-66353000D01*
X91065000Y-66278000D02*
X93455000Y-66278000D01*
X94800000Y-55905655D02*
X96295305Y-57400960D01*
X96295305Y-57400960D02*
X104200960Y-57400960D01*
X83370000Y-66353000D02*
X83445000Y-66278000D01*
X88375000Y-66278000D02*
X88450000Y-66353000D01*
X113850000Y-66353000D02*
X113850000Y-66973000D01*
X90990000Y-66353000D02*
X91065000Y-66278000D01*
X98685000Y-66278000D02*
X100122500Y-66278000D01*
X83445000Y-66278000D02*
X85835000Y-66278000D01*
X98535000Y-66278000D02*
X98610000Y-66353000D01*
X106155000Y-66278000D02*
X106230000Y-66353000D01*
X111310000Y-66353000D02*
X111385000Y-66278000D01*
X85985000Y-66278000D02*
X88375000Y-66278000D01*
X103690000Y-66353000D02*
X103765000Y-66278000D01*
X85835000Y-66278000D02*
X85910000Y-66353000D01*
X93530000Y-66973000D02*
X93530000Y-66353000D01*
X94400000Y-55929241D02*
X96171239Y-57700480D01*
X101075000Y-69834000D02*
X100639600Y-69834000D01*
X93605000Y-69834000D02*
X93530000Y-69909000D01*
X100639600Y-69834000D02*
X98685000Y-69834000D01*
X113775000Y-69834000D02*
X111385000Y-69834000D01*
X111310000Y-70529000D02*
X111310000Y-69909000D01*
X96070000Y-70529000D02*
X96070000Y-69909000D01*
X103765000Y-69834000D02*
X103690000Y-69909000D01*
X108845000Y-69834000D02*
X108770000Y-69909000D01*
X91065000Y-69834000D02*
X90990000Y-69909000D01*
X111385000Y-69834000D02*
X111310000Y-69909000D01*
X90990000Y-69909000D02*
X90915000Y-69834000D01*
X100800000Y-65800000D02*
X102600000Y-65800000D01*
X85835000Y-69834000D02*
X83445000Y-69834000D01*
X93530000Y-69909000D02*
X93455000Y-69834000D01*
X106230000Y-69909000D02*
X106155000Y-69834000D01*
X88450000Y-70529000D02*
X88450000Y-69909000D01*
X85910000Y-70529000D02*
X85910000Y-69909000D01*
X103690000Y-70529000D02*
X103690000Y-69909000D01*
X108770000Y-69909000D02*
X108695000Y-69834000D01*
X113850000Y-69909000D02*
X113775000Y-69834000D01*
X96070000Y-69909000D02*
X95995000Y-69834000D01*
X100400000Y-58400000D02*
X100400000Y-65400000D01*
X108770000Y-70529000D02*
X108770000Y-69909000D01*
X108695000Y-69834000D02*
X106305000Y-69834000D01*
X83370000Y-69909000D02*
X83370000Y-70529000D01*
X95995000Y-69834000D02*
X93605000Y-69834000D01*
X113850000Y-70529000D02*
X113850000Y-69909000D01*
X93455000Y-69834000D02*
X91065000Y-69834000D01*
X101225000Y-69834000D02*
X101150000Y-69909000D01*
X103034000Y-69834000D02*
X101225000Y-69834000D01*
X101150000Y-69909000D02*
X101075000Y-69834000D01*
X100400000Y-65400000D02*
X100800000Y-65800000D01*
X96171239Y-57700480D02*
X99700480Y-57700480D01*
X88450000Y-69909000D02*
X88375000Y-69834000D01*
X106230000Y-70529000D02*
X106230000Y-69909000D01*
X85910000Y-69909000D02*
X85835000Y-69834000D01*
X98685000Y-69834000D02*
X98610000Y-69909000D01*
X101150000Y-70529000D02*
X101150000Y-69909000D01*
X106305000Y-69834000D02*
X106230000Y-69909000D01*
X103690000Y-69909000D02*
X103615000Y-69834000D01*
X98610000Y-70529000D02*
X98610000Y-69909000D01*
X88525000Y-69834000D02*
X88450000Y-69909000D01*
X106155000Y-69834000D02*
X103765000Y-69834000D01*
X103615000Y-69834000D02*
X103034000Y-69834000D01*
X88375000Y-69834000D02*
X85985000Y-69834000D01*
X111310000Y-69909000D02*
X111235000Y-69834000D01*
X94400000Y-54250000D02*
X94400000Y-55929241D01*
X98535000Y-69834000D02*
X96145000Y-69834000D01*
X90915000Y-69834000D02*
X88525000Y-69834000D01*
X98610000Y-69909000D02*
X98535000Y-69834000D01*
X90990000Y-70529000D02*
X90990000Y-69909000D01*
X96145000Y-69834000D02*
X96070000Y-69909000D01*
X111235000Y-69834000D02*
X108845000Y-69834000D01*
X93530000Y-70529000D02*
X93530000Y-69909000D01*
X83445000Y-69834000D02*
X83370000Y-69909000D01*
X99700480Y-57700480D02*
X100400000Y-58400000D01*
X85985000Y-69834000D02*
X85910000Y-69909000D01*
X102011793Y-50800000D02*
X97850000Y-50800000D01*
X106934000Y-57734000D02*
X106934000Y-58902500D01*
X102800000Y-51000000D02*
X102211793Y-51000000D01*
X106000000Y-56800000D02*
X106934000Y-57734000D01*
X102000000Y-56800000D02*
X106000000Y-56800000D01*
X102211793Y-51000000D02*
X102011793Y-50800000D01*
X103200000Y-50400000D02*
X97850000Y-50400000D01*
X101247172Y-48400000D02*
X97850000Y-48400000D01*
X101400000Y-59600000D02*
X101854000Y-59146000D01*
X102800000Y-47400000D02*
X102247172Y-47400000D01*
X102247172Y-47400000D02*
X101247172Y-48400000D01*
X101854000Y-59146000D02*
X101854000Y-58902500D01*
X98806000Y-58902500D02*
X98750600Y-58847100D01*
X103200000Y-46800000D02*
X102423586Y-46800000D01*
X101223586Y-48000000D02*
X97850000Y-48000000D01*
X102423586Y-46800000D02*
X101223586Y-48000000D01*
X84107200Y-48462604D02*
X88369804Y-44200000D01*
X95600000Y-46600000D02*
X95600000Y-47350000D01*
X83600000Y-49800000D02*
X84107200Y-49292800D01*
X84107200Y-49292800D02*
X84107200Y-48462604D01*
X93200000Y-44200000D02*
X95600000Y-46600000D01*
X88369804Y-44200000D02*
X93200000Y-44200000D01*
X84406720Y-48586669D02*
X88493869Y-44499520D01*
X88493869Y-44499520D02*
X92970277Y-44499520D01*
X84406720Y-50193280D02*
X84406720Y-48586669D01*
X95200000Y-46729243D02*
X95200000Y-47350000D01*
X83600000Y-50600000D02*
X84000000Y-50600000D01*
X92970277Y-44499520D02*
X95200000Y-46729243D01*
X84000000Y-50600000D02*
X84406720Y-50193280D01*
X89114194Y-45997120D02*
X92067878Y-45997120D01*
X91720000Y-58902500D02*
X91720000Y-57720000D01*
X92067878Y-45997120D02*
X92800000Y-46729242D01*
X85904321Y-49206993D02*
X89114194Y-45997120D01*
X85600000Y-52000000D02*
X85904320Y-51695680D01*
X85904320Y-51695680D02*
X85904321Y-49206993D01*
X92800000Y-46729242D02*
X92800000Y-47350000D01*
X86203840Y-49331059D02*
X89238259Y-46296640D01*
X91943812Y-46296640D02*
X92400000Y-46752828D01*
X92400000Y-46752828D02*
X92400000Y-47350000D01*
X86000000Y-54600000D02*
X86203840Y-54396160D01*
X89238259Y-46296640D02*
X91943812Y-46296640D01*
X87543500Y-57800000D02*
X88646000Y-58902500D01*
X87400000Y-57800000D02*
X87543500Y-57800000D01*
X86203840Y-54396160D02*
X86203840Y-49331059D01*
X83600000Y-54600000D02*
X86000000Y-54600000D01*
X87701440Y-49951388D02*
X88852828Y-48800000D01*
X88852828Y-48800000D02*
X90950000Y-48800000D01*
X86600000Y-58800000D02*
X86600000Y-58888500D01*
X86000000Y-56600000D02*
X86529242Y-56600000D01*
X86529242Y-56600000D02*
X87701440Y-55427802D01*
X87701440Y-55427802D02*
X87701440Y-49951388D01*
X86600000Y-58888500D02*
X86614000Y-58902500D01*
X88000960Y-50075454D02*
X88876414Y-49200000D01*
X83820000Y-58877000D02*
X84901440Y-58877000D01*
X88000960Y-55551868D02*
X88000960Y-50075454D01*
X84901440Y-58877000D02*
X84901440Y-58651388D01*
X84901440Y-58651388D02*
X88000960Y-55551868D01*
X88876414Y-49200000D02*
X90950000Y-49200000D01*
X88300480Y-55675934D02*
X88300480Y-50275934D01*
X88300480Y-50275934D02*
X88976414Y-49600000D01*
X84582000Y-62612500D02*
X84936000Y-62612500D01*
X88976414Y-49600000D02*
X90950000Y-49600000D01*
X85200960Y-58775454D02*
X88300480Y-55675934D01*
X85200960Y-62347540D02*
X85200960Y-58775454D01*
X84936000Y-62612500D02*
X85200960Y-62347540D01*
X88600000Y-55800000D02*
X88600000Y-50400000D01*
X85500480Y-58899520D02*
X88600000Y-55800000D01*
X89000000Y-50000000D02*
X90950000Y-50000000D01*
X88600000Y-50400000D02*
X89000000Y-50000000D01*
X83058000Y-62612500D02*
X83845500Y-63400000D01*
X85000000Y-63400000D02*
X85500480Y-62899520D01*
X83845500Y-63400000D02*
X85000000Y-63400000D01*
X85500480Y-62899520D02*
X85500480Y-58899520D01*
X106750000Y-61850000D02*
X106750000Y-62500000D01*
X103200000Y-51600000D02*
X102223586Y-51600000D01*
X101823586Y-51200000D02*
X97850000Y-51200000D01*
X102223586Y-51600000D02*
X101823586Y-51200000D01*
X106800000Y-61800000D02*
X106750000Y-61850000D01*
X101800000Y-52400000D02*
X97850000Y-52400000D01*
X108400000Y-61800000D02*
X108350000Y-61850000D01*
X108350000Y-61850000D02*
X108350000Y-62500000D01*
X102200000Y-52800000D02*
X101800000Y-52400000D01*
X103200000Y-52800000D02*
X102200000Y-52800000D01*
X102600000Y-52000000D02*
X97850000Y-52000000D01*
X107600000Y-61800000D02*
X107550000Y-61850000D01*
X107550000Y-61850000D02*
X107550000Y-62500000D01*
X102800000Y-52200000D02*
X102600000Y-52000000D01*
X102070758Y-48000000D02*
X101270758Y-48800000D01*
X101600000Y-62500000D02*
X101600000Y-61800000D01*
X101270758Y-48800000D02*
X97850000Y-48800000D01*
X103200000Y-48000000D02*
X102070758Y-48000000D01*
X101670000Y-61870000D02*
X101600000Y-61800000D01*
X101317930Y-49600000D02*
X97850000Y-49600000D01*
X101717930Y-49200000D02*
X101317930Y-49600000D01*
X103270000Y-61870000D02*
X103200000Y-61800000D01*
X103200000Y-62500000D02*
X103200000Y-61800000D01*
X103200000Y-49200000D02*
X101717930Y-49200000D01*
X102400000Y-62500000D02*
X102400000Y-61800000D01*
X102470000Y-61870000D02*
X102400000Y-61800000D01*
X101894344Y-48600000D02*
X101294344Y-49200000D01*
X101294344Y-49200000D02*
X97850000Y-49200000D01*
X102800000Y-48600000D02*
X101894344Y-48600000D01*
X101341516Y-50000000D02*
X97850000Y-50000000D01*
X104000000Y-62500000D02*
X104000000Y-61800000D01*
X102800000Y-49800000D02*
X101541516Y-49800000D01*
X101541516Y-49800000D02*
X101341516Y-50000000D01*
X104070000Y-61870000D02*
X104000000Y-61800000D01*
X96600000Y-61800000D02*
X96600000Y-62490000D01*
X101800000Y-45000000D02*
X97400000Y-45000000D01*
X96600000Y-62490000D02*
X96590000Y-62500000D01*
X97400000Y-45000000D02*
X96000000Y-46400000D01*
X96590000Y-61810000D02*
X96600000Y-61800000D01*
X96000000Y-46400000D02*
X96000000Y-47350000D01*
X98200000Y-62490000D02*
X98190000Y-62500000D01*
X102223586Y-46000000D02*
X97600978Y-46000000D01*
X96800000Y-46800978D02*
X96800000Y-47350000D01*
X98200000Y-61800000D02*
X98200000Y-62490000D01*
X98190000Y-61810000D02*
X98200000Y-61800000D01*
X103200000Y-45600000D02*
X102623586Y-45600000D01*
X97600978Y-46000000D02*
X96800000Y-46800978D01*
X102623586Y-45600000D02*
X102223586Y-46000000D01*
X97577393Y-45600000D02*
X96400000Y-46777393D01*
X96400000Y-46777393D02*
X96400000Y-47350000D01*
X97400000Y-62490000D02*
X97390000Y-62500000D01*
X102600000Y-45000000D02*
X102000000Y-45600000D01*
X97390000Y-61810000D02*
X97400000Y-61800000D01*
X97400000Y-61800000D02*
X97400000Y-62490000D01*
X102000000Y-45600000D02*
X97577393Y-45600000D01*
X102600000Y-46200000D02*
X102400000Y-46400000D01*
X99000000Y-62490000D02*
X98990000Y-62500000D01*
X98150000Y-46400000D02*
X97200000Y-47350000D01*
X102800000Y-46200000D02*
X102600000Y-46200000D01*
X98990000Y-61810000D02*
X99000000Y-61800000D01*
X99000000Y-61800000D02*
X99000000Y-62490000D01*
X102400000Y-46400000D02*
X98150000Y-46400000D01*
X88990128Y-45697600D02*
X92191944Y-45697600D01*
X91510000Y-61910000D02*
X91400000Y-61800000D01*
X93200000Y-46705656D02*
X93200000Y-47350000D01*
X85000000Y-53000000D02*
X85000000Y-51847172D01*
X91510000Y-62500000D02*
X91510000Y-61910000D01*
X85604800Y-51242372D02*
X85604800Y-49082928D01*
X92191944Y-45697600D02*
X93200000Y-46705656D01*
X85604800Y-49082928D02*
X88990128Y-45697600D01*
X83600000Y-53800000D02*
X84200000Y-53800000D01*
X84200000Y-53800000D02*
X85000000Y-53000000D01*
X85000000Y-51847172D02*
X85604800Y-51242372D01*
X92722146Y-45098560D02*
X94400000Y-46776414D01*
X84400960Y-51999040D02*
X84400960Y-51599041D01*
X85005760Y-50994240D02*
X85005760Y-48834799D01*
X94400000Y-46776414D02*
X94400000Y-47350000D01*
X88741999Y-45098560D02*
X92722146Y-45098560D01*
X84400960Y-51599041D02*
X85005760Y-50994240D01*
X83600000Y-52200000D02*
X84200000Y-52200000D01*
X93110000Y-61910000D02*
X93000000Y-61800000D01*
X84200000Y-52200000D02*
X84400960Y-51999040D01*
X85005760Y-48834799D02*
X88741999Y-45098560D01*
X93110000Y-62500000D02*
X93110000Y-61910000D01*
X92310000Y-62500000D02*
X92310000Y-61910000D01*
X88866065Y-45398080D02*
X92598080Y-45398080D01*
X84700480Y-52499520D02*
X84700480Y-51723106D01*
X85305280Y-51118306D02*
X85305280Y-48958865D01*
X92598080Y-45398080D02*
X94000000Y-46800000D01*
X94000000Y-46800000D02*
X94000000Y-47350000D01*
X84200000Y-53000000D02*
X84700480Y-52499520D01*
X85305280Y-48958865D02*
X88866065Y-45398080D01*
X83600000Y-53000000D02*
X84200000Y-53000000D01*
X84700480Y-51723106D02*
X85305280Y-51118306D01*
X92310000Y-61910000D02*
X92200000Y-61800000D01*
X84176415Y-51400000D02*
X84706240Y-50870175D01*
X88617934Y-44799040D02*
X92846211Y-44799040D01*
X83600000Y-51400000D02*
X84176415Y-51400000D01*
X92846211Y-44799040D02*
X94800000Y-46752829D01*
X84706240Y-48710734D02*
X88617934Y-44799040D01*
X93910000Y-61910000D02*
X93800000Y-61800000D01*
X94800000Y-46752829D02*
X94800000Y-47350000D01*
X93910000Y-62500000D02*
X93910000Y-61910000D01*
X84706240Y-50870175D02*
X84706240Y-48710734D01*
X86430000Y-61830000D02*
X86400000Y-61800000D01*
X87401920Y-49827322D02*
X88829242Y-48400000D01*
X85400000Y-56000000D02*
X86600000Y-56000000D01*
X86400000Y-62500000D02*
X86400000Y-61800000D01*
X88829242Y-48400000D02*
X90950000Y-48400000D01*
X86600000Y-56000000D02*
X87401920Y-55198080D01*
X87401920Y-55198080D02*
X87401920Y-49827322D01*
X83600000Y-57800000D02*
X85400000Y-56000000D01*
X89032070Y-47350000D02*
X91600000Y-47350000D01*
X83600000Y-56200000D02*
X84400000Y-55400000D01*
X86802880Y-49579190D02*
X89032070Y-47350000D01*
X84400000Y-55400000D02*
X86352828Y-55400000D01*
X86802880Y-54949948D02*
X86802880Y-49579190D01*
X86352828Y-55400000D02*
X86802880Y-54949948D01*
X88000000Y-62500000D02*
X88000000Y-61800000D01*
X88030000Y-61830000D02*
X88000000Y-61800000D01*
X87102400Y-49703256D02*
X88805656Y-48000000D01*
X88805656Y-48000000D02*
X90950000Y-48000000D01*
X87200000Y-62500000D02*
X87200000Y-61800000D01*
X87230000Y-61830000D02*
X87200000Y-61800000D01*
X84899520Y-55700480D02*
X86475934Y-55700480D01*
X86475934Y-55700480D02*
X87102400Y-55074014D01*
X83600000Y-57000000D02*
X84899520Y-55700480D01*
X87102400Y-55074014D02*
X87102400Y-49703256D01*
X83900000Y-55100000D02*
X86100000Y-55100000D01*
X92000000Y-46776414D02*
X92000000Y-47350000D01*
X86503360Y-49455125D02*
X89362325Y-46596160D01*
X86503360Y-54696640D02*
X86503360Y-49455125D01*
X88800000Y-62500000D02*
X88800000Y-61800000D01*
X89362325Y-46596160D02*
X91819746Y-46596160D01*
X88830000Y-61830000D02*
X88800000Y-61800000D01*
X86100000Y-55100000D02*
X86503360Y-54696640D01*
X83600000Y-55400000D02*
X83900000Y-55100000D01*
X91819746Y-46596160D02*
X92000000Y-46776414D01*
X89600000Y-54600000D02*
X89600000Y-53600978D01*
X90400978Y-52800000D02*
X90950000Y-52800000D01*
X89600000Y-53600978D02*
X90400978Y-52800000D01*
G04 #@! TA.AperFunction,Conductor*
G36*
X115086621Y-53353502D02*
G01*
X115133114Y-53407158D01*
X115144500Y-53459500D01*
X115144500Y-53813134D01*
X115151255Y-53875316D01*
X115202385Y-54011705D01*
X115289739Y-54128261D01*
X115406295Y-54215615D01*
X115542684Y-54266745D01*
X115604866Y-54273500D01*
X116551134Y-54273500D01*
X116613316Y-54266745D01*
X116669771Y-54245581D01*
X116740577Y-54240398D01*
X116802946Y-54274318D01*
X116837075Y-54336574D01*
X116840000Y-54363563D01*
X116840000Y-98248671D01*
X116838500Y-98268055D01*
X116834814Y-98291729D01*
X116835978Y-98300631D01*
X116835978Y-98300633D01*
X116835991Y-98300729D01*
X116836262Y-98331168D01*
X116828852Y-98396935D01*
X116822573Y-98424443D01*
X116794381Y-98505011D01*
X116782139Y-98530432D01*
X116736722Y-98602713D01*
X116719130Y-98624772D01*
X116658772Y-98685130D01*
X116636713Y-98702722D01*
X116564432Y-98748139D01*
X116539011Y-98760381D01*
X116458443Y-98788573D01*
X116430937Y-98794852D01*
X116416768Y-98796449D01*
X116371740Y-98801522D01*
X116356098Y-98802305D01*
X116347143Y-98802196D01*
X116338269Y-98800814D01*
X116306748Y-98804936D01*
X116290410Y-98806000D01*
X81837329Y-98806000D01*
X81817944Y-98804500D01*
X81803143Y-98802195D01*
X81803140Y-98802195D01*
X81794271Y-98800814D01*
X81785369Y-98801978D01*
X81785367Y-98801978D01*
X81785309Y-98801986D01*
X81785270Y-98801991D01*
X81754832Y-98802262D01*
X81689065Y-98794852D01*
X81661557Y-98788573D01*
X81580989Y-98760381D01*
X81555568Y-98748139D01*
X81483287Y-98702722D01*
X81461228Y-98685130D01*
X81400870Y-98624772D01*
X81383278Y-98602713D01*
X81337861Y-98530432D01*
X81325619Y-98505011D01*
X81297427Y-98424443D01*
X81291148Y-98396937D01*
X81284478Y-98337745D01*
X81283695Y-98322098D01*
X81283804Y-98313143D01*
X81285186Y-98304269D01*
X81281064Y-98272747D01*
X81280000Y-98256410D01*
X81280000Y-54299563D01*
X81300002Y-54231442D01*
X81353658Y-54184949D01*
X81423932Y-54174845D01*
X81450227Y-54181580D01*
X81506684Y-54202745D01*
X81568866Y-54209500D01*
X82515134Y-54209500D01*
X82577316Y-54202745D01*
X82713705Y-54151615D01*
X82744682Y-54128399D01*
X82811188Y-54103551D01*
X82880571Y-54118604D01*
X82930801Y-54168778D01*
X82945931Y-54238144D01*
X82938648Y-54272319D01*
X82884966Y-54419809D01*
X82884965Y-54419814D01*
X82882556Y-54426432D01*
X82861931Y-54589694D01*
X82877989Y-54753468D01*
X82929932Y-54909615D01*
X82933581Y-54915640D01*
X82944097Y-54933004D01*
X82962276Y-55001634D01*
X82944569Y-55058961D01*
X82945787Y-55059566D01*
X82942657Y-55065871D01*
X82938838Y-55071797D01*
X82936427Y-55078420D01*
X82936426Y-55078423D01*
X82884966Y-55219809D01*
X82884965Y-55219814D01*
X82882556Y-55226432D01*
X82861931Y-55389694D01*
X82877989Y-55553468D01*
X82929932Y-55709615D01*
X82933581Y-55715640D01*
X82944097Y-55733004D01*
X82962276Y-55801634D01*
X82944569Y-55858961D01*
X82945787Y-55859566D01*
X82942657Y-55865871D01*
X82938838Y-55871797D01*
X82936427Y-55878420D01*
X82936426Y-55878423D01*
X82884966Y-56019809D01*
X82884965Y-56019814D01*
X82882556Y-56026432D01*
X82861931Y-56189694D01*
X82877989Y-56353468D01*
X82929932Y-56509615D01*
X82933581Y-56515640D01*
X82944097Y-56533004D01*
X82962276Y-56601634D01*
X82944569Y-56658961D01*
X82945787Y-56659566D01*
X82942657Y-56665871D01*
X82938838Y-56671797D01*
X82936427Y-56678420D01*
X82936426Y-56678423D01*
X82884966Y-56819809D01*
X82884965Y-56819814D01*
X82882556Y-56826432D01*
X82861931Y-56989694D01*
X82877989Y-57153468D01*
X82929932Y-57309615D01*
X82933581Y-57315640D01*
X82944097Y-57333004D01*
X82962276Y-57401634D01*
X82944569Y-57458961D01*
X82945787Y-57459566D01*
X82942657Y-57465871D01*
X82938838Y-57471797D01*
X82936427Y-57478420D01*
X82936426Y-57478423D01*
X82884966Y-57619809D01*
X82884965Y-57619814D01*
X82882556Y-57626432D01*
X82861931Y-57789694D01*
X82877989Y-57953468D01*
X82929932Y-58109615D01*
X82948362Y-58140045D01*
X82966541Y-58208673D01*
X82947846Y-58271432D01*
X82900151Y-58348808D01*
X82846762Y-58509769D01*
X82836500Y-58609928D01*
X82836500Y-59144072D01*
X82847022Y-59245482D01*
X82900692Y-59406349D01*
X82989929Y-59550555D01*
X83014805Y-59575387D01*
X83048884Y-59637668D01*
X83043882Y-59708488D01*
X83014960Y-59753578D01*
X82989136Y-59779447D01*
X82900151Y-59923808D01*
X82846762Y-60084769D01*
X82836500Y-60184928D01*
X82836500Y-60719072D01*
X82847022Y-60820482D01*
X82900692Y-60981349D01*
X82989929Y-61125555D01*
X83109947Y-61245364D01*
X83254308Y-61334349D01*
X83261256Y-61336654D01*
X83261257Y-61336654D01*
X83408738Y-61385572D01*
X83408740Y-61385572D01*
X83415269Y-61387738D01*
X83515428Y-61398000D01*
X84124572Y-61398000D01*
X84127818Y-61397663D01*
X84127822Y-61397663D01*
X84161603Y-61394158D01*
X84225982Y-61387478D01*
X84386849Y-61333808D01*
X84425156Y-61310103D01*
X84493608Y-61291265D01*
X84561378Y-61312426D01*
X84606949Y-61366867D01*
X84617460Y-61417247D01*
X84617460Y-61540500D01*
X84597458Y-61608621D01*
X84543802Y-61655114D01*
X84491460Y-61666500D01*
X84277428Y-61666500D01*
X84274182Y-61666837D01*
X84274178Y-61666837D01*
X84240397Y-61670342D01*
X84176018Y-61677022D01*
X84015151Y-61730692D01*
X84008930Y-61734542D01*
X84008923Y-61734545D01*
X83886415Y-61810355D01*
X83817963Y-61829193D01*
X83753996Y-61810471D01*
X83630820Y-61734545D01*
X83623692Y-61730151D01*
X83616743Y-61727846D01*
X83469262Y-61678928D01*
X83469260Y-61678928D01*
X83462731Y-61676762D01*
X83362572Y-61666500D01*
X82753428Y-61666500D01*
X82750182Y-61666837D01*
X82750178Y-61666837D01*
X82716397Y-61670342D01*
X82652018Y-61677022D01*
X82491151Y-61730692D01*
X82346945Y-61819929D01*
X82227136Y-61939947D01*
X82138151Y-62084308D01*
X82084762Y-62245269D01*
X82074500Y-62345428D01*
X82074500Y-62879572D01*
X82085022Y-62980982D01*
X82138692Y-63141849D01*
X82227929Y-63286055D01*
X82252805Y-63310887D01*
X82286884Y-63373168D01*
X82281882Y-63443988D01*
X82252960Y-63489078D01*
X82227136Y-63514947D01*
X82138151Y-63659308D01*
X82135846Y-63666256D01*
X82135846Y-63666257D01*
X82094907Y-63789684D01*
X82084762Y-63820269D01*
X82074500Y-63920428D01*
X82074500Y-64454572D01*
X82085022Y-64555982D01*
X82138692Y-64716849D01*
X82227929Y-64861055D01*
X82347947Y-64980864D01*
X82492308Y-65069849D01*
X82499256Y-65072154D01*
X82499257Y-65072154D01*
X82646738Y-65121072D01*
X82646740Y-65121072D01*
X82653269Y-65123238D01*
X82753428Y-65133500D01*
X83362572Y-65133500D01*
X83365818Y-65133163D01*
X83365822Y-65133163D01*
X83399603Y-65129658D01*
X83463982Y-65122978D01*
X83624849Y-65069308D01*
X83631070Y-65065458D01*
X83631077Y-65065455D01*
X83753585Y-64989645D01*
X83822037Y-64970807D01*
X83886005Y-64989529D01*
X84016308Y-65069849D01*
X84023256Y-65072154D01*
X84023257Y-65072154D01*
X84170738Y-65121072D01*
X84170740Y-65121072D01*
X84177269Y-65123238D01*
X84277428Y-65133500D01*
X84526734Y-65133500D01*
X84594855Y-65153502D01*
X84641348Y-65207158D01*
X84651452Y-65277432D01*
X84627110Y-65332911D01*
X84627982Y-65333473D01*
X84538838Y-65471797D01*
X84487955Y-65611598D01*
X84445863Y-65668766D01*
X84379542Y-65694104D01*
X84369556Y-65694500D01*
X83491503Y-65694500D01*
X83475056Y-65693422D01*
X83453188Y-65690543D01*
X83445000Y-65689465D01*
X83406756Y-65694500D01*
X83292676Y-65709519D01*
X83150733Y-65768314D01*
X83028843Y-65861843D01*
X83023820Y-65868389D01*
X83010382Y-65885902D01*
X82999514Y-65898293D01*
X82990293Y-65907514D01*
X82977903Y-65918381D01*
X82953843Y-65936843D01*
X82904418Y-66001255D01*
X82904417Y-66001255D01*
X82904414Y-66001260D01*
X82897998Y-66009621D01*
X82853351Y-66042690D01*
X82854574Y-66044924D01*
X82846704Y-66049233D01*
X82838295Y-66052385D01*
X82721739Y-66139739D01*
X82634385Y-66256295D01*
X82583255Y-66392684D01*
X82576500Y-66454866D01*
X82576500Y-67491134D01*
X82583255Y-67553316D01*
X82634385Y-67689705D01*
X82650826Y-67711642D01*
X82673904Y-67742435D01*
X82698752Y-67808941D01*
X82683699Y-67878324D01*
X82673904Y-67893565D01*
X82634385Y-67946295D01*
X82583255Y-68082684D01*
X82576500Y-68144866D01*
X82576500Y-69181134D01*
X82583255Y-69243316D01*
X82634385Y-69379705D01*
X82721739Y-69496261D01*
X82728919Y-69501642D01*
X82734182Y-69506905D01*
X82768208Y-69569217D01*
X82763143Y-69640032D01*
X82734182Y-69685095D01*
X82728919Y-69690358D01*
X82721739Y-69695739D01*
X82634385Y-69812295D01*
X82583255Y-69948684D01*
X82576500Y-70010866D01*
X82576500Y-71047134D01*
X82583255Y-71109316D01*
X82634385Y-71245705D01*
X82650826Y-71267642D01*
X82673904Y-71298435D01*
X82698752Y-71364941D01*
X82683699Y-71434324D01*
X82673904Y-71449565D01*
X82634385Y-71502295D01*
X82583255Y-71638684D01*
X82576500Y-71700866D01*
X82576500Y-72737134D01*
X82583255Y-72799316D01*
X82634385Y-72935705D01*
X82721739Y-73052261D01*
X82728919Y-73057642D01*
X82734182Y-73062905D01*
X82768208Y-73125217D01*
X82763143Y-73196032D01*
X82734182Y-73241095D01*
X82728919Y-73246358D01*
X82721739Y-73251739D01*
X82634385Y-73368295D01*
X82583255Y-73504684D01*
X82576500Y-73566866D01*
X82576500Y-74603134D01*
X82583255Y-74665316D01*
X82634385Y-74801705D01*
X82650826Y-74823642D01*
X82673904Y-74854435D01*
X82698752Y-74920941D01*
X82683699Y-74990324D01*
X82673904Y-75005565D01*
X82634385Y-75058295D01*
X82583255Y-75194684D01*
X82576500Y-75256866D01*
X82576500Y-76293134D01*
X82583255Y-76355316D01*
X82634385Y-76491705D01*
X82721739Y-76608261D01*
X82728919Y-76613642D01*
X82734182Y-76618905D01*
X82768208Y-76681217D01*
X82763143Y-76752032D01*
X82734182Y-76797095D01*
X82728919Y-76802358D01*
X82721739Y-76807739D01*
X82634385Y-76924295D01*
X82583255Y-77060684D01*
X82576500Y-77122866D01*
X82576500Y-78159134D01*
X82583255Y-78221316D01*
X82634385Y-78357705D01*
X82650826Y-78379642D01*
X82673904Y-78410435D01*
X82698752Y-78476941D01*
X82683699Y-78546324D01*
X82673904Y-78561565D01*
X82634385Y-78614295D01*
X82583255Y-78750684D01*
X82576500Y-78812866D01*
X82576500Y-79849134D01*
X82583255Y-79911316D01*
X82634385Y-80047705D01*
X82721739Y-80164261D01*
X82728919Y-80169642D01*
X82734182Y-80174905D01*
X82768208Y-80237217D01*
X82763143Y-80308032D01*
X82734182Y-80353095D01*
X82728919Y-80358358D01*
X82721739Y-80363739D01*
X82634385Y-80480295D01*
X82583255Y-80616684D01*
X82576500Y-80678866D01*
X82576500Y-81715134D01*
X82583255Y-81777316D01*
X82634385Y-81913705D01*
X82650826Y-81935642D01*
X82673904Y-81966435D01*
X82698752Y-82032941D01*
X82683699Y-82102324D01*
X82673904Y-82117565D01*
X82634385Y-82170295D01*
X82583255Y-82306684D01*
X82576500Y-82368866D01*
X82576500Y-83405134D01*
X82583255Y-83467316D01*
X82634385Y-83603705D01*
X82721739Y-83720261D01*
X82728919Y-83725642D01*
X82734182Y-83730905D01*
X82768208Y-83793217D01*
X82763143Y-83864032D01*
X82734182Y-83909095D01*
X82728919Y-83914358D01*
X82721739Y-83919739D01*
X82634385Y-84036295D01*
X82583255Y-84172684D01*
X82576500Y-84234866D01*
X82576500Y-85271134D01*
X82583255Y-85333316D01*
X82634385Y-85469705D01*
X82650826Y-85491642D01*
X82673904Y-85522435D01*
X82698752Y-85588941D01*
X82683699Y-85658324D01*
X82673904Y-85673565D01*
X82634385Y-85726295D01*
X82583255Y-85862684D01*
X82576500Y-85924866D01*
X82576500Y-86961134D01*
X82583255Y-87023316D01*
X82634385Y-87159705D01*
X82721739Y-87276261D01*
X82728919Y-87281642D01*
X82734182Y-87286905D01*
X82768208Y-87349217D01*
X82763143Y-87420032D01*
X82734182Y-87465095D01*
X82728919Y-87470358D01*
X82721739Y-87475739D01*
X82634385Y-87592295D01*
X82583255Y-87728684D01*
X82576500Y-87790866D01*
X82576500Y-88827134D01*
X82583255Y-88889316D01*
X82634385Y-89025705D01*
X82650826Y-89047642D01*
X82673904Y-89078435D01*
X82698752Y-89144941D01*
X82683699Y-89214324D01*
X82673904Y-89229565D01*
X82634385Y-89282295D01*
X82583255Y-89418684D01*
X82576500Y-89480866D01*
X82576500Y-90517134D01*
X82583255Y-90579316D01*
X82634385Y-90715705D01*
X82721739Y-90832261D01*
X82728919Y-90837642D01*
X82734182Y-90842905D01*
X82768208Y-90905217D01*
X82763143Y-90976032D01*
X82734182Y-91021095D01*
X82728919Y-91026358D01*
X82721739Y-91031739D01*
X82634385Y-91148295D01*
X82583255Y-91284684D01*
X82576500Y-91346866D01*
X82576500Y-92383134D01*
X82583255Y-92445316D01*
X82634385Y-92581705D01*
X82650826Y-92603642D01*
X82673904Y-92634435D01*
X82698752Y-92700941D01*
X82683699Y-92770324D01*
X82673904Y-92785565D01*
X82634385Y-92838295D01*
X82583255Y-92974684D01*
X82576500Y-93036866D01*
X82576500Y-94073134D01*
X82583255Y-94135316D01*
X82634385Y-94271705D01*
X82721739Y-94388261D01*
X82728919Y-94393642D01*
X82734182Y-94398905D01*
X82768208Y-94461217D01*
X82763143Y-94532032D01*
X82734182Y-94577095D01*
X82728919Y-94582358D01*
X82721739Y-94587739D01*
X82634385Y-94704295D01*
X82583255Y-94840684D01*
X82576500Y-94902866D01*
X82576500Y-95939134D01*
X82583255Y-96001316D01*
X82634385Y-96137705D01*
X82650826Y-96159642D01*
X82673904Y-96190435D01*
X82698752Y-96256941D01*
X82683699Y-96326324D01*
X82673904Y-96341565D01*
X82634385Y-96394295D01*
X82583255Y-96530684D01*
X82576500Y-96592866D01*
X82576500Y-97629134D01*
X82583255Y-97691316D01*
X82634385Y-97827705D01*
X82721739Y-97944261D01*
X82838295Y-98031615D01*
X82974684Y-98082745D01*
X83036866Y-98089500D01*
X83703134Y-98089500D01*
X83706531Y-98089131D01*
X83757466Y-98083598D01*
X83757468Y-98083598D01*
X83765316Y-98082745D01*
X83775775Y-98078824D01*
X83778328Y-98078637D01*
X83780398Y-98078145D01*
X83780478Y-98078480D01*
X83846582Y-98073644D01*
X83864224Y-98078824D01*
X83874684Y-98082745D01*
X83882532Y-98083598D01*
X83882534Y-98083598D01*
X83933469Y-98089131D01*
X83936866Y-98089500D01*
X84603134Y-98089500D01*
X84665316Y-98082745D01*
X84801705Y-98031615D01*
X84918261Y-97944261D01*
X84989174Y-97849642D01*
X85046033Y-97807127D01*
X85116852Y-97802101D01*
X85179145Y-97836161D01*
X85190825Y-97849641D01*
X85261739Y-97944261D01*
X85378295Y-98031615D01*
X85514684Y-98082745D01*
X85576866Y-98089500D01*
X86243134Y-98089500D01*
X86246531Y-98089131D01*
X86297466Y-98083598D01*
X86297468Y-98083598D01*
X86305316Y-98082745D01*
X86315775Y-98078824D01*
X86318328Y-98078637D01*
X86320398Y-98078145D01*
X86320478Y-98078480D01*
X86386582Y-98073644D01*
X86404224Y-98078824D01*
X86414684Y-98082745D01*
X86422532Y-98083598D01*
X86422534Y-98083598D01*
X86473469Y-98089131D01*
X86476866Y-98089500D01*
X87143134Y-98089500D01*
X87205316Y-98082745D01*
X87341705Y-98031615D01*
X87458261Y-97944261D01*
X87529174Y-97849642D01*
X87586033Y-97807127D01*
X87656852Y-97802101D01*
X87719145Y-97836161D01*
X87730825Y-97849641D01*
X87801739Y-97944261D01*
X87918295Y-98031615D01*
X88054684Y-98082745D01*
X88116866Y-98089500D01*
X88783134Y-98089500D01*
X88786531Y-98089131D01*
X88837466Y-98083598D01*
X88837468Y-98083598D01*
X88845316Y-98082745D01*
X88855775Y-98078824D01*
X88858328Y-98078637D01*
X88860398Y-98078145D01*
X88860478Y-98078480D01*
X88926582Y-98073644D01*
X88944224Y-98078824D01*
X88954684Y-98082745D01*
X88962532Y-98083598D01*
X88962534Y-98083598D01*
X89013469Y-98089131D01*
X89016866Y-98089500D01*
X89683134Y-98089500D01*
X89745316Y-98082745D01*
X89881705Y-98031615D01*
X89998261Y-97944261D01*
X90069174Y-97849642D01*
X90126033Y-97807127D01*
X90196852Y-97802101D01*
X90259145Y-97836161D01*
X90270825Y-97849641D01*
X90341739Y-97944261D01*
X90458295Y-98031615D01*
X90594684Y-98082745D01*
X90656866Y-98089500D01*
X91323134Y-98089500D01*
X91326531Y-98089131D01*
X91377466Y-98083598D01*
X91377468Y-98083598D01*
X91385316Y-98082745D01*
X91395775Y-98078824D01*
X91398328Y-98078637D01*
X91400398Y-98078145D01*
X91400478Y-98078480D01*
X91466582Y-98073644D01*
X91484224Y-98078824D01*
X91494684Y-98082745D01*
X91502532Y-98083598D01*
X91502534Y-98083598D01*
X91553469Y-98089131D01*
X91556866Y-98089500D01*
X92223134Y-98089500D01*
X92285316Y-98082745D01*
X92421705Y-98031615D01*
X92538261Y-97944261D01*
X92609174Y-97849642D01*
X92666033Y-97807127D01*
X92736852Y-97802101D01*
X92799145Y-97836161D01*
X92810825Y-97849641D01*
X92881739Y-97944261D01*
X92998295Y-98031615D01*
X93134684Y-98082745D01*
X93196866Y-98089500D01*
X93863134Y-98089500D01*
X93866531Y-98089131D01*
X93917466Y-98083598D01*
X93917468Y-98083598D01*
X93925316Y-98082745D01*
X93935775Y-98078824D01*
X93938328Y-98078637D01*
X93940398Y-98078145D01*
X93940478Y-98078480D01*
X94006582Y-98073644D01*
X94024224Y-98078824D01*
X94034684Y-98082745D01*
X94042532Y-98083598D01*
X94042534Y-98083598D01*
X94093469Y-98089131D01*
X94096866Y-98089500D01*
X94763134Y-98089500D01*
X94825316Y-98082745D01*
X94961705Y-98031615D01*
X95078261Y-97944261D01*
X95149174Y-97849642D01*
X95206033Y-97807127D01*
X95276852Y-97802101D01*
X95339145Y-97836161D01*
X95350825Y-97849641D01*
X95421739Y-97944261D01*
X95538295Y-98031615D01*
X95674684Y-98082745D01*
X95736866Y-98089500D01*
X96403134Y-98089500D01*
X96406531Y-98089131D01*
X96457466Y-98083598D01*
X96457468Y-98083598D01*
X96465316Y-98082745D01*
X96475775Y-98078824D01*
X96478328Y-98078637D01*
X96480398Y-98078145D01*
X96480478Y-98078480D01*
X96546582Y-98073644D01*
X96564224Y-98078824D01*
X96574684Y-98082745D01*
X96582532Y-98083598D01*
X96582534Y-98083598D01*
X96633469Y-98089131D01*
X96636866Y-98089500D01*
X97303134Y-98089500D01*
X97365316Y-98082745D01*
X97501705Y-98031615D01*
X97618261Y-97944261D01*
X97689174Y-97849642D01*
X97746033Y-97807127D01*
X97816852Y-97802101D01*
X97879145Y-97836161D01*
X97890825Y-97849641D01*
X97961739Y-97944261D01*
X98078295Y-98031615D01*
X98214684Y-98082745D01*
X98276866Y-98089500D01*
X98943134Y-98089500D01*
X98946531Y-98089131D01*
X98997466Y-98083598D01*
X98997468Y-98083598D01*
X99005316Y-98082745D01*
X99015775Y-98078824D01*
X99018328Y-98078637D01*
X99020398Y-98078145D01*
X99020478Y-98078480D01*
X99086582Y-98073644D01*
X99104224Y-98078824D01*
X99114684Y-98082745D01*
X99122532Y-98083598D01*
X99122534Y-98083598D01*
X99173469Y-98089131D01*
X99176866Y-98089500D01*
X99843134Y-98089500D01*
X99905316Y-98082745D01*
X100041705Y-98031615D01*
X100158261Y-97944261D01*
X100229174Y-97849642D01*
X100286033Y-97807127D01*
X100356852Y-97802101D01*
X100419145Y-97836161D01*
X100430825Y-97849641D01*
X100501739Y-97944261D01*
X100618295Y-98031615D01*
X100754684Y-98082745D01*
X100816866Y-98089500D01*
X101483134Y-98089500D01*
X101486531Y-98089131D01*
X101537466Y-98083598D01*
X101537468Y-98083598D01*
X101545316Y-98082745D01*
X101555775Y-98078824D01*
X101558328Y-98078637D01*
X101560398Y-98078145D01*
X101560478Y-98078480D01*
X101626582Y-98073644D01*
X101644224Y-98078824D01*
X101654684Y-98082745D01*
X101662532Y-98083598D01*
X101662534Y-98083598D01*
X101713469Y-98089131D01*
X101716866Y-98089500D01*
X102383134Y-98089500D01*
X102445316Y-98082745D01*
X102581705Y-98031615D01*
X102698261Y-97944261D01*
X102769174Y-97849642D01*
X102826033Y-97807127D01*
X102896852Y-97802101D01*
X102959145Y-97836161D01*
X102970825Y-97849641D01*
X103041739Y-97944261D01*
X103158295Y-98031615D01*
X103294684Y-98082745D01*
X103356866Y-98089500D01*
X104023134Y-98089500D01*
X104026531Y-98089131D01*
X104077466Y-98083598D01*
X104077468Y-98083598D01*
X104085316Y-98082745D01*
X104095775Y-98078824D01*
X104098328Y-98078637D01*
X104100398Y-98078145D01*
X104100478Y-98078480D01*
X104166582Y-98073644D01*
X104184224Y-98078824D01*
X104194684Y-98082745D01*
X104202532Y-98083598D01*
X104202534Y-98083598D01*
X104253469Y-98089131D01*
X104256866Y-98089500D01*
X104923134Y-98089500D01*
X104985316Y-98082745D01*
X105121705Y-98031615D01*
X105238261Y-97944261D01*
X105309174Y-97849642D01*
X105366033Y-97807127D01*
X105436852Y-97802101D01*
X105499145Y-97836161D01*
X105510825Y-97849641D01*
X105581739Y-97944261D01*
X105698295Y-98031615D01*
X105834684Y-98082745D01*
X105896866Y-98089500D01*
X106563134Y-98089500D01*
X106566531Y-98089131D01*
X106617466Y-98083598D01*
X106617468Y-98083598D01*
X106625316Y-98082745D01*
X106635775Y-98078824D01*
X106638328Y-98078637D01*
X106640398Y-98078145D01*
X106640478Y-98078480D01*
X106706582Y-98073644D01*
X106724224Y-98078824D01*
X106734684Y-98082745D01*
X106742532Y-98083598D01*
X106742534Y-98083598D01*
X106793469Y-98089131D01*
X106796866Y-98089500D01*
X107463134Y-98089500D01*
X107525316Y-98082745D01*
X107661705Y-98031615D01*
X107778261Y-97944261D01*
X107849174Y-97849642D01*
X107906033Y-97807127D01*
X107976852Y-97802101D01*
X108039145Y-97836161D01*
X108050825Y-97849641D01*
X108121739Y-97944261D01*
X108238295Y-98031615D01*
X108374684Y-98082745D01*
X108436866Y-98089500D01*
X109103134Y-98089500D01*
X109106531Y-98089131D01*
X109157466Y-98083598D01*
X109157468Y-98083598D01*
X109165316Y-98082745D01*
X109175775Y-98078824D01*
X109178328Y-98078637D01*
X109180398Y-98078145D01*
X109180478Y-98078480D01*
X109246582Y-98073644D01*
X109264224Y-98078824D01*
X109274684Y-98082745D01*
X109282532Y-98083598D01*
X109282534Y-98083598D01*
X109333469Y-98089131D01*
X109336866Y-98089500D01*
X110003134Y-98089500D01*
X110065316Y-98082745D01*
X110201705Y-98031615D01*
X110318261Y-97944261D01*
X110389174Y-97849642D01*
X110446033Y-97807127D01*
X110516852Y-97802101D01*
X110579145Y-97836161D01*
X110590825Y-97849641D01*
X110661739Y-97944261D01*
X110778295Y-98031615D01*
X110914684Y-98082745D01*
X110976866Y-98089500D01*
X111643134Y-98089500D01*
X111646531Y-98089131D01*
X111697466Y-98083598D01*
X111697468Y-98083598D01*
X111705316Y-98082745D01*
X111715775Y-98078824D01*
X111718328Y-98078637D01*
X111720398Y-98078145D01*
X111720478Y-98078480D01*
X111786582Y-98073644D01*
X111804224Y-98078824D01*
X111814684Y-98082745D01*
X111822532Y-98083598D01*
X111822534Y-98083598D01*
X111873469Y-98089131D01*
X111876866Y-98089500D01*
X112543134Y-98089500D01*
X112605316Y-98082745D01*
X112741705Y-98031615D01*
X112858261Y-97944261D01*
X112929174Y-97849642D01*
X112986033Y-97807127D01*
X113056852Y-97802101D01*
X113119145Y-97836161D01*
X113130825Y-97849641D01*
X113201739Y-97944261D01*
X113318295Y-98031615D01*
X113454684Y-98082745D01*
X113516866Y-98089500D01*
X114183134Y-98089500D01*
X114186531Y-98089131D01*
X114237466Y-98083598D01*
X114237468Y-98083598D01*
X114245316Y-98082745D01*
X114255775Y-98078824D01*
X114258328Y-98078637D01*
X114260398Y-98078145D01*
X114260478Y-98078480D01*
X114326582Y-98073644D01*
X114344224Y-98078824D01*
X114354684Y-98082745D01*
X114362532Y-98083598D01*
X114362534Y-98083598D01*
X114413469Y-98089131D01*
X114416866Y-98089500D01*
X115083134Y-98089500D01*
X115145316Y-98082745D01*
X115281705Y-98031615D01*
X115398261Y-97944261D01*
X115485615Y-97827705D01*
X115536745Y-97691316D01*
X115543500Y-97629134D01*
X115543500Y-96592866D01*
X115536745Y-96530684D01*
X115485615Y-96394295D01*
X115446096Y-96341565D01*
X115421248Y-96275059D01*
X115436301Y-96205676D01*
X115446096Y-96190435D01*
X115469174Y-96159642D01*
X115485615Y-96137705D01*
X115536745Y-96001316D01*
X115543500Y-95939134D01*
X115543500Y-94902866D01*
X115536745Y-94840684D01*
X115485615Y-94704295D01*
X115398261Y-94587739D01*
X115391081Y-94582358D01*
X115385818Y-94577095D01*
X115351792Y-94514783D01*
X115356857Y-94443968D01*
X115385818Y-94398905D01*
X115391081Y-94393642D01*
X115398261Y-94388261D01*
X115485615Y-94271705D01*
X115536745Y-94135316D01*
X115543500Y-94073134D01*
X115543500Y-93036866D01*
X115536745Y-92974684D01*
X115485615Y-92838295D01*
X115446096Y-92785565D01*
X115421248Y-92719059D01*
X115436301Y-92649676D01*
X115446096Y-92634435D01*
X115469174Y-92603642D01*
X115485615Y-92581705D01*
X115536745Y-92445316D01*
X115543500Y-92383134D01*
X115543500Y-91346866D01*
X115536745Y-91284684D01*
X115485615Y-91148295D01*
X115398261Y-91031739D01*
X115391081Y-91026358D01*
X115385818Y-91021095D01*
X115351792Y-90958783D01*
X115356857Y-90887968D01*
X115385818Y-90842905D01*
X115391081Y-90837642D01*
X115398261Y-90832261D01*
X115485615Y-90715705D01*
X115536745Y-90579316D01*
X115543500Y-90517134D01*
X115543500Y-89480866D01*
X115536745Y-89418684D01*
X115485615Y-89282295D01*
X115446096Y-89229565D01*
X115421248Y-89163059D01*
X115436301Y-89093676D01*
X115446096Y-89078435D01*
X115469174Y-89047642D01*
X115485615Y-89025705D01*
X115536745Y-88889316D01*
X115543500Y-88827134D01*
X115543500Y-87790866D01*
X115536745Y-87728684D01*
X115485615Y-87592295D01*
X115398261Y-87475739D01*
X115391081Y-87470358D01*
X115385818Y-87465095D01*
X115351792Y-87402783D01*
X115356857Y-87331968D01*
X115385818Y-87286905D01*
X115391081Y-87281642D01*
X115398261Y-87276261D01*
X115485615Y-87159705D01*
X115536745Y-87023316D01*
X115543500Y-86961134D01*
X115543500Y-85924866D01*
X115536745Y-85862684D01*
X115485615Y-85726295D01*
X115446096Y-85673565D01*
X115421248Y-85607059D01*
X115436301Y-85537676D01*
X115446096Y-85522435D01*
X115469174Y-85491642D01*
X115485615Y-85469705D01*
X115536745Y-85333316D01*
X115543500Y-85271134D01*
X115543500Y-84234866D01*
X115536745Y-84172684D01*
X115485615Y-84036295D01*
X115398261Y-83919739D01*
X115391081Y-83914358D01*
X115385818Y-83909095D01*
X115351792Y-83846783D01*
X115356857Y-83775968D01*
X115385818Y-83730905D01*
X115391081Y-83725642D01*
X115398261Y-83720261D01*
X115485615Y-83603705D01*
X115536745Y-83467316D01*
X115543500Y-83405134D01*
X115543500Y-82368866D01*
X115536745Y-82306684D01*
X115485615Y-82170295D01*
X115446096Y-82117565D01*
X115421248Y-82051059D01*
X115436301Y-81981676D01*
X115446096Y-81966435D01*
X115469174Y-81935642D01*
X115485615Y-81913705D01*
X115536745Y-81777316D01*
X115543500Y-81715134D01*
X115543500Y-80678866D01*
X115536745Y-80616684D01*
X115485615Y-80480295D01*
X115398261Y-80363739D01*
X115391081Y-80358358D01*
X115385818Y-80353095D01*
X115351792Y-80290783D01*
X115356857Y-80219968D01*
X115385818Y-80174905D01*
X115391081Y-80169642D01*
X115398261Y-80164261D01*
X115485615Y-80047705D01*
X115536745Y-79911316D01*
X115543500Y-79849134D01*
X115543500Y-78812866D01*
X115536745Y-78750684D01*
X115485615Y-78614295D01*
X115446096Y-78561565D01*
X115421248Y-78495059D01*
X115436301Y-78425676D01*
X115446096Y-78410435D01*
X115469174Y-78379642D01*
X115485615Y-78357705D01*
X115536745Y-78221316D01*
X115543500Y-78159134D01*
X115543500Y-77122866D01*
X115536745Y-77060684D01*
X115485615Y-76924295D01*
X115398261Y-76807739D01*
X115391081Y-76802358D01*
X115385818Y-76797095D01*
X115351792Y-76734783D01*
X115356857Y-76663968D01*
X115385818Y-76618905D01*
X115391081Y-76613642D01*
X115398261Y-76608261D01*
X115485615Y-76491705D01*
X115536745Y-76355316D01*
X115543500Y-76293134D01*
X115543500Y-75256866D01*
X115536745Y-75194684D01*
X115485615Y-75058295D01*
X115446096Y-75005565D01*
X115421248Y-74939059D01*
X115436301Y-74869676D01*
X115446096Y-74854435D01*
X115469174Y-74823642D01*
X115485615Y-74801705D01*
X115536745Y-74665316D01*
X115543500Y-74603134D01*
X115543500Y-73566866D01*
X115536745Y-73504684D01*
X115485615Y-73368295D01*
X115398261Y-73251739D01*
X115391081Y-73246358D01*
X115385818Y-73241095D01*
X115351792Y-73178783D01*
X115356857Y-73107968D01*
X115385818Y-73062905D01*
X115391081Y-73057642D01*
X115398261Y-73052261D01*
X115485615Y-72935705D01*
X115536745Y-72799316D01*
X115543500Y-72737134D01*
X115543500Y-71700866D01*
X115536745Y-71638684D01*
X115485615Y-71502295D01*
X115446096Y-71449565D01*
X115421248Y-71383059D01*
X115436301Y-71313676D01*
X115446096Y-71298435D01*
X115469174Y-71267642D01*
X115485615Y-71245705D01*
X115536745Y-71109316D01*
X115543500Y-71047134D01*
X115543500Y-70010866D01*
X115536745Y-69948684D01*
X115485615Y-69812295D01*
X115398261Y-69695739D01*
X115391081Y-69690358D01*
X115385818Y-69685095D01*
X115351792Y-69622783D01*
X115356857Y-69551968D01*
X115385818Y-69506905D01*
X115391081Y-69501642D01*
X115398261Y-69496261D01*
X115485615Y-69379705D01*
X115536745Y-69243316D01*
X115543500Y-69181134D01*
X115543500Y-68144866D01*
X115536745Y-68082684D01*
X115485615Y-67946295D01*
X115446096Y-67893565D01*
X115421248Y-67827059D01*
X115436301Y-67757676D01*
X115446096Y-67742435D01*
X115469174Y-67711642D01*
X115485615Y-67689705D01*
X115536745Y-67553316D01*
X115543500Y-67491134D01*
X115543500Y-66454866D01*
X115536745Y-66392684D01*
X115485615Y-66256295D01*
X115398261Y-66139739D01*
X115281705Y-66052385D01*
X115145316Y-66001255D01*
X115083134Y-65994500D01*
X114416866Y-65994500D01*
X114389029Y-65997524D01*
X114319146Y-65984996D01*
X114275456Y-65948962D01*
X114271180Y-65943389D01*
X114266157Y-65936843D01*
X114242097Y-65918381D01*
X114229707Y-65907514D01*
X114220486Y-65898293D01*
X114209618Y-65885902D01*
X114196180Y-65868389D01*
X114191157Y-65861843D01*
X114069267Y-65768314D01*
X113927324Y-65709519D01*
X113813244Y-65694500D01*
X113775000Y-65689465D01*
X113766812Y-65690543D01*
X113744944Y-65693422D01*
X113728497Y-65694500D01*
X113429551Y-65694500D01*
X113361430Y-65674498D01*
X113314937Y-65620842D01*
X113310560Y-65609937D01*
X113267998Y-65487717D01*
X113265680Y-65481060D01*
X113215821Y-65401269D01*
X113196685Y-65332901D01*
X113217550Y-65265040D01*
X113271791Y-65219232D01*
X113322675Y-65208500D01*
X113648134Y-65208500D01*
X113710316Y-65201745D01*
X113730770Y-65194077D01*
X113801577Y-65188894D01*
X113819229Y-65194077D01*
X113839684Y-65201745D01*
X113901866Y-65208500D01*
X114498134Y-65208500D01*
X114560316Y-65201745D01*
X114696705Y-65150615D01*
X114813261Y-65063261D01*
X114900615Y-64946705D01*
X114951745Y-64810316D01*
X114958500Y-64748134D01*
X114958500Y-63851866D01*
X114951745Y-63789684D01*
X114948973Y-63782288D01*
X114948971Y-63782282D01*
X114926172Y-63721467D01*
X114920989Y-63650660D01*
X114926365Y-63632496D01*
X114944951Y-63583568D01*
X114958231Y-63489078D01*
X114967302Y-63424534D01*
X114967303Y-63424527D01*
X114967853Y-63420610D01*
X114968141Y-63400000D01*
X114949798Y-63236466D01*
X114924887Y-63164931D01*
X114921375Y-63094023D01*
X114925897Y-63079267D01*
X114948973Y-63017711D01*
X114948973Y-63017709D01*
X114951745Y-63010316D01*
X114952599Y-63002460D01*
X114958131Y-62951531D01*
X114958500Y-62948134D01*
X114958500Y-62051866D01*
X114951745Y-61989684D01*
X114948973Y-61982289D01*
X114948971Y-61982282D01*
X114935612Y-61946648D01*
X114928820Y-61884883D01*
X114937302Y-61824534D01*
X114937303Y-61824526D01*
X114937853Y-61820610D01*
X114938141Y-61800000D01*
X114919798Y-61636466D01*
X114865680Y-61481060D01*
X114786041Y-61353611D01*
X114766905Y-61285242D01*
X114787770Y-61217380D01*
X114803722Y-61197823D01*
X114871693Y-61129734D01*
X114871697Y-61129729D01*
X114876864Y-61124553D01*
X114882133Y-61116006D01*
X114918880Y-61056390D01*
X114965849Y-60980192D01*
X115010780Y-60844731D01*
X115017072Y-60825762D01*
X115017072Y-60825760D01*
X115019238Y-60819231D01*
X115029500Y-60719072D01*
X115029500Y-60184928D01*
X115018978Y-60083518D01*
X114965308Y-59922651D01*
X114876071Y-59778445D01*
X114851195Y-59753613D01*
X114817116Y-59691332D01*
X114822118Y-59620512D01*
X114851040Y-59575422D01*
X114871693Y-59554733D01*
X114876864Y-59549553D01*
X114882782Y-59539953D01*
X114926096Y-59469683D01*
X114965849Y-59405192D01*
X115010780Y-59269731D01*
X115017072Y-59250762D01*
X115017072Y-59250760D01*
X115019238Y-59244231D01*
X115029500Y-59144072D01*
X115029500Y-58609928D01*
X115018978Y-58508518D01*
X114965308Y-58347651D01*
X114876071Y-58203445D01*
X114756053Y-58083636D01*
X114611692Y-57994651D01*
X114604743Y-57992346D01*
X114457262Y-57943428D01*
X114457260Y-57943428D01*
X114450731Y-57941262D01*
X114350572Y-57931000D01*
X113741428Y-57931000D01*
X113738182Y-57931337D01*
X113738178Y-57931337D01*
X113704397Y-57934842D01*
X113640018Y-57941522D01*
X113479151Y-57995192D01*
X113334945Y-58084429D01*
X113334182Y-58083196D01*
X113275894Y-58106785D01*
X113221180Y-58100100D01*
X113175189Y-58083723D01*
X113175187Y-58083722D01*
X113168555Y-58081361D01*
X113161569Y-58080528D01*
X113161565Y-58080527D01*
X113044175Y-58066530D01*
X113005153Y-58061877D01*
X112998150Y-58062613D01*
X112998149Y-58062613D01*
X112960882Y-58066530D01*
X112841495Y-58079078D01*
X112834826Y-58081348D01*
X112834823Y-58081349D01*
X112817266Y-58087326D01*
X112746334Y-58090345D01*
X112710546Y-58075310D01*
X112579692Y-57994651D01*
X112572743Y-57992346D01*
X112425262Y-57943428D01*
X112425260Y-57943428D01*
X112418731Y-57941262D01*
X112318572Y-57931000D01*
X111709428Y-57931000D01*
X111706182Y-57931337D01*
X111706178Y-57931337D01*
X111672397Y-57934842D01*
X111608018Y-57941522D01*
X111447151Y-57995192D01*
X111302945Y-58084429D01*
X111183136Y-58204447D01*
X111094151Y-58348808D01*
X111040762Y-58509769D01*
X111030500Y-58609928D01*
X111030500Y-59144072D01*
X111041022Y-59245482D01*
X111094692Y-59406349D01*
X111183929Y-59550555D01*
X111208805Y-59575387D01*
X111242884Y-59637668D01*
X111237882Y-59708488D01*
X111208960Y-59753578D01*
X111183136Y-59779447D01*
X111094151Y-59923808D01*
X111040762Y-60084769D01*
X111030500Y-60184928D01*
X111030500Y-60558117D01*
X111010498Y-60626238D01*
X110993595Y-60647212D01*
X110620289Y-61020518D01*
X110607898Y-61031385D01*
X110583843Y-61049843D01*
X110506950Y-61150053D01*
X110490314Y-61171733D01*
X110487155Y-61179359D01*
X110487154Y-61179361D01*
X110444312Y-61282791D01*
X110431519Y-61313676D01*
X110411465Y-61466000D01*
X110412543Y-61474188D01*
X110415422Y-61496056D01*
X110416500Y-61512503D01*
X110416500Y-64876519D01*
X110415422Y-64892966D01*
X110411465Y-64923022D01*
X110416500Y-64961266D01*
X110431519Y-65075346D01*
X110490314Y-65217289D01*
X110583843Y-65339179D01*
X110590389Y-65344202D01*
X110607902Y-65357640D01*
X110620293Y-65368508D01*
X110731190Y-65479405D01*
X110765216Y-65541717D01*
X110760151Y-65612532D01*
X110717604Y-65669368D01*
X110651084Y-65694179D01*
X110642095Y-65694500D01*
X108891503Y-65694500D01*
X108875056Y-65693422D01*
X108853188Y-65690543D01*
X108845000Y-65689465D01*
X108806756Y-65694500D01*
X108786445Y-65697174D01*
X108753555Y-65697174D01*
X108733244Y-65694500D01*
X108695000Y-65689465D01*
X108686812Y-65690543D01*
X108664944Y-65693422D01*
X108648497Y-65694500D01*
X107979487Y-65694500D01*
X107911366Y-65674498D01*
X107864873Y-65620842D01*
X107854769Y-65550568D01*
X107861699Y-65523757D01*
X107912449Y-65390155D01*
X107912449Y-65390154D01*
X107914951Y-65383568D01*
X107919487Y-65351290D01*
X107925003Y-65312047D01*
X107954292Y-65247373D01*
X108013896Y-65208800D01*
X108063384Y-65204320D01*
X108098467Y-65208131D01*
X108098471Y-65208131D01*
X108101866Y-65208500D01*
X108598134Y-65208500D01*
X108660316Y-65201745D01*
X108680770Y-65194077D01*
X108751577Y-65188894D01*
X108769229Y-65194077D01*
X108789684Y-65201745D01*
X108851866Y-65208500D01*
X109448134Y-65208500D01*
X109510316Y-65201745D01*
X109646705Y-65150615D01*
X109763261Y-65063261D01*
X109850615Y-64946705D01*
X109901745Y-64810316D01*
X109908500Y-64748134D01*
X109908500Y-63851866D01*
X109901745Y-63789684D01*
X109898973Y-63782288D01*
X109898971Y-63782282D01*
X109861271Y-63681718D01*
X109856088Y-63610911D01*
X109861465Y-63592746D01*
X109862450Y-63590154D01*
X109862452Y-63590147D01*
X109864951Y-63583568D01*
X109865931Y-63576593D01*
X109887302Y-63424534D01*
X109887303Y-63424527D01*
X109887853Y-63420610D01*
X109888141Y-63400000D01*
X109869798Y-63236466D01*
X109867482Y-63229814D01*
X109859335Y-63206418D01*
X109855823Y-63135508D01*
X109860345Y-63120753D01*
X109898971Y-63017718D01*
X109898973Y-63017711D01*
X109901745Y-63010316D01*
X109908500Y-62948134D01*
X109908500Y-62051866D01*
X109907432Y-62042036D01*
X109913114Y-61997596D01*
X109910698Y-61996976D01*
X109912451Y-61990150D01*
X109914951Y-61983568D01*
X109920206Y-61946178D01*
X109937302Y-61824534D01*
X109937303Y-61824527D01*
X109937853Y-61820610D01*
X109938141Y-61800000D01*
X109919798Y-61636466D01*
X109865680Y-61481060D01*
X109856270Y-61466000D01*
X109782206Y-61347474D01*
X109782205Y-61347473D01*
X109778476Y-61341505D01*
X109773518Y-61336512D01*
X109771140Y-61333512D01*
X109744503Y-61267702D01*
X109757674Y-61197938D01*
X109780710Y-61166236D01*
X109796864Y-61150053D01*
X109885849Y-61005692D01*
X109939238Y-60844731D01*
X109949500Y-60744572D01*
X109949500Y-60210428D01*
X109938978Y-60109018D01*
X109885308Y-59948151D01*
X109796071Y-59803945D01*
X109771195Y-59779113D01*
X109737116Y-59716832D01*
X109742118Y-59646012D01*
X109771040Y-59600922D01*
X109791693Y-59580233D01*
X109796864Y-59575053D01*
X109885849Y-59430692D01*
X109939238Y-59269731D01*
X109949500Y-59169572D01*
X109949500Y-58635428D01*
X109938978Y-58534018D01*
X109885308Y-58373151D01*
X109796071Y-58228945D01*
X109765349Y-58198276D01*
X109681233Y-58114307D01*
X109676053Y-58109136D01*
X109662556Y-58100816D01*
X109566641Y-58041694D01*
X109531692Y-58020151D01*
X109524743Y-58017846D01*
X109377262Y-57968928D01*
X109377260Y-57968928D01*
X109370731Y-57966762D01*
X109270572Y-57956500D01*
X108661428Y-57956500D01*
X108658182Y-57956837D01*
X108658178Y-57956837D01*
X108626221Y-57960153D01*
X108560018Y-57967022D01*
X108399151Y-58020692D01*
X108254945Y-58109929D01*
X108135136Y-58229947D01*
X108061870Y-58348808D01*
X108057326Y-58356179D01*
X108004554Y-58403672D01*
X107934483Y-58415096D01*
X107869359Y-58386822D01*
X107842921Y-58356366D01*
X107841825Y-58354594D01*
X107764071Y-58228945D01*
X107733349Y-58198276D01*
X107649233Y-58114307D01*
X107644053Y-58109136D01*
X107630556Y-58100816D01*
X107577384Y-58068041D01*
X107529891Y-58015269D01*
X107517500Y-57960781D01*
X107517500Y-57780501D01*
X107518578Y-57764053D01*
X107521457Y-57742187D01*
X107522535Y-57734000D01*
X107515391Y-57679739D01*
X107502481Y-57581676D01*
X107489283Y-57549812D01*
X107460220Y-57479649D01*
X107446846Y-57447362D01*
X107443686Y-57439732D01*
X107373639Y-57348445D01*
X107373637Y-57348443D01*
X107350157Y-57317843D01*
X107343607Y-57312817D01*
X107343604Y-57312814D01*
X107326110Y-57299391D01*
X107313719Y-57288525D01*
X107169933Y-57144739D01*
X107023788Y-56998595D01*
X106989764Y-56936283D01*
X106994828Y-56865468D01*
X107037375Y-56808632D01*
X107103895Y-56783821D01*
X107112884Y-56783500D01*
X107403497Y-56783500D01*
X107419944Y-56784578D01*
X107450000Y-56788535D01*
X107458188Y-56787457D01*
X107488244Y-56783500D01*
X107602324Y-56768481D01*
X107744267Y-56709686D01*
X107866157Y-56616157D01*
X107884619Y-56592097D01*
X107895486Y-56579707D01*
X110179789Y-54295405D01*
X110242101Y-54261379D01*
X110268884Y-54258500D01*
X111698134Y-54258500D01*
X111760316Y-54251745D01*
X111896705Y-54200615D01*
X112013261Y-54113261D01*
X112100615Y-53996705D01*
X112151745Y-53860316D01*
X112158500Y-53798134D01*
X112158500Y-53459500D01*
X112178502Y-53391379D01*
X112232158Y-53344886D01*
X112284500Y-53333500D01*
X115018500Y-53333500D01*
X115086621Y-53353502D01*
G37*
G04 #@! TD.AperFunction*
G04 #@! TA.AperFunction,Conductor*
G36*
X93719713Y-48225514D02*
G01*
X93789684Y-48251745D01*
X93851866Y-48258500D01*
X94148134Y-48258500D01*
X94151533Y-48258131D01*
X94154926Y-48257947D01*
X94154980Y-48258937D01*
X94220763Y-48270732D01*
X94253580Y-48294370D01*
X94387188Y-48427978D01*
X94401132Y-48435592D01*
X94402965Y-48435461D01*
X94409580Y-48431210D01*
X94546420Y-48294370D01*
X94608732Y-48260344D01*
X94645048Y-48258418D01*
X94645074Y-48257947D01*
X94648467Y-48258131D01*
X94651866Y-48258500D01*
X94948134Y-48258500D01*
X94951529Y-48258131D01*
X94951533Y-48258131D01*
X94977531Y-48255307D01*
X94986394Y-48254344D01*
X95013606Y-48254344D01*
X95022469Y-48255307D01*
X95048467Y-48258131D01*
X95048471Y-48258131D01*
X95051866Y-48258500D01*
X95165520Y-48258500D01*
X95233641Y-48278502D01*
X95254616Y-48295405D01*
X95387192Y-48427981D01*
X95401130Y-48435592D01*
X95402966Y-48435461D01*
X95409579Y-48431211D01*
X95545384Y-48295405D01*
X95607696Y-48261380D01*
X95634480Y-48258500D01*
X95748134Y-48258500D01*
X95751529Y-48258131D01*
X95751533Y-48258131D01*
X95777531Y-48255307D01*
X95786394Y-48254344D01*
X95813606Y-48254344D01*
X95822469Y-48255307D01*
X95848467Y-48258131D01*
X95848471Y-48258131D01*
X95851866Y-48258500D01*
X96148134Y-48258500D01*
X96151533Y-48258131D01*
X96154926Y-48257947D01*
X96154980Y-48258937D01*
X96220763Y-48270732D01*
X96253580Y-48294370D01*
X96905630Y-48946420D01*
X96939656Y-49008732D01*
X96941582Y-49045048D01*
X96942053Y-49045074D01*
X96941869Y-49048467D01*
X96941500Y-49051866D01*
X96941500Y-49348134D01*
X96941869Y-49351529D01*
X96941869Y-49351533D01*
X96945656Y-49386393D01*
X96945656Y-49413607D01*
X96944095Y-49427981D01*
X96941500Y-49451866D01*
X96941500Y-49565520D01*
X96921498Y-49633641D01*
X96904595Y-49654616D01*
X96772019Y-49787192D01*
X96764408Y-49801130D01*
X96764539Y-49802966D01*
X96768789Y-49809579D01*
X96904595Y-49945384D01*
X96938620Y-50007696D01*
X96941500Y-50034480D01*
X96941500Y-50148134D01*
X96941869Y-50151529D01*
X96941869Y-50151533D01*
X96944693Y-50177531D01*
X96945298Y-50183093D01*
X96945656Y-50186393D01*
X96945656Y-50213607D01*
X96942083Y-50246503D01*
X96941500Y-50251866D01*
X96941500Y-50548134D01*
X96941869Y-50551533D01*
X96942053Y-50554926D01*
X96941063Y-50554980D01*
X96929268Y-50620763D01*
X96905630Y-50653580D01*
X96772022Y-50787188D01*
X96764408Y-50801132D01*
X96764539Y-50802965D01*
X96768790Y-50809580D01*
X96905630Y-50946420D01*
X96939656Y-51008732D01*
X96941582Y-51045048D01*
X96942053Y-51045074D01*
X96941869Y-51048467D01*
X96941500Y-51051866D01*
X96941500Y-51348134D01*
X96948255Y-51410316D01*
X96965113Y-51455284D01*
X96974486Y-51480286D01*
X96979669Y-51551093D01*
X96945599Y-51613612D01*
X96772021Y-51787189D01*
X96764408Y-51801132D01*
X96764539Y-51802966D01*
X96768789Y-51809579D01*
X96904595Y-51945384D01*
X96938620Y-52007696D01*
X96941500Y-52034480D01*
X96941500Y-52148134D01*
X96941869Y-52151529D01*
X96941869Y-52151533D01*
X96944693Y-52177531D01*
X96945127Y-52181519D01*
X96945656Y-52186393D01*
X96945656Y-52213606D01*
X96941500Y-52251866D01*
X96941500Y-52548134D01*
X96941869Y-52551533D01*
X96942053Y-52554926D01*
X96941063Y-52554980D01*
X96929268Y-52620763D01*
X96905630Y-52653580D01*
X96253580Y-53305630D01*
X96191268Y-53339656D01*
X96154952Y-53341582D01*
X96154926Y-53342053D01*
X96151533Y-53341869D01*
X96148134Y-53341500D01*
X95851866Y-53341500D01*
X95848471Y-53341869D01*
X95848467Y-53341869D01*
X95822469Y-53344693D01*
X95813606Y-53345656D01*
X95786394Y-53345656D01*
X95777531Y-53344693D01*
X95751533Y-53341869D01*
X95751529Y-53341869D01*
X95748134Y-53341500D01*
X95634480Y-53341500D01*
X95566359Y-53321498D01*
X95545384Y-53304595D01*
X95412808Y-53172019D01*
X95398870Y-53164408D01*
X95397034Y-53164539D01*
X95390421Y-53168789D01*
X95254616Y-53304595D01*
X95192304Y-53338620D01*
X95165520Y-53341500D01*
X95051866Y-53341500D01*
X95048471Y-53341869D01*
X95048467Y-53341869D01*
X95022469Y-53344693D01*
X95013606Y-53345656D01*
X94986394Y-53345656D01*
X94977531Y-53344693D01*
X94951533Y-53341869D01*
X94951529Y-53341869D01*
X94948134Y-53341500D01*
X94651866Y-53341500D01*
X94648467Y-53341869D01*
X94645074Y-53342053D01*
X94645020Y-53341063D01*
X94579237Y-53329268D01*
X94546420Y-53305630D01*
X94412812Y-53172022D01*
X94398868Y-53164408D01*
X94397035Y-53164539D01*
X94390420Y-53168790D01*
X94253580Y-53305630D01*
X94191268Y-53339656D01*
X94154952Y-53341582D01*
X94154926Y-53342053D01*
X94151533Y-53341869D01*
X94148134Y-53341500D01*
X93851866Y-53341500D01*
X93848471Y-53341869D01*
X93848467Y-53341869D01*
X93822469Y-53344693D01*
X93813606Y-53345656D01*
X93786394Y-53345656D01*
X93777531Y-53344693D01*
X93751533Y-53341869D01*
X93751529Y-53341869D01*
X93748134Y-53341500D01*
X93634480Y-53341500D01*
X93566359Y-53321498D01*
X93545384Y-53304595D01*
X93412808Y-53172019D01*
X93398870Y-53164408D01*
X93397034Y-53164539D01*
X93390421Y-53168789D01*
X93254616Y-53304595D01*
X93192304Y-53338620D01*
X93165520Y-53341500D01*
X93051866Y-53341500D01*
X93048471Y-53341869D01*
X93048467Y-53341869D01*
X93022469Y-53344693D01*
X93013606Y-53345656D01*
X92986394Y-53345656D01*
X92977531Y-53344693D01*
X92951533Y-53341869D01*
X92951529Y-53341869D01*
X92948134Y-53341500D01*
X92651866Y-53341500D01*
X92648467Y-53341869D01*
X92645074Y-53342053D01*
X92645020Y-53341063D01*
X92579237Y-53329268D01*
X92546420Y-53305630D01*
X92041920Y-52801130D01*
X92764408Y-52801130D01*
X92764539Y-52802966D01*
X92768789Y-52809579D01*
X92887192Y-52927981D01*
X92901130Y-52935592D01*
X92902966Y-52935460D01*
X92909579Y-52931211D01*
X93027981Y-52812808D01*
X93034358Y-52801130D01*
X93764408Y-52801130D01*
X93764539Y-52802966D01*
X93768789Y-52809579D01*
X93887192Y-52927981D01*
X93901130Y-52935592D01*
X93902966Y-52935460D01*
X93909579Y-52931211D01*
X94027981Y-52812808D01*
X94034358Y-52801130D01*
X94764408Y-52801130D01*
X94764539Y-52802966D01*
X94768789Y-52809579D01*
X94887192Y-52927981D01*
X94901130Y-52935592D01*
X94902966Y-52935460D01*
X94909579Y-52931211D01*
X95027981Y-52812808D01*
X95034358Y-52801130D01*
X95764408Y-52801130D01*
X95764539Y-52802966D01*
X95768789Y-52809579D01*
X95887192Y-52927981D01*
X95901130Y-52935592D01*
X95902966Y-52935460D01*
X95909579Y-52931211D01*
X96027981Y-52812808D01*
X96035592Y-52798870D01*
X96035461Y-52797034D01*
X96031211Y-52790421D01*
X95912808Y-52672019D01*
X95898870Y-52664408D01*
X95897034Y-52664540D01*
X95890421Y-52668789D01*
X95772019Y-52787192D01*
X95764408Y-52801130D01*
X95034358Y-52801130D01*
X95035592Y-52798870D01*
X95035461Y-52797034D01*
X95031211Y-52790421D01*
X94912808Y-52672019D01*
X94898870Y-52664408D01*
X94897034Y-52664540D01*
X94890421Y-52668789D01*
X94772019Y-52787192D01*
X94764408Y-52801130D01*
X94034358Y-52801130D01*
X94035592Y-52798870D01*
X94035461Y-52797034D01*
X94031211Y-52790421D01*
X93912808Y-52672019D01*
X93898870Y-52664408D01*
X93897034Y-52664540D01*
X93890421Y-52668789D01*
X93772019Y-52787192D01*
X93764408Y-52801130D01*
X93034358Y-52801130D01*
X93035592Y-52798870D01*
X93035461Y-52797034D01*
X93031211Y-52790421D01*
X92912808Y-52672019D01*
X92898870Y-52664408D01*
X92897034Y-52664540D01*
X92890421Y-52668789D01*
X92772019Y-52787192D01*
X92764408Y-52801130D01*
X92041920Y-52801130D01*
X92040790Y-52800000D01*
X91882283Y-52641494D01*
X91853066Y-52589189D01*
X91851745Y-52589684D01*
X91803766Y-52461699D01*
X91803764Y-52461696D01*
X91800615Y-52453295D01*
X91801466Y-52452976D01*
X91787945Y-52391151D01*
X91800958Y-52346834D01*
X91800615Y-52346705D01*
X91802372Y-52342019D01*
X91802373Y-52342015D01*
X91804439Y-52336506D01*
X91817701Y-52301130D01*
X92264408Y-52301130D01*
X92264540Y-52302966D01*
X92268789Y-52309579D01*
X92387192Y-52427981D01*
X92401130Y-52435592D01*
X92402966Y-52435461D01*
X92409579Y-52431211D01*
X92527981Y-52312808D01*
X92534358Y-52301130D01*
X93264408Y-52301130D01*
X93264540Y-52302966D01*
X93268789Y-52309579D01*
X93387192Y-52427981D01*
X93401130Y-52435592D01*
X93402966Y-52435461D01*
X93409579Y-52431211D01*
X93527981Y-52312808D01*
X93534358Y-52301130D01*
X94264408Y-52301130D01*
X94264540Y-52302966D01*
X94268789Y-52309579D01*
X94387192Y-52427981D01*
X94401130Y-52435592D01*
X94402966Y-52435461D01*
X94409579Y-52431211D01*
X94527981Y-52312808D01*
X94534358Y-52301130D01*
X95264408Y-52301130D01*
X95264540Y-52302966D01*
X95268789Y-52309579D01*
X95387192Y-52427981D01*
X95401130Y-52435592D01*
X95402966Y-52435461D01*
X95409579Y-52431211D01*
X95527981Y-52312808D01*
X95534358Y-52301130D01*
X96264408Y-52301130D01*
X96264540Y-52302966D01*
X96268789Y-52309579D01*
X96387192Y-52427981D01*
X96401130Y-52435592D01*
X96402966Y-52435461D01*
X96409579Y-52431211D01*
X96527981Y-52312808D01*
X96535592Y-52298870D01*
X96535460Y-52297034D01*
X96531211Y-52290421D01*
X96412808Y-52172019D01*
X96398870Y-52164408D01*
X96397034Y-52164539D01*
X96390421Y-52168789D01*
X96272019Y-52287192D01*
X96264408Y-52301130D01*
X95534358Y-52301130D01*
X95535592Y-52298870D01*
X95535460Y-52297034D01*
X95531211Y-52290421D01*
X95412808Y-52172019D01*
X95398870Y-52164408D01*
X95397034Y-52164539D01*
X95390421Y-52168789D01*
X95272019Y-52287192D01*
X95264408Y-52301130D01*
X94534358Y-52301130D01*
X94535592Y-52298870D01*
X94535460Y-52297034D01*
X94531211Y-52290421D01*
X94412808Y-52172019D01*
X94398870Y-52164408D01*
X94397034Y-52164539D01*
X94390421Y-52168789D01*
X94272019Y-52287192D01*
X94264408Y-52301130D01*
X93534358Y-52301130D01*
X93535592Y-52298870D01*
X93535460Y-52297034D01*
X93531211Y-52290421D01*
X93412808Y-52172019D01*
X93398870Y-52164408D01*
X93397034Y-52164539D01*
X93390421Y-52168789D01*
X93272019Y-52287192D01*
X93264408Y-52301130D01*
X92534358Y-52301130D01*
X92535592Y-52298870D01*
X92535460Y-52297034D01*
X92531211Y-52290421D01*
X92412808Y-52172019D01*
X92398870Y-52164408D01*
X92397034Y-52164539D01*
X92390421Y-52168789D01*
X92272019Y-52287192D01*
X92264408Y-52301130D01*
X91817701Y-52301130D01*
X91843353Y-52232702D01*
X91851745Y-52210316D01*
X91858500Y-52148134D01*
X91858500Y-52034480D01*
X91878502Y-51966359D01*
X91895405Y-51945384D01*
X92027981Y-51812808D01*
X92034358Y-51801130D01*
X92764408Y-51801130D01*
X92764539Y-51802966D01*
X92768789Y-51809579D01*
X92887192Y-51927981D01*
X92901130Y-51935592D01*
X92902966Y-51935460D01*
X92909579Y-51931211D01*
X93027981Y-51812808D01*
X93034358Y-51801130D01*
X93764408Y-51801130D01*
X93764539Y-51802966D01*
X93768789Y-51809579D01*
X93887192Y-51927981D01*
X93901130Y-51935592D01*
X93902966Y-51935460D01*
X93909579Y-51931211D01*
X94027981Y-51812808D01*
X94034358Y-51801130D01*
X94764408Y-51801130D01*
X94764539Y-51802966D01*
X94768789Y-51809579D01*
X94887192Y-51927981D01*
X94901130Y-51935592D01*
X94902966Y-51935460D01*
X94909579Y-51931211D01*
X95027981Y-51812808D01*
X95034358Y-51801130D01*
X95764408Y-51801130D01*
X95764539Y-51802966D01*
X95768789Y-51809579D01*
X95887192Y-51927981D01*
X95901130Y-51935592D01*
X95902966Y-51935460D01*
X95909579Y-51931211D01*
X96027981Y-51812808D01*
X96035592Y-51798870D01*
X96035461Y-51797034D01*
X96031211Y-51790421D01*
X95912808Y-51672019D01*
X95898870Y-51664408D01*
X95897034Y-51664540D01*
X95890421Y-51668789D01*
X95772019Y-51787192D01*
X95764408Y-51801130D01*
X95034358Y-51801130D01*
X95035592Y-51798870D01*
X95035461Y-51797034D01*
X95031211Y-51790421D01*
X94912808Y-51672019D01*
X94898870Y-51664408D01*
X94897034Y-51664540D01*
X94890421Y-51668789D01*
X94772019Y-51787192D01*
X94764408Y-51801130D01*
X94034358Y-51801130D01*
X94035592Y-51798870D01*
X94035461Y-51797034D01*
X94031211Y-51790421D01*
X93912808Y-51672019D01*
X93898870Y-51664408D01*
X93897034Y-51664540D01*
X93890421Y-51668789D01*
X93772019Y-51787192D01*
X93764408Y-51801130D01*
X93034358Y-51801130D01*
X93035592Y-51798870D01*
X93035461Y-51797034D01*
X93031211Y-51790421D01*
X92912808Y-51672019D01*
X92898870Y-51664408D01*
X92897034Y-51664540D01*
X92890421Y-51668789D01*
X92772019Y-51787192D01*
X92764408Y-51801130D01*
X92034358Y-51801130D01*
X92035592Y-51798870D01*
X92035461Y-51797034D01*
X92031211Y-51790421D01*
X91895405Y-51654616D01*
X91861380Y-51592304D01*
X91858500Y-51565520D01*
X91858500Y-51451866D01*
X91857588Y-51443465D01*
X91854344Y-51413607D01*
X91854344Y-51386393D01*
X91858131Y-51351533D01*
X91858131Y-51351529D01*
X91858500Y-51348134D01*
X91858500Y-51301130D01*
X92264408Y-51301130D01*
X92264540Y-51302966D01*
X92268789Y-51309579D01*
X92387192Y-51427981D01*
X92401130Y-51435592D01*
X92402966Y-51435461D01*
X92409579Y-51431211D01*
X92527981Y-51312808D01*
X92534358Y-51301130D01*
X93264408Y-51301130D01*
X93264540Y-51302966D01*
X93268789Y-51309579D01*
X93387192Y-51427981D01*
X93401130Y-51435592D01*
X93402966Y-51435461D01*
X93409579Y-51431211D01*
X93527981Y-51312808D01*
X93534358Y-51301130D01*
X94264408Y-51301130D01*
X94264540Y-51302966D01*
X94268789Y-51309579D01*
X94387192Y-51427981D01*
X94401130Y-51435592D01*
X94402966Y-51435461D01*
X94409579Y-51431211D01*
X94527981Y-51312808D01*
X94534358Y-51301130D01*
X95264408Y-51301130D01*
X95264540Y-51302966D01*
X95268789Y-51309579D01*
X95387192Y-51427981D01*
X95401130Y-51435592D01*
X95402966Y-51435461D01*
X95409579Y-51431211D01*
X95527981Y-51312808D01*
X95534358Y-51301130D01*
X96264408Y-51301130D01*
X96264540Y-51302966D01*
X96268789Y-51309579D01*
X96387192Y-51427981D01*
X96401130Y-51435592D01*
X96402966Y-51435461D01*
X96409579Y-51431211D01*
X96527981Y-51312808D01*
X96535592Y-51298870D01*
X96535460Y-51297034D01*
X96531211Y-51290421D01*
X96412808Y-51172019D01*
X96398870Y-51164408D01*
X96397034Y-51164539D01*
X96390421Y-51168789D01*
X96272019Y-51287192D01*
X96264408Y-51301130D01*
X95534358Y-51301130D01*
X95535592Y-51298870D01*
X95535460Y-51297034D01*
X95531211Y-51290421D01*
X95412808Y-51172019D01*
X95398870Y-51164408D01*
X95397034Y-51164539D01*
X95390421Y-51168789D01*
X95272019Y-51287192D01*
X95264408Y-51301130D01*
X94534358Y-51301130D01*
X94535592Y-51298870D01*
X94535460Y-51297034D01*
X94531211Y-51290421D01*
X94412808Y-51172019D01*
X94398870Y-51164408D01*
X94397034Y-51164539D01*
X94390421Y-51168789D01*
X94272019Y-51287192D01*
X94264408Y-51301130D01*
X93534358Y-51301130D01*
X93535592Y-51298870D01*
X93535460Y-51297034D01*
X93531211Y-51290421D01*
X93412808Y-51172019D01*
X93398870Y-51164408D01*
X93397034Y-51164539D01*
X93390421Y-51168789D01*
X93272019Y-51287192D01*
X93264408Y-51301130D01*
X92534358Y-51301130D01*
X92535592Y-51298870D01*
X92535460Y-51297034D01*
X92531211Y-51290421D01*
X92412808Y-51172019D01*
X92398870Y-51164408D01*
X92397034Y-51164539D01*
X92390421Y-51168789D01*
X92272019Y-51287192D01*
X92264408Y-51301130D01*
X91858500Y-51301130D01*
X91858500Y-51051866D01*
X91858131Y-51048469D01*
X91857947Y-51045072D01*
X91858938Y-51045018D01*
X91870730Y-50979241D01*
X91894370Y-50946420D01*
X92027978Y-50812812D01*
X92034357Y-50801130D01*
X92764408Y-50801130D01*
X92764539Y-50802966D01*
X92768789Y-50809579D01*
X92887192Y-50927981D01*
X92901130Y-50935592D01*
X92902966Y-50935460D01*
X92909579Y-50931211D01*
X93027981Y-50812808D01*
X93034358Y-50801130D01*
X93764408Y-50801130D01*
X93764539Y-50802966D01*
X93768789Y-50809579D01*
X93887192Y-50927981D01*
X93901130Y-50935592D01*
X93902966Y-50935460D01*
X93909579Y-50931211D01*
X94027981Y-50812808D01*
X94034358Y-50801130D01*
X94764408Y-50801130D01*
X94764539Y-50802966D01*
X94768789Y-50809579D01*
X94887192Y-50927981D01*
X94901130Y-50935592D01*
X94902966Y-50935460D01*
X94909579Y-50931211D01*
X95027981Y-50812808D01*
X95034358Y-50801130D01*
X95764408Y-50801130D01*
X95764539Y-50802966D01*
X95768789Y-50809579D01*
X95887192Y-50927981D01*
X95901130Y-50935592D01*
X95902966Y-50935460D01*
X95909579Y-50931211D01*
X96027981Y-50812808D01*
X96035592Y-50798870D01*
X96035461Y-50797034D01*
X96031211Y-50790421D01*
X95912808Y-50672019D01*
X95898870Y-50664408D01*
X95897034Y-50664540D01*
X95890421Y-50668789D01*
X95772019Y-50787192D01*
X95764408Y-50801130D01*
X95034358Y-50801130D01*
X95035592Y-50798870D01*
X95035461Y-50797034D01*
X95031211Y-50790421D01*
X94912808Y-50672019D01*
X94898870Y-50664408D01*
X94897034Y-50664540D01*
X94890421Y-50668789D01*
X94772019Y-50787192D01*
X94764408Y-50801130D01*
X94034358Y-50801130D01*
X94035592Y-50798870D01*
X94035461Y-50797034D01*
X94031211Y-50790421D01*
X93912808Y-50672019D01*
X93898870Y-50664408D01*
X93897034Y-50664540D01*
X93890421Y-50668789D01*
X93772019Y-50787192D01*
X93764408Y-50801130D01*
X93034358Y-50801130D01*
X93035592Y-50798870D01*
X93035461Y-50797034D01*
X93031211Y-50790421D01*
X92912808Y-50672019D01*
X92898870Y-50664408D01*
X92897034Y-50664540D01*
X92890421Y-50668789D01*
X92772019Y-50787192D01*
X92764408Y-50801130D01*
X92034357Y-50801130D01*
X92035592Y-50798868D01*
X92035461Y-50797035D01*
X92031210Y-50790420D01*
X91894370Y-50653580D01*
X91860344Y-50591268D01*
X91858418Y-50554954D01*
X91857947Y-50554928D01*
X91858131Y-50551531D01*
X91858500Y-50548134D01*
X91858500Y-50301130D01*
X92264408Y-50301130D01*
X92264540Y-50302966D01*
X92268789Y-50309579D01*
X92387192Y-50427981D01*
X92401130Y-50435592D01*
X92402966Y-50435461D01*
X92409579Y-50431211D01*
X92527981Y-50312808D01*
X92534358Y-50301130D01*
X93264408Y-50301130D01*
X93264540Y-50302966D01*
X93268789Y-50309579D01*
X93387192Y-50427981D01*
X93401130Y-50435592D01*
X93402966Y-50435461D01*
X93409579Y-50431211D01*
X93527981Y-50312808D01*
X93534358Y-50301130D01*
X94264408Y-50301130D01*
X94264540Y-50302966D01*
X94268789Y-50309579D01*
X94387192Y-50427981D01*
X94401130Y-50435592D01*
X94402966Y-50435461D01*
X94409579Y-50431211D01*
X94527981Y-50312808D01*
X94534358Y-50301130D01*
X95264408Y-50301130D01*
X95264540Y-50302966D01*
X95268789Y-50309579D01*
X95387192Y-50427981D01*
X95401130Y-50435592D01*
X95402966Y-50435461D01*
X95409579Y-50431211D01*
X95527981Y-50312808D01*
X95534358Y-50301130D01*
X96264408Y-50301130D01*
X96264540Y-50302966D01*
X96268789Y-50309579D01*
X96387192Y-50427981D01*
X96401130Y-50435592D01*
X96402966Y-50435461D01*
X96409579Y-50431211D01*
X96527981Y-50312808D01*
X96535592Y-50298870D01*
X96535460Y-50297034D01*
X96531211Y-50290421D01*
X96412808Y-50172019D01*
X96398870Y-50164408D01*
X96397034Y-50164539D01*
X96390421Y-50168789D01*
X96272019Y-50287192D01*
X96264408Y-50301130D01*
X95534358Y-50301130D01*
X95535592Y-50298870D01*
X95535460Y-50297034D01*
X95531211Y-50290421D01*
X95412808Y-50172019D01*
X95398870Y-50164408D01*
X95397034Y-50164539D01*
X95390421Y-50168789D01*
X95272019Y-50287192D01*
X95264408Y-50301130D01*
X94534358Y-50301130D01*
X94535592Y-50298870D01*
X94535460Y-50297034D01*
X94531211Y-50290421D01*
X94412808Y-50172019D01*
X94398870Y-50164408D01*
X94397034Y-50164539D01*
X94390421Y-50168789D01*
X94272019Y-50287192D01*
X94264408Y-50301130D01*
X93534358Y-50301130D01*
X93535592Y-50298870D01*
X93535460Y-50297034D01*
X93531211Y-50290421D01*
X93412808Y-50172019D01*
X93398870Y-50164408D01*
X93397034Y-50164539D01*
X93390421Y-50168789D01*
X93272019Y-50287192D01*
X93264408Y-50301130D01*
X92534358Y-50301130D01*
X92535592Y-50298870D01*
X92535460Y-50297034D01*
X92531211Y-50290421D01*
X92412808Y-50172019D01*
X92398870Y-50164408D01*
X92397034Y-50164539D01*
X92390421Y-50168789D01*
X92272019Y-50287192D01*
X92264408Y-50301130D01*
X91858500Y-50301130D01*
X91858500Y-50251866D01*
X91857918Y-50246503D01*
X91854344Y-50213607D01*
X91854344Y-50186393D01*
X91854703Y-50183093D01*
X91855307Y-50177531D01*
X91858131Y-50151533D01*
X91858131Y-50151529D01*
X91858500Y-50148134D01*
X91858500Y-50034480D01*
X91878502Y-49966359D01*
X91895405Y-49945384D01*
X92027981Y-49812808D01*
X92034358Y-49801130D01*
X92764408Y-49801130D01*
X92764539Y-49802966D01*
X92768789Y-49809579D01*
X92887192Y-49927981D01*
X92901130Y-49935592D01*
X92902966Y-49935460D01*
X92909579Y-49931211D01*
X93027981Y-49812808D01*
X93034358Y-49801130D01*
X93764408Y-49801130D01*
X93764539Y-49802966D01*
X93768789Y-49809579D01*
X93887192Y-49927981D01*
X93901130Y-49935592D01*
X93902966Y-49935460D01*
X93909579Y-49931211D01*
X94027981Y-49812808D01*
X94034358Y-49801130D01*
X94764408Y-49801130D01*
X94764539Y-49802966D01*
X94768789Y-49809579D01*
X94887192Y-49927981D01*
X94901130Y-49935592D01*
X94902966Y-49935460D01*
X94909579Y-49931211D01*
X95027981Y-49812808D01*
X95034358Y-49801130D01*
X95764408Y-49801130D01*
X95764539Y-49802966D01*
X95768789Y-49809579D01*
X95887192Y-49927981D01*
X95901130Y-49935592D01*
X95902966Y-49935460D01*
X95909579Y-49931211D01*
X96027981Y-49812808D01*
X96035592Y-49798870D01*
X96035461Y-49797034D01*
X96031211Y-49790421D01*
X95912808Y-49672019D01*
X95898870Y-49664408D01*
X95897034Y-49664540D01*
X95890421Y-49668789D01*
X95772019Y-49787192D01*
X95764408Y-49801130D01*
X95034358Y-49801130D01*
X95035592Y-49798870D01*
X95035461Y-49797034D01*
X95031211Y-49790421D01*
X94912808Y-49672019D01*
X94898870Y-49664408D01*
X94897034Y-49664540D01*
X94890421Y-49668789D01*
X94772019Y-49787192D01*
X94764408Y-49801130D01*
X94034358Y-49801130D01*
X94035592Y-49798870D01*
X94035461Y-49797034D01*
X94031211Y-49790421D01*
X93912808Y-49672019D01*
X93898870Y-49664408D01*
X93897034Y-49664540D01*
X93890421Y-49668789D01*
X93772019Y-49787192D01*
X93764408Y-49801130D01*
X93034358Y-49801130D01*
X93035592Y-49798870D01*
X93035461Y-49797034D01*
X93031211Y-49790421D01*
X92912808Y-49672019D01*
X92898870Y-49664408D01*
X92897034Y-49664540D01*
X92890421Y-49668789D01*
X92772019Y-49787192D01*
X92764408Y-49801130D01*
X92034358Y-49801130D01*
X92035592Y-49798870D01*
X92035461Y-49797034D01*
X92031211Y-49790421D01*
X91895405Y-49654616D01*
X91861380Y-49592304D01*
X91858500Y-49565520D01*
X91858500Y-49451866D01*
X91855906Y-49427981D01*
X91854344Y-49413607D01*
X91854344Y-49386393D01*
X91858131Y-49351533D01*
X91858131Y-49351529D01*
X91858500Y-49348134D01*
X91858500Y-49301130D01*
X92264408Y-49301130D01*
X92264540Y-49302966D01*
X92268789Y-49309579D01*
X92387192Y-49427981D01*
X92401130Y-49435592D01*
X92402966Y-49435461D01*
X92409579Y-49431211D01*
X92527981Y-49312808D01*
X92534358Y-49301130D01*
X93264408Y-49301130D01*
X93264540Y-49302966D01*
X93268789Y-49309579D01*
X93387192Y-49427981D01*
X93401130Y-49435592D01*
X93402966Y-49435461D01*
X93409579Y-49431211D01*
X93527981Y-49312808D01*
X93534358Y-49301130D01*
X94264408Y-49301130D01*
X94264540Y-49302966D01*
X94268789Y-49309579D01*
X94387192Y-49427981D01*
X94401130Y-49435592D01*
X94402966Y-49435461D01*
X94409579Y-49431211D01*
X94527981Y-49312808D01*
X94534358Y-49301130D01*
X95264408Y-49301130D01*
X95264540Y-49302966D01*
X95268789Y-49309579D01*
X95387192Y-49427981D01*
X95401130Y-49435592D01*
X95402966Y-49435461D01*
X95409579Y-49431211D01*
X95527981Y-49312808D01*
X95534358Y-49301130D01*
X96264408Y-49301130D01*
X96264540Y-49302966D01*
X96268789Y-49309579D01*
X96387192Y-49427981D01*
X96401130Y-49435592D01*
X96402966Y-49435461D01*
X96409579Y-49431211D01*
X96527981Y-49312808D01*
X96535592Y-49298870D01*
X96535460Y-49297034D01*
X96531211Y-49290421D01*
X96412808Y-49172019D01*
X96398870Y-49164408D01*
X96397034Y-49164539D01*
X96390421Y-49168789D01*
X96272019Y-49287192D01*
X96264408Y-49301130D01*
X95534358Y-49301130D01*
X95535592Y-49298870D01*
X95535460Y-49297034D01*
X95531211Y-49290421D01*
X95412808Y-49172019D01*
X95398870Y-49164408D01*
X95397034Y-49164539D01*
X95390421Y-49168789D01*
X95272019Y-49287192D01*
X95264408Y-49301130D01*
X94534358Y-49301130D01*
X94535592Y-49298870D01*
X94535460Y-49297034D01*
X94531211Y-49290421D01*
X94412808Y-49172019D01*
X94398870Y-49164408D01*
X94397034Y-49164539D01*
X94390421Y-49168789D01*
X94272019Y-49287192D01*
X94264408Y-49301130D01*
X93534358Y-49301130D01*
X93535592Y-49298870D01*
X93535460Y-49297034D01*
X93531211Y-49290421D01*
X93412808Y-49172019D01*
X93398870Y-49164408D01*
X93397034Y-49164539D01*
X93390421Y-49168789D01*
X93272019Y-49287192D01*
X93264408Y-49301130D01*
X92534358Y-49301130D01*
X92535592Y-49298870D01*
X92535460Y-49297034D01*
X92531211Y-49290421D01*
X92412808Y-49172019D01*
X92398870Y-49164408D01*
X92397034Y-49164539D01*
X92390421Y-49168789D01*
X92272019Y-49287192D01*
X92264408Y-49301130D01*
X91858500Y-49301130D01*
X91858500Y-49051866D01*
X91858131Y-49048467D01*
X91857947Y-49045074D01*
X91858937Y-49045020D01*
X91870732Y-48979237D01*
X91894370Y-48946420D01*
X92039660Y-48801130D01*
X92764408Y-48801130D01*
X92764539Y-48802966D01*
X92768789Y-48809579D01*
X92887192Y-48927981D01*
X92901130Y-48935592D01*
X92902966Y-48935460D01*
X92909579Y-48931211D01*
X93027981Y-48812808D01*
X93034358Y-48801130D01*
X93764408Y-48801130D01*
X93764539Y-48802966D01*
X93768789Y-48809579D01*
X93887192Y-48927981D01*
X93901130Y-48935592D01*
X93902966Y-48935460D01*
X93909579Y-48931211D01*
X94027981Y-48812808D01*
X94034358Y-48801130D01*
X94764408Y-48801130D01*
X94764539Y-48802966D01*
X94768789Y-48809579D01*
X94887192Y-48927981D01*
X94901130Y-48935592D01*
X94902966Y-48935460D01*
X94909579Y-48931211D01*
X95027981Y-48812808D01*
X95034358Y-48801130D01*
X95764408Y-48801130D01*
X95764539Y-48802966D01*
X95768789Y-48809579D01*
X95887192Y-48927981D01*
X95901130Y-48935592D01*
X95902966Y-48935460D01*
X95909579Y-48931211D01*
X96027981Y-48812808D01*
X96035592Y-48798870D01*
X96035461Y-48797034D01*
X96031211Y-48790421D01*
X95912808Y-48672019D01*
X95898870Y-48664408D01*
X95897034Y-48664540D01*
X95890421Y-48668789D01*
X95772019Y-48787192D01*
X95764408Y-48801130D01*
X95034358Y-48801130D01*
X95035592Y-48798870D01*
X95035461Y-48797034D01*
X95031211Y-48790421D01*
X94912808Y-48672019D01*
X94898870Y-48664408D01*
X94897034Y-48664540D01*
X94890421Y-48668789D01*
X94772019Y-48787192D01*
X94764408Y-48801130D01*
X94034358Y-48801130D01*
X94035592Y-48798870D01*
X94035461Y-48797034D01*
X94031211Y-48790421D01*
X93912808Y-48672019D01*
X93898870Y-48664408D01*
X93897034Y-48664540D01*
X93890421Y-48668789D01*
X93772019Y-48787192D01*
X93764408Y-48801130D01*
X93034358Y-48801130D01*
X93035592Y-48798870D01*
X93035461Y-48797034D01*
X93031211Y-48790421D01*
X92912808Y-48672019D01*
X92898870Y-48664408D01*
X92897034Y-48664540D01*
X92890421Y-48668789D01*
X92772019Y-48787192D01*
X92764408Y-48801130D01*
X92039660Y-48801130D01*
X92546420Y-48294370D01*
X92608732Y-48260344D01*
X92645048Y-48258418D01*
X92645074Y-48257947D01*
X92648467Y-48258131D01*
X92651866Y-48258500D01*
X92948134Y-48258500D01*
X92951529Y-48258131D01*
X92951533Y-48258131D01*
X92977531Y-48255307D01*
X92986394Y-48254344D01*
X93013606Y-48254344D01*
X93022469Y-48255307D01*
X93048467Y-48258131D01*
X93048471Y-48258131D01*
X93051866Y-48258500D01*
X93165520Y-48258500D01*
X93233641Y-48278502D01*
X93254616Y-48295405D01*
X93387192Y-48427981D01*
X93401130Y-48435592D01*
X93402966Y-48435461D01*
X93409579Y-48431211D01*
X93586388Y-48254401D01*
X93648700Y-48220376D01*
X93719713Y-48225514D01*
G37*
G04 #@! TD.AperFunction*
G04 #@! TA.AperFunction,Conductor*
G36*
X106230343Y-45003502D02*
G01*
X106276836Y-45057158D01*
X106286940Y-45127432D01*
X106263047Y-45185066D01*
X106249385Y-45203295D01*
X106198255Y-45339684D01*
X106191500Y-45401866D01*
X106191500Y-47498134D01*
X106198255Y-47560316D01*
X106249385Y-47696705D01*
X106336739Y-47813261D01*
X106453295Y-47900615D01*
X106589684Y-47951745D01*
X106651866Y-47958500D01*
X107890500Y-47958500D01*
X107958621Y-47978502D01*
X108005114Y-48032158D01*
X108016500Y-48084500D01*
X108016500Y-50153497D01*
X108015422Y-50169944D01*
X108011465Y-50200000D01*
X108012543Y-50208188D01*
X108015422Y-50230056D01*
X108016500Y-50246503D01*
X108016500Y-51115500D01*
X107996498Y-51183621D01*
X107942842Y-51230114D01*
X107890500Y-51241500D01*
X107801866Y-51241500D01*
X107739684Y-51248255D01*
X107603295Y-51299385D01*
X107533717Y-51351531D01*
X107525148Y-51357953D01*
X107458642Y-51382801D01*
X107389259Y-51367748D01*
X107374018Y-51357953D01*
X107303648Y-51305214D01*
X107288054Y-51296676D01*
X107167606Y-51251522D01*
X107152351Y-51247895D01*
X107101486Y-51242369D01*
X107094672Y-51242000D01*
X106572115Y-51242000D01*
X106556876Y-51246475D01*
X106555671Y-51247865D01*
X106554000Y-51255548D01*
X106554000Y-52878000D01*
X106533998Y-52946121D01*
X106480342Y-52992614D01*
X106428000Y-53004000D01*
X105087370Y-53004000D01*
X105019249Y-52983998D01*
X104987739Y-52952084D01*
X104986584Y-52952999D01*
X104982210Y-52947481D01*
X104978476Y-52941505D01*
X104915413Y-52878000D01*
X104867486Y-52829737D01*
X104867482Y-52829734D01*
X104862522Y-52824739D01*
X104723580Y-52736563D01*
X104648870Y-52709960D01*
X104575189Y-52683723D01*
X104575187Y-52683722D01*
X104568555Y-52681361D01*
X104561569Y-52680528D01*
X104561565Y-52680527D01*
X104447071Y-52666875D01*
X104405153Y-52661877D01*
X104398150Y-52662613D01*
X104398149Y-52662613D01*
X104354935Y-52667155D01*
X104241495Y-52679078D01*
X104085715Y-52732110D01*
X104084876Y-52729645D01*
X104026548Y-52738713D01*
X103961634Y-52709960D01*
X103922571Y-52650676D01*
X103920533Y-52643023D01*
X103919798Y-52636466D01*
X103865680Y-52481060D01*
X103863696Y-52477885D01*
X105042000Y-52477885D01*
X105046475Y-52493124D01*
X105047865Y-52494329D01*
X105055548Y-52496000D01*
X106027885Y-52496000D01*
X106043124Y-52491525D01*
X106044329Y-52490135D01*
X106046000Y-52482452D01*
X106046000Y-51260116D01*
X106041525Y-51244877D01*
X106040135Y-51243672D01*
X106032452Y-51242001D01*
X105505331Y-51242001D01*
X105498510Y-51242371D01*
X105447648Y-51247895D01*
X105432396Y-51251521D01*
X105311946Y-51296676D01*
X105296351Y-51305214D01*
X105194276Y-51381715D01*
X105181715Y-51394276D01*
X105105214Y-51496351D01*
X105096676Y-51511946D01*
X105051522Y-51632394D01*
X105047895Y-51647649D01*
X105042369Y-51698514D01*
X105042000Y-51705328D01*
X105042000Y-52477885D01*
X103863696Y-52477885D01*
X103848331Y-52453295D01*
X103782209Y-52347479D01*
X103778476Y-52341505D01*
X103770868Y-52333843D01*
X103726515Y-52289180D01*
X103692708Y-52226749D01*
X103698020Y-52155952D01*
X103729029Y-52109150D01*
X103750306Y-52088888D01*
X103765449Y-52074468D01*
X103769350Y-52068597D01*
X103852614Y-51943275D01*
X103852615Y-51943273D01*
X103856515Y-51937403D01*
X103914951Y-51783568D01*
X103926433Y-51701866D01*
X103937302Y-51624534D01*
X103937303Y-51624527D01*
X103937853Y-51620610D01*
X103938141Y-51600000D01*
X103919798Y-51436466D01*
X103865680Y-51281060D01*
X103846915Y-51251029D01*
X103782209Y-51147479D01*
X103778476Y-51141505D01*
X103726515Y-51089180D01*
X103692708Y-51026749D01*
X103698020Y-50955952D01*
X103729029Y-50909150D01*
X103760346Y-50879327D01*
X103765449Y-50874468D01*
X103769350Y-50868597D01*
X103852614Y-50743275D01*
X103852615Y-50743273D01*
X103856515Y-50737403D01*
X103914951Y-50583568D01*
X103923507Y-50522689D01*
X103937302Y-50424534D01*
X103937303Y-50424527D01*
X103937853Y-50420610D01*
X103938141Y-50400000D01*
X103919798Y-50236466D01*
X103865680Y-50081060D01*
X103836574Y-50034480D01*
X103782209Y-49947479D01*
X103778476Y-49941505D01*
X103726515Y-49889180D01*
X103692708Y-49826749D01*
X103698020Y-49755952D01*
X103729029Y-49709150D01*
X103760346Y-49679327D01*
X103765449Y-49674468D01*
X103778639Y-49654616D01*
X103852614Y-49543275D01*
X103852615Y-49543273D01*
X103856515Y-49537403D01*
X103914951Y-49383568D01*
X103926537Y-49301130D01*
X103937302Y-49224534D01*
X103937303Y-49224527D01*
X103937853Y-49220610D01*
X103938141Y-49200000D01*
X103919798Y-49036466D01*
X103865680Y-48881060D01*
X103835313Y-48832462D01*
X103782209Y-48747479D01*
X103778476Y-48741505D01*
X103726515Y-48689180D01*
X103692708Y-48626749D01*
X103698020Y-48555952D01*
X103729029Y-48509150D01*
X103760346Y-48479327D01*
X103765449Y-48474468D01*
X103769350Y-48468597D01*
X103852614Y-48343275D01*
X103852615Y-48343273D01*
X103856515Y-48337403D01*
X103914951Y-48183568D01*
X103937853Y-48020610D01*
X103938141Y-48000000D01*
X103919798Y-47836466D01*
X103865680Y-47681060D01*
X103844625Y-47647364D01*
X103782209Y-47547479D01*
X103778476Y-47541505D01*
X103769147Y-47532110D01*
X103726515Y-47489180D01*
X103692708Y-47426749D01*
X103698020Y-47355952D01*
X103729029Y-47309150D01*
X103760346Y-47279327D01*
X103765449Y-47274468D01*
X103769350Y-47268597D01*
X103852614Y-47143275D01*
X103852615Y-47143273D01*
X103856515Y-47137403D01*
X103914951Y-46983568D01*
X103937853Y-46820610D01*
X103938141Y-46800000D01*
X103919798Y-46636466D01*
X103865680Y-46481060D01*
X103816938Y-46403056D01*
X103782209Y-46347479D01*
X103778476Y-46341505D01*
X103726515Y-46289180D01*
X103692708Y-46226749D01*
X103698020Y-46155952D01*
X103729029Y-46109150D01*
X103760346Y-46079327D01*
X103765449Y-46074468D01*
X103856515Y-45937403D01*
X103914951Y-45783568D01*
X103932263Y-45660384D01*
X103937302Y-45624534D01*
X103937303Y-45624527D01*
X103937853Y-45620610D01*
X103938141Y-45600000D01*
X103919798Y-45436466D01*
X103865680Y-45281060D01*
X103812596Y-45196108D01*
X103800200Y-45176270D01*
X103781064Y-45107901D01*
X103801929Y-45040039D01*
X103856171Y-44994231D01*
X103907054Y-44983500D01*
X106162222Y-44983500D01*
X106230343Y-45003502D01*
G37*
G04 #@! TD.AperFunction*
G04 #@! TA.AperFunction,Conductor*
G36*
X113253140Y-50092675D02*
G01*
X113295331Y-50120524D01*
X114102787Y-50927981D01*
X114894517Y-51719711D01*
X114905385Y-51732102D01*
X114923843Y-51756157D01*
X114954443Y-51779637D01*
X114954446Y-51779640D01*
X115045733Y-51849686D01*
X115112433Y-51877314D01*
X115123714Y-51881987D01*
X115178995Y-51926536D01*
X115201416Y-51993899D01*
X115195329Y-52037334D01*
X115181648Y-52079438D01*
X115141573Y-52138043D01*
X115076176Y-52165679D01*
X115061815Y-52166500D01*
X112284500Y-52166500D01*
X112216379Y-52146498D01*
X112169886Y-52092842D01*
X112158500Y-52040500D01*
X112158500Y-51701866D01*
X112151745Y-51639684D01*
X112100615Y-51503295D01*
X112013261Y-51386739D01*
X111896705Y-51299385D01*
X111760316Y-51248255D01*
X111698134Y-51241500D01*
X110101866Y-51241500D01*
X110039684Y-51248255D01*
X109903295Y-51299385D01*
X109896110Y-51304770D01*
X109896108Y-51304771D01*
X109825565Y-51357640D01*
X109759058Y-51382488D01*
X109689676Y-51367435D01*
X109674435Y-51357640D01*
X109603892Y-51304771D01*
X109603890Y-51304770D01*
X109596705Y-51299385D01*
X109460316Y-51248255D01*
X109398134Y-51241500D01*
X109309500Y-51241500D01*
X109241379Y-51221498D01*
X109194886Y-51167842D01*
X109183500Y-51115500D01*
X109183500Y-50909500D01*
X109203502Y-50841379D01*
X109257158Y-50794886D01*
X109309500Y-50783500D01*
X111953497Y-50783500D01*
X111969944Y-50784578D01*
X112000000Y-50788535D01*
X112008188Y-50787457D01*
X112038244Y-50783500D01*
X112152324Y-50768481D01*
X112294267Y-50709686D01*
X112416157Y-50616157D01*
X112434619Y-50592097D01*
X112445486Y-50579707D01*
X112665241Y-50359952D01*
X112727553Y-50325926D01*
X112739580Y-50324078D01*
X112741402Y-50323704D01*
X112748424Y-50323065D01*
X112810282Y-50302966D01*
X112898230Y-50274390D01*
X112898233Y-50274389D01*
X112904929Y-50272213D01*
X113046279Y-50187951D01*
X113051374Y-50183099D01*
X113051382Y-50183093D01*
X113119345Y-50118373D01*
X113182470Y-50085881D01*
X113253140Y-50092675D01*
G37*
G04 #@! TD.AperFunction*
G04 #@! TA.AperFunction,Conductor*
G36*
X111792012Y-45726832D02*
G01*
X111798595Y-45732961D01*
X112379595Y-46313961D01*
X112413621Y-46376273D01*
X112416500Y-46403056D01*
X112416500Y-48797380D01*
X112396498Y-48865501D01*
X112342842Y-48911994D01*
X112331105Y-48916658D01*
X112292384Y-48929839D01*
X112292379Y-48929841D01*
X112285715Y-48932110D01*
X112145555Y-49018337D01*
X112027982Y-49133473D01*
X111982555Y-49203962D01*
X111961659Y-49236386D01*
X111907944Y-49282810D01*
X111837657Y-49292825D01*
X111773114Y-49263249D01*
X111734807Y-49203474D01*
X111730533Y-49182174D01*
X111725735Y-49139392D01*
X111719798Y-49086466D01*
X111713998Y-49069809D01*
X111667998Y-48937717D01*
X111665680Y-48931060D01*
X111634437Y-48881060D01*
X111602646Y-48830185D01*
X111583500Y-48763415D01*
X111583500Y-45822056D01*
X111603502Y-45753935D01*
X111657158Y-45707442D01*
X111727432Y-45697338D01*
X111792012Y-45726832D01*
G37*
G04 #@! TD.AperFunction*
G04 #@! TA.AperFunction,Conductor*
G36*
X116760189Y-44908528D02*
G01*
X116816235Y-44952109D01*
X116840000Y-45025757D01*
X116840000Y-47492467D01*
X116819998Y-47560588D01*
X116766342Y-47607081D01*
X116696068Y-47617185D01*
X116639939Y-47594403D01*
X116552663Y-47530993D01*
X116552662Y-47530992D01*
X116547321Y-47527112D01*
X116541293Y-47524428D01*
X116541291Y-47524427D01*
X116374087Y-47449983D01*
X116374086Y-47449983D01*
X116368056Y-47447298D01*
X116271380Y-47426749D01*
X116182572Y-47407872D01*
X116182568Y-47407872D01*
X116176115Y-47406500D01*
X115979885Y-47406500D01*
X115973432Y-47407872D01*
X115973428Y-47407872D01*
X115884620Y-47426749D01*
X115787944Y-47447298D01*
X115781914Y-47449983D01*
X115781913Y-47449983D01*
X115614709Y-47524427D01*
X115614707Y-47524428D01*
X115608679Y-47527112D01*
X115603338Y-47530992D01*
X115603337Y-47530993D01*
X115476335Y-47623266D01*
X115449926Y-47642453D01*
X115445505Y-47647363D01*
X115445504Y-47647364D01*
X115372408Y-47728546D01*
X115318623Y-47788280D01*
X115220508Y-47958220D01*
X115159870Y-48144845D01*
X115139358Y-48340000D01*
X115140048Y-48346565D01*
X115143866Y-48382890D01*
X115131094Y-48452729D01*
X115107651Y-48485156D01*
X114813212Y-48779595D01*
X114750900Y-48813621D01*
X114724117Y-48816500D01*
X114717469Y-48816500D01*
X114649348Y-48796498D01*
X114628374Y-48779595D01*
X114219445Y-48370666D01*
X114185419Y-48308354D01*
X114182540Y-48281571D01*
X114182540Y-45907545D01*
X114183618Y-45891098D01*
X114186497Y-45869230D01*
X114187575Y-45861042D01*
X114170393Y-45730532D01*
X114181332Y-45660384D01*
X114228460Y-45607285D01*
X114296814Y-45588095D01*
X114319893Y-45590507D01*
X114439742Y-45614346D01*
X114443514Y-45614633D01*
X114443522Y-45614634D01*
X114761602Y-45638829D01*
X114761607Y-45638829D01*
X114765379Y-45639116D01*
X115091633Y-45624586D01*
X115151425Y-45614634D01*
X115410037Y-45571590D01*
X115410042Y-45571589D01*
X115413778Y-45570967D01*
X115727149Y-45479034D01*
X115730616Y-45477544D01*
X115730620Y-45477543D01*
X116023721Y-45351616D01*
X116023723Y-45351615D01*
X116027205Y-45350119D01*
X116309601Y-45186091D01*
X116570245Y-44989324D01*
X116626552Y-44935044D01*
X116689478Y-44902166D01*
X116760189Y-44908528D01*
G37*
G04 #@! TD.AperFunction*
G04 #@! TA.AperFunction,Conductor*
G36*
X112771805Y-40914002D02*
G01*
X112818298Y-40967658D01*
X112828402Y-41037932D01*
X112798908Y-41102512D01*
X112796724Y-41104839D01*
X112796755Y-41104867D01*
X112794220Y-41107682D01*
X112791513Y-41110347D01*
X112789149Y-41113314D01*
X112789146Y-41113317D01*
X112772220Y-41134558D01*
X112587991Y-41365751D01*
X112416626Y-41643757D01*
X112279902Y-41940336D01*
X112278741Y-41943940D01*
X112278741Y-41943941D01*
X112270196Y-41970477D01*
X112179797Y-42251192D01*
X112179079Y-42254903D01*
X112179078Y-42254907D01*
X112118482Y-42568105D01*
X112118481Y-42568114D01*
X112117763Y-42571824D01*
X112117496Y-42575600D01*
X112117495Y-42575605D01*
X112096159Y-42876950D01*
X112094698Y-42897585D01*
X112110936Y-43223759D01*
X112111578Y-43227496D01*
X112111995Y-43231271D01*
X112110102Y-43231480D01*
X112102879Y-43294471D01*
X112057942Y-43349436D01*
X111990422Y-43371380D01*
X111921756Y-43353337D01*
X111897722Y-43334531D01*
X111158477Y-42595286D01*
X111147616Y-42582902D01*
X111134178Y-42565389D01*
X111129155Y-42558843D01*
X111007265Y-42465314D01*
X110865322Y-42406519D01*
X110851787Y-42404737D01*
X110813823Y-42399739D01*
X110721186Y-42387543D01*
X110712998Y-42386465D01*
X110704810Y-42387543D01*
X110682942Y-42390422D01*
X110666495Y-42391500D01*
X100086146Y-42391500D01*
X100018632Y-42371885D01*
X99929534Y-42315341D01*
X99929530Y-42315339D01*
X99923580Y-42311563D01*
X99841886Y-42282473D01*
X99775189Y-42258723D01*
X99775187Y-42258722D01*
X99768555Y-42256361D01*
X99761569Y-42255528D01*
X99761565Y-42255527D01*
X99647071Y-42241875D01*
X99605153Y-42236877D01*
X99598150Y-42237613D01*
X99598149Y-42237613D01*
X99554935Y-42242155D01*
X99441495Y-42254078D01*
X99434827Y-42256348D01*
X99292382Y-42304840D01*
X99292379Y-42304841D01*
X99285715Y-42307110D01*
X99145555Y-42393337D01*
X99133914Y-42404737D01*
X99072055Y-42465314D01*
X99027982Y-42508473D01*
X98938838Y-42646797D01*
X98918615Y-42702358D01*
X98876524Y-42759526D01*
X98810202Y-42784865D01*
X98740711Y-42770325D01*
X98690111Y-42720523D01*
X98681225Y-42700699D01*
X98679384Y-42695412D01*
X98665680Y-42656060D01*
X98578476Y-42516505D01*
X98520499Y-42458122D01*
X98467486Y-42404737D01*
X98467482Y-42404734D01*
X98462522Y-42399739D01*
X98323580Y-42311563D01*
X98241886Y-42282473D01*
X98175189Y-42258723D01*
X98175187Y-42258722D01*
X98168555Y-42256361D01*
X98161569Y-42255528D01*
X98161565Y-42255527D01*
X98047071Y-42241875D01*
X98005153Y-42236877D01*
X97998150Y-42237613D01*
X97998149Y-42237613D01*
X97954935Y-42242155D01*
X97841495Y-42254078D01*
X97834827Y-42256348D01*
X97692382Y-42304840D01*
X97692379Y-42304841D01*
X97685715Y-42307110D01*
X97545555Y-42393337D01*
X97533914Y-42404737D01*
X97472055Y-42465314D01*
X97427982Y-42508473D01*
X97338838Y-42646797D01*
X97318615Y-42702358D01*
X97276524Y-42759526D01*
X97210202Y-42784865D01*
X97140711Y-42770325D01*
X97090111Y-42720523D01*
X97081225Y-42700699D01*
X97079384Y-42695412D01*
X97065680Y-42656060D01*
X96978476Y-42516505D01*
X96920499Y-42458122D01*
X96867486Y-42404737D01*
X96867482Y-42404734D01*
X96862522Y-42399739D01*
X96723580Y-42311563D01*
X96641886Y-42282473D01*
X96575189Y-42258723D01*
X96575187Y-42258722D01*
X96568555Y-42256361D01*
X96561569Y-42255528D01*
X96561565Y-42255527D01*
X96447071Y-42241875D01*
X96405153Y-42236877D01*
X96398150Y-42237613D01*
X96398149Y-42237613D01*
X96354935Y-42242155D01*
X96241495Y-42254078D01*
X96234827Y-42256348D01*
X96092382Y-42304840D01*
X96092379Y-42304841D01*
X96085715Y-42307110D01*
X95945555Y-42393337D01*
X95933914Y-42404737D01*
X95872055Y-42465314D01*
X95827982Y-42508473D01*
X95738838Y-42646797D01*
X95718615Y-42702358D01*
X95676524Y-42759526D01*
X95610202Y-42784865D01*
X95540711Y-42770325D01*
X95490111Y-42720523D01*
X95481225Y-42700699D01*
X95479384Y-42695412D01*
X95465680Y-42656060D01*
X95378476Y-42516505D01*
X95320499Y-42458122D01*
X95267486Y-42404737D01*
X95267482Y-42404734D01*
X95262522Y-42399739D01*
X95123580Y-42311563D01*
X95041886Y-42282473D01*
X94975189Y-42258723D01*
X94975187Y-42258722D01*
X94968555Y-42256361D01*
X94961569Y-42255528D01*
X94961565Y-42255527D01*
X94847071Y-42241875D01*
X94805153Y-42236877D01*
X94798150Y-42237613D01*
X94798149Y-42237613D01*
X94754935Y-42242155D01*
X94641495Y-42254078D01*
X94634827Y-42256348D01*
X94492382Y-42304840D01*
X94492379Y-42304841D01*
X94485715Y-42307110D01*
X94345555Y-42393337D01*
X94333914Y-42404737D01*
X94272055Y-42465314D01*
X94227982Y-42508473D01*
X94138838Y-42646797D01*
X94136427Y-42653420D01*
X94136426Y-42653423D01*
X94084966Y-42794809D01*
X94084965Y-42794814D01*
X94082556Y-42801432D01*
X94061931Y-42964694D01*
X94077989Y-43128468D01*
X94129932Y-43284615D01*
X94215179Y-43425373D01*
X94329491Y-43543747D01*
X94467189Y-43633854D01*
X94473793Y-43636310D01*
X94614826Y-43688760D01*
X94614828Y-43688761D01*
X94621428Y-43691215D01*
X94628411Y-43692147D01*
X94628412Y-43692147D01*
X94637411Y-43693348D01*
X94659465Y-43696290D01*
X94724341Y-43725125D01*
X94731895Y-43732088D01*
X95779514Y-44779707D01*
X95790381Y-44792097D01*
X95808843Y-44816157D01*
X95815397Y-44821186D01*
X95849919Y-44847676D01*
X95920932Y-44902166D01*
X95930732Y-44909686D01*
X95972307Y-44926906D01*
X96072676Y-44968481D01*
X96186756Y-44983500D01*
X96186758Y-44983500D01*
X96225000Y-44988535D01*
X96233188Y-44987457D01*
X96255056Y-44984578D01*
X96271503Y-44983500D01*
X96287117Y-44983500D01*
X96355238Y-45003502D01*
X96401731Y-45057158D01*
X96411835Y-45127432D01*
X96382341Y-45192012D01*
X96376212Y-45198595D01*
X95789095Y-45785712D01*
X95726783Y-45819738D01*
X95655968Y-45814673D01*
X95610905Y-45785712D01*
X93645486Y-43820293D01*
X93634618Y-43807902D01*
X93621180Y-43790389D01*
X93616157Y-43783843D01*
X93494267Y-43690314D01*
X93372380Y-43639826D01*
X93359953Y-43634679D01*
X93352324Y-43631519D01*
X93238244Y-43616500D01*
X93200000Y-43611465D01*
X93191812Y-43612543D01*
X93169944Y-43615422D01*
X93153497Y-43616500D01*
X88416305Y-43616500D01*
X88399860Y-43615422D01*
X88369804Y-43611465D01*
X88331561Y-43616500D01*
X88331560Y-43616500D01*
X88217480Y-43631519D01*
X88134331Y-43665961D01*
X88075536Y-43690314D01*
X88068988Y-43695338D01*
X88068982Y-43695342D01*
X88045999Y-43712978D01*
X87960197Y-43778816D01*
X87960193Y-43778820D01*
X87953647Y-43783843D01*
X87948624Y-43790389D01*
X87935186Y-43807902D01*
X87924318Y-43820293D01*
X84168986Y-47575625D01*
X84106674Y-47609651D01*
X84035859Y-47604586D01*
X84012377Y-47592915D01*
X83929536Y-47540342D01*
X83929530Y-47540339D01*
X83923580Y-47536563D01*
X83806063Y-47494717D01*
X83775189Y-47483723D01*
X83775187Y-47483722D01*
X83768555Y-47481361D01*
X83761569Y-47480528D01*
X83761565Y-47480527D01*
X83647071Y-47466875D01*
X83605153Y-47461877D01*
X83598150Y-47462613D01*
X83598149Y-47462613D01*
X83556477Y-47466993D01*
X83441495Y-47479078D01*
X83434827Y-47481348D01*
X83292382Y-47529840D01*
X83292379Y-47529841D01*
X83285715Y-47532110D01*
X83145555Y-47618337D01*
X83087607Y-47675084D01*
X83037370Y-47724280D01*
X83027982Y-47733473D01*
X83023076Y-47741086D01*
X83022096Y-47741933D01*
X83019717Y-47744850D01*
X83019204Y-47744432D01*
X82969364Y-47787510D01*
X82899078Y-47797526D01*
X82834534Y-47767953D01*
X82808046Y-47735831D01*
X82807824Y-47735447D01*
X82801377Y-47724280D01*
X82776549Y-47696705D01*
X82674496Y-47583364D01*
X82674495Y-47583363D01*
X82670074Y-47578453D01*
X82655295Y-47567715D01*
X82516663Y-47466993D01*
X82516662Y-47466992D01*
X82511321Y-47463112D01*
X82505293Y-47460428D01*
X82505291Y-47460427D01*
X82338087Y-47385983D01*
X82338086Y-47385983D01*
X82332056Y-47383298D01*
X82236085Y-47362899D01*
X82146572Y-47343872D01*
X82146568Y-47343872D01*
X82140115Y-47342500D01*
X81943885Y-47342500D01*
X81937432Y-47343872D01*
X81937428Y-47343872D01*
X81847915Y-47362899D01*
X81751944Y-47383298D01*
X81745914Y-47385983D01*
X81745913Y-47385983D01*
X81578709Y-47460427D01*
X81578707Y-47460428D01*
X81572679Y-47463112D01*
X81567338Y-47466992D01*
X81567337Y-47466993D01*
X81480061Y-47530403D01*
X81413193Y-47554262D01*
X81344042Y-47538181D01*
X81294561Y-47487267D01*
X81280000Y-47428467D01*
X81280000Y-45030375D01*
X81300002Y-44962254D01*
X81353658Y-44915761D01*
X81423932Y-44905657D01*
X81484719Y-44934312D01*
X81485814Y-44932953D01*
X81737196Y-45135431D01*
X81737201Y-45135435D01*
X81740149Y-45137809D01*
X82017253Y-45310627D01*
X82313112Y-45448903D01*
X82623440Y-45550634D01*
X82943742Y-45614346D01*
X82947514Y-45614633D01*
X82947522Y-45614634D01*
X83265602Y-45638829D01*
X83265607Y-45638829D01*
X83269379Y-45639116D01*
X83595633Y-45624586D01*
X83655425Y-45614634D01*
X83914037Y-45571590D01*
X83914042Y-45571589D01*
X83917778Y-45570967D01*
X84231149Y-45479034D01*
X84234616Y-45477544D01*
X84234620Y-45477543D01*
X84527721Y-45351616D01*
X84527723Y-45351615D01*
X84531205Y-45350119D01*
X84813601Y-45186091D01*
X85074245Y-44989324D01*
X85309363Y-44762670D01*
X85515549Y-44509410D01*
X85689815Y-44233215D01*
X85829638Y-43938084D01*
X85881097Y-43783843D01*
X85931790Y-43631897D01*
X85931792Y-43631891D01*
X85932992Y-43628293D01*
X85998381Y-43308329D01*
X85999509Y-43294471D01*
X86024674Y-42985061D01*
X86024856Y-42982826D01*
X86025451Y-42926000D01*
X86023510Y-42893796D01*
X86006026Y-42603793D01*
X86006026Y-42603789D01*
X86005798Y-42600015D01*
X86003869Y-42589448D01*
X85947805Y-42282473D01*
X85947804Y-42282469D01*
X85947125Y-42278751D01*
X85939722Y-42254907D01*
X85851404Y-41970477D01*
X85850282Y-41966863D01*
X85716670Y-41668869D01*
X85548226Y-41389084D01*
X85545899Y-41386100D01*
X85545894Y-41386093D01*
X85349726Y-41134558D01*
X85349724Y-41134556D01*
X85347390Y-41131563D01*
X85344716Y-41128875D01*
X85344709Y-41128867D01*
X85324807Y-41108861D01*
X85290946Y-41046460D01*
X85296196Y-40975657D01*
X85338892Y-40918934D01*
X85405478Y-40894298D01*
X85414136Y-40894000D01*
X112703684Y-40894000D01*
X112771805Y-40914002D01*
G37*
G04 #@! TD.AperFunction*
M02*
