G04 #@! TF.GenerationSoftware,KiCad,Pcbnew,(6.0.0)*
G04 #@! TF.CreationDate,2022-01-23T21:03:46+07:00*
G04 #@! TF.ProjectId,rgb-board,7267622d-626f-4617-9264-2e6b69636164,rev?*
G04 #@! TF.SameCoordinates,Original*
G04 #@! TF.FileFunction,Soldermask,Bot*
G04 #@! TF.FilePolarity,Negative*
%FSLAX46Y46*%
G04 Gerber Fmt 4.6, Leading zero omitted, Abs format (unit mm)*
G04 Created by KiCad (PCBNEW (6.0.0)) date 2022-01-23 21:03:46*
%MOMM*%
%LPD*%
G01*
G04 APERTURE LIST*
G04 Aperture macros list*
%AMRoundRect*
0 Rectangle with rounded corners*
0 $1 Rounding radius*
0 $2 $3 $4 $5 $6 $7 $8 $9 X,Y pos of 4 corners*
0 Add a 4 corners polygon primitive as box body*
4,1,4,$2,$3,$4,$5,$6,$7,$8,$9,$2,$3,0*
0 Add four circle primitives for the rounded corners*
1,1,$1+$1,$2,$3*
1,1,$1+$1,$4,$5*
1,1,$1+$1,$6,$7*
1,1,$1+$1,$8,$9*
0 Add four rect primitives between the rounded corners*
20,1,$1+$1,$2,$3,$4,$5,0*
20,1,$1+$1,$4,$5,$6,$7,0*
20,1,$1+$1,$6,$7,$8,$9,0*
20,1,$1+$1,$8,$9,$2,$3,0*%
G04 Aperture macros list end*
%ADD10RoundRect,0.051000X0.425000X0.425000X-0.425000X0.425000X-0.425000X-0.425000X0.425000X-0.425000X0*%
%ADD11O,0.952000X0.952000*%
%ADD12C,4.502000*%
%ADD13RoundRect,0.294750X0.456250X-0.243750X0.456250X0.243750X-0.456250X0.243750X-0.456250X-0.243750X0*%
%ADD14RoundRect,0.301000X0.475000X-0.250000X0.475000X0.250000X-0.475000X0.250000X-0.475000X-0.250000X0*%
%ADD15RoundRect,0.251000X-0.275000X0.200000X-0.275000X-0.200000X0.275000X-0.200000X0.275000X0.200000X0*%
%ADD16RoundRect,0.301000X-0.475000X0.250000X-0.475000X-0.250000X0.475000X-0.250000X0.475000X0.250000X0*%
%ADD17RoundRect,0.251000X-0.200000X-0.275000X0.200000X-0.275000X0.200000X0.275000X-0.200000X0.275000X0*%
G04 APERTURE END LIST*
D10*
X82042000Y-53276000D03*
D11*
X82042000Y-52276000D03*
X82042000Y-51276000D03*
X82042000Y-50276000D03*
X82042000Y-49276000D03*
X82042000Y-48276000D03*
D12*
X83312000Y-42926000D03*
X114808000Y-42926000D03*
D10*
X116078000Y-53340000D03*
D11*
X116078000Y-52340000D03*
X116078000Y-51340000D03*
X116078000Y-50340000D03*
X116078000Y-49340000D03*
X116078000Y-48340000D03*
D13*
X103936000Y-43937500D03*
X103936000Y-42062500D03*
X105968000Y-43937500D03*
X105968000Y-42062500D03*
X108000000Y-43952500D03*
X108000000Y-42077500D03*
X110032000Y-43952500D03*
X110032000Y-42077500D03*
D14*
X105640000Y-47750000D03*
X105640000Y-45850000D03*
D15*
X99600000Y-42975000D03*
X99600000Y-44625000D03*
D14*
X107640000Y-47750000D03*
X107640000Y-45850000D03*
X109640000Y-47750000D03*
X109640000Y-45850000D03*
D15*
X94800000Y-42975000D03*
X94800000Y-44625000D03*
X96400000Y-42975000D03*
X96400000Y-44625000D03*
D16*
X111000000Y-49250000D03*
X111000000Y-51150000D03*
X106600000Y-49250000D03*
X106600000Y-51150000D03*
X108800000Y-49250000D03*
X108800000Y-51150000D03*
D14*
X111640000Y-47750000D03*
X111640000Y-45850000D03*
D17*
X85391637Y-49216637D03*
X87041637Y-49216637D03*
D15*
X98000000Y-42975000D03*
X98000000Y-44625000D03*
G36*
X115716944Y-52639648D02*
G01*
X115762078Y-52693341D01*
X115873947Y-52767808D01*
X116002218Y-52807882D01*
X116136584Y-52810345D01*
X116266243Y-52774995D01*
X116380761Y-52704681D01*
X116435929Y-52643734D01*
X116437833Y-52643121D01*
X116439316Y-52644463D01*
X116438999Y-52646294D01*
X116422854Y-52667334D01*
X116397773Y-52732208D01*
X116411689Y-52800054D01*
X116460171Y-52849703D01*
X116493778Y-52862124D01*
X116495056Y-52863662D01*
X116494363Y-52865538D01*
X116493085Y-52866000D01*
X115662098Y-52866000D01*
X115660366Y-52865000D01*
X115660366Y-52863000D01*
X115661171Y-52862228D01*
X115721086Y-52830887D01*
X115755359Y-52770703D01*
X115751645Y-52701408D01*
X115733227Y-52667437D01*
X115713826Y-52642153D01*
X115713565Y-52640170D01*
X115715152Y-52638952D01*
X115716944Y-52639648D01*
G37*
G36*
X81680944Y-52575648D02*
G01*
X81726078Y-52629341D01*
X81837947Y-52703808D01*
X81966218Y-52743882D01*
X82100584Y-52746345D01*
X82230243Y-52710995D01*
X82344761Y-52640681D01*
X82399929Y-52579734D01*
X82401833Y-52579121D01*
X82403316Y-52580463D01*
X82402999Y-52582294D01*
X82386854Y-52603334D01*
X82361773Y-52668208D01*
X82375689Y-52736054D01*
X82424171Y-52785703D01*
X82457778Y-52798124D01*
X82459056Y-52799662D01*
X82458363Y-52801538D01*
X82457085Y-52802000D01*
X81626098Y-52802000D01*
X81624366Y-52801000D01*
X81624366Y-52799000D01*
X81625171Y-52798228D01*
X81685086Y-52766887D01*
X81719359Y-52706703D01*
X81715645Y-52637408D01*
X81697227Y-52603437D01*
X81677826Y-52578153D01*
X81677565Y-52576170D01*
X81679152Y-52574952D01*
X81680944Y-52575648D01*
G37*
G36*
X115808980Y-51724561D02*
G01*
X115873947Y-51767808D01*
X116002218Y-51807882D01*
X116136584Y-51810345D01*
X116266243Y-51774995D01*
X116341626Y-51728710D01*
X116343625Y-51728656D01*
X116344671Y-51730360D01*
X116343890Y-51732001D01*
X116330538Y-51742246D01*
X116289521Y-51798420D01*
X116285404Y-51867555D01*
X116319433Y-51928149D01*
X116330361Y-51937617D01*
X116347676Y-51950904D01*
X116348441Y-51952752D01*
X116347223Y-51954339D01*
X116345370Y-51954169D01*
X116276812Y-51909732D01*
X116148059Y-51871226D01*
X116013673Y-51870406D01*
X115884458Y-51907336D01*
X115812454Y-51952767D01*
X115810456Y-51952846D01*
X115809389Y-51951155D01*
X115810169Y-51949489D01*
X115825463Y-51937754D01*
X115866479Y-51881581D01*
X115870598Y-51812446D01*
X115836569Y-51751852D01*
X115825640Y-51742382D01*
X115806654Y-51727813D01*
X115805889Y-51725965D01*
X115807107Y-51724378D01*
X115808980Y-51724561D01*
G37*
G36*
X81772980Y-51660561D02*
G01*
X81837947Y-51703808D01*
X81966218Y-51743882D01*
X82100584Y-51746345D01*
X82230243Y-51710995D01*
X82305626Y-51664710D01*
X82307625Y-51664656D01*
X82308671Y-51666360D01*
X82307890Y-51668001D01*
X82294538Y-51678246D01*
X82253521Y-51734420D01*
X82249404Y-51803555D01*
X82283433Y-51864149D01*
X82294361Y-51873617D01*
X82311676Y-51886904D01*
X82312441Y-51888752D01*
X82311223Y-51890339D01*
X82309370Y-51890169D01*
X82240812Y-51845732D01*
X82112059Y-51807226D01*
X81977673Y-51806406D01*
X81848458Y-51843336D01*
X81776454Y-51888767D01*
X81774456Y-51888846D01*
X81773389Y-51887155D01*
X81774169Y-51885489D01*
X81789463Y-51873754D01*
X81830479Y-51817581D01*
X81834598Y-51748446D01*
X81800569Y-51687852D01*
X81789640Y-51678382D01*
X81770654Y-51663813D01*
X81769889Y-51661965D01*
X81771107Y-51660378D01*
X81772980Y-51660561D01*
G37*
G36*
X115808980Y-50724561D02*
G01*
X115873947Y-50767808D01*
X116002218Y-50807882D01*
X116136584Y-50810345D01*
X116266243Y-50774995D01*
X116341626Y-50728710D01*
X116343625Y-50728656D01*
X116344671Y-50730360D01*
X116343890Y-50732001D01*
X116330538Y-50742246D01*
X116289521Y-50798420D01*
X116285404Y-50867555D01*
X116319433Y-50928149D01*
X116330361Y-50937617D01*
X116347676Y-50950904D01*
X116348441Y-50952752D01*
X116347223Y-50954339D01*
X116345370Y-50954169D01*
X116276812Y-50909732D01*
X116148059Y-50871226D01*
X116013673Y-50870406D01*
X115884458Y-50907336D01*
X115812454Y-50952767D01*
X115810456Y-50952846D01*
X115809389Y-50951155D01*
X115810169Y-50949489D01*
X115825463Y-50937754D01*
X115866479Y-50881581D01*
X115870598Y-50812446D01*
X115836569Y-50751852D01*
X115825640Y-50742382D01*
X115806654Y-50727813D01*
X115805889Y-50725965D01*
X115807107Y-50724378D01*
X115808980Y-50724561D01*
G37*
G36*
X81772980Y-50660561D02*
G01*
X81837947Y-50703808D01*
X81966218Y-50743882D01*
X82100584Y-50746345D01*
X82230243Y-50710995D01*
X82305626Y-50664710D01*
X82307625Y-50664656D01*
X82308671Y-50666360D01*
X82307890Y-50668001D01*
X82294538Y-50678246D01*
X82253521Y-50734420D01*
X82249404Y-50803555D01*
X82283433Y-50864149D01*
X82294361Y-50873617D01*
X82311676Y-50886904D01*
X82312441Y-50888752D01*
X82311223Y-50890339D01*
X82309370Y-50890169D01*
X82240812Y-50845732D01*
X82112059Y-50807226D01*
X81977673Y-50806406D01*
X81848458Y-50843336D01*
X81776454Y-50888767D01*
X81774456Y-50888846D01*
X81773389Y-50887155D01*
X81774169Y-50885489D01*
X81789463Y-50873754D01*
X81830479Y-50817581D01*
X81834598Y-50748446D01*
X81800569Y-50687852D01*
X81789640Y-50678382D01*
X81770654Y-50663813D01*
X81769889Y-50661965D01*
X81771107Y-50660378D01*
X81772980Y-50660561D01*
G37*
G36*
X115808980Y-49724561D02*
G01*
X115873947Y-49767808D01*
X116002218Y-49807882D01*
X116136584Y-49810345D01*
X116266243Y-49774995D01*
X116341626Y-49728710D01*
X116343625Y-49728656D01*
X116344671Y-49730360D01*
X116343890Y-49732001D01*
X116330538Y-49742246D01*
X116289521Y-49798420D01*
X116285404Y-49867555D01*
X116319433Y-49928149D01*
X116330361Y-49937617D01*
X116347676Y-49950904D01*
X116348441Y-49952752D01*
X116347223Y-49954339D01*
X116345370Y-49954169D01*
X116276812Y-49909732D01*
X116148059Y-49871226D01*
X116013673Y-49870406D01*
X115884458Y-49907336D01*
X115812454Y-49952767D01*
X115810456Y-49952846D01*
X115809389Y-49951155D01*
X115810169Y-49949489D01*
X115825463Y-49937754D01*
X115866479Y-49881581D01*
X115870598Y-49812446D01*
X115836569Y-49751852D01*
X115825640Y-49742382D01*
X115806654Y-49727813D01*
X115805889Y-49725965D01*
X115807107Y-49724378D01*
X115808980Y-49724561D01*
G37*
G36*
X81772980Y-49660561D02*
G01*
X81837947Y-49703808D01*
X81966218Y-49743882D01*
X82100584Y-49746345D01*
X82230243Y-49710995D01*
X82305626Y-49664710D01*
X82307625Y-49664656D01*
X82308671Y-49666360D01*
X82307890Y-49668001D01*
X82294538Y-49678246D01*
X82253521Y-49734420D01*
X82249404Y-49803555D01*
X82283433Y-49864149D01*
X82294361Y-49873617D01*
X82311676Y-49886904D01*
X82312441Y-49888752D01*
X82311223Y-49890339D01*
X82309370Y-49890169D01*
X82240812Y-49845732D01*
X82112059Y-49807226D01*
X81977673Y-49806406D01*
X81848458Y-49843336D01*
X81776454Y-49888767D01*
X81774456Y-49888846D01*
X81773389Y-49887155D01*
X81774169Y-49885489D01*
X81789463Y-49873754D01*
X81830479Y-49817581D01*
X81834598Y-49748446D01*
X81800569Y-49687852D01*
X81789640Y-49678382D01*
X81770654Y-49663813D01*
X81769889Y-49661965D01*
X81771107Y-49660378D01*
X81772980Y-49660561D01*
G37*
G36*
X115808980Y-48724561D02*
G01*
X115873947Y-48767808D01*
X116002218Y-48807882D01*
X116136584Y-48810345D01*
X116266243Y-48774995D01*
X116341626Y-48728710D01*
X116343625Y-48728656D01*
X116344671Y-48730360D01*
X116343890Y-48732001D01*
X116330538Y-48742246D01*
X116289521Y-48798420D01*
X116285404Y-48867555D01*
X116319433Y-48928149D01*
X116330361Y-48937617D01*
X116347676Y-48950904D01*
X116348441Y-48952752D01*
X116347223Y-48954339D01*
X116345370Y-48954169D01*
X116276812Y-48909732D01*
X116148059Y-48871226D01*
X116013673Y-48870406D01*
X115884458Y-48907336D01*
X115812454Y-48952767D01*
X115810456Y-48952846D01*
X115809389Y-48951155D01*
X115810169Y-48949489D01*
X115825463Y-48937754D01*
X115866479Y-48881581D01*
X115870598Y-48812446D01*
X115836569Y-48751852D01*
X115825640Y-48742382D01*
X115806654Y-48727813D01*
X115805889Y-48725965D01*
X115807107Y-48724378D01*
X115808980Y-48724561D01*
G37*
G36*
X81772980Y-48660561D02*
G01*
X81837947Y-48703808D01*
X81966218Y-48743882D01*
X82100584Y-48746345D01*
X82230243Y-48710995D01*
X82305626Y-48664710D01*
X82307625Y-48664656D01*
X82308671Y-48666360D01*
X82307890Y-48668001D01*
X82294538Y-48678246D01*
X82253521Y-48734420D01*
X82249404Y-48803555D01*
X82283433Y-48864149D01*
X82294361Y-48873617D01*
X82311676Y-48886904D01*
X82312441Y-48888752D01*
X82311223Y-48890339D01*
X82309370Y-48890169D01*
X82240812Y-48845732D01*
X82112059Y-48807226D01*
X81977673Y-48806406D01*
X81848458Y-48843336D01*
X81776454Y-48888767D01*
X81774456Y-48888846D01*
X81773389Y-48887155D01*
X81774169Y-48885489D01*
X81789463Y-48873754D01*
X81830479Y-48817581D01*
X81834598Y-48748446D01*
X81800569Y-48687852D01*
X81789640Y-48678382D01*
X81770654Y-48663813D01*
X81769889Y-48661965D01*
X81771107Y-48660378D01*
X81772980Y-48660561D01*
G37*
M02*
